<svg xmlns="http://www.w3.org/2000/svg" width="196" height="196" viewBox="0 0 196 196">
  <g id="Foods" transform="translate(-1356 -2273)">
    <rect id="Container" width="196" height="196" transform="translate(1356 2273)" fill="none"/>
    <g id="Foods-2" data-name="Foods">
      <path id="Path_11493" data-name="Path 11493" d="M120.437,98.978c7,6.849,10.485,14.987,2.357,22.81" transform="translate(1366.706 2281.799)" fill="none" stroke="#0f111c" stroke-linecap="round" stroke-linejoin="round" stroke-width="2"/>
      <path id="Path_11494" data-name="Path 11494" d="M34.738,123.832a35.914,35.914,0,0,1,15.55-38.347C60.213,79.026,71.8,77.68,83.148,79.3" transform="translate(1359.007 2279.992)" fill="none" stroke="#0f111c" stroke-linecap="round" stroke-linejoin="round" stroke-width="2"/>
      <path id="Path_11495" data-name="Path 11495" d="M112.93,73.393c-.893-2.38,4.642-4.391,4.642-4.391a3.031,3.031,0,0,0,.689-3.058,4.118,4.118,0,0,1-.221-1.516,4.587,4.587,0,0,1,9.174,0h0a1.549,1.549,0,0,0,1.516,1.516,4.587,4.587,0,0,1,0,9.174,4.745,4.745,0,0,1-1.516-.248,3.047,3.047,0,0,0-3.058.716s-2.312,5.234-4.7,4.336A13.914,13.914,0,0,1,112.93,73.393Z" transform="translate(1366.03 2278.318)" fill="none" stroke="#0f111c" stroke-linecap="round" stroke-linejoin="round" stroke-width="2"/>
      <path id="Path_11496" data-name="Path 11496" d="M120.083,85.174c-6.171,6.116,1.388,12.257-6.38,21.6a18.076,18.076,0,0,1-7.521,5.537,18.345,18.345,0,0,1-18.265-31.35c9.311-7.769,15.251-.411,21.366-6.527" transform="translate(1363.205 2279.615)" fill="none" stroke="#0f111c" stroke-linecap="round" stroke-linejoin="round" stroke-width="2"/>
      <path id="Path_11497" data-name="Path 11497" d="M88.769,94.457a5.937,5.937,0,0,1,3.789-7.493l.16-.05" transform="translate(1363.864 2280.727)" fill="none" stroke="#0f111c" stroke-linecap="round" stroke-linejoin="round" stroke-width="2"/>
      <path id="Path_11498" data-name="Path 11498" d="M65.838,42.669a11.969,11.969,0,0,0-.959,5.182,31.84,31.84,0,0,0,.817,7.362,12.077,12.077,0,0,0,1.887,4.573,5.449,5.449,0,0,0,4.2,2.337,3.569,3.569,0,0,0,3.548-2.865c.269-2.148-2.1-3.958-4.249-3.711s-3.875,1.977-4.851,3.91a11.293,11.293,0,0,0-1.139,6.255,17.049,17.049,0,0,0,1.727,6.054" transform="translate(1361.767 2276.793)" fill="none" stroke="#0f111c" stroke-linecap="round" stroke-linejoin="round" stroke-width="2"/>
      <path id="Path_11499" data-name="Path 11499" d="M79.887,42.294a12.345,12.345,0,0,1,5.393,9.785c.111,4.41-2.159,8.51-4.634,12.161a18.18,18.18,0,0,0-2.137,3.687,5.374,5.374,0,0,0-.02,4.156" transform="translate(1362.94 2276.76)" fill="none" stroke="#0f111c" stroke-linecap="round" stroke-linejoin="round" stroke-width="2"/>
      <path id="Path_11500" data-name="Path 11500" d="M56.38,44.137c-3.513,2.077-1.983,9.2-1.034,12.23,1.295,4.139,5.492,11.975,2.335,16.077" transform="translate(1360.816 2276.924)" fill="none" stroke="#0f111c" stroke-linecap="round" stroke-linejoin="round" stroke-width="2"/>
      <path id="Path_11501" data-name="Path 11501" d="M46.3,111.2c-1.713-4.787,4.06-18.047,13.581-18.688" transform="translate(1360.089 2281.223)" fill="none" stroke="#0f111c" stroke-linecap="round" stroke-linejoin="round" stroke-width="2"/>
      <path id="Path_11502" data-name="Path 11502" d="M133.448,128.965h-98a7.406,7.406,0,0,1-7.407-7.406v-1.413H140.854v1.413A7.406,7.406,0,0,1,133.448,128.965Z" transform="translate(1358.492 2283.68)" fill="none" stroke="#0f111c" stroke-linecap="round" stroke-linejoin="round" stroke-width="2"/>
      <path id="Path_11503" data-name="Path 11503" d="M154.718,128.965h-5.192a7.406,7.406,0,0,1-7.406-7.406v-1.413h20v1.413A7.406,7.406,0,0,1,154.718,128.965Z" transform="translate(1368.633 2283.68)" fill="none" stroke="#0f111c" stroke-linecap="round" stroke-linejoin="round" stroke-width="2"/>
      <path id="Path_11504" data-name="Path 11504" d="M145.13,120.121c-.624-3.1,2.851-4.7,5.429-4.329a11.074,11.074,0,0,1,4.463,1.777c1.248.852,2.355,2.471,3.811,2.969" transform="translate(1368.894 2283.287)" fill="none" stroke="#0f111c" stroke-linecap="round" stroke-linejoin="round" stroke-width="2"/>
      <path id="Path_11505" data-name="Path 11505" d="M161.537,123.948c-6.3-1.479-12.359,2.906-18.529.862" transform="translate(1368.712 2283.99)" fill="none" stroke="#0f111c" stroke-linecap="round" stroke-linejoin="round" stroke-width="2"/>
      <line id="Line_124" data-name="Line 124" x2="159.845" transform="translate(1375.781 2412.645)" fill="none" stroke="#0f111c" stroke-linecap="round" stroke-linejoin="round" stroke-width="2"/>
    </g>
  </g>
</svg>
