<svg xmlns="http://www.w3.org/2000/svg" width="196" height="197.089" viewBox="0 0 196 197.089">
  <g id="Male" transform="translate(0 -0.001)">
    <rect id="Container" width="196" height="196" transform="translate(0 0.001)" fill="none"/>
    <g id="Boy" transform="translate(43.493 41.038)">
      <path id="Path_11437" data-name="Path 11437" d="M49.637,111.63c-3.589-16.6-7.26-38.153,1.628-53.814a25.308,25.308,0,0,1,.723,9,50.445,50.445,0,0,1,28.088-21.03c11.474-3.346,24.172-4.3,35.014.724-1.368.5-2.76,2.922-4.128,3.425a41.95,41.95,0,0,1,25.851,11.027c6.43,6.266,14.1,14.4,14.654,23.359-2.175-.083-7.537-3.489-8.673-3.039,0,0,4.423,20.445-.632,24.255" transform="translate(-41.33 -43.006)" fill="none" stroke="#0f111c" stroke-linecap="round" stroke-linejoin="round" stroke-width="2"/>
      <path id="Path_11438" data-name="Path 11438" d="M53.73,103.678c-12.067-.7-13.027,6.305-11.128,12.766,1.406,4.784,8.077,13.574,13.148,9.8" transform="translate(-41.842 -35.054)" fill="none" stroke="#0f111c" stroke-linecap="round" stroke-linejoin="round" stroke-width="2"/>
      <path id="Path_11439" data-name="Path 11439" d="M54.09,122.721C59.555,152.8,86.147,157.763,97.779,157.2c18.034-.866,40.382-9.386,40.8-34.8.191-11.516-2.681-23.051-2.193-34.574l-.054.8c-.04-3.175.276-6.7-1.624-9.462-4.559-6.618-14.018,4.881-18.1,7.014-5.062,2.646-10.935,3.263-16.564,2.937-11.524-.667-23.057-4.931-33.082-10.5-2.149-1.195-4.464-3.387-6.881-3.909-3.8-.82-6.237,3.263-6.649,6.447q-.884,6.816-1.277,13.685c-.52,9.261.782,18.676,1.93,27.886" transform="translate(-40.504 -38.862)" fill="none" stroke="#0f111c" stroke-linecap="round" stroke-linejoin="round" stroke-width="2"/>
      <ellipse id="Ellipse_108" data-name="Ellipse 108" cx="2.803" cy="2.803" rx="2.803" ry="2.803" transform="translate(71.084 73.157)" fill="none" stroke="#0f111c" stroke-linecap="round" stroke-linejoin="round" stroke-width="2"/>
      <path id="Path_11440" data-name="Path 11440" d="M103.685,97.441s3.211,4.423,12.709,3.426" transform="translate(-33.73 -35.866)" fill="none" stroke="#0f111c" stroke-linecap="round" stroke-linejoin="round" stroke-width="2"/>
      <ellipse id="Ellipse_109" data-name="Ellipse 109" cx="2.803" cy="2.803" rx="2.803" ry="2.803" transform="translate(36.784 74.16)" fill="none" stroke="#0f111c" stroke-linecap="round" stroke-linejoin="round" stroke-width="2"/>
      <path id="Path_11441" data-name="Path 11441" d="M79.755,97.362s-7.384-2.542-12.523,6.48" transform="translate(-38.511 -35.92)" fill="none" stroke="#0f111c" stroke-linecap="round" stroke-linejoin="round" stroke-width="2"/>
      <path id="Path_11442" data-name="Path 11442" d="M91.468,113.123S95.193,126.147,90,125.275" transform="translate(-35.525 -33.809)" fill="none" stroke="#0f111c" stroke-linecap="round" stroke-linejoin="round" stroke-width="2"/>
      <path id="Path_11443" data-name="Path 11443" d="M81.468,130.39c8.709,5.362,15.573,5.731,23.86,0" transform="translate(-36.644 -31.544)" fill="none" stroke="#0f111c" stroke-linecap="round" stroke-linejoin="round" stroke-width="2"/>
      <path id="Path_11444" data-name="Path 11444" d="M88.249,142.678s4.828-5.8,10.59-.658" transform="translate(-35.754 -30.297)" fill="none" stroke="#0f111c" stroke-linecap="round" stroke-linejoin="round" stroke-width="2"/>
      <path id="Path_11445" data-name="Path 11445" d="M81.859,148.285c.373,3.849.391,7.77.765,11.635,0,2.511,5.188,4.547,11.585,4.547s11.587-2.036,11.587-4.547c0-2.864-.38-10.214-.382-13.08" transform="translate(-36.593 -29.386)" fill="none" stroke="#0f111c" stroke-linecap="round" stroke-linejoin="round" stroke-width="2"/>
      <path id="Path_11446" data-name="Path 11446" d="M112.441,156.729c3.45,1.279,5.54,2.953,5.54,4.787,0,4.018-10.049,7.276-22.447,7.276s-22.448-3.258-22.448-7.276c0-1.827,2.075-3.5,5.5-4.774" transform="translate(-37.743 -28.089)" fill="none" stroke="#0f111c" stroke-linecap="round" stroke-linejoin="round" stroke-width="2"/>
      <path id="Path_11447" data-name="Path 11447" d="M112.775,160.96c9.709.181,19.151,4.207,20.763,21.538" transform="translate(-32.537 -27.534)" fill="none" stroke="#0f111c" stroke-linecap="round" stroke-linejoin="round" stroke-width="2"/>
      <path id="Path_11448" data-name="Path 11448" d="M75.493,160.96c-9.709.181-19.151,4.207-20.763,21.538" transform="translate(-40.151 -27.534)" fill="none" stroke="#0f111c" stroke-linecap="round" stroke-linejoin="round" stroke-width="2"/>
      <path id="Path_11449" data-name="Path 11449" d="M49.861,112.128a6.032,6.032,0,0,0-2.8-.713,2.069,2.069,0,0,0-2,1.768" transform="translate(-41.42 -34.034)" fill="none" stroke="#0f111c" stroke-linecap="round" stroke-linejoin="round" stroke-width="2"/>
      <path id="Path_11450" data-name="Path 11450" d="M47.08,112.469A3.637,3.637,0,0,0,50,116.462" transform="translate(-41.159 -33.895)" fill="none" stroke="#0f111c" stroke-linecap="round" stroke-linejoin="round" stroke-width="2"/>
      <path id="Path_11451" data-name="Path 11451" d="M128.11,98.922c11.847-2.4,13.786,4.4,12.82,11.067-.716,4.935-6.079,14.579-11.633,11.554" transform="translate(-30.526 -35.736)" fill="none" stroke="#0f111c" stroke-linecap="round" stroke-linejoin="round" stroke-width="2"/>
      <path id="Path_11452" data-name="Path 11452" d="M131.376,106.859a6.027,6.027,0,0,1,2.3-1.752,2.069,2.069,0,0,1,2.529.845" transform="translate(-30.097 -34.877)" fill="none" stroke="#0f111c" stroke-linecap="round" stroke-linejoin="round" stroke-width="2"/>
      <path id="Path_11453" data-name="Path 11453" d="M133.722,106.161a3.638,3.638,0,0,1-1.121,4.815" transform="translate(-29.936 -34.722)" fill="none" stroke="#0f111c" stroke-linecap="round" stroke-linejoin="round" stroke-width="2"/>
    </g>
  </g>
</svg>
