<svg xmlns="http://www.w3.org/2000/svg" width="196" height="196" viewBox="0 0 196 196">
  <g id="Shop" transform="translate(0 24)">
    <g id="Group_15431" data-name="Group 15431" transform="translate(-0.19 -9.732)">
      <path id="Path_11480" data-name="Path 11480" d="M127.342,109.97c-4.836,4.755-21.895,4.312-27.129,0s-4.948-21.854-.685-27.129,23.7-4.8,28.5,0S132.178,105.214,127.342,109.97Z" transform="translate(10.973 8.374)" fill="none" stroke="#0f111c" stroke-linecap="round" stroke-linejoin="round" stroke-width="2"/>
      <line id="Line_119" data-name="Line 119" x1="8.634" y2="11.028" transform="translate(117.215 95.716)" fill="none" stroke="#0f111c" stroke-linecap="round" stroke-linejoin="round" stroke-width="2"/>
      <line id="Line_120" data-name="Line 120" x1="5.355" y2="6.84" transform="translate(124.7 106.627)" fill="none" stroke="#0f111c" stroke-linecap="round" stroke-linejoin="round" stroke-width="2"/>
      <path id="Path_11481" data-name="Path 11481" d="M54.61,136.2c-.823-9.876-1.4-36.56-1.383-39.987.027-5.405,1.159-10.825,3.22-13.377,4.263-5.275,23.7-4.8,28.5,0,2.371,2.372,3.413,7.868,3.275,13.395-.218,8.782-1.2,40.9-1.2,40.9" transform="translate(5.622 8.374)" fill="none" stroke="#0f111c" stroke-linecap="round" stroke-linejoin="round" stroke-width="2"/>
      <path id="Path_11482" data-name="Path 11482" d="M45.267,136.481c-4.24-17.075-6.218-34.647-4.71-52.144" transform="translate(3.986 9.029)" fill="none" stroke="#0f111c" stroke-linecap="round" stroke-linejoin="round" stroke-width="2"/>
      <path id="Path_11483" data-name="Path 11483" d="M140.263,84.337c1.506,17.5-.471,35.068-4.71,52.145" transform="translate(15.847 9.029)" fill="none" stroke="#0f111c" stroke-linecap="round" stroke-linejoin="round" stroke-width="2"/>
      <path id="Path_11484" data-name="Path 11484" d="M42.394,140.1c-4.384,0-3.307-3.554-3.307-7.938v-1.441H153.865v1.441c0,4.384.83,7.938-3.554,7.938" transform="translate(3.852 14.789)" fill="none" stroke="#0f111c" stroke-linecap="round" stroke-linejoin="round" stroke-width="2"/>
      <line id="Line_121" data-name="Line 121" x1="93.35" transform="translate(53.385 44.574)" fill="none" stroke="#0f111c" stroke-linecap="round" stroke-linejoin="round" stroke-width="2"/>
      <path id="Path_11485" data-name="Path 11485" d="M151.824,46.636l.118.142,7.458,9.08a6.019,6.019,0,0,1-4.652,9.839H39.336a6.019,6.019,0,0,1-4.716-9.76l7.043-8.877c.118-.142.227-.282.353-.424" transform="translate(3.148 4.346)" fill="none" stroke="#0f111c" stroke-linecap="round" stroke-linejoin="round" stroke-width="2"/>
      <path id="Path_11486" data-name="Path 11486" d="M110.855,63.591a11.75,11.75,0,0,0,23.5,0" transform="translate(12.78 6.452)" fill="none" stroke="#0f111c" stroke-linecap="round" stroke-linejoin="round" stroke-width="2"/>
      <path id="Path_11487" data-name="Path 11487" d="M146.037,62.594V72.861a2.573,2.573,0,0,1-2.51,2.6H143.5a11.747,11.747,0,0,1-11.742-11.75" transform="translate(15.376 6.329)" fill="none" stroke="#0f111c" stroke-linecap="round" stroke-linejoin="round" stroke-width="2"/>
      <path id="Path_11488" data-name="Path 11488" d="M35.666,62.594V72.927A2.539,2.539,0,0,0,38.2,75.465a11.747,11.747,0,0,0,11.742-11.75" transform="translate(3.442 6.329)" fill="none" stroke="#0f111c" stroke-linecap="round" stroke-linejoin="round" stroke-width="2"/>
      <path id="Path_11489" data-name="Path 11489" d="M113.451,63.591a11.749,11.749,0,0,1-23.429,1.262,11.093,11.093,0,0,1-.071-1.262" transform="translate(10.184 6.452)" fill="none" stroke="#0f111c" stroke-linecap="round" stroke-linejoin="round" stroke-width="2"/>
      <path id="Path_11490" data-name="Path 11490" d="M92.671,63.591a11.089,11.089,0,0,1-.071,1.262,11.744,11.744,0,0,1-23.3.392,11.62,11.62,0,0,1-.118-1.655" transform="translate(7.604 6.452)" fill="none" stroke="#0f111c" stroke-linecap="round" stroke-linejoin="round" stroke-width="2"/>
      <path id="Path_11491" data-name="Path 11491" d="M48.492,63.591a11.746,11.746,0,0,0,23.375,1.655,11.622,11.622,0,0,0,.116-1.655" transform="translate(5.035 6.452)" fill="none" stroke="#0f111c" stroke-linecap="round" stroke-linejoin="round" stroke-width="2"/>
      <path id="Path_11492" data-name="Path 11492" d="M155.185,43.433a3.213,3.213,0,0,1-3.13,3.912H41.3a3.315,3.315,0,0,1-3.273-2.468,3.213,3.213,0,0,1,3.124-3.941H151.913A3.31,3.31,0,0,1,155.185,43.433Z" transform="translate(3.724 3.639)" fill="none" stroke="#0f111c" stroke-linecap="round" stroke-linejoin="round" stroke-width="2"/>
      <line id="Line_122" data-name="Line 122" y1="5.527" transform="translate(87.826 118.516)" fill="none" stroke="#0f111c" stroke-linecap="round" stroke-linejoin="round" stroke-width="2"/>
      <line id="Line_123" data-name="Line 123" x1="139.434" transform="translate(30.473 154.891)" fill="none" stroke="#0f111c" stroke-linecap="round" stroke-linejoin="round" stroke-width="2"/>
    </g>
    <rect id="Rectangle_2979" data-name="Rectangle 2979" width="196" height="196" transform="translate(0 -24)" fill="none"/>
  </g>
</svg>
