<svg xmlns="http://www.w3.org/2000/svg" width="204" height="160" viewBox="0 0 204 160">
  <g id="Pending" transform="translate(-180 -60)">
    <g id="Illustration" transform="translate(2.516 20.095)">
      <rect id="Rectangle_2988" data-name="Rectangle 2988" width="26" height="6" transform="translate(221.484 86.905)" fill="none" stroke="#fff" stroke-linecap="round" stroke-linejoin="round" stroke-width="1" opacity="0.54"/>
      <rect id="Rectangle_2989" data-name="Rectangle 2989" width="25" height="8" transform="translate(275.484 71.905)" fill="none" stroke="#fff" stroke-linecap="round" stroke-linejoin="round" stroke-width="1" opacity="0.54"/>
      <rect id="Rectangle_2990" data-name="Rectangle 2990" width="25" height="8" transform="translate(252.484 51.905)" fill="none" stroke="#fff" stroke-linecap="round" stroke-linejoin="round" stroke-width="1" opacity="0.54"/>
      <path id="Path_11309" data-name="Path 11309" d="M255.063,14038H215" transform="translate(95.906 -13861.766)" fill="none" stroke="#fff" stroke-width="1" opacity="0.54"/>
      <path id="Path_11311" data-name="Path 11311" d="M230.484,14038H215" transform="translate(-15 -13861.766)" fill="none" stroke="#fff" stroke-width="1" opacity="0.54"/>
      <path id="Path_11328" data-name="Path 11328" d="M243.05,14038H215" transform="translate(12.097 -13861.766)" fill="none" stroke="#fff" stroke-width="1" opacity="0.54"/>
      <path id="Path_11312" data-name="Path 11312" d="M108.387,70.372C102.35,80.8,88.545,83.846,72.489,83.846c-8.711,0-16.76-.849-23.255-3.4a26.473,26.473,0,0,1-12.4-9.956" transform="translate(210.425 97.835)" fill="none" stroke="#fff" stroke-linecap="round" stroke-linejoin="round" stroke-width="2"/>
      <path id="Path_11313" data-name="Path 11313" d="M35.322,42.5a39.158,39.158,0,0,1,74.265,0" transform="translate(210.474 99.597)" fill="none" stroke="#fff" stroke-linecap="round" stroke-linejoin="round" stroke-width="2"/>
      <path id="Path_11314" data-name="Path 11314" d="M35.8,48.576c7.09.434,2.691,29.267-9.178,27.593C21.954,75.551,22.328,47.8,35.8,48.576Z" transform="translate(210.842 98.539)" fill="none" stroke="#fff" stroke-linecap="round" stroke-linejoin="round" stroke-width="2"/>
      <path id="Path_11315" data-name="Path 11315" d="M111,48.576c-7.1.434-2.692,29.267,9.177,27.593C124.84,75.551,124.466,47.8,111,48.576Z" transform="translate(208.143 98.539)" fill="none" stroke="#fff" stroke-linecap="round" stroke-linejoin="round" stroke-width="2"/>
      <line id="Line_91" data-name="Line 91" y2="5.197" transform="translate(300.474 185.74)" fill="none" stroke="#fff" stroke-linecap="round" stroke-linejoin="round" stroke-width="2"/>
      <line id="Line_92" data-name="Line 92" x1="3.761" y2="2.412" transform="translate(296.713 185.74)" fill="none" stroke="#fff" stroke-linecap="round" stroke-linejoin="round" stroke-width="2"/>
      <line id="Line_93" data-name="Line 93" x1="3.855" y1="2.412" transform="translate(300.474 185.74)" fill="none" stroke="#fff" stroke-linecap="round" stroke-linejoin="round" stroke-width="2"/>
      <line id="Line_94" data-name="Line 94" y2="5.197" transform="translate(265.952 185.74)" fill="none" stroke="#fff" stroke-linecap="round" stroke-linejoin="round" stroke-width="2"/>
      <line id="Line_95" data-name="Line 95" x1="3.77" y2="2.412" transform="translate(262.182 185.74)" fill="none" stroke="#fff" stroke-linecap="round" stroke-linejoin="round" stroke-width="2"/>
      <line id="Line_96" data-name="Line 96" x1="3.846" y1="2.412" transform="translate(265.953 185.74)" fill="none" stroke="#fff" stroke-linecap="round" stroke-linejoin="round" stroke-width="2"/>
      <path id="Path_11316" data-name="Path 11316" d="M78.758,56.667c0,2.224-2.369,1.384-5.281,1.384S68.2,58.9,68.2,56.667s2.36-4.033,5.281-4.033S78.758,54.443,78.758,56.667Z" transform="translate(209.413 98.407)" fill="none" stroke="#fff" stroke-linecap="round" stroke-linejoin="round" stroke-width="2"/>
      <path id="Path_11317" data-name="Path 11317" d="M70.31,59.34c0-1.367,1.416-.849,3.156-.849s3.156-.518,3.156.849-1.416,2.471-3.156,2.471S70.31,60.7,70.31,59.34Z" transform="translate(209.345 98.222)" fill="none" stroke="#fff" stroke-linecap="round" stroke-linejoin="round" stroke-width="2"/>
      <path id="Path_11320" data-name="Path 11320" d="M60.6,20.044s6.5-7.514-4.916-14.883c0,0,16.981.611,15.946,13.389,0,0,11.035-9.34-2.454-17.55,0,0,16.038.781,16,16.386" transform="translate(209.817 100.072)" fill="none" stroke="#fff" stroke-linecap="round" stroke-linejoin="round" stroke-width="2"/>
      <path id="Path_11326" data-name="Path 11326" d="M12.206,62.9A8.831,8.831,0,1,1,1.327,69.034,8.831,8.831,0,0,1,12.206,62.9Z" transform="translate(211.581 98.087)" fill="none" stroke="#fff" stroke-linecap="round" stroke-linejoin="round" stroke-width="2"/>
      <line id="Line_97" data-name="Line 97" x2="8.507" y2="2.372" transform="translate(221.414 169.492)" fill="none" stroke="#fff" stroke-linecap="round" stroke-linejoin="round" stroke-width="2"/>
      <line id="Line_98" data-name="Line 98" y1="8.507" x2="2.372" transform="translate(221.414 160.985)" fill="none" stroke="#fff" stroke-linecap="round" stroke-linejoin="round" stroke-width="2"/>
      <path id="Path_11327" data-name="Path 11327" d="M15.024,61l-3.8-1.06a1.579,1.579,0,0,1,.848-3.042l3.8,1.06A1.579,1.579,0,1,1,15.024,61Z" transform="translate(211.288 98.271)" fill="none" stroke="#fff" stroke-linecap="round" stroke-linejoin="round" stroke-width="2"/>
      <ellipse id="Ellipse_113" data-name="Ellipse 113" cx="5.5" cy="6" rx="5.5" ry="6" transform="translate(291.484 142.905)" fill="none" stroke="#fff" stroke-linecap="round" stroke-linejoin="round" stroke-width="2"/>
      <ellipse id="Ellipse_114" data-name="Ellipse 114" cx="5.5" cy="6" rx="5.5" ry="6" transform="translate(263.484 142.905)" fill="none" stroke="#fff" stroke-linecap="round" stroke-linejoin="round" stroke-width="2"/>
      <path id="Path_11329" data-name="Path 11329" d="M207,14047.8s13.956-6.931,8-21.8-9.685-16-8-36" transform="translate(122.484 -13874.095)" fill="rgba(0,0,0,0)" stroke="#fff" stroke-linecap="round" stroke-linejoin="round" stroke-width="1"/>
      <path id="Path_11330" data-name="Path 11330" d="M12,0A12,12,0,0,1,24,12c0,6.627-5.373,19.949-12,19.949S0,18.627,0,12A12,12,0,0,1,12,0Z" transform="translate(317.484 83.956)" fill="rgba(0,0,0,0)" stroke="#ffbf40" stroke-linecap="round" stroke-linejoin="round" stroke-width="2"/>
      <path id="Path_11331" data-name="Path 11331" d="M218.126,13966s1.219,7.142-8.023,4-15.143-2.009-14.319,2.174,23.079,6.509,16.9,13.826-11.24-10.416-6.525-28" transform="translate(122.484 -13874.095)" fill="rgba(0,0,0,0)" stroke="#ffbf40" stroke-linecap="round" stroke-linejoin="round" stroke-width="2"/>
    </g>
    <rect id="Rectangle_2993" data-name="Rectangle 2993" width="204" height="160" transform="translate(180 60)" fill="none"/>
  </g>
</svg>
