<svg xmlns="http://www.w3.org/2000/svg" width="205.674" height="160" viewBox="0 0 205.674 160">
  <g id="On_way" data-name="On way" transform="translate(-180 -60)">
    <g id="Illustration">
      <path id="Path_11164" data-name="Path 11164" d="M100.422,118.514A24.409,24.409,0,0,0,90.3,120.531a8.268,8.268,0,0,0-3.63,3.114,4.416,4.416,0,0,0,0,4.6,5.615,5.615,0,0,0,3.789,2.017,5.719,5.719,0,0,0,3.288-.238,2.7,2.7,0,0,0,1.684-2.637,3.082,3.082,0,0,0-1.922-2.208c-2.685-1.223-5.87-.1-8.379,1.454s-4.821,3.574-7.673,4.361" transform="translate(278.54 1.51)" fill="none" stroke="#fff" stroke-linecap="round" stroke-linejoin="round" stroke-width="1"/>
      <path id="Path_11165" data-name="Path 11165" d="M86.11,143.021a19.467,19.467,0,0,0,4.98-.31,30.436,30.436,0,0,1,17.474,3.066c3.653,1.737,2.323,4.54,1.358,5.25a4.051,4.051,0,0,1-3.336.6c-1.191-.278-2.383-1.43-1.97-2.565a2.55,2.55,0,0,1,1.43-1.191" transform="translate(273.393 -3.428)" fill="none" stroke="#fff" stroke-linecap="round" stroke-linejoin="round" stroke-width="1"/>
      <path id="Path_11166" data-name="Path 11166" d="M70.673,131.365a8.736,8.736,0,0,1-3.933-3.775" transform="translate(313.421 -0.362)" fill="none" stroke="#fff" stroke-linecap="round" stroke-linejoin="round" stroke-width="1"/>
      <ellipse id="Ellipse_93" data-name="Ellipse 93" cx="5.114" cy="5.114" rx="5.114" ry="5.114" transform="translate(310.36 172.268)" fill="none" stroke="#fff" stroke-linecap="round" stroke-linejoin="round" stroke-width="2"/>
      <ellipse id="Ellipse_94" data-name="Ellipse 94" cx="2.717" cy="2.717" rx="2.717" ry="2.717" transform="translate(312.757 174.675)" fill="#fff"/>
      <path id="Path_11167" data-name="Path 11167" d="M136.55,177.946l24.507-24.507a16.934,16.934,0,0,1,11.975-4.959h26.863a15.343,15.343,0,0,1,14.1,9.3l8.658,20.167" transform="translate(129.218 2.648)" fill="none" stroke="#fff" stroke-linecap="round" stroke-linejoin="round" stroke-width="2"/>
      <path id="Path_11168" data-name="Path 11168" d="M195.988,168.634l-13.917-18.329,5.156-16.985H177.37" transform="translate(113.711 2.146)" fill="none" stroke="#fff" stroke-linecap="round" stroke-linejoin="round" stroke-width="2"/>
      <line id="Line_40" data-name="Line 40" y1="27.173" x2="16.521" transform="translate(320.589 143.132)" fill="none" stroke="#fff" stroke-linecap="round" stroke-linejoin="round" stroke-width="2"/>
      <path id="Path_11169" data-name="Path 11169" d="M158.532,136.687c-1.457.527-4.918-1.229-9.526-2.48-3.265-.889-8.152-.951-8.978,1.767-.651,2.066-.258,5.476,10.239,4.226,3.1-.362,5.91-1.209,8.8.3" transform="translate(189.416 2.156)" fill="none" stroke="#fff" stroke-linecap="round" stroke-linejoin="round" stroke-width="2"/>
      <ellipse id="Ellipse_95" data-name="Ellipse 95" cx="25.768" cy="25.768" rx="25.768" ry="25.768" transform="translate(240 154.827)" fill="none" stroke="#fff" stroke-linecap="round" stroke-linejoin="round" stroke-width="2"/>
      <ellipse id="Ellipse_96" data-name="Ellipse 96" cx="4.019" cy="4.019" rx="4.019" ry="4.019" transform="translate(261.749 176.575)" fill="none" stroke="#fff" stroke-linecap="round" stroke-linejoin="round" stroke-width="2"/>
      <ellipse id="Ellipse_97" data-name="Ellipse 97" cx="2.128" cy="2.128" rx="2.128" ry="2.128" transform="translate(263.639 178.467)" fill="#fff"/>
      <path id="Path_11170" data-name="Path 11170" d="M244.885,202.128a81.049,81.049,0,0,0-4.525-11.6,60,60,0,0,0-8.9-13.349c-1.88-2.139-3.533-4.133-6.044-5.507" transform="translate(15.169 3.418)" fill="none" stroke="#fff" stroke-linecap="round" stroke-linejoin="round" stroke-width="1"/>
      <path id="Path_11171" data-name="Path 11171" d="M238.891,196.317c-11.365-2.728-23.154-2.748-34.891-1.891" transform="translate(43.294 4.156)" fill="none" stroke="#fff" stroke-linecap="round" stroke-linejoin="round" stroke-width="1"/>
      <ellipse id="Ellipse_98" data-name="Ellipse 98" cx="25.768" cy="25.768" rx="25.768" ry="25.768" transform="translate(326.116 154.838)" fill="none" stroke="#fff" stroke-linecap="round" stroke-linejoin="round" stroke-width="2"/>
      <ellipse id="Ellipse_99" data-name="Ellipse 99" cx="4.019" cy="4.019" rx="4.019" ry="4.019" transform="translate(347.865 176.586)" fill="none" stroke="#fff" stroke-linecap="round" stroke-linejoin="round" stroke-width="2"/>
      <ellipse id="Ellipse_100" data-name="Ellipse 100" cx="2.128" cy="2.128" rx="2.128" ry="2.128" transform="translate(349.755 178.477)" fill="#fff"/>
      <path id="Path_11172" data-name="Path 11172" d="M112.11,202.133a83.281,83.281,0,0,1,4.525-11.6,60.357,60.357,0,0,1,8.906-13.307,21.7,21.7,0,0,1,6.085-5.373" transform="translate(245.498 3.424)" fill="none" stroke="#fff" stroke-linecap="round" stroke-linejoin="round" stroke-width="1"/>
      <path id="Path_11173" data-name="Path 11173" d="M118.68,196.337c11.138-2.676,22.885-2.779,34.891-1.9" transform="translate(216.766 4.157)" fill="none" stroke="#fff" stroke-linecap="round" stroke-linejoin="round" stroke-width="1"/>
      <ellipse id="Ellipse_101" data-name="Ellipse 101" cx="2.004" cy="2.004" rx="2.004" ry="2.004" transform="translate(289.076 133.461)" fill="#fff"/>
      <path id="Path_11174" data-name="Path 11174" d="M138.665,168.251l35.883,4.556a4.835,4.835,0,0,1,4.05,4.536h0a4.453,4.453,0,0,1-4.908,4.608l-35.934-2a5.868,5.868,0,0,1-5.559-5.92h0a5.879,5.879,0,0,1,6.468-5.775Z" transform="translate(177.771 3.304)" fill="none" stroke="#fff" stroke-linecap="round" stroke-linejoin="round" stroke-width="1"/>
      <line id="Line_41" data-name="Line 41" x1="12.708" y2="7.997" transform="translate(302.766 177.392)" fill="none" stroke="#fff" stroke-linecap="round" stroke-linejoin="round" stroke-width="2"/>
      <rect id="Rectangle_2969" data-name="Rectangle 2969" width="8.999" height="2.976" rx="1.29" transform="matrix(-0.971, -0.239, 0.239, -0.971, 307.563, 187.957)" fill="#fff"/>
      <path id="Line" d="M52,203a58.148,58.148,0,0,0,6.86,0c1.81-.22,3.34-1.51,5.17-2a3.79,3.79,0,0,1,2.21-.08,9.742,9.742,0,0,1,1.65,1c2.84,1.68,7,1.24,10.19,1.35,2.29.08,4.8-.59,7.08-.83a64.911,64.911,0,0,1,16.06-.14c6.79,1,13.61.7,20.47.7h20.47c3.21,0,6.89.52,9.91-.47s6.11-.56,9.15-.09c9.5,1.47,19.62.56,29.28.56h26.674" transform="translate(168 5.69)" fill="none" stroke="#fff" stroke-linecap="round" stroke-linejoin="round" stroke-width="1"/>
      <path id="Path_11162" data-name="Path 11162" d="M175,198.31c1.64,0,4.5,1,4.5,2.73s-2.93,1.85-4.56,1.85-4.43-.12-4.43-1.85S173.35,198.31,175,198.31Z" transform="translate(168 5.69)" fill="none" stroke="#fff" stroke-linecap="round" stroke-linejoin="round" stroke-width="1"/>
      <ellipse id="Ellipse_117" data-name="Ellipse 117" cx="12.51" cy="12.51" rx="12.51" ry="12.51" transform="translate(246.98 80)" fill="none" stroke="#ffbf40" stroke-linecap="round" stroke-linejoin="round" stroke-width="2"/>
      <path id="Path_765" data-name="Path 765" d="M192.049,65.653c1.32-.274,2.535-1.016,2.073-2.646a2.719,2.719,0,0,0-3.767-1.378.491.491,0,0,0,.228.888.8.8,0,0,0,.765-.42,1.752,1.752,0,0,0,.175-.9,5.256,5.256,0,0,0-2.137-4.088c-1.1-.783-4.135-1.489-4.818.251-.3.777.794,1.168,1.378,1.022a.952.952,0,0,0,.438-.257.859.859,0,0,0,.14-.736,4.59,4.59,0,0,0-.5-1.1C184.27,52.9,178.67,54.5,178.5,58.155a1.752,1.752,0,0,0,1.8,1.863.584.584,0,0,0,.584-.269c.315-.718-1.168-1.25-1.618-1.332a4.129,4.129,0,0,0-2.237.239,3.8,3.8,0,0,0-2.208,3.165,3.709,3.709,0,0,0,1.5,3.224c1.069.829,2.488.777,3.773.777h10.576a6.757,6.757,0,0,0,1.372-.169Z" transform="translate(109.778 41.573)" fill="none" stroke="#fff" stroke-linecap="round" stroke-linejoin="round" stroke-width="1" opacity="0.54"/>
      <path id="Path_765-2" data-name="Path 765" d="M176.992,65.653c-1.32-.274-2.535-1.016-2.073-2.646a2.72,2.72,0,0,1,3.767-1.378.491.491,0,0,1-.228.888.8.8,0,0,1-.765-.42,1.752,1.752,0,0,1-.175-.9,5.256,5.256,0,0,1,2.137-4.088c1.1-.783,4.135-1.489,4.818.251.3.777-.794,1.168-1.378,1.022a.952.952,0,0,1-.438-.257.859.859,0,0,1-.14-.736,4.59,4.59,0,0,1,.5-1.1c1.752-3.381,7.353-1.787,7.522,1.869a1.752,1.752,0,0,1-1.8,1.863.584.584,0,0,1-.584-.269c-.315-.718,1.168-1.25,1.618-1.332a4.129,4.129,0,0,1,2.237.239,3.8,3.8,0,0,1,2.208,3.165,3.708,3.708,0,0,1-1.5,3.224c-1.069.829-2.488.777-3.773.777H178.365a6.758,6.758,0,0,1-1.372-.169Z" transform="translate(45.181 49.573)" fill="none" stroke="#fff" stroke-linecap="round" stroke-linejoin="round" stroke-width="1" opacity="0.54"/>
    </g>
    <rect id="Rectangle_2993" data-name="Rectangle 2993" width="204" height="160" transform="translate(180 60)" fill="none"/>
  </g>
</svg>
