<svg xmlns="http://www.w3.org/2000/svg" width="204" height="160" viewBox="0 0 204 160">
  <g id="In_progress" data-name="In progress" transform="translate(-180 -60)">
    <g id="Illustration">
      <path id="Path_11153" data-name="Path 11153" d="M232.3,145.574c-.322-.42-2.166-7.84-2.443-8.283-1.845-2.925-6.122,3.545-5.839-1.054s2.643-7.23,1.765-9.937" transform="translate(99.985 11.777)" fill="none" stroke="#ffbf40" stroke-linecap="round" stroke-linejoin="round" stroke-width="2"/>
      <path id="Path_11154" data-name="Path 11154" d="M247.259,137.669a36.5,36.5,0,0,0-4.6-4.072,6.383,6.383,0,0,1-.233,1.62c-.255.817-.885,1.657-1.74,1.672a2.077,2.077,0,0,1-1.252-.517,4.627,4.627,0,0,1-1.672-2.812,1.762,1.762,0,0,1,.577-1.852c.645-.39,1.5,0,2.115.4.75.472,1.5.975,2.212,1.5A14.411,14.411,0,0,0,242.6,132a63.741,63.741,0,0,0-1.9-11.129" transform="translate(97.008 13.135)" fill="none" stroke="#ffbf40" stroke-linecap="round" stroke-linejoin="round" stroke-width="2"/>
      <rect id="Rectangle_2988" data-name="Rectangle 2988" width="26" height="6" transform="translate(202 99)" fill="none" stroke="#fff" stroke-linecap="round" stroke-linejoin="round" stroke-width="1" opacity="0.54"/>
      <rect id="Rectangle_2989" data-name="Rectangle 2989" width="25" height="8" transform="translate(311 103)" fill="none" stroke="#fff" stroke-linecap="round" stroke-linejoin="round" stroke-width="1" opacity="0.54"/>
      <rect id="Rectangle_2990" data-name="Rectangle 2990" width="25" height="8" transform="translate(259 75)" fill="none" stroke="#fff" stroke-linecap="round" stroke-linejoin="round" stroke-width="1" opacity="0.54"/>
      <path id="Path_11309" data-name="Path 11309" d="M252.484,14038H215" transform="translate(101 -13838.671)" fill="none" stroke="#fff" stroke-width="1" opacity="0.54"/>
      <path id="Path_11311" data-name="Path 11311" d="M240.484,14038H215" transform="translate(-12.484 -13838.671)" fill="none" stroke="#fff" stroke-width="1" opacity="0.54"/>
      <path id="Path_11133" data-name="Path 11133" d="M201.429,187.81H131.3c-3.176,0-5.5,4.138-3.3,6.54,6.619,7.264,21.7,6.947,38.772,7.244,16.295.258,31.6-1.9,37.154-7.6a3.642,3.642,0,0,0-2.491-6.182Z" transform="translate(106.44 5.386)" fill="none" stroke="#fff" stroke-linecap="round" stroke-linejoin="round" stroke-width="2"/>
      <path id="Path_11134" data-name="Path 11134" d="M144.8,165.638a20.343,20.343,0,0,0-4.555,2.163,12.9,12.9,0,0,1-11.482.238,4.634,4.634,0,0,1-1.647-1.24,2.064,2.064,0,0,1-.357-1.985c.417-.992,1.7-1.3,2.789-1.28a15.1,15.1,0,0,1,6.579,1.985c2.044,1.072,3.969,2.362,6.053,3.384,3.136,1.538,7.115,2.828,10.668,2.65,3.156-.159,5.22-2.471,7.611-4.208,3.84-2.8,8.515-.714,12.137,1.379s9.507,1.6,13.318.466c4.2-1.24,8.048-4.575,8.653-8.931a13.961,13.961,0,0,1,.327-2.223,6.708,6.708,0,0,1,2.669-3.186,21.832,21.832,0,0,1,4.456-2.491" transform="translate(106.444 5.656)" fill="none" stroke="#ffbf40" stroke-linecap="round" stroke-linejoin="round" stroke-width="2"/>
      <path id="Path_11135" data-name="Path 11135" d="M192.9,173.66h6.411a4.694,4.694,0,0,1,4.694,4.694h0a4.694,4.694,0,0,1-4.694,4.694H133.064a4.694,4.694,0,0,1-4.694-4.694h0a4.694,4.694,0,0,1,4.694-4.694Z" transform="translate(106.431 5.493)" fill="none" stroke="#fff" stroke-linecap="round" stroke-linejoin="round" stroke-width="2"/>
      <path id="Path_11136" data-name="Path 11136" d="M149.858,173.88c-.189.089-.357.288-.566.288l-8.822,8.822" transform="translate(106.338 5.491)" fill="none" stroke="#fff" stroke-linecap="round" stroke-linejoin="round" stroke-width="1"/>
      <line id="Line_33" data-name="Line 33" x1="6.45" y2="6.619" transform="translate(256.196 181.862)" fill="none" stroke="#fff" stroke-linecap="round" stroke-linejoin="round" stroke-width="1"/>
      <line id="Line_34" data-name="Line 34" x1="4.783" y2="4.773" transform="translate(271.161 179.471)" fill="none" stroke="#fff" stroke-linecap="round" stroke-linejoin="round" stroke-width="1"/>
      <line id="Line_35" data-name="Line 35" x1="5.24" y2="4.982" transform="translate(281.253 183.768)" fill="none" stroke="#fff" stroke-linecap="round" stroke-linejoin="round" stroke-width="1"/>
      <path id="Path_11137" data-name="Path 11137" d="M197.494,173.88a5.417,5.417,0,0,0-1.33.566L187.61,183" transform="translate(105.978 5.491)" fill="none" stroke="#fff" stroke-linecap="round" stroke-linejoin="round" stroke-width="1"/>
      <path id="Path_11138" data-name="Path 11138" d="M130.158,144.624,197.9,126.6a4.3,4.3,0,0,0,2.153-6.947c-10.549-12.087-26.427-14.588-42.979-10.2s-29.1,14.5-32.242,30.188a4.3,4.3,0,0,0,5.329,4.982Z" transform="translate(107.252 13.635)" fill="none" stroke="#fff" stroke-linecap="round" stroke-linejoin="round" stroke-width="2"/>
      <path id="Path_11139" data-name="Path 11139" d="M154.185,126.8c.466-.139,1.836-.109,1.985.357s-.992,1.2-1.489,1.34a.893.893,0,0,1-1.092-.615A.883.883,0,0,1,154.185,126.8Z" transform="translate(107.032 13.487)" fill="#fff"/>
      <path id="Path_11140" data-name="Path 11140" d="M159.106,116.318c.427-.2,1.727-.4,1.925,0s-.784,1.3-1.2,1.5a.846.846,0,1,1-.724-1.528Z" transform="translate(106.993 13.568)" fill="#fff"/>
      <path id="Path_11141" data-name="Path 11141" d="M178.147,120.744c-.258-.447-.576-1.846-.129-2.1s1.489.744,1.737,1.181a.927.927,0,0,1-1.608.923Z" transform="translate(106.847 13.55)" fill="#fff"/>
      <path id="Path_11142" data-name="Path 11142" d="M190,120.334c.367-.357,1.637-.992,1.985-.665s-.337,1.627-.695,1.985a.933.933,0,0,1-1.31-1.32Z" transform="translate(106.756 13.542)" fill="#fff"/>
      <path id="Path_11143" data-name="Path 11143" d="M172.117,129.536c-.506-.06-1.806-.655-1.737-1.151s1.479-.734,1.985-.665a.916.916,0,0,1-.248,1.816Z" transform="translate(106.904 13.48)" fill="#fff"/>
      <path id="Path_11144" data-name="Path 11144" d="M166.683,123.614c-.387-.327-1.191-1.508-.873-1.905s1.647.159,2.034.476a.913.913,0,0,1,.139,1.29A.933.933,0,0,1,166.683,123.614Z" transform="translate(106.939 13.527)" fill="#fff"/>
      <path id="Path_11145" data-name="Path 11145" d="M169.349,111.765c.308-.318,1.389-.933,1.707-.625s-.248,1.419-.556,1.737a.8.8,0,0,1-1.151-1.111Z" transform="translate(106.913 13.607)" fill="#fff"/>
      <path id="Path_11146" data-name="Path 11146" d="M144.722,136.674c-.407-.308-1.25-1.479-.933-1.885s1.657.109,2.064.417a.927.927,0,1,1-1.131,1.469Z" transform="translate(107.107 13.427)" fill="#fff"/>
      <path id="Path_11147" data-name="Path 11147" d="M134.859,131.641c.228-.427,1.191-1.4,1.627-1.161s.149,1.568-.079,1.985a.883.883,0,0,1-1.191.357.863.863,0,0,1-.357-1.181Z" transform="translate(107.176 13.459)" fill="#fff"/>
      <path id="Path_11148" data-name="Path 11148" d="M145.658,120.674c-.228-.447-.486-1.836,0-2.074s1.429.794,1.667,1.24a.914.914,0,1,1-1.627.834Z" transform="translate(107.094 13.55)" fill="#fff"/>
      <path id="Path_11149" data-name="Path 11149" d="M139.85,200.034h0a119.34,119.34,0,0,1,17.3-5.2,82.715,82.715,0,0,1,25.861-1.7,149.721,149.721,0,0,1,17.783,3.275" transform="translate(106.343 5.348)" fill="none" stroke="#fff" stroke-linecap="round" stroke-linejoin="round" stroke-width="1"/>
      <path id="Path_11150" data-name="Path 11150" d="M128.42,189.12h0a152.142,152.142,0,0,1,28.64,5.686,150.376,150.376,0,0,1,18.131,6.708" transform="translate(106.43 5.375)" fill="none" stroke="#fff" stroke-linecap="round" stroke-linejoin="round" stroke-width="1"/>
      <ellipse id="Ellipse_91" data-name="Ellipse 91" cx="0.367" cy="1.612" rx="0.367" ry="1.612" transform="translate(308.126 155.686) rotate(-24.44)" fill="none" stroke="#fff" stroke-linecap="round" stroke-linejoin="round" stroke-width="2"/>
      <path id="Path_11151" data-name="Path 11151" d="M217.855,145.162a4.35,4.35,0,0,0,1.74,1c2.25.577,5.722-.39,9.449-2a94.216,94.216,0,0,0,11.8-6.4l.18-.12a8.3,8.3,0,0,0,3-10.357l-.75-1.612a8.287,8.287,0,0,0-8.789-4.77,7.08,7.08,0,0,0-1.035.225,94.042,94.042,0,0,0-10.912,3.75c-4.59,1.95-8.512,4.3-9.479,6.877a5.617,5.617,0,0,0-.262,2.25" transform="translate(103.238 13.148)" fill="none" stroke="#fff" stroke-linecap="round" stroke-linejoin="round" stroke-width="2"/>
      <path id="Path_11152" data-name="Path 11152" d="M207.914,144.449c-.667-2-.825-3.525-.315-3.75.7-.322,2.407,1.92,3.81,5s1.972,5.842,1.267,6.165c-.517.232-1.552-.892-2.625-2.715" transform="translate(104.607 8.185)" fill="none" stroke="#fff" stroke-linecap="round" stroke-linejoin="round" stroke-width="2"/>
      <line id="Line_36" data-name="Line 36" x1="4.957" y2="2.25" transform="translate(312.146 146.648)" fill="none" stroke="#fff" stroke-linecap="round" stroke-linejoin="round" stroke-width="2"/>
      <line id="Line_37" data-name="Line 37" x1="5.317" y2="2.422" transform="translate(317.223 157.65)" fill="none" stroke="#fff" stroke-linecap="round" stroke-linejoin="round" stroke-width="2"/>
      <line id="Line_38" data-name="Line 38" y1="3.322" x2="4.642" transform="translate(308.471 152.214)" fill="none" stroke="#fff" stroke-linecap="round" stroke-linejoin="round" stroke-width="2"/>
      <line id="Line_39" data-name="Line 39" y1="1.312" x2="5.557" transform="translate(309.806 157.163)" fill="none" stroke="#fff" stroke-linecap="round" stroke-linejoin="round" stroke-width="2"/>
    </g>
    <rect id="Rectangle_2993" data-name="Rectangle 2993" width="204" height="160" transform="translate(180 60)" fill="none"/>
  </g>
</svg>
