<svg xmlns="http://www.w3.org/2000/svg" width="204" height="160" viewBox="0 0 204 160">
  <g id="Complete" transform="translate(-180 -60)">
    <g id="Illustartion" transform="translate(-2 5.602)">
      <path id="Path_11342" data-name="Path 11342" d="M29,29.8a13.405,13.405,0,0,1,1.162-3.509,10.718,10.718,0,0,1,7.049-5.711c1.731-.4,2.967-.507,4.51-1.6a23.64,23.64,0,0,1,4.022-2.748,8.89,8.89,0,0,1,3.535-.652,3.823,3.823,0,0,1,2.456.651,1.617,1.617,0,0,1,.308,2.279,2.428,2.428,0,0,1-1.643.492,4.1,4.1,0,0,1-2.742-.518,3.4,3.4,0,0,1-.972-2.978,9.563,9.563,0,0,1,3.354-6.605C52.874,6.525,58.2,5.653,61.779,6.374a15.27,15.27,0,0,0,4.146.641C71.566,6.574,74.04-.7,80.29,1.01a17.111,17.111,0,0,1,4.017,2.022,22.227,22.227,0,0,1,4.316,3.478,3.443,3.443,0,0,1,1.063,1.552,2.2,2.2,0,0,1-.508,1.867,3.927,3.927,0,0,1-1.656,1.095,3.782,3.782,0,0,1-3.3-.1,2.079,2.079,0,0,1-.671-2.937,3.117,3.117,0,0,1,2.489-.756,28.576,28.576,0,0,1,4.06.341,8.6,8.6,0,0,1,2.509.7,15.629,15.629,0,0,1,2.229,1.552,14.314,14.314,0,0,0,2.268,1.363c.641.308,1.348.371,1.957.7a9.1,9.1,0,0,1,3.293,3.692c2.209,4.092,2.941,10.738-1.819,13.374-.508.281-1.09.4-1.611.658a1.657,1.657,0,0,0-1.03,1.3A2.6,2.6,0,0,0,98.2,31.95C102.291,42,89.563,50.992,80.788,49.462a5.317,5.317,0,0,0-2.414-.109c-1.268.378-1.924,1.724-2.653,2.828A11.21,11.21,0,0,1,62.37,56.173a7.641,7.641,0,0,0-2.413-.837c-1.905-.133-3.349,1.576-4.93,2.649-4.456,3.025-12.453.688-15.185-3.677A3.281,3.281,0,0,1,39.22,52.5a2.619,2.619,0,0,1,1.758-2.173,7.694,7.694,0,0,1,2.918-.35c.9.009,2.05.217,2.213,1.1a1.334,1.334,0,0,1-.621,1.268,3.917,3.917,0,0,1-1.392.511l-1.589.364a11.681,11.681,0,0,1-2.892.409,3.915,3.915,0,0,1-2.672-1.015,5.284,5.284,0,0,1-1.065-1.809c-1.475-3.628-2.072-6.847-4.441-10.053A14.262,14.262,0,0,1,29,29.8Z" transform="translate(231.242 60.648)" fill="none" stroke="#fff" stroke-linecap="round" stroke-linejoin="round" stroke-width="2"/>
      <path id="Path_11343" data-name="Path 11343" d="M4.794,0A5.662,5.662,0,0,1,10.262,2.88c2.012,4.112-1.85,8.207-6.156,7.369C1.084,9.661-1.156,4.578.643,2.035A5.122,5.122,0,0,1,4.38.03C4.517.017,4.656.009,4.794,0Z" transform="matrix(0.951, -0.309, 0.309, 0.951, 336.458, 94.443)" fill="none" stroke="#fff" stroke-linecap="round" stroke-linejoin="round" stroke-width="2"/>
      <path id="Path_11344" data-name="Path 11344" d="M1.855.035a2.1,2.1,0,0,1,1.514.28C5.9,1.995,1.115,5.741.08,2.391A1.935,1.935,0,0,1,1.855.035Z" transform="matrix(0.951, -0.309, 0.309, 0.951, 353.318, 100.097)" fill="none" stroke="#fff" stroke-linecap="round" stroke-linejoin="round" stroke-width="2"/>
      <path id="Path_11345" data-name="Path 11345" d="M1.073.02a1.216,1.216,0,0,1,.876.162c1.465.972-1.3,3.138-1.9,1.2A1.119,1.119,0,0,1,1.073.02Z" transform="matrix(0.951, -0.309, 0.309, 0.951, 361.077, 103.452)" fill="none" stroke="#fff" stroke-linecap="round" stroke-linejoin="round" stroke-width="2"/>
      <path id="Path_11346" data-name="Path 11346" d="M7.142,10.038a14.648,14.648,0,0,1-2.709,2.055,4.208,4.208,0,0,1-1.788.641A1.4,1.4,0,0,1,1.377,12a3.23,3.23,0,0,1-.44-1.7,13.734,13.734,0,0,1,.523-3.362A11.158,11.158,0,0,1,2.24,4.564a.916.916,0,0,1,.816-.376.443.443,0,0,1,.385.292,1.422,1.422,0,0,1,.151.663,1.294,1.294,0,0,1-.193.574,10.137,10.137,0,0,0-.473.919Q2.905,6.725,2.6,7.7a6.231,6.231,0,0,0-.3,1.834,4.947,4.947,0,0,0,.138.937q.138.636.574.636a2.943,2.943,0,0,0,1.134-.3,7.187,7.187,0,0,0,1.52-.968A6.13,6.13,0,0,0,6.807,8.757a2.646,2.646,0,0,0,.414-.946,15.137,15.137,0,0,0,.172-2.3q.05-1.767.812-1.767.452,0,.586.252a2.3,2.3,0,0,1,.134.959q0,.583-.075,1.458-.092,1.1-.117,1.573a33.759,33.759,0,0,1-.6,4.882,13.9,13.9,0,0,1-1.4,4.1,2.813,2.813,0,0,1-2.537,1.648,4.917,4.917,0,0,1-2.918-.906Q0,16.807,0,16.18a1.365,1.365,0,0,1,.13-.574q.13-.283.331-.283.1,0,.218.168a3.759,3.759,0,0,0,3.45,1.776q1.214,0,2.039-2.249a14.04,14.04,0,0,0,.908-4.22Q7.092,10.418,7.142,10.038ZM17,9.314A12.162,12.162,0,0,1,14.8,12.256,3.211,3.211,0,0,1,12.718,13.3a1.559,1.559,0,0,1-1.126-.68,3.2,3.2,0,0,1-.574-2.094,16.4,16.4,0,0,1,.527-3.411,13.6,13.6,0,0,0,.444-2.642.8.8,0,0,1,.762-.53.682.682,0,0,1,.561.261.858.858,0,0,1,.209.543,5.677,5.677,0,0,1-.41,1.759,11.823,11.823,0,0,0-.779,3.809q0,1.449.636,1.449.812,0,2.068-1.458a12.365,12.365,0,0,0,2.152-4.065,6.224,6.224,0,0,1,.574-1.356.7.7,0,0,1,.6-.314q.569,0,.569.8a4.141,4.141,0,0,1-.159.645,14.581,14.581,0,0,0-.5,3.658,3.844,3.844,0,0,0,.645,2.678q.335.327.335.53,0,.247-.339.451a1.223,1.223,0,0,1-.615.2q-.586,0-.946-.919a7.817,7.817,0,0,1-.36-2.713V9.605Q16.988,9.464,17,9.314ZM27.864,6.168q-.779.018-3.332,4.869a16.74,16.74,0,0,1-1,1.781,1.255,1.255,0,0,1-.523.261,2.279,2.279,0,0,1-.632.115q-.561,0-.561-2.306a36.674,36.674,0,0,1,.527-4.7,14.509,14.509,0,0,0,.218-1.971q0-.583.494-.583.929,0,.929,1.414a20.485,20.485,0,0,1-.31,2.6q-.36,2.209-.368,2.686a12.742,12.742,0,0,0,1.524-2.324,17.283,17.283,0,0,1,2.1-3.115,2,2,0,0,1,1.394-.658q.544,0,.867.769a13.132,13.132,0,0,1,.389,3.667A4.28,4.28,0,0,0,29.7,9.747q.109.353.159.353.394,0,1.708-2.828A10.32,10.32,0,0,1,32.934,5a1.93,1.93,0,0,1,1.478-.778,1.036,1.036,0,0,1,.988.738,7.8,7.8,0,0,1,.444,2.187,21.379,21.379,0,0,0,.389,2.686A2.1,2.1,0,0,0,37.2,11.4q.477.239.477.557a.88.88,0,0,1-.4.636,1.213,1.213,0,0,1-.737.327,1.467,1.467,0,0,1-1.2-.866,10.323,10.323,0,0,1-.8-3.747,15.884,15.884,0,0,0-.226-1.644q-.109-.486-.343-.486-.352,0-.833.707A28.84,28.84,0,0,0,31.59,9.756,15.837,15.837,0,0,1,30.321,12a1.151,1.151,0,0,1-.833.561.863.863,0,0,1-.645-.3,1.407,1.407,0,0,1-.36-.733q-.075-.429-.159-2.108A8.962,8.962,0,0,0,27.864,6.168ZM41,8.757a3.269,3.269,0,0,1-.578-.071,1.241,1.241,0,0,1-.5-.177,13.834,13.834,0,0,1,.419-3.552,17.476,17.476,0,0,0,.427-2.943,2.308,2.308,0,0,1,.41-1.6A1.117,1.117,0,0,1,41.863,0a.666.666,0,0,1,.427.186A.54.54,0,0,1,42.508.6q0,.194-.921,4.48a15.5,15.5,0,0,0-.4,2.748A2.133,2.133,0,0,1,41,8.757Zm0,2.625a1.575,1.575,0,0,1-.414,1.237,1.186,1.186,0,0,1-.716.362q-.62,0-.62-.857a1.545,1.545,0,0,1,.3-.8q.3-.464.62-.464a1.064,1.064,0,0,1,.523.194Q41.009,11.249,41,11.382Z" transform="translate(274.192 90.683) rotate(-19)" fill="#fff"/>
      <path id="Path_11349" data-name="Path 11349" d="M65.583,21.718a15.781,15.781,0,0,0,1.1,5.76,4.049,4.049,0,0,0-.21.35H5.933A4.17,4.17,0,0,1,4,27.388a4.236,4.236,0,0,1-1.91-5.69C9.083,7.458,23.733,1,40.683,1c11.51,0,21.97,2.98,29.68,9.37A15.845,15.845,0,0,0,65.583,21.718Z" transform="translate(245.637 139.002)" fill="none" stroke="#fff" stroke-linecap="round" stroke-linejoin="round" stroke-width="1.996"/>
      <path id="Path_11350" data-name="Path 11350" d="M70.363,65c-7.15,1.87-20.21,2.49-30.05,2.34-16.94-.27-31.9.02-38.46-7.19a3.8,3.8,0,0,1,.41-5.2,3.951,3.951,0,0,1,2.87-1.29l60.5.12a15.684,15.684,0,0,0,1.34,6.29A16.01,16.01,0,0,0,70.363,65Z" transform="translate(245.637 139.002)" fill="none" stroke="#fff" stroke-linecap="round" stroke-linejoin="round" stroke-width="1.996"/>
      <path id="Path_11351" data-name="Path 11351" d="M64.3,33.708c-1.05.46-2.1.96-3.13,1.48-5.92,2.57-10.18,1.49-15.74-1.27-3.12-1.56-6.58-2.35-9.63-.13-2.37,1.72-4.43,4.01-7.55,4.17a22.747,22.747,0,0,1-10.62-2.63c-.68-.33-1.35-.7-2.01-1.08a12.7,12.7,0,0,1-11.29.2,4.485,4.485,0,0,1-1.63-1.23,2.005,2.005,0,0,1-.35-1.94c.4-1,1.67-1.3,2.76-1.27a15.184,15.184,0,0,1,6.52,1.97c1.36.72,2.66,1.52,3.99,2.27a.355.355,0,0,0,.09-.04,20.407,20.407,0,0,1,4.51-2.12" transform="translate(245.637 139.002)" fill="none" stroke="#ffbf40" stroke-linecap="round" stroke-linejoin="round" stroke-width="2"/>
      <path id="Path_11352" data-name="Path 11352" d="M66.723,49.058H6.883a4.655,4.655,0,1,1,0-9.31h55.65s-1.217,2.923-.17,5.25S66.723,49.058,66.723,49.058Z" transform="translate(245.637 139.002)" fill="none" stroke="#fff" stroke-linecap="round" stroke-linejoin="round" stroke-width="1.996"/>
      <path id="Path_11353" data-name="Path 11353" d="M27.233,6.728c-.48.11-.59,1.5-.48,2a.913.913,0,0,0,1.08.68v-.02a.912.912,0,0,0,.69-1.06c-.11-.49-.8-1.71-1.29-1.6m-11.67,9c-.35-.33-1.52.35-1.85.7a.858.858,0,0,0,.03,1.19.869.869,0,0,0,1.23,0,3.021,3.021,0,0,0,.7-1.58.433.433,0,0,0-.11-.31m7.72,6.82h-.01c-.3-.39-1.46-1.23-1.86-.93s.1,1.65.41,2.05a.912.912,0,0,0,1.28.19v-.01a.926.926,0,0,0,.18-1.3m30.03-16.51c-.23-.37-1.42-.06-1.8.16a.782.782,0,0,0-.25,1.08.035.035,0,0,0,.01.02.775.775,0,0,0,1.06.26c.38-.22,1.21-1.14.98-1.52m-2.93,16.1c-.47-.2-1.88-.34-2.07.13s.91,1.36,1.37,1.55a.93.93,0,0,0,1.2-.48v-.01a.917.917,0,0,0-.5-1.19m9.02-5.62c-.13-.48-.87-1.71-1.36-1.58s-.54,1.56-.41,2.05a.916.916,0,1,0,1.77-.47m-18.75-8.57a.843.843,0,0,0-.68.96v.01a.847.847,0,0,0,.98.68c.46-.08,1.61-.68,1.53-1.14s-1.38-.59-1.83-.51m-7.33,8.72h-.04a.871.871,0,0,0,.06,1.74c.48,0,1.78-.4,1.77-.89s-1.32-.85-1.79-.85" transform="translate(245.637 139.002)" fill="#fff"/>
      <path id="Path_11354" data-name="Path 11354" d="M63.4,59.948q-3.525-.6-7.08-1.04a81.924,81.924,0,0,0-25.65,1.69,118.588,118.588,0,0,0-17.14,5.14" transform="translate(245.637 139.002)" fill="none" stroke="#fff" stroke-linecap="round" stroke-linejoin="round" stroke-width="0.998"/>
      <path id="Path_11355" data-name="Path 11355" d="M2.265,54.945h0A152.876,152.876,0,0,1,48.659,67.229" transform="translate(245.637 139.002)" fill="none" stroke="#fff" stroke-linecap="round" stroke-linejoin="round" stroke-width="0.998"/>
      <line id="Line_105" data-name="Line 105" x1="6.37" y2="6.54" transform="translate(264.835 181.207)" fill="none" stroke="#fff" stroke-linecap="round" stroke-linejoin="round" stroke-width="0.998"/>
      <line id="Line_106" data-name="Line 106" x1="4.724" y2="4.724" transform="translate(279.624 178.84)" fill="none" stroke="#fff" stroke-linecap="round" stroke-linejoin="round" stroke-width="0.998"/>
      <line id="Line_107" data-name="Line 107" x1="5.17" y2="4.915" transform="translate(289.603 183.097)" fill="none" stroke="#fff" stroke-linecap="round" stroke-linejoin="round" stroke-width="0.998"/>
      <path id="Path_11309" data-name="Path 11309" d="M252.484,14038H215" transform="translate(105 -13837.671)" fill="none" stroke="#fff" stroke-width="1" opacity="0.54"/>
      <path id="Path_11311" data-name="Path 11311" d="M240.484,14038H215" transform="translate(-0.484 -13837.671)" fill="none" stroke="#fff" stroke-width="1" opacity="0.54"/>
      <rect id="Rectangle_2988" data-name="Rectangle 2988" width="26" height="6" transform="translate(220 100)" fill="none" stroke="#fff" stroke-linecap="round" stroke-linejoin="round" stroke-width="1" opacity="0.54"/>
      <rect id="Rectangle_2989" data-name="Rectangle 2989" width="25" height="8" transform="translate(324 124)" fill="none" stroke="#fff" stroke-linecap="round" stroke-linejoin="round" stroke-width="1" opacity="0.54"/>
    </g>
    <rect id="Rectangle_2993" data-name="Rectangle 2993" width="204" height="160" transform="translate(180 60)" fill="none"/>
  </g>
</svg>
