<svg xmlns="http://www.w3.org/2000/svg" width="160" height="172" viewBox="0 0 160 172">
  <g id="Coming_soon" data-name="Coming soon" transform="translate(-110 -319)">
    <rect id="Container" width="160" height="172" transform="translate(110 319)" fill="none"/>
    <g id="Shapes" transform="translate(0.129 -6.85)">
      <path id="Path_11551" data-name="Path 11551" d="M75.835,54.813c19.342,7.463,29.277,30.372,37.671,47.8,4.146,8.613,6.16,19.365,1,27.411-3.03,4.722-8.09,7.769-13.267,9.928-12.211,5.092-25.742,6.084-38.968,5.786-17.029-.383-35.109-3.284-47.848-14.59C-2.133,116.457-4.693,88.9,8.079,70.826c7.071-10.01,18.246-16.615,30.155-19.081,13.315-2.756,23.175-2.673,37.6,3.071" transform="translate(110 350.161)" fill="#eaeaea"/>
      <path id="Path_11552" data-name="Path 11552" d="M168.553,3.066c14.017,5.67,20.28,25.5,25.668,40.55,4.367,12.2,2.251,25.246-8.995,32.821-10.68,7.194-26.455,9.335-38.991,8.483-9.919-.675-19.951-4.283-26.74-11.546-7.014-7.5-9.892-18.216-9.455-28.477.57-13.391,6.67-26.614,17.019-35.132,11.162-9.186,28.057-12.914,41.494-6.7" transform="translate(73.168 330)" fill="#eaeaea"/>
    </g>
    <g id="Text" transform="translate(1867.232 19100.969)">
      <path id="Path_11522" data-name="Path 11522" d="M50.474,134.258a1.062,1.062,0,0,0-.792-.313.986.986,0,0,0-.774.415c-.35.461-.691.912-1.06,1.391-1.594,1.806-4.267,2.718-7.925,2.718-6.478,0-9.768-3.741-9.768-11.141,0-3.631.912-6.561,2.709-8.69a9.136,9.136,0,0,1,7.326-3.253,12.244,12.244,0,0,1,7.16,2.516c.59.433.829.461.885.461a1.2,1.2,0,0,0,1.143-1.133c0-.415-.369-.921-1.051-1.474a12.386,12.386,0,0,0-8.072-2.562A11.512,11.512,0,0,0,31,117.321a15.182,15.182,0,0,0-3.234,10.044c0,4.257,1.069,7.584,3.179,9.9s5.114,3.465,8.975,3.465a13.8,13.8,0,0,0,8.892-2.792c1.309-1.051,1.972-2.018,1.972-2.884a1.062,1.062,0,0,0-.313-.792" transform="translate(-1766 -18779.096)" fill="#060816"/>
      <path id="Path_11523" data-name="Path 11523" d="M50.787,135.051c0,.866-.663,1.834-1.972,2.884a13.8,13.8,0,0,1-8.892,2.792c-3.861,0-6.874-1.161-8.975-3.465s-3.179-5.64-3.179-9.9A15.182,15.182,0,0,1,31,117.321a11.512,11.512,0,0,1,9.252-4.128,12.386,12.386,0,0,1,8.072,2.562c.682.553,1.051,1.06,1.051,1.474a1.2,1.2,0,0,1-1.143,1.133c-.055,0-.295-.028-.885-.461a12.244,12.244,0,0,0-7.16-2.516,9.136,9.136,0,0,0-7.326,3.253c-1.8,2.129-2.709,5.059-2.709,8.69,0,7.4,3.29,11.141,9.768,11.141,3.658,0,6.331-.912,7.925-2.718.369-.479.71-.931,1.06-1.391a.986.986,0,0,1,.774-.415,1.072,1.072,0,0,1,1.106,1.106" transform="translate(-1766 -18779.096)" fill="#060816"/>
      <path id="Path_11524" data-name="Path 11524" d="M71.013,119.8a7.139,7.139,0,0,0-5.686-2.46,8.848,8.848,0,0,0-6.626,2.442,9.807,9.807,0,0,0-2.424,7.077,10.326,10.326,0,0,0,2.009,6.773,6.671,6.671,0,0,0,5.483,2.377,9.27,9.27,0,0,0,6.865-2.589,10.978,10.978,0,0,0,.378-13.62m-1.907,12.237a6.8,6.8,0,0,1-5.206,2.046,4.74,4.74,0,0,1-4.055-1.954,8.916,8.916,0,0,1-1.373-5.308c0-5.013,2.147-7.556,6.368-7.556a5.693,5.693,0,0,1,4.525,1.935,9.2,9.2,0,0,1-.258,10.837" transform="translate(-1768.238 -18779.422)" fill="#060816"/>
      <path id="Path_11525" data-name="Path 11525" d="M71.013,119.8a7.139,7.139,0,0,0-5.686-2.46,8.848,8.848,0,0,0-6.626,2.442,9.807,9.807,0,0,0-2.424,7.077,10.326,10.326,0,0,0,2.009,6.773,6.671,6.671,0,0,0,5.483,2.377,9.27,9.27,0,0,0,6.865-2.589,10.978,10.978,0,0,0,.378-13.62m-1.907,12.237a6.8,6.8,0,0,1-5.206,2.046,4.74,4.74,0,0,1-4.055-1.954,8.916,8.916,0,0,1-1.373-5.308c0-5.013,2.147-7.556,6.368-7.556a5.693,5.693,0,0,1,4.525,1.935,9.2,9.2,0,0,1-.258,10.837" transform="translate(-1768.238 -18779.422)" fill="#060816"/>
      <path id="Path_11526" data-name="Path 11526" d="M95.137,118.446a5.761,5.761,0,0,0-5.216,3.05l-.369.608-.405-.59a3.163,3.163,0,0,0-2.764-1.456,3.973,3.973,0,0,0-3.483,1.7l-.82-.359.691-3.456c0-.912-.405-1.106-1.014-1.106a.981.981,0,0,0-.958.562,9.554,9.554,0,0,0-.673,2.525,72.761,72.761,0,0,0-1.087,12.744,39.112,39.112,0,0,0,.111,3.926c.184,1.493.608,2.258,1.262,2.258a1.122,1.122,0,0,0,.792-.276.812.812,0,0,0,.286-.636v-.009c-.055-.35-.092-.958-.157-1.981-.111-1.594-.157-3.336-.157-5.188,0-2.976.341-5.105,1.05-6.506a3.908,3.908,0,0,1,3.732-2.3c1.871,0,2.9.986,2.9,2.774,0,.147-.065,1.1-.184,2.82s-.175,3.382-.175,4.939c0,4.69.912,5.188,1.309,5.188.728,0,1.014-.3,1.014-1.087,0-.083-.028-.4-.157-1.4a19.806,19.806,0,0,1-.157-2.341,44.56,44.56,0,0,1,.59-9.1c.71-2.746,2.377-3.327,3.658-3.327,2.156,0,3.253,2.147,3.253,6.368a48.338,48.338,0,0,1-.544,7.169l-.12.8c-.258,1.778-.4,2.7-.405,2.709,0,.921.4.921.636.921.894,0,2.387-1.5,2.387-11.537,0-5.658-1.576-8.4-4.829-8.4" transform="translate(-1770.025 -18779.383)" fill="#060816"/>
      <path id="Path_11527" data-name="Path 11527" d="M99.965,126.85c0,10.035-1.493,11.537-2.387,11.537-.24,0-.636,0-.636-.921.009-.009.147-.931.405-2.709l.12-.8a48.338,48.338,0,0,0,.544-7.169c0-4.22-1.1-6.368-3.253-6.368-1.281,0-2.949.581-3.658,3.327a44.56,44.56,0,0,0-.59,9.1,19.806,19.806,0,0,0,.157,2.341c.129,1,.157,1.318.157,1.4,0,.783-.286,1.087-1.014,1.087-.4,0-1.309-.5-1.309-5.188,0-1.557.055-3.216.175-4.939s.184-2.672.184-2.82c0-1.788-1.032-2.774-2.9-2.774a3.908,3.908,0,0,0-3.732,2.3c-.71,1.4-1.05,3.529-1.05,6.506,0,1.852.046,3.594.157,5.188.065,1.023.1,1.631.157,1.981v.009a.812.812,0,0,1-.286.636,1.122,1.122,0,0,1-.792.276c-.654,0-1.078-.765-1.262-2.258a39.112,39.112,0,0,1-.111-3.926,72.761,72.761,0,0,1,1.087-12.744,9.554,9.554,0,0,1,.673-2.525.981.981,0,0,1,.958-.562c.608,0,1.014.194,1.014,1.106l-.691,3.456.82.359a3.973,3.973,0,0,1,3.483-1.7,3.163,3.163,0,0,1,2.764,1.456l.405.59.369-.608a5.761,5.761,0,0,1,5.216-3.05c3.253,0,4.829,2.746,4.829,8.4" transform="translate(-1770.025 -18779.383)" fill="#060816"/>
      <path id="Path_11528" data-name="Path 11528" d="M110.5,112.406a1.438,1.438,0,0,0-1.106-.433,1.778,1.778,0,0,0-1.815,1.788,1.586,1.586,0,0,0,.47,1.152,1.522,1.522,0,0,0,1.152.47c1.207,0,1.723-.525,1.723-1.76a1.672,1.672,0,0,0-.424-1.216m-1.235,5.953a.949.949,0,0,0-.986.636,7.507,7.507,0,0,0-.323,2.755c0,.083.009.6.028,1.539.028.958.037,1.861.037,2.728a49.866,49.866,0,0,1-.258,5.372,26.655,26.655,0,0,1-.488,3.041c-.111.5-.184.82-.24,1.032a.821.821,0,0,0,.295.608,1.029,1.029,0,0,0,.746.295.964.964,0,0,0,.949-.59,7.782,7.782,0,0,0,.553-2.295,104.475,104.475,0,0,0,.663-13.887c0-1.087-.47-1.235-.977-1.235" transform="translate(-1772.223 -18779)" fill="#060816"/>
      <path id="Path_11529" data-name="Path 11529" d="M110.5,112.406a1.438,1.438,0,0,0-1.106-.433,1.778,1.778,0,0,0-1.815,1.788,1.586,1.586,0,0,0,.47,1.152,1.522,1.522,0,0,0,1.152.47c1.207,0,1.723-.525,1.723-1.76a1.672,1.672,0,0,0-.424-1.216m-1.235,5.953a.949.949,0,0,0-.986.636,7.507,7.507,0,0,0-.323,2.755c0,.083.009.6.028,1.539.028.958.037,1.861.037,2.728a49.866,49.866,0,0,1-.258,5.372,26.655,26.655,0,0,1-.488,3.041c-.111.5-.184.82-.24,1.032a.821.821,0,0,0,.295.608,1.029,1.029,0,0,0,.746.295.964.964,0,0,0,.949-.59,7.782,7.782,0,0,0,.553-2.295,104.475,104.475,0,0,0,.663-13.887c0-1.087-.47-1.235-.977-1.235" transform="translate(-1772.223 -18779)" fill="#060816"/>
      <path id="Path_11530" data-name="Path 11530" d="M129.616,120.941a5.139,5.139,0,0,0-4.386-2.083,6.342,6.342,0,0,0-5.271,2.958l-.829,1.133v-1.769a9,9,0,0,1,.194-1.7,7.017,7.017,0,0,0,.175-1.216.654.654,0,0,0-.258-.507,1.083,1.083,0,0,0-.719-.249c-1.2,0-1.373,2.682-1.373,4.285,0,1.788.212,4.875.645,9.169.249,3.133.378,4.976.378,5.566a2.061,2.061,0,0,0,.295.875,1.034,1.034,0,0,0,.728.184c.267,0,1.078,0,1.078-2.23a29.183,29.183,0,0,0-.424-3.806,28.82,28.82,0,0,1-.442-4.313,6.955,6.955,0,0,1,1.539-4.681,4.939,4.939,0,0,1,3.916-1.778c2.829,0,4.276,2.212,4.276,6.561a20.934,20.934,0,0,1-.774,5.52c-.636,2.276-.728,2.7-.737,2.728a.679.679,0,0,0,.267.544,1.042,1.042,0,0,0,.71.249c.5,0,1-.7,1.419-1.972a23.1,23.1,0,0,0,1.2-7.261,10.314,10.314,0,0,0-1.6-6.211" transform="translate(-1773.017 -18779.436)" fill="#060816"/>
      <path id="Path_11531" data-name="Path 11531" d="M131.219,127.152a23.1,23.1,0,0,1-1.2,7.261c-.415,1.272-.921,1.972-1.419,1.972a1.042,1.042,0,0,1-.71-.249.679.679,0,0,1-.267-.544c.009-.028.1-.452.737-2.728a20.934,20.934,0,0,0,.774-5.52c0-4.349-1.447-6.561-4.276-6.561a4.939,4.939,0,0,0-3.916,1.778,6.955,6.955,0,0,0-1.539,4.681,28.82,28.82,0,0,0,.442,4.313,29.183,29.183,0,0,1,.424,3.806c0,2.23-.811,2.23-1.078,2.23a1.034,1.034,0,0,1-.728-.184,2.061,2.061,0,0,1-.295-.875c0-.59-.129-2.433-.378-5.566-.433-4.294-.645-7.381-.645-9.169,0-1.6.175-4.285,1.373-4.285a1.083,1.083,0,0,1,.719.249.654.654,0,0,1,.258.507,7.017,7.017,0,0,1-.175,1.216,9,9,0,0,0-.194,1.7v1.769l.829-1.133a6.342,6.342,0,0,1,5.271-2.958,5.139,5.139,0,0,1,4.386,2.083,10.314,10.314,0,0,1,1.6,6.211" transform="translate(-1773.017 -18779.436)" fill="#060816"/>
      <path id="Path_11532" data-name="Path 11532" d="M148.594,115.943c-2.387,0-2.866.433-2.949.571l-.175.249-.294-.055a7.748,7.748,0,0,0-1.42-.147,6.624,6.624,0,0,0-4.893,1.981,6.416,6.416,0,0,0-1.99,4.764,5.158,5.158,0,0,0,2.221,4.534l.4.295-.314.378c-2.331,2.847-2.82,4.165-2.82,4.764,0,.2,0,.608,1.061.608.4,0,1.133-.064,2.165-.175a24.581,24.581,0,0,1,2.608-.184c3.032,0,4.561.746,4.561,2.23A2.563,2.563,0,0,1,145,138.087a10.817,10.817,0,0,1-4.488.756,4.508,4.508,0,0,1-3.244-.9c-.267-.276-.525-.553-.756-.8a.811.811,0,0,0-.507-.249,1.144,1.144,0,0,0-.764.276.738.738,0,0,0-.3.581,2.432,2.432,0,0,0,1.309,2.083,7.481,7.481,0,0,0,4.1.977,12.254,12.254,0,0,0,6.515-1.456,4.261,4.261,0,0,0,2.2-3.815c0-2.672-1.944-3.972-5.962-3.972-.636,0-1.972.12-3.981.359l-.9.1.442-.783a8.244,8.244,0,0,1,2.239-2.525l.147-.111.176.018c1,.1,1.75.157,2.211.157a6.854,6.854,0,0,0,4.8-1.677,5.42,5.42,0,0,0,1.814-4.239,6.611,6.611,0,0,0-1.769-4.635l-.765-.839,1.133.064c.35.018.783.055,1.318.111.378.037.636.055.756.055.756,0,.912-.286.912-.756,0-.581-1.106-.921-3.05-.921m-.58,6.626a4.368,4.368,0,0,1-1.226,3.271A4.7,4.7,0,0,1,143.416,127c-3.621,0-4.377-2.027-4.377-3.732a5.037,5.037,0,0,1,1.318-3.594,4.483,4.483,0,0,1,3.4-1.41,4.144,4.144,0,0,1,3.078,1.189,4.233,4.233,0,0,1,1.18,3.115" transform="translate(-1774.414 -18779.313)" fill="#060816"/>
      <path id="Path_11533" data-name="Path 11533" d="M148.594,115.943c-2.387,0-2.866.433-2.949.571l-.175.249-.294-.055a7.748,7.748,0,0,0-1.42-.147,6.624,6.624,0,0,0-4.893,1.981,6.416,6.416,0,0,0-1.99,4.764,5.158,5.158,0,0,0,2.221,4.534l.4.295-.314.378c-2.331,2.847-2.82,4.165-2.82,4.764,0,.2,0,.608,1.061.608.4,0,1.133-.064,2.165-.175a24.581,24.581,0,0,1,2.608-.184c3.032,0,4.561.746,4.561,2.23A2.563,2.563,0,0,1,145,138.087a10.817,10.817,0,0,1-4.488.756,4.508,4.508,0,0,1-3.244-.9c-.267-.276-.525-.553-.756-.8a.811.811,0,0,0-.507-.249,1.144,1.144,0,0,0-.764.276.738.738,0,0,0-.3.581,2.432,2.432,0,0,0,1.309,2.083,7.481,7.481,0,0,0,4.1.977,12.254,12.254,0,0,0,6.515-1.456,4.261,4.261,0,0,0,2.2-3.815c0-2.672-1.944-3.972-5.962-3.972-.636,0-1.972.12-3.981.359l-.9.1.442-.783a8.244,8.244,0,0,1,2.239-2.525l.147-.111.176.018c1,.1,1.75.157,2.211.157a6.854,6.854,0,0,0,4.8-1.677,5.42,5.42,0,0,0,1.814-4.239,6.611,6.611,0,0,0-1.769-4.635l-.765-.839,1.133.064c.35.018.783.055,1.318.111.378.037.636.055.756.055.756,0,.912-.286.912-.756,0-.581-1.106-.921-3.05-.921m-.58,6.626a4.368,4.368,0,0,1-1.226,3.271A4.7,4.7,0,0,1,143.416,127c-3.621,0-4.377-2.027-4.377-3.732a5.037,5.037,0,0,1,1.318-3.594,4.483,4.483,0,0,1,3.4-1.41,4.144,4.144,0,0,1,3.078,1.189,4.233,4.233,0,0,1,1.18,3.115" transform="translate(-1774.414 -18779.313)" fill="#060816"/>
      <path id="Path_11534" data-name="Path 11534" d="M67.03,148.63a5.9,5.9,0,0,0-3.567-1.087,5.48,5.48,0,0,0-4.082,1.557,5.541,5.541,0,0,0-1.547,4.11,6.85,6.85,0,0,0,2.985,5.511c1.778,1.4,2.213,1.751,2.35,1.88a2.936,2.936,0,0,1,1.032,2.147,2.832,2.832,0,0,1-.874,2.11,3.1,3.1,0,0,1-2.239.839,3.723,3.723,0,0,1-2.885-1.511l-.1-.12V163.9c-.036-1.7-.727-1.7-.986-1.7-.6,0-1.206.175-1.206,1.474a3.414,3.414,0,0,0,1.372,2.8,5.87,5.87,0,0,0,3.8,1.2A5.334,5.334,0,0,0,65,166.231a4.926,4.926,0,0,0,1.493-3.75,4.56,4.56,0,0,0-1.17-3.087A24.607,24.607,0,0,0,62.3,156.85a6.844,6.844,0,0,1-1.622-1.64,3.814,3.814,0,0,1-.58-2.129c0-2.976,1.76-3.6,3.234-3.6a3.573,3.573,0,0,1,2.976,1.465c.158.249.313.5.424.691a.577.577,0,0,0,.507.221c.792,0,1.115-.323,1.115-1.106a2.691,2.691,0,0,0-1.326-2.119" transform="translate(-1768.209 -18781.793)" fill="#060816"/>
      <path id="Path_11535" data-name="Path 11535" d="M68.357,150.75c0,.783-.323,1.106-1.115,1.106a.577.577,0,0,1-.507-.221c-.111-.194-.267-.442-.424-.691a3.575,3.575,0,0,0-2.976-1.465c-1.474,0-3.234.627-3.234,3.6a3.814,3.814,0,0,0,.581,2.129,6.844,6.844,0,0,0,1.622,1.64,24.608,24.608,0,0,1,3.022,2.543,4.564,4.564,0,0,1,1.17,3.087A4.929,4.929,0,0,1,65,166.231a5.337,5.337,0,0,1-3.926,1.447,5.869,5.869,0,0,1-3.8-1.2,3.413,3.413,0,0,1-1.373-2.8c0-1.3.608-1.474,1.207-1.474.258,0,.949,0,.986,1.7v.166l.1.12a3.722,3.722,0,0,0,2.884,1.511,3.1,3.1,0,0,0,2.239-.839,2.829,2.829,0,0,0,.875-2.11,2.936,2.936,0,0,0-1.032-2.147c-.138-.129-.571-.479-2.35-1.88a6.851,6.851,0,0,1-2.986-5.511,5.538,5.538,0,0,1,1.548-4.11,5.48,5.48,0,0,1,4.082-1.557,5.894,5.894,0,0,1,3.566,1.087,2.69,2.69,0,0,1,1.327,2.119" transform="translate(-1768.209 -18781.793)" fill="#060816"/>
      <path id="Path_11536" data-name="Path 11536" d="M86.922,149.7a7.139,7.139,0,0,0-5.686-2.46,8.834,8.834,0,0,0-6.626,2.442,9.807,9.807,0,0,0-2.424,7.077,10.326,10.326,0,0,0,2.009,6.773,6.671,6.671,0,0,0,5.483,2.377,9.27,9.27,0,0,0,6.865-2.589,10.978,10.978,0,0,0,.378-13.62m-1.907,12.237a6.8,6.8,0,0,1-5.206,2.046,4.74,4.74,0,0,1-4.055-1.954,8.916,8.916,0,0,1-1.373-5.308c0-5.013,2.147-7.556,6.368-7.556a5.693,5.693,0,0,1,4.525,1.935,9.2,9.2,0,0,1-.258,10.837" transform="translate(-1769.487 -18781.77)" fill="#060816"/>
      <path id="Path_11537" data-name="Path 11537" d="M86.922,149.7a7.139,7.139,0,0,0-5.686-2.46,8.834,8.834,0,0,0-6.626,2.442,9.807,9.807,0,0,0-2.424,7.077,10.326,10.326,0,0,0,2.009,6.773,6.671,6.671,0,0,0,5.483,2.377,9.27,9.27,0,0,0,6.865-2.589,10.978,10.978,0,0,0,.378-13.62m-1.907,12.237a6.8,6.8,0,0,1-5.206,2.046,4.74,4.74,0,0,1-4.055-1.954,8.916,8.916,0,0,1-1.373-5.308c0-5.013,2.147-7.556,6.368-7.556a5.693,5.693,0,0,1,4.525,1.935,9.2,9.2,0,0,1-.258,10.837" transform="translate(-1769.487 -18781.77)" fill="#060816"/>
      <path id="Path_11538" data-name="Path 11538" d="M108.282,149.7a7.137,7.137,0,0,0-5.685-2.46,8.809,8.809,0,0,0-6.616,2.442c-1.613,1.659-2.424,4.036-2.424,7.077a10.326,10.326,0,0,0,2.009,6.773,6.672,6.672,0,0,0,5.484,2.377,9.268,9.268,0,0,0,6.864-2.589,10.96,10.96,0,0,0,.369-13.62m-1.9,12.237a6.831,6.831,0,0,1-5.207,2.046,4.717,4.717,0,0,1-4.055-1.954,8.923,8.923,0,0,1-1.372-5.308c0-5.013,2.137-7.556,6.367-7.556a5.693,5.693,0,0,1,4.525,1.935,7.818,7.818,0,0,1,1.631,5.234,7.946,7.946,0,0,1-1.888,5.6" transform="translate(-1771.165 -18781.77)" fill="#060816"/>
      <path id="Path_11539" data-name="Path 11539" d="M108.282,149.7a7.137,7.137,0,0,0-5.685-2.46,8.809,8.809,0,0,0-6.616,2.442c-1.613,1.659-2.424,4.036-2.424,7.077a10.326,10.326,0,0,0,2.009,6.773,6.672,6.672,0,0,0,5.484,2.377,9.268,9.268,0,0,0,6.864-2.589,10.96,10.96,0,0,0,.369-13.62m-1.9,12.237a6.831,6.831,0,0,1-5.207,2.046,4.717,4.717,0,0,1-4.055-1.954,8.923,8.923,0,0,1-1.372-5.308c0-5.013,2.137-7.556,6.367-7.556a5.693,5.693,0,0,1,4.525,1.935,7.818,7.818,0,0,1,1.631,5.234,7.946,7.946,0,0,1-1.888,5.6" transform="translate(-1771.165 -18781.77)" fill="#060816"/>
      <path id="Path_11540" data-name="Path 11540" d="M108.282,149.7a7.137,7.137,0,0,0-5.685-2.46,8.809,8.809,0,0,0-6.616,2.442c-1.613,1.659-2.424,4.036-2.424,7.077a10.326,10.326,0,0,0,2.009,6.773,6.672,6.672,0,0,0,5.484,2.377,9.268,9.268,0,0,0,6.864-2.589,10.96,10.96,0,0,0,.369-13.62m-1.9,12.237a6.831,6.831,0,0,1-5.207,2.046,4.717,4.717,0,0,1-4.055-1.954,8.923,8.923,0,0,1-1.372-5.308c0-5.013,2.137-7.556,6.367-7.556a5.693,5.693,0,0,1,4.525,1.935,7.818,7.818,0,0,1,1.631,5.234,7.946,7.946,0,0,1-1.888,5.6" transform="translate(-1771.165 -18781.77)" fill="#060816"/>
      <path id="Path_11541" data-name="Path 11541" d="M128.847,150.841a5.127,5.127,0,0,0-4.386-2.083,6.354,6.354,0,0,0-5.271,2.958l-.829,1.133v-1.76a9.17,9.17,0,0,1,.194-1.7,7.7,7.7,0,0,0,.184-1.216.642.642,0,0,0-.267-.507,1.058,1.058,0,0,0-.71-.249c-1.2,0-1.373,2.682-1.373,4.285,0,1.788.212,4.875.636,9.169.258,3.133.387,4.976.387,5.566a2.083,2.083,0,0,0,.286.875,1.046,1.046,0,0,0,.737.184c.258,0,1.069,0,1.069-2.23a27.609,27.609,0,0,0-.424-3.806,28.8,28.8,0,0,1-.433-4.313,7,7,0,0,1,1.53-4.681,4.952,4.952,0,0,1,3.916-1.778c2.838,0,4.276,2.212,4.276,6.561a20.56,20.56,0,0,1-.774,5.52c-.645,2.341-.728,2.718-.728,2.728a.7.7,0,0,0,.258.544,1.083,1.083,0,0,0,.719.249c.5,0,1-.7,1.419-1.972a23.09,23.09,0,0,0,1.189-7.261,10.25,10.25,0,0,0-1.6-6.211" transform="translate(-1772.957 -18781.783)" fill="#060816"/>
      <path id="Path_11542" data-name="Path 11542" d="M130.45,157.052a23.09,23.09,0,0,1-1.189,7.261c-.415,1.272-.921,1.972-1.419,1.972a1.083,1.083,0,0,1-.719-.249.7.7,0,0,1-.258-.544c0-.009.083-.387.728-2.728a20.56,20.56,0,0,0,.774-5.52c0-4.349-1.438-6.561-4.276-6.561a4.952,4.952,0,0,0-3.916,1.778,7,7,0,0,0-1.53,4.681,28.8,28.8,0,0,0,.433,4.313,27.609,27.609,0,0,1,.424,3.806c0,2.23-.811,2.23-1.069,2.23a1.046,1.046,0,0,1-.737-.184,2.083,2.083,0,0,1-.286-.875c0-.59-.129-2.433-.387-5.566-.424-4.294-.636-7.381-.636-9.169,0-1.6.175-4.285,1.373-4.285a1.058,1.058,0,0,1,.71.249.642.642,0,0,1,.267.507,7.7,7.7,0,0,1-.184,1.216,9.17,9.17,0,0,0-.194,1.7v1.76l.829-1.133a6.354,6.354,0,0,1,5.271-2.958,5.127,5.127,0,0,1,4.386,2.083,10.25,10.25,0,0,1,1.6,6.211" transform="translate(-1772.957 -18781.783)" fill="#060816"/>
    </g>
    <g id="Bird" transform="translate(1867.934 19101.148)">
      <path id="Path_11543" data-name="Path 11543" d="M13.96,48.658a45.113,45.113,0,0,1,87.891,14.317c0,24.911-20.194,31.278-45.106,31.278-10.036,0-19.308-1.033-26.8-3.9a30.5,30.5,0,0,1-14.29-11.475" transform="translate(-1740.214 -18779.365)" fill="none" stroke="#060816" stroke-linecap="round" stroke-linejoin="round" stroke-width="2"/>
      <path id="Path_11544" data-name="Path 11544" d="M14.694,49.362c8.169.5,3.094,33.72-10.58,31.8C-1.261,80.4-.83,48.416,14.694,49.362Z" transform="translate(-1739.933 -18780.047)" fill="none" stroke="#060816" stroke-linecap="round" stroke-linejoin="round" stroke-width="2"/>
      <line id="Line_125" data-name="Line 125" y2="5.986" transform="translate(-1663.208 -18680.439)" fill="none" stroke="#060816" stroke-linecap="round" stroke-linejoin="round" stroke-width="2"/>
      <line id="Line_126" data-name="Line 126" x1="4.338" y2="2.783" transform="translate(-1667.546 -18680.439)" fill="none" stroke="#060816" stroke-linecap="round" stroke-linejoin="round" stroke-width="2"/>
      <line id="Line_127" data-name="Line 127" x1="4.441" y1="2.783" transform="translate(-1663.208 -18680.439)" fill="none" stroke="#060816" stroke-linecap="round" stroke-linejoin="round" stroke-width="2"/>
      <line id="Line_128" data-name="Line 128" y2="5.986" transform="translate(-1702.993 -18680.439)" fill="none" stroke="#060816" stroke-linecap="round" stroke-linejoin="round" stroke-width="2"/>
      <line id="Line_129" data-name="Line 129" x1="4.338" y2="2.783" transform="translate(-1707.331 -18680.439)" fill="none" stroke="#060816" stroke-linecap="round" stroke-linejoin="round" stroke-width="2"/>
      <line id="Line_130" data-name="Line 130" x1="4.441" y1="2.783" transform="translate(-1702.993 -18680.439)" fill="none" stroke="#060816" stroke-linecap="round" stroke-linejoin="round" stroke-width="2"/>
      <path id="Path_11545" data-name="Path 11545" d="M63.643,59.4c0,2.564-2.724,1.6-6.084,1.6s-6.085.963-6.085-1.6,2.725-4.643,6.085-4.643S63.643,56.831,63.643,59.4Z" transform="translate(-1741.026 -18780.164)" fill="none" stroke="#060816" stroke-linecap="round" stroke-linejoin="round" stroke-width="2"/>
      <path id="Path_11546" data-name="Path 11546" d="M53.884,62.4c0-1.57,1.668-.98,3.727-.98s3.727-.59,3.727.98-1.668,2.844-3.727,2.844S53.884,63.975,53.884,62.4Z" transform="translate(-1741.078 -18780.305)" fill="none" stroke="#060816" stroke-linecap="round" stroke-linejoin="round" stroke-width="2"/>
      <path id="Path_11547" data-name="Path 11547" d="M79.441,48.5a4.3,4.3,0,1,1-4.3-4.3A4.3,4.3,0,0,1,79.441,48.5Z" transform="translate(-1741.445 -18779.934)" fill="none" stroke="#060816" stroke-linecap="round" stroke-linejoin="round" stroke-width="2"/>
      <path id="Path_11548" data-name="Path 11548" d="M46.393,49.246a4.3,4.3,0,1,1-4.3-4.3A4.3,4.3,0,0,1,46.393,49.246Z" transform="translate(-1740.729 -18779.951)" fill="none" stroke="#060816" stroke-linecap="round" stroke-linejoin="round" stroke-width="2"/>
      <path id="Path_11549" data-name="Path 11549" d="M103.21,59.011s13.793-2.651,18.2-4.2c29-10.217,17.994-34.5,8.231-34.5-5.957,0-9.793,12.832-9.793,12.832-1.739-2.887-2.014-7.231-5.441-8.808-2.1-.968-5.8-.744-4.817,2.441a10.68,10.68,0,0,0,.833,1.737c3.027,5.813-3.087,11.091-9,15.421" transform="translate(-1741.129 -18774.379)" fill="none" stroke="#060816" stroke-linecap="round" stroke-linejoin="round" stroke-width="2"/>
      <path id="Path_11550" data-name="Path 11550" d="M42.825,22.947s7.494-8.659-5.662-17.152c0,0,19.6.709,18.377,15.426,0,0,12.738-10.777-2.832-20.221,0,0,18.487.9,18.432,18.888" transform="translate(-1740.716 -18779)" fill="none" stroke="#060816" stroke-linecap="round" stroke-linejoin="round" stroke-width="2"/>
    </g>
  </g>
</svg>
