<svg xmlns="http://www.w3.org/2000/svg" width="168" height="168" viewBox="0 0 168 168">
  <g id="Illustration_Moon" transform="translate(-108 -350)">
    <rect id="Container" width="168" height="168" transform="translate(108 350)" fill="none"/>
    <path id="Shape" d="M221.13,148.086c17.411,1.591,28.01,17.693,38.487,31.69,9.888,13.211,21.2,27.392,17.825,43.545-3.422,16.4-19.135,25.766-33.928,33.628-15.876,8.436-33.429,17.814-50.068,11.007-17.48-7.151-26.892-25.66-30.88-44.121-3.923-18.161-1.25-37.306,10.115-52,11.574-14.97,29.606-25.467,48.45-23.745" transform="translate(-21.966 224.902)" fill="#eaeaea"/>
    <g id="Moon" transform="translate(-4.507 40.73)">
      <path id="Path_11275" data-name="Path 11275" d="M32.316,51.134a46.262,46.262,0,0,0,91.038,7.13,32.354,32.354,0,0,1-55.12-6.386" transform="translate(126 346)" fill="none" stroke="#0f111c" stroke-linecap="round" stroke-linejoin="round" stroke-width="2"/>
      <path id="Path_11276" data-name="Path 11276" d="M68.235,51.879a32.352,32.352,0,0,1,31.62-45.6A46.279,46.279,0,0,0,43.988,16.36" transform="translate(126 346)" fill="none" stroke="#0f111c" stroke-linecap="round" stroke-linejoin="round" stroke-width="2"/>
      <path id="Path_11277" data-name="Path 11277" d="M46.6,42.822c3.48-.73,6.7-2.683,5.476-6.982-1.03-3.625-6.756-5.853-9.949-3.651a1.3,1.3,0,0,0,.6,2.356,2.1,2.1,0,0,0,2.018-1.118,4.524,4.524,0,0,0,.466-2.374A13.814,13.814,0,0,0,39.563,20.27c-2.912-2.064-10.924-3.937-12.73.663-.806,2.053,2.1,3.161,3.65,2.7a2.426,2.426,0,0,0,1.148-.672A2.281,2.281,0,0,0,32.043,21a12.078,12.078,0,0,0-1.317-2.913C26.079,9.148,11.3,13.368,10.855,23.026a4.586,4.586,0,0,0,4.312,4.846c.134.008.269.01.4.006a1.563,1.563,0,0,0,1.461-.715c.836-1.887-3.052-3.3-4.266-3.517a10.916,10.916,0,0,0-5.906.642,10.037,10.037,0,0,0-5.84,8.364,9.849,9.849,0,0,0,3.966,8.517c2.826,2.185,6.584,2.052,9.963,2.047q14.011-.016,28.023-.024A18.088,18.088,0,0,0,46.6,42.822Z" transform="translate(126 346)" fill="none" stroke="#0f111c" stroke-linecap="round" stroke-linejoin="round" stroke-width="2"/>
      <path id="Path_11278" data-name="Path 11278" d="M127.947,44.035c1.859-.39,3.579-1.433,2.925-3.73-.55-1.936-3.609-3.127-5.315-1.95a.694.694,0,0,0,.321,1.258,1.122,1.122,0,0,0,1.078-.6,2.409,2.409,0,0,0,.249-1.268,7.381,7.381,0,0,0-3.015-5.761c-1.555-1.1-5.835-2.1-6.8.354-.431,1.1,1.122,1.689,1.95,1.443a1.3,1.3,0,0,0,.613-.359,1.218,1.218,0,0,0,.22-1.05,6.461,6.461,0,0,0-.7-1.557c-2.482-4.772-10.377-2.518-10.615,2.642a2.451,2.451,0,0,0,2.3,2.589c.071,0,.143.005.215,0a.834.834,0,0,0,.78-.382c.447-1.008-1.63-1.763-2.279-1.879a5.826,5.826,0,0,0-3.155.343A5.361,5.361,0,0,0,103.6,38.6a5.262,5.262,0,0,0,2.119,4.55c1.51,1.167,3.517,1.1,5.323,1.093q7.483-.007,14.97-.012A9.688,9.688,0,0,0,127.947,44.035Z" transform="translate(135 340)" fill="none" stroke="#0f111c" stroke-linecap="round" stroke-linejoin="round" stroke-width="2"/>
    </g>
  </g>
</svg>
