<svg xmlns="http://www.w3.org/2000/svg" width="200" height="144" viewBox="0 0 200 144">
  <g id="No_address" data-name="No address" transform="translate(-684 -1699)">
    <rect id="Container" width="200" height="144" transform="translate(684 1699)" fill="none"/>
    <path id="Shape" d="M86.745,36.564c22.355,1.526,39.932,22.005,54.167,37.321,7.034,7.568,12.547,18.026,9.788,27.982-1.62,5.843-5.87,10.606-10.527,14.49-10.981,9.158-24.635,14.5-38.386,18.424-17.705,5.045-37.3,7.826-54.064.222C25.938,125.121,14.492,97.489,21.9,74.744c4.1-12.6,13.53-22.984,25.039-29.335,12.866-7.1,23.074-10.164,39.8-8.842" transform="translate(700 1687)" fill="#eaeaea"/>
    <g id="No_address-2" data-name="No address" transform="translate(0 6.979)">
      <path id="Path_11345" data-name="Path 11345" d="M67.938,17.107A15.212,15.212,0,0,0,52.726,32.318c0,8.409,6.812,22.558,15.212,22.558S83.15,40.727,83.15,32.318A15.212,15.212,0,0,0,67.938,17.107Zm0,21.39a7.17,7.17,0,1,1,7.172-7.166h0A7.169,7.169,0,0,1,67.938,38.5Z" transform="translate(700 1687)" fill="none" stroke="#060816" stroke-linecap="round" stroke-linejoin="round" stroke-width="2"/>
      <path id="Path_11346" data-name="Path 11346" d="M114.219,100.572c-3.858,3.792-17.463,3.44-21.639,0s-3.945-17.431-.545-21.639,18.9-3.825,22.73,0S118.077,96.78,114.219,100.572Z" transform="translate(700 1687)" fill="none" stroke="#060816" stroke-linecap="round" stroke-linejoin="round" stroke-width="2"/>
      <line id="Line_101" data-name="Line 101" x1="6.886" y2="8.797" transform="translate(797.39 1769.523)" fill="none" stroke="#060816" stroke-linecap="round" stroke-linejoin="round" stroke-width="2"/>
      <line id="Line_102" data-name="Line 102" x1="4.27" y2="5.455" transform="translate(803.36 1778.227)" fill="none" stroke="#060816" stroke-linecap="round" stroke-linejoin="round" stroke-width="2"/>
      <path id="Path_11347" data-name="Path 11347" d="M51.94,121.5c-.656-7.877-1.117-29.16-1.1-31.893.021-4.312.924-8.635,2.569-10.669,3.4-4.208,18.9-3.826,22.729,0,1.892,1.891,2.723,6.275,2.613,10.683-.175,7.005-.958,32.624-.958,32.624" transform="translate(700 1687)" fill="none" stroke="#060816" stroke-linecap="round" stroke-linejoin="round" stroke-width="2"/>
      <path id="Path_11348" data-name="Path 11348" d="M43.183,122.24a152.559,152.559,0,0,1-3.757-45.58" transform="translate(700 1687)" fill="none" stroke="#060816" stroke-linecap="round" stroke-linejoin="round" stroke-width="2"/>
      <path id="Path_11349" data-name="Path 11349" d="M128.413,76.66a152.588,152.588,0,0,1-3.757,45.58" transform="translate(700 1687)" fill="none" stroke="#060816" stroke-linecap="round" stroke-linejoin="round" stroke-width="2"/>
      <path id="Path_11350" data-name="Path 11350" d="M40.784,129.722c-3.5,0-2.638-2.835-2.638-6.331v-1.15h91.548v1.15c0,3.5.662,6.331-2.835,6.331" transform="translate(700 1687)" fill="none" stroke="#060816" stroke-linecap="round" stroke-linejoin="round" stroke-width="2"/>
      <line id="Line_103" data-name="Line 103" y1="4.408" transform="translate(773.948 1787.709)" fill="none" stroke="#060816" stroke-linecap="round" stroke-linejoin="round" stroke-width="2"/>
      <path id="Path_11351" data-name="Path 11351" d="M83.647,47.939H119.29a10.446,10.446,0,0,1,8,3.735l5.877,7.014a6.175,6.175,0,0,1-4.733,10.141H39.563a6.175,6.175,0,0,1-4.686-10.2l6.505-7.583a8.923,8.923,0,0,1,6.769-3.111h3.922" transform="translate(700 1687)" fill="none" stroke="#060816" stroke-linecap="round" stroke-linejoin="round" stroke-width="2"/>
      <line id="Line_104" data-name="Line 104" y2="4.346" transform="translate(815 1726.764)" fill="none" stroke="#060816" stroke-linecap="round" stroke-linejoin="round" stroke-width="2"/>
      <line id="Line_105" data-name="Line 105" y1="4.346" transform="translate(800.26 1726.764)" fill="none" stroke="#060816" stroke-linecap="round" stroke-linejoin="round" stroke-width="2"/>
      <path id="Path_11352" data-name="Path 11352" d="M117.764,39.763H97.5a3.076,3.076,0,1,1,0-6.152h20.266a3.076,3.076,0,0,1,0,6.152Z" transform="translate(700 1687)" fill="none" stroke="#060816" stroke-linecap="round" stroke-linejoin="round" stroke-width="2"/>
      <path id="Path_11353" data-name="Path 11353" d="M121.757,48.216c-24.1,7.305-13.684,22.816-7.653,19.344,6.8-3.916-14.172-10.265-37.777-6.028-19.817,3.558-29.468-5.284-34.1-9.7-.279-.266-.564-.526-.852-.778" transform="translate(700 1687)" fill="none" stroke="#060816" stroke-linecap="round" stroke-linejoin="round" stroke-width="2"/>
      <path id="Path_11354" data-name="Path 11354" d="M114.377,17.251a4.892,4.892,0,0,0-2.869.713,3.048,3.048,0,0,0-1.422,2.5c.026,1.444,1.232,2.551,1.887,3.839a3.77,3.77,0,0,1,.115,3.458c-.3.548-.775.984-1.1,1.52" transform="translate(700 1687)" fill="none" stroke="#060816" stroke-linecap="round" stroke-linejoin="round" stroke-width="2"/>
      <path id="Path_11355" data-name="Path 11355" d="M105.165,30.027a9.982,9.982,0,0,0-2.226-4.925c-.963-1.142-2.177-2.058-3.105-3.23a4.593,4.593,0,0,1-1.078-4.16,4.217,4.217,0,0,1,1.674-2.037" transform="translate(700 1687)" fill="none" stroke="#060816" stroke-linecap="round" stroke-linejoin="round" stroke-width="2"/>
    </g>
  </g>
</svg>
