<svg xmlns="http://www.w3.org/2000/svg" width="200" height="144" viewBox="0 0 200 144">
  <g id="No_meal" data-name="No meal" transform="translate(-444 -1480)">
    <rect id="Container" width="200" height="144" transform="translate(444 1480)" fill="none"/>
    <path id="Shape" d="M87.647,36.9C100.418,38.764,112,44.947,122.78,54.15a231.962,231.962,0,0,1,19.18,18.617c7.034,7.568,12.548,18.026,9.788,27.982-1.62,5.844-5.87,10.606-10.527,14.49-10.981,9.158-24.635,14.505-38.386,18.424-17.705,5.045-37.3,7.827-54.064.222C26.986,124,15.541,96.371,22.951,73.627c6.106-18.741,23.732-31.31,42.381-35.645A59.631,59.631,0,0,1,87.647,36.9" transform="translate(460 1468)" fill="#eaeaea"/>
    <g id="No_meal-2" data-name="No meal" transform="translate(455.007 1464.471)">
      <path id="Path_11262" data-name="Path 11262" d="M114.226,91.605c6.928,6.775,10.372,14.825,2.332,22.563" transform="translate(7.125 4.371)" fill="none" stroke="#060816" stroke-linecap="round" stroke-linejoin="round" stroke-width="2"/>
      <path id="Path_11263" data-name="Path 11263" d="M28.517,115.972A35.526,35.526,0,0,1,43.9,78.039c9.817-6.389,21.274-7.721,32.5-6.119" transform="translate(0.447 2.806)" fill="none" stroke="#060816" stroke-linecap="round" stroke-linejoin="round" stroke-width="2"/>
      <path id="Path_11264" data-name="Path 11264" d="M106.718,65.874c-.883-2.353,4.592-4.343,4.592-4.343a3,3,0,0,0,.682-3.025,4.074,4.074,0,0,1-.219-1.5,4.537,4.537,0,1,1,9.075,0h0a1.532,1.532,0,0,0,1.5,1.5,4.537,4.537,0,0,1,0,9.075,4.693,4.693,0,0,1-1.5-.246,3.013,3.013,0,0,0-3.025.708s-2.287,5.179-4.647,4.289A13.759,13.759,0,0,1,106.718,65.874Z" transform="translate(6.539 1.353)" fill="none" stroke="#060816" stroke-linecap="round" stroke-linejoin="round" stroke-width="2"/>
      <path id="Path_11265" data-name="Path 11265" d="M113.45,77.685c-6.1,6.05,1.373,12.124-6.311,21.362a17.881,17.881,0,0,1-7.44,5.477A18.146,18.146,0,0,1,81.632,73.513c9.21-7.685,15.086-.406,21.135-6.456" transform="translate(4.089 2.478)" fill="none" stroke="#060816" stroke-linecap="round" stroke-linejoin="round" stroke-width="2"/>
      <path id="Path_11266" data-name="Path 11266" d="M82.555,87A5.873,5.873,0,0,1,86.3,79.591l.158-.05" transform="translate(4.66 3.441)" fill="none" stroke="#060816" stroke-linecap="round" stroke-linejoin="round" stroke-width="2"/>
      <path id="Path_11267" data-name="Path 11267" d="M59.617,35.3a11.84,11.84,0,0,0-.949,5.126,31.5,31.5,0,0,0,.808,7.282,11.946,11.946,0,0,0,1.867,4.524A5.39,5.39,0,0,0,65.5,54.54a3.53,3.53,0,0,0,3.509-2.834c.266-2.125-2.076-3.915-4.2-3.671A6.624,6.624,0,0,0,60,51.9a11.171,11.171,0,0,0-1.127,6.187,16.865,16.865,0,0,0,1.708,5.989" transform="translate(2.841 0.029)" fill="none" stroke="#060816" stroke-linecap="round" stroke-linejoin="round" stroke-width="2"/>
      <path id="Path_11268" data-name="Path 11268" d="M73.656,34.921A12.211,12.211,0,0,1,78.991,44.6c.11,4.362-2.136,8.418-4.584,12.029a17.982,17.982,0,0,0-2.114,3.647,5.316,5.316,0,0,0-.019,4.111" transform="translate(3.859)" fill="none" stroke="#060816" stroke-linecap="round" stroke-linejoin="round" stroke-width="2"/>
      <path id="Path_11269" data-name="Path 11269" d="M50.145,36.765c-3.475,2.053-1.961,9.1-1.023,12.1,1.281,4.093,5.433,11.844,2.309,15.9" transform="translate(2.016 0.142)" fill="none" stroke="#060816" stroke-linecap="round" stroke-linejoin="round" stroke-width="2"/>
      <path id="Path_11270" data-name="Path 11270" d="M40.081,103.623C38.387,98.888,44.1,85.771,53.515,85.138" transform="translate(1.385 3.872)" fill="none" stroke="#060816" stroke-linecap="round" stroke-linejoin="round" stroke-width="2"/>
      <path id="Path_11271" data-name="Path 11271" d="M126.1,121.5H29.153a7.326,7.326,0,0,1-7.327-7.325v-1.4h111.6v1.4A7.326,7.326,0,0,1,126.1,121.5Z" transform="translate(0 6.004)" fill="none" stroke="#060816" stroke-linecap="round" stroke-linejoin="round" stroke-width="2"/>
      <path id="Path_11272" data-name="Path 11272" d="M145.436,114.152H140.3a7.325,7.325,0,0,1-7.324-7.325v-1.4h19.786v1.4A7.325,7.325,0,0,1,145.436,114.152Z" transform="translate(8.571 5.437)" fill="none" stroke="#060816" stroke-linecap="round" stroke-linejoin="round" stroke-width="2"/>
      <path id="Path_11273" data-name="Path 11273" d="M135.983,105.355c-.617-3.068,2.82-4.653,5.37-4.283a10.954,10.954,0,0,1,4.415,1.758c1.234.842,2.33,2.444,3.77,2.937" transform="translate(8.798 5.097)" fill="none" stroke="#060816" stroke-linecap="round" stroke-linejoin="round" stroke-width="2"/>
      <path id="Path_11274" data-name="Path 11274" d="M152.19,109.227c-6.23-1.463-12.225,2.875-18.328.853" transform="translate(8.64 5.706)" fill="none" stroke="#060816" stroke-linecap="round" stroke-linejoin="round" stroke-width="2"/>
    </g>
  </g>
</svg>
