<svg xmlns="http://www.w3.org/2000/svg" width="200" height="144" viewBox="0 0 200 144">
  <g id="No_notifications" data-name="No notifications" transform="translate(-1132 -1699)">
    <path id="Shape" d="M89.122,36.564c21.231,1.526,37.924,22.005,51.443,37.321,6.68,7.568,11.916,18.026,9.295,27.982-1.538,5.843-5.574,10.606-10,14.49-10.429,9.158-23.4,14.5-36.456,18.424-16.814,5.045-35.423,7.826-51.345.222C31.373,125.121,20.5,97.489,27.54,74.744A52.357,52.357,0,0,1,51.321,45.409c12.219-7.1,21.913-10.164,37.8-8.842" transform="translate(1144 1684)" fill="#eaeaea"/>
    <rect id="Container" width="200" height="144" transform="translate(1132 1699)" fill="none"/>
    <g id="No_notifications-2" data-name="No notifications" transform="translate(-6.735 -3.782)">
      <path id="Path_11365" data-name="Path 11365" d="M87.066,51.565c-20.384,0-29.235,18.452-29.235,30.654,0,9.118,1.324,6.434-3.723,17.556C47.946,115.625,72.728,122.1,87.066,122.1s39.114-6.48,32.956-22.327c-5.056-11.121-3.723-8.438-3.723-17.556C116.3,70.017,107.439,51.565,87.066,51.565Z" transform="translate(1149.413 1687.551)" fill="none" stroke="#060816" stroke-linecap="round" stroke-linejoin="round" stroke-width="2"/>
      <path id="Path_11366" data-name="Path 11366" d="M98,123.165c-3.623,6.574-7.42,8.06-11.842,8.064-3.757,0-8.611-2.279-11.849-8.064" transform="translate(1150.32 1690.62)" fill="none" stroke="#060816" stroke-linecap="round" stroke-linejoin="round" stroke-width="2"/>
      <path id="Path_11367" data-name="Path 11367" d="M131.8,55.736l-1.822-2.36a2.054,2.054,0,0,1-.426-1.071l-.262-2.966a1.292,1.292,0,0,0-2.076-.9l-2.359,1.82a2.036,2.036,0,0,1-1.078.422l-2.966.262a1.293,1.293,0,0,0-.9,2.079l1.82,2.359a2.042,2.042,0,0,1,.422,1.079l.262,2.965a1.294,1.294,0,0,0,2.079.9l2.361-1.823a2.069,2.069,0,0,1,1.071-.421l2.967-.265a1.275,1.275,0,0,0,1.07-.769l.03-.087a1.271,1.271,0,0,0-.2-1.232Z" transform="translate(1152.263 1687.405)" fill="none" stroke="#060816" stroke-linecap="round" stroke-linejoin="round" stroke-width="2"/>
      <path id="Path_11368" data-name="Path 11368" d="M53.5,49.924,50.8,46.43a3.054,3.054,0,0,1-.63-1.586l-.387-4.393a1.913,1.913,0,0,0-3.075-1.335l-3.492,2.695a3.039,3.039,0,0,1-1.6.626l-4.392.387a1.916,1.916,0,0,0-1.334,3.08L38.587,49.4a3.022,3.022,0,0,1,.626,1.6l.388,4.392a1.916,1.916,0,0,0,3.078,1.337l3.5-2.7A3.056,3.056,0,0,1,47.76,53.4l4.393-.391a1.887,1.887,0,0,0,1.584-1.139l.046-.128a1.876,1.876,0,0,0-.291-1.823Z" transform="translate(1148.656 1687)" fill="none" stroke="#060816" stroke-linecap="round" stroke-linejoin="round" stroke-width="2"/>
      <path id="Path_11369" data-name="Path 11369" d="M77.706,47.864a7.889,7.889,0,1,1,15.779,0" transform="translate(1150.466 1687.054)" fill="none" stroke="#060816" stroke-linecap="round" stroke-linejoin="round" stroke-width="2"/>
      <path id="Path_11370" data-name="Path 11370" d="M113.851,71.369q-7.094,1.724-14.144,3.625a27.323,27.323,0,0,0-7.451,2.835,9.518,9.518,0,0,0-4.6,6.252c-.427,2.634.977,5.625,3.51,6.461a6.394,6.394,0,0,0,5.715-1.285,9.616,9.616,0,0,0,2.992-10.915c-1.39-3.45-4.66-5.73-7.851-7.64A94.9,94.9,0,0,0,66.014,59.894" transform="translate(1149.965 1687.908)" fill="none" stroke="#060816" stroke-linecap="round" stroke-linejoin="round" stroke-width="2"/>
      <path id="Path_11371" data-name="Path 11371" d="M57.681,83.661c14.149-9.873,37.953,32.646,62.7,22.458" transform="translate(1149.607 1688.862)" fill="none" stroke="#060816" stroke-linecap="round" stroke-linejoin="round" stroke-width="2"/>
      <path id="Path_11372" data-name="Path 11372" d="M132.188,107.585A18.029,18.029,0,0,0,137.6,94.05a5.26,5.26,0,0,0-.873-3.058,3.276,3.276,0,0,0-4.174-.7,3.515,3.515,0,0,0-1.368,4.062c.695,1.925,2.854,2.866,4.848,3.331a23.76,23.76,0,0,0,4.705.611,7.127,7.127,0,0,0,3.307-.509,6.536,6.536,0,0,0,2.739-2.943,14.738,14.738,0,0,0,1.694-8.172" transform="translate(1152.75 1689.055)" fill="none" stroke="#060816" stroke-linecap="round" stroke-linejoin="round" stroke-width="2"/>
      <path id="Path_11373" data-name="Path 11373" d="M46.452,94.218c-6.686-.72-11.329-7.136-17.7-9.3-2.689-.914-6.182-.767-7.739,1.608a5.472,5.472,0,0,0-.805,2.517,4,4,0,0,0,1.147,3.513,3.287,3.287,0,0,0,3.9-.12,5.926,5.926,0,0,0,2.061-3.559c.835-3.787-.548-7.661-1.68-11.37a92.511,92.511,0,0,1-2.483-10.141" transform="translate(1148 1688.228)" fill="none" stroke="#060816" stroke-linecap="round" stroke-linejoin="round" stroke-width="2"/>
    </g>
  </g>
</svg>
