<svg xmlns="http://www.w3.org/2000/svg" width="200" height="144" viewBox="0 0 200 144">
  <g id="No_offers" data-name="No offers" transform="translate(-651 -1484)">
    <rect id="Container" width="200" height="144" transform="translate(651 1484)" fill="none"/>
    <path id="Shape" d="M42.1,85.184c-.82-17.253,15.059-32.875,26.831-45.392,5.816-6.185,14.255-11.516,23.051-10.469,5.162.615,9.648,3.356,13.421,6.5,8.894,7.417,14.777,17.285,19.444,27.379,6.01,13,10.259,27.679,5.337,41.307-6.4,17.708-28.989,29.407-49.188,26.169a44.74,44.74,0,0,1-27.526-16.011C46.162,105.59,42.564,98.114,42.1,85.183" transform="translate(665 1472)" fill="#eaeaea"/>
    <g id="No_offers-2" data-name="No offers" transform="translate(665 1469)">
      <path id="Path_11277" data-name="Path 11277" d="M99.922,72.727c4.274-9.7-2.669-20.988-9.819-27.315a11.683,11.683,0,0,0-5.247-3.362c-2.273-.28-2.413,1.644-2.2,3.253.8,6.786-4.163,11.263-9.41,15.356a40.582,40.582,0,0,0-6.611,5.877,27.634,27.634,0,1,0,48.307,23.191,26.561,26.561,0,0,0-2.589-18.4" fill="none" stroke="#060816" stroke-linecap="round" stroke-linejoin="round" stroke-width="2"/>
      <path id="Path_11278" data-name="Path 11278" d="M93.935,92.364c2.147-4.87-1.34-10.54-4.931-13.718a5.866,5.866,0,0,0-2.635-1.688c-1.142-.141-1.212.825-1.107,1.633.4,3.408-2.09,5.657-4.725,7.712a20.342,20.342,0,0,0-3.32,2.952,13.877,13.877,0,1,0,24.26,11.647,13.345,13.345,0,0,0-1.3-9.241" fill="none" stroke="#060816" stroke-linecap="round" stroke-linejoin="round" stroke-width="2"/>
      <path id="Path_11279" data-name="Path 11279" d="M86.983,105.328a3.786,3.786,0,0,1-4.34-3.132l-.015-.106" fill="none" stroke="#060816" stroke-linecap="round" stroke-linejoin="round" stroke-width="2"/>
      <path id="Path_11280" data-name="Path 11280" d="M117.446,50.87l-2.227-1.488a1.855,1.855,0,0,1-.668-.791l-1.072-2.451a1.161,1.161,0,0,0-2.027-.174l-1.487,2.224a1.844,1.844,0,0,1-.8.669l-2.451,1.071a1.162,1.162,0,0,0-.172,2.029l2.225,1.488a1.835,1.835,0,0,1,.668.8l1.071,2.45a1.162,1.162,0,0,0,2.029.175l1.489-2.228a1.857,1.857,0,0,1,.792-.665l2.451-1.074a1.144,1.144,0,0,0,.691-.961v-.083a1.138,1.138,0,0,0-.519-.992Z" fill="none" stroke="#060816" stroke-linecap="round" stroke-linejoin="round" stroke-width="2"/>
      <path id="Path_11281" data-name="Path 11281" d="M67.5,52.983l-.377-1.9a1.337,1.337,0,0,1,.062-.746l.705-1.8a.84.84,0,0,0-.947-1.125l-1.9.377a1.325,1.325,0,0,1-.75-.066l-1.8-.7a.841.841,0,0,0-1.125.949l.377,1.9a1.322,1.322,0,0,1-.066.749l-.705,1.8a.841.841,0,0,0,.947,1.127l1.9-.378a1.34,1.34,0,0,1,.744.065l1.8.7a.827.827,0,0,0,.845-.137l.043-.042a.826.826,0,0,0,.242-.773Z" fill="none" stroke="#060816" stroke-linecap="round" stroke-linejoin="round" stroke-width="2"/>
      <line id="Line_93" data-name="Line 93" x1="9.229" y1="6.527" transform="translate(96.225 115.271)" fill="none" stroke="#060816" stroke-linecap="round" stroke-linejoin="round" stroke-width="2"/>
      <path id="Path_11282" data-name="Path 11282" d="M105.454,121.8l7.019,4.948a5.334,5.334,0,0,1-6.153,8.715L86.984,121.787l19.347-13.674a5.334,5.334,0,1,1,6.153,8.715l-3.871,2.737" fill="none" stroke="#060816" stroke-linecap="round" stroke-linejoin="round" stroke-width="2"/>
      <line id="Line_94" data-name="Line 94" x1="9.229" y2="6.527" transform="translate(68.513 115.271)" fill="none" stroke="#060816" stroke-linecap="round" stroke-linejoin="round" stroke-width="2"/>
      <path id="Path_11283" data-name="Path 11283" d="M77.742,115.272l-10.107-7.159a5.334,5.334,0,1,0-6.153,8.715l7.031,4.971" fill="none" stroke="#060816" stroke-linecap="round" stroke-linejoin="round" stroke-width="2"/>
      <path id="Path_11284" data-name="Path 11284" d="M68.513,121.8l-7.019,4.948a5.334,5.334,0,0,0,6.153,8.715l19.336-13.675" fill="none" stroke="#060816" stroke-linecap="round" stroke-linejoin="round" stroke-width="2"/>
    </g>
  </g>
</svg>
