<svg xmlns="http://www.w3.org/2000/svg" width="200" height="144" viewBox="0 0 200 144">
  <g id="No_shop" data-name="No shop" transform="translate(16 -12)">
    <rect id="Container" width="200" height="144" transform="translate(-16 12)" fill="none"/>
    <path id="Shape" d="M87.793,35.447c22.355,1.526,39.932,22.005,54.167,37.321,7.034,7.568,12.547,18.026,9.788,27.982-1.62,5.843-5.87,10.606-10.527,14.49-10.981,9.158-24.635,14.5-38.386,18.424-17.705,5.045-37.3,7.826-54.064.222C26.986,124,15.54,96.372,22.951,73.627c4.1-12.595,13.53-22.984,25.039-29.335,12.866-7.1,23.074-10.164,39.8-8.842" fill="#eaeaea"/>
    <g id="No_Shop-2" data-name="No Shop" transform="translate(0.109)">
      <path id="Path_11286" data-name="Path 11286" d="M114.3,100.861c-3.858,3.792-17.463,3.44-21.639,0s-3.945-17.431-.545-21.639,18.9-3.825,22.73,0S118.158,97.069,114.3,100.861Z" fill="none" stroke="#060816" stroke-linecap="round" stroke-linejoin="round" stroke-width="2"/>
      <line id="Line_95" data-name="Line 95" x1="6.886" y2="8.797" transform="translate(97.471 82.812)" fill="none" stroke="#060816" stroke-linecap="round" stroke-linejoin="round" stroke-width="2"/>
      <line id="Line_96" data-name="Line 96" x1="4.27" y2="5.455" transform="translate(103.441 91.515)" fill="none" stroke="#060816" stroke-linecap="round" stroke-linejoin="round" stroke-width="2"/>
      <path id="Path_11287" data-name="Path 11287" d="M52.021,121.785c-.657-7.877-1.118-29.16-1.1-31.893.021-4.312.924-8.635,2.569-10.669,3.4-4.208,18.9-3.826,22.729,0,1.892,1.891,2.723,6.275,2.613,10.683-.175,7.005-.958,32.624-.958,32.624" fill="none" stroke="#060816" stroke-linecap="round" stroke-linejoin="round" stroke-width="2"/>
      <path id="Path_11288" data-name="Path 11288" d="M43.264,122.529a127.349,127.349,0,0,1-3.757-41.59" fill="none" stroke="#060816" stroke-linecap="round" stroke-linejoin="round" stroke-width="2"/>
      <path id="Path_11289" data-name="Path 11289" d="M128.494,80.939a127.372,127.372,0,0,1-3.757,41.59" fill="none" stroke="#060816" stroke-linecap="round" stroke-linejoin="round" stroke-width="2"/>
      <path id="Path_11290" data-name="Path 11290" d="M40.865,130.011c-3.5,0-2.638-2.835-2.638-6.331v-1.15h91.548v1.15c0,3.5.662,6.331-2.835,6.331" fill="none" stroke="#060816" stroke-linecap="round" stroke-linejoin="round" stroke-width="2"/>
      <line id="Line_97" data-name="Line 97" x1="74.457" transform="translate(46.559 42.022)" fill="none" stroke="#060816" stroke-linecap="round" stroke-linejoin="round" stroke-width="2"/>
      <path id="Path_11291" data-name="Path 11291" d="M127.585,47.134l.094.113,5.948,7.242a4.8,4.8,0,0,1-3.71,7.848H37.864A4.8,4.8,0,0,1,34.1,54.553l5.618-7.081c.094-.113.181-.225.281-.338" fill="none" stroke="#060816" stroke-linecap="round" stroke-linejoin="round" stroke-width="2"/>
      <path id="Path_11292" data-name="Path 11292" d="M102.591,62.337a9.372,9.372,0,1,0,18.744,0" fill="none" stroke="#060816" stroke-linecap="round" stroke-linejoin="round" stroke-width="2"/>
      <path id="Path_11293" data-name="Path 11293" d="M132.723,61.443v8.19a2.053,2.053,0,0,1-2,2.076H130.7a9.369,9.369,0,0,1-9.366-9.372" fill="none" stroke="#060816" stroke-linecap="round" stroke-linejoin="round" stroke-width="2"/>
      <path id="Path_11294" data-name="Path 11294" d="M35.171,61.443v8.241a2.025,2.025,0,0,0,2.022,2.025,9.369,9.369,0,0,0,9.366-9.372" fill="none" stroke="#060816" stroke-linecap="round" stroke-linejoin="round" stroke-width="2"/>
      <path id="Path_11295" data-name="Path 11295" d="M102.591,62.337A9.371,9.371,0,0,1,83.9,63.344a9.008,9.008,0,0,1-.056-1.007" fill="none" stroke="#060816" stroke-linecap="round" stroke-linejoin="round" stroke-width="2"/>
      <path id="Path_11296" data-name="Path 11296" d="M83.959,62.337a9.008,9.008,0,0,1-.056,1.007,9.367,9.367,0,0,1-18.588.313,9.259,9.259,0,0,1-.094-1.32" fill="none" stroke="#060816" stroke-linecap="round" stroke-linejoin="round" stroke-width="2"/>
      <path id="Path_11297" data-name="Path 11297" d="M46.672,62.337a9.368,9.368,0,0,0,18.643,1.32,9.259,9.259,0,0,0,.1-1.32" fill="none" stroke="#060816" stroke-linecap="round" stroke-linejoin="round" stroke-width="2"/>
      <path id="Path_11298" data-name="Path 11298" d="M130.725,44.014a2.562,2.562,0,0,1-2.5,3.12H39.888a2.643,2.643,0,0,1-2.61-1.968,2.562,2.562,0,0,1,2.492-3.143h88.346A2.639,2.639,0,0,1,130.725,44.014Z" fill="none" stroke="#060816" stroke-linecap="round" stroke-linejoin="round" stroke-width="2"/>
      <line id="Line_98" data-name="Line 98" y1="4.408" transform="translate(74.029 100.998)" fill="none" stroke="#060816" stroke-linecap="round" stroke-linejoin="round" stroke-width="2"/>
    </g>
  </g>
</svg>
