<svg xmlns="http://www.w3.org/2000/svg" width="200" height="144" viewBox="0 0 200 144">
  <g id="Something_went_wrong" data-name="Something went wrong" transform="translate(-684 -1914)">
    <rect id="Container" width="200" height="144" transform="translate(684 1914)" fill="none"/>
    <path id="Shape" d="M89.122,36.564c21.231,1.526,37.924,22.005,51.443,37.321,6.68,7.568,11.916,18.026,9.295,27.982-1.538,5.843-5.574,10.606-10,14.49-10.429,9.158-23.4,14.5-36.456,18.424-16.814,5.045-35.423,7.826-51.345.222C31.373,125.121,20.5,97.489,27.54,74.744A52.357,52.357,0,0,1,51.321,45.409c12.219-7.1,21.913-10.164,37.8-8.842" transform="translate(700 1900.475)" fill="#eaeaea"/>
    <g id="Something_went_wrong-2" data-name="Something went wrong" transform="translate(0 6.475)">
      <path id="Path_11424" data-name="Path 11424" d="M77.572,79.546a42.255,42.255,0,0,1,16.593-.013" transform="translate(700 1902)" fill="none" stroke="#060816" stroke-linecap="round" stroke-linejoin="round" stroke-width="2"/>
      <path id="Path_11425" data-name="Path 11425" d="M67.044,126.858c-11.934-1.269-17.193-5.061-17.193-17.236,0-14.611,11.827-26.854,27.721-30.076" transform="translate(700 1902)" fill="none" stroke="#060816" stroke-linecap="round" stroke-linejoin="round" stroke-width="2"/>
      <path id="Path_11426" data-name="Path 11426" d="M98.8,127.286c-4,.277-8.353.325-12.9.325-3.572,0-7.023-.03-10.281-.177" transform="translate(700 1902)" fill="none" stroke="#060816" stroke-linecap="round" stroke-linejoin="round" stroke-width="2"/>
      <path id="Path_11427" data-name="Path 11427" d="M94.164,79.534c15.925,3.2,27.783,15.459,27.783,30.089,0,10.282-5.857,14.7-14.866,16.6" transform="translate(700 1902)" fill="none" stroke="#060816" stroke-linecap="round" stroke-linejoin="round" stroke-width="2"/>
      <path id="Path_11428" data-name="Path 11428" d="M50.524,103.649l-31.6,1.552c-4.8.253-5.729,4.638-1.214,5.748l33.858,8.328" transform="translate(700 1902)" fill="none" stroke="#060816" stroke-linecap="round" stroke-linejoin="round" stroke-width="2"/>
      <path id="Path_11429" data-name="Path 11429" d="M122.322,103.649l29.466,1.552c4.8.253,5.729,4.638,1.213,5.748l-32.915,8.328" transform="translate(700 1902)" fill="none" stroke="#060816" stroke-linecap="round" stroke-linejoin="round" stroke-width="2"/>
      <path id="Path_11430" data-name="Path 11430" d="M79.194,74.622,86,65.226l6.636,9.4" transform="translate(700 1902)" fill="none" stroke="#060816" stroke-linecap="round" stroke-linejoin="round" stroke-width="2"/>
      <line id="Line_113" data-name="Line 113" y1="18.337" transform="translate(771.769 2010.949)" fill="none" stroke="#060816" stroke-linecap="round" stroke-linejoin="round" stroke-width="2"/>
      <line id="Line_114" data-name="Line 114" y1="5.585" x2="6.316" transform="translate(771.769 2011.168)" fill="none" stroke="#060816" stroke-linecap="round" stroke-linejoin="round" stroke-width="2"/>
      <line id="Line_115" data-name="Line 115" x2="6.316" y2="5.585" transform="translate(765.453 2011.168)" fill="none" stroke="#060816" stroke-linecap="round" stroke-linejoin="round" stroke-width="2"/>
      <line id="Line_116" data-name="Line 116" y1="18.337" transform="translate(801.866 2010.949)" fill="none" stroke="#060816" stroke-linecap="round" stroke-linejoin="round" stroke-width="2"/>
      <line id="Line_117" data-name="Line 117" y1="5.585" x2="6.316" transform="translate(801.866 2011.168)" fill="none" stroke="#060816" stroke-linecap="round" stroke-linejoin="round" stroke-width="2"/>
      <line id="Line_118" data-name="Line 118" x2="6.316" y2="5.585" transform="translate(795.55 2011.168)" fill="none" stroke="#060816" stroke-linecap="round" stroke-linejoin="round" stroke-width="2"/>
      <path id="Path_11431" data-name="Path 11431" d="M118.716,34.195c1.076,4.291-13.612,11.672-32.808,16.486s-35.629,5.236-36.7.945S62.816,39.953,82.011,35.14,117.64,29.9,118.716,34.195Z" transform="translate(700 1902)" fill="none" stroke="#060816" stroke-linecap="round" stroke-linejoin="round" stroke-width="2"/>
      <path id="Path_11432" data-name="Path 11432" d="M119.277,48.967c-.445,2.6-16.618,1.991-36.123-1.354S48.2,39.452,48.643,36.855s16.618-1.991,36.123,1.354S119.722,46.37,119.277,48.967Z" transform="translate(700 1902)" fill="none" stroke="#060816" stroke-linecap="round" stroke-linejoin="round" stroke-width="2"/>
      <path id="Path_11433" data-name="Path 11433" d="M78.828,24.369,77.62,22.8a1.357,1.357,0,0,1-.282-.71l-.174-1.967a.857.857,0,0,0-.934-.773.867.867,0,0,0-.443.175l-1.563,1.207a1.357,1.357,0,0,1-.716.28l-1.966.174a.858.858,0,0,0-.6,1.378l1.207,1.565a1.343,1.343,0,0,1,.28.715l.174,1.966a.858.858,0,0,0,1.378.6L75.549,26.2a1.373,1.373,0,0,1,.71-.279l1.967-.176a.846.846,0,0,0,.71-.509l.02-.058a.842.842,0,0,0-.13-.816Z" transform="translate(700 1902)" fill="none" stroke="#060816" stroke-linecap="round" stroke-linejoin="round" stroke-width="2"/>
      <path id="Path_11434" data-name="Path 11434" d="M112.641,62.279l-.671-.869a.761.761,0,0,1-.157-.4l-.1-1.093a.478.478,0,0,0-.519-.43.486.486,0,0,0-.247.1l-.869.67a.754.754,0,0,1-.4.156l-1.093.1a.477.477,0,0,0-.429.52.469.469,0,0,0,.1.246l.671.87a.745.745,0,0,1,.155.4l.1,1.093a.477.477,0,0,0,.766.333l.87-.672a.758.758,0,0,1,.394-.155l1.094-.1a.471.471,0,0,0,.394-.283l.011-.032a.467.467,0,0,0-.072-.454Z" transform="translate(700 1902)" fill="none" stroke="#060816" stroke-linecap="round" stroke-linejoin="round" stroke-width="2"/>
      <path id="Path_11435" data-name="Path 11435" d="M144.021,104.791a10.434,10.434,0,0,1-4.172,3.661c-1.614.846-3.325,1.418-4.978,2.158a28.773,28.773,0,0,0-6.1,3.719,12.589,12.589,0,0,0-3.126,3.347" transform="translate(700 1902)" fill="none" stroke="#060816" stroke-linecap="round" stroke-linejoin="round" stroke-width="2"/>
      <path id="Path_11436" data-name="Path 11436" d="M28.356,104.709a19.4,19.4,0,0,1,5.512,2.09,27.4,27.4,0,0,1,5.035,4.854,39.89,39.89,0,0,0,7.573,6.372" transform="translate(700 1902)" fill="none" stroke="#060816" stroke-linecap="round" stroke-linejoin="round" stroke-width="2"/>
    </g>
  </g>
</svg>
