<svg id="Layer_1" data-name="Layer 1" xmlns="http://www.w3.org/2000/svg" viewBox="0 0 272 324"><g id="illustration_Store_Start_page" data-name="illustration Store Start page"><g id="Building"><g id="Left_Build" data-name="Left Build"><rect id="Rectangle_1273" data-name="Rectangle 1273" x="8.57" y="122.39" width="94.36" height="201.01" fill="#f5f5f5"/><rect id="Rectangle_1274" data-name="Rectangle 1274" x="8.52" y="123.38" width="94.47" height="7.58" fill="#cacaca"/><path id="Path_719" data-name="Path 719" d="M3.85,120H107.71a3.8,3.8,0,0,1,3.85,3.75v0h0a3.83,3.83,0,0,1-3.85,3.79H3.85A3.8,3.8,0,0,1,0,123.83v0H0A3.76,3.76,0,0,1,3.73,120Z" fill="#eaeaea"/><rect id="Rectangle_1275" data-name="Rectangle 1275" x="8.52" y="214.32" width="94.47" height="7.58" fill="#cacaca"/><path id="Path_720" data-name="Path 720" d="M3.85,210.94H107.71a3.8,3.8,0,0,1,3.85,3.75v0h0a3.83,3.83,0,0,1-3.85,3.79H3.85A3.8,3.8,0,0,1,0,214.77v0H0a3.75,3.75,0,0,1,3.73-3.79Z" fill="#eaeaea"/><path id="Path_721" data-name="Path 721" d="M88.7,170.79v1.69c-.06,2.8-.18,5.6-.35,8.28-.47,6.65-1.28,12.43-2.51,15.4a2,2,0,0,1-1,1c-1.57.93-4.66,1.45-7.81,1.51H75.29c-3.44-.12-6.77-.64-8.23-1.75a1.84,1.84,0,0,1-.7-.81c-1.34-3.21-2.21-9-2.56-15.57q-.18-3.94-.18-8V170.8c0-.88,0-1.75.06-2.63v-.11c.23-8.75,1.23-17,2.68-20.94a2.58,2.58,0,0,1,1.4-1.28c.06-.06.12-.06.24-.12a15.43,15.43,0,0,1,5.24-1.05c.71-.06,1.35-.06,2.05-.06H77c.64,0,1.22.06,1.86.12a19.67,19.67,0,0,1,5.25,1.11l.17.12a3,3,0,0,1,1.52,1.16c1.87,3.56,2.74,12.25,2.8,21.4v.06C88.7,169.28,88.7,170,88.7,170.79Z" fill="#cacaca"/><path id="Path_722" data-name="Path 722" d="M84.44,200.36H67.59a.91.91,0,0,1-.88-.88h0a.91.91,0,0,1,.88-.87H84.44a.91.91,0,0,1,.88.87h0a.86.86,0,0,1-.84.88Z" fill="#cacaca"/><path id="Path_723" data-name="Path 723" d="M87.82,199.08H64.5a2,2,0,0,1-2-2v0h0a2,2,0,0,1,1.94-2H87.82a2,2,0,0,1,2,1.95v0h0A2,2,0,0,1,87.82,199.08Z" fill="#e0e0e0"/><path id="Path_724" data-name="Path 724" d="M47.88,170.79v1.69c-.06,2.8-.18,5.6-.35,8.28-.47,6.65-1.28,12.43-2.51,15.4a2,2,0,0,1-1,1c-1.57.93-4.61,1.45-7.81,1.51H34.47c-3.44-.12-6.77-.64-8.23-1.75a1.84,1.84,0,0,1-.7-.81c-1.34-3.21-2.21-9-2.56-15.57q-.18-3.94-.18-8V170.8c0-.88,0-1.75.06-2.63v-.11c.23-8.75,1.23-17,2.68-20.94a2.58,2.58,0,0,1,1.4-1.28c.06-.06.12-.06.24-.12a15.44,15.44,0,0,1,5.25-1.05c.69-.06,1.34-.06,2-.06h1.74c.65,0,1.23.06,1.87.12a19.67,19.67,0,0,1,5.25,1.11l.17.12A3,3,0,0,1,45,147.12c1.87,3.56,2.74,12.25,2.8,21.4v.06C47.88,169.28,47.88,170,47.88,170.79Z" fill="#cacaca"/><path id="Path_725" data-name="Path 725" d="M43.68,200.36H26.83a.91.91,0,0,1-.88-.88h0a.91.91,0,0,1,.88-.87H43.68a.89.89,0,0,1,.87.87h0A.89.89,0,0,1,43.68,200.36Z" fill="#cacaca"/><path id="Path_726" data-name="Path 726" d="M47,199.08H23.68a2,2,0,0,1-2-2v0h0a2,2,0,0,1,1.95-2H47a2,2,0,0,1,2,1.95v0h0a2,2,0,0,1-2,2Z" fill="#e0e0e0"/><path id="Path_727" data-name="Path 727" d="M88.7,264.21v1.69c-.06,2.8-.18,5.6-.35,8.28-.47,6.65-1.28,12.42-2.51,15.4a2,2,0,0,1-1,1c-1.57.94-4.66,1.46-7.81,1.52H75.29c-3.44-.12-6.77-.64-8.23-1.75a1.84,1.84,0,0,1-.7-.81c-1.34-3.21-2.21-9-2.56-15.57q-.18-3.94-.18-8v-1.69c0-.88,0-1.75.06-2.63v-.11c.23-8.75,1.23-17,2.68-20.94a2.58,2.58,0,0,1,1.4-1.28c.06-.06.12-.06.24-.12a15.43,15.43,0,0,1,5.24-1c.71-.06,1.35-.06,2.05-.06H77c.64,0,1.22.06,1.86.12a19.67,19.67,0,0,1,5.25,1.11l.17.11a3.05,3.05,0,0,1,1.52,1.17c1.87,3.56,2.74,12.25,2.8,21.4V262C88.7,262.75,88.7,263.51,88.7,264.21Z" fill="#cacaca"/><path id="Path_728" data-name="Path 728" d="M84.44,293.84H67.59a.92.92,0,0,1-.88-.88h0a.9.9,0,0,1,.88-.87H84.44a.9.9,0,0,1,.88.87h0a.86.86,0,0,1-.84.88Z" fill="#d3d3d3"/><path id="Path_729" data-name="Path 729" d="M87.82,292.55H64.5a2,2,0,0,1-2-1.94v0h0a2,2,0,0,1,1.94-2H87.82a2,2,0,0,1,2,2v0h0A2,2,0,0,1,87.82,292.55Z" fill="#e0e0e0"/><path id="Path_730" data-name="Path 730" d="M47.88,264.21v1.69c-.06,2.8-.18,5.6-.35,8.28-.47,6.65-1.28,12.42-2.51,15.4a2,2,0,0,1-1,1c-1.57.94-4.61,1.46-7.81,1.52H34.47c-3.44-.12-6.77-.64-8.23-1.75a1.84,1.84,0,0,1-.7-.81c-1.34-3.21-2.21-9-2.56-15.57q-.18-3.94-.18-8v-1.69c0-.88,0-1.75.06-2.63v-.11c.23-8.75,1.23-17,2.68-20.94a2.58,2.58,0,0,1,1.4-1.28c.06-.06.12-.06.24-.12a15.44,15.44,0,0,1,5.25-1c.69-.06,1.34-.06,2-.06h1.74c.65,0,1.23.06,1.87.12a19.67,19.67,0,0,1,5.25,1.11l.17.11A3.05,3.05,0,0,1,45,240.54c1.87,3.56,2.74,12.25,2.8,21.4V262C47.88,262.75,47.88,263.51,47.88,264.21Z" fill="#cacaca"/><path id="Path_731" data-name="Path 731" d="M43.68,293.84H26.83A.92.92,0,0,1,26,293h0a.9.9,0,0,1,.88-.87H43.68a.88.88,0,0,1,.87.87h0A.9.9,0,0,1,43.68,293.84Z" fill="#d3d3d3"/><path id="Path_732" data-name="Path 732" d="M47,292.55H23.68a2,2,0,0,1-2-1.94v0h0a2,2,0,0,1,1.95-2H47a2,2,0,0,1,2,2v0h0A2,2,0,0,1,47,292.55Z" fill="#e0e0e0"/><path id="Path_733" data-name="Path 733" d="M104.68,323.87H6.82A6.83,6.83,0,0,1,0,317.05H0a6.84,6.84,0,0,1,6.82-6.83h97.92a6.84,6.84,0,0,1,6.82,6.83h0a6.84,6.84,0,0,1-6.86,6.82Z" fill="#eaeaea"/></g><g id="Right_Build" data-name="Right Build"><path id="Path_734" data-name="Path 734" d="M263.43,145.73v177.8H169.07V151l40.3-5.26Z" fill="#f5f5f5"/><rect id="Rectangle_1276" data-name="Rectangle 1276" x="164.87" y="146.86" width="101.99" height="7.87" transform="translate(-17.68 29.18) rotate(-7.43)" fill="#cacaca"/><path id="Path_735" data-name="Path 735" d="M271,140.48a4,4,0,0,1-3.5,3.91l-2.16.29-98,12.77-6.82.88A4,4,0,0,1,156,155h0c0-.18-.06-.35-.06-.53a4,4,0,0,1,3.5-3.91l7.81-1L209.14,144l57.32-7.46a4,4,0,0,1,4.49,3.36v0A1.54,1.54,0,0,1,271,140.48Z" fill="#eaeaea"/><rect id="Rectangle_1277" data-name="Rectangle 1277" x="169.01" y="223.02" width="94.47" height="7.58" fill="#d3d3d3"/><path id="Path_736" data-name="Path 736" d="M164.29,219.58H268.15a3.8,3.8,0,0,1,3.85,3.75v0h0a3.83,3.83,0,0,1-3.85,3.79H164.29a3.8,3.8,0,0,1-3.85-3.75v0h0A3.83,3.83,0,0,1,164.29,219.58Z" fill="#eaeaea"/><path id="Path_737" data-name="Path 737" d="M217.24,202.39h-2.1c-3.5,0-6.94-.17-10.2-.4-8.23-.59-15.4-1.64-19-3.1a2.77,2.77,0,0,1-1.29-1.22c-1.16-1.92-1.81-5.72-1.92-9.68v-2.16c.12-4.26.81-8.34,2.16-10.15a2.6,2.6,0,0,1,1-.87c4-1.7,11.14-2.69,19.24-3.15,3.21-.18,6.59-.24,10-.24h2.1c1.11,0,2.16.06,3.27.06h.12c10.84.29,21,1.46,25.89,3.33a3.12,3.12,0,0,1,1.57,1.74c.06.06.06.18.12.24a20.17,20.17,0,0,1,1.28,6.47c.06.82.12,1.69.12,2.57V188a16.53,16.53,0,0,1-.17,2.34,24.7,24.7,0,0,1-1.35,6.47l-.11.23a3.61,3.61,0,0,1-1.46,1.87c-4.43,2.33-15.1,3.38-26.48,3.5Z" fill="#cacaca"/><path id="Path_738" data-name="Path 738" d="M245.47,203.5h-59a.89.89,0,0,1-.87-.87h0a.9.9,0,0,1,.87-.88h59a.91.91,0,0,1,.87.88h0A.93.93,0,0,1,245.47,203.5Z" fill="#cacaca"/><path id="Path_739" data-name="Path 739" d="M248.44,202.16H184.06a2,2,0,0,1-2-1.95v0h0a2,2,0,0,1,1.95-2h64.41a2,2,0,0,1,2,1.94v0h0a2,2,0,0,1-1.94,2Z" fill="#e0e0e0"/><path id="Path_740" data-name="Path 740" d="M217.24,283h-2.1c-3.5-.06-6.94-.18-10.2-.41-8.23-.58-15.4-1.63-19-3.09a2.84,2.84,0,0,1-1.29-1.23c-1.16-1.92-1.81-5.71-1.92-9.68v-2.16c.12-4.25.81-8.34,2.16-10.15a2.77,2.77,0,0,1,1-.87c4-1.69,11.14-2.68,19.24-3.15,3.21-.17,6.59-.23,10-.23h2.1c1.11,0,2.16.06,3.27.06h.12c10.84.29,21,1.45,25.89,3.32a3.14,3.14,0,0,1,1.57,1.75c.06.06.06.17.12.23a20.23,20.23,0,0,1,1.28,6.48c.06.81.12,1.69.12,2.56v2.16a16.49,16.49,0,0,1-.17,2.33,24.77,24.77,0,0,1-1.35,6.48l-.11.23a3.55,3.55,0,0,1-1.46,1.86c-4.43,2.34-15.1,3.39-26.48,3.5h0A20.13,20.13,0,0,1,217.24,283Z" fill="#cacaca"/><path id="Path_741" data-name="Path 741" d="M245.47,284.18h-59a.88.88,0,0,1-.87-.87h0a.9.9,0,0,1,.87-.88h59a.91.91,0,0,1,.87.88h0A.93.93,0,0,1,245.47,284.18Z" fill="#cacaca"/><path id="Path_742" data-name="Path 742" d="M248.44,282.84H184.06a2,2,0,0,1-2-1.95v0h0a2,2,0,0,1,1.95-2h64.41a2,2,0,0,1,2,1.95v0h0a2,2,0,0,1-1.94,2Z" fill="#e0e0e0"/><path id="Path_743" data-name="Path 743" d="M265.18,323.94H167.26a6.83,6.83,0,0,1-6.82-6.82h0a6.83,6.83,0,0,1,6.82-6.82h97.92a6.82,6.82,0,0,1,6.82,6.82h0a6.8,6.8,0,0,1-6.78,6.82Z" fill="#eaeaea"/></g><g id="Main"><path id="Path_744" data-name="Path 744" d="M188.24,262.65c.06,6.94-.29,14.11-.75,20.88-.88,12.54-2.34,24-3.45,31.55-.11.7-.17,1.4-.29,2-.64,4.31-1.11,6.88-1.11,6.88H92.43s-3.38-18.66-5.31-40.47c-.58-6.47-1.05-13.3-1.28-19.89,0-.7-.06-1.34-.06-2a5.49,5.49,0,0,0-.06-1c-.06-2.62-.06-5.25,0-7.81v-1.52a9.07,9.07,0,0,1,.06-1.28l.12-2.57c.06-.58.06-1.16.12-1.69v-.58c0-.41,0-.88,0-1.29a1.91,1.91,0,0,1,.06-.58,14.89,14.89,0,0,0,.12-1.63.37.37,0,0,1,.06-.29c0-.41,0-.82.11-1.23s.06-.64.12-1a1,1,0,0,1,.06-.41c.06-.29.06-.52.12-.81a7.48,7.48,0,0,0,.11-1.05,11.07,11.07,0,0,1,.24-1.4l.35-1.93a16.26,16.26,0,0,1,.4-1.81,4.5,4.5,0,0,1,.24-.87c0-.29.11-.53.17-.76a14,14,0,0,1,.41-1.4,4.58,4.58,0,0,0,.17-.58,11.78,11.78,0,0,1,.47-1.34c.18-.47.29-.88.47-1.29l.17-.46c.09-.22.19-.43.29-.64s.18-.35.24-.53.29-.52.41-.81.29-.53.4-.76c.26-.4.53-.79.82-1.17s.47-.52.7-.81a4,4,0,0,0,.47-.53,1.64,1.64,0,0,1,.35-.29l.17-.18a2.8,2.8,0,0,1,.41-.35c.17-.11.35-.29.52-.4a15.74,15.74,0,0,1,1.64-1.17c.93-.58,1.92-1.17,3-1.75.82-.41,1.63-.76,2.57-1.17l1.74-.7c1-.4,2.22-.75,3.39-1.1a12.94,12.94,0,0,1,1.51-.41c2.28-.58,4.67-1.17,7.18-1.58.17-.05.4-.05.58-.11.81-.12,1.63-.3,2.45-.41a1.54,1.54,0,0,1,.52-.06c3.5-.47,7.18-.82,10.85-1h0a3.78,3.78,0,0,0,.82-.06h0c4.08-.17,8.16-.12,12.18.06h0c.47,0,.88.06,1.34.06h0c3.56.23,7.06.58,10.38,1.11.18,0,.35.05.53.05l2.92.53c.17.06.4.06.58.12,2.33.46,4.61,1,6.65,1.63.52.17,1,.29,1.51.47,1.34.46,2.63.93,3.85,1.45.64.3,1.23.53,1.75.82a20.66,20.66,0,0,1,2,1.17,18.67,18.67,0,0,1,2.1,1.45,9.51,9.51,0,0,1,.76.64c.06.06.12.12.17.12a9.7,9.7,0,0,1,1.11,1.11c.12.11.24.29.35.41l.7.87a4.67,4.67,0,0,1,.41.58l1.05,1.58c.12.17.18.35.29.52s.06.12.12.18l.18.35c.11.23.29.52.4.76s.18.29.24.46.17.41.29.59c.17.35.29.7.47,1.1s.29.7.4,1.05a7.88,7.88,0,0,0,.41,1c.18.47.29.88.47,1.34.06.3.17.59.23.88.18.58.35,1.11.47,1.69l.17.7a1.94,1.94,0,0,1,.12.58c.29,1.23.58,2.51.82,3.79.05.35.11.7.17,1.11,0,.18.06.35.06.53.12.64.23,1.34.29,2s.18,1.05.23,1.63.12.88.18,1.34c.06.24.06.53.12.82v.06l.17,1.57.18,2.1c0,1.05.17,2.1.23,3.21.17,2.57.23,5.25.29,7.87A14.79,14.79,0,0,0,188.24,262.65Z" fill="#263284"/><g id="Group_86" data-name="Group 86"><path id="Path_745" data-name="Path 745" d="M123.1,324H99.89l-.23-21.52c.23-8.75-.06-16.74,2.1-20.94a3.1,3.1,0,0,1,1.4-1.28c.06-.06.12-.06.23-.12a15.73,15.73,0,0,1,5.25-1.05c.64,0,1.34,0,2-.11h1.75c.64,0,1.28.06,1.87.11a19.6,19.6,0,0,1,5.24,1.11l.18.12a3.71,3.71,0,0,1,1.52,1.17c2.27,3.38,2.15,12.24,2.21,21.46Z" fill="#d3d7f2"/><path id="Path_747" data-name="Path 747" d="M115.17,299h-7.11a3.42,3.42,0,0,1-3.5-2.8c-.64-3.73-1.4-10.2.35-12.24,2-2.34,10.5-2.1,12.77,0,2.1,1.92,1.11,9,.47,12.71A3,3,0,0,1,115.17,299Z" opacity="0.1" style="isolation:isolate"/><circle id="Ellipse_13" data-name="Ellipse 13" cx="119.95" cy="306.97" r="0.99" fill="#2c2c2c"/></g><path id="ظل_المظلة" data-name="ظل المظلة" d="M188,252.74a7.48,7.48,0,0,1-4.2-1.81,7.34,7.34,0,0,1-1.75-2.45,7.8,7.8,0,0,1-4,1.11,7.49,7.49,0,0,1-5.07-1.87,6.25,6.25,0,0,1-1.87-2.86,7.69,7.69,0,0,1-5.66,2.45,7.5,7.5,0,0,1-5.07-1.86,6.13,6.13,0,0,1-2-3.5,7.31,7.31,0,0,1-6.71,4,7.55,7.55,0,0,1-5.07-1.86,6.08,6.08,0,0,1-2.1-4.49v-.12c-.18,3.38-3.33,6-7.17,6a7.56,7.56,0,0,1-5.08-1.87,6.25,6.25,0,0,1-2.1-4.2v.12c0,3.5-3.2,6.35-7.17,6.35a7.5,7.5,0,0,1-5.07-1.86,5.82,5.82,0,0,1-1.58-2.16c-.53,3-3.5,5.36-7.11,5.36a7.51,7.51,0,0,1-5.08-1.86,2.7,2.7,0,0,1-.58-.59,7.07,7.07,0,0,1-6.94,4.73,7.74,7.74,0,0,1-4-1.11,7.16,7.16,0,0,1-6.64,4.32v-1.52a10.87,10.87,0,0,1,0-1.28l.12-2.57a114,114,0,0,1,1.17-12l.35-1.93a35.4,35.4,0,0,1,3.85-11.25,13.52,13.52,0,0,1,.81-1.17,18.36,18.36,0,0,1,2.57-2.57,58.51,58.51,0,0,1,7.17-2.62l1.75-.52a109.69,109.69,0,0,1,12-2.45c.18-.06.41-.06.59-.12A131.93,131.93,0,0,1,130,211.56h0c4.78-.17,9.62-.17,14.4.06h0A129.55,129.55,0,0,1,158.2,213c.18.06.41.06.59.12a93.18,93.18,0,0,1,12,2.74c.58.18,1.22.35,1.81.58a38.34,38.34,0,0,1,4.14,1.58,9.06,9.06,0,0,1,.75.64c.06.06.12.12.18.12a20.69,20.69,0,0,1,4.2,5.54,50,50,0,0,1,4.66,15.1,1.54,1.54,0,0,1,.06.52c.41,2.34.7,4.78.94,7.35l.17,2.1C187.83,250.58,187.89,251.69,188,252.74Z" fill="#1d285b"/><g id="المظلة"><path id="Path_748" data-name="Path 748" d="M195.65,240.2c0,.29-.05.52-.05.82a6.93,6.93,0,0,1-5.08,4,7.35,7.35,0,0,1-1.69.17,7.5,7.5,0,0,1-5.07-1.86,6.31,6.31,0,0,1-1.69-2.45,5.93,5.93,0,0,1-.41-2V216.7c0-1.52,2.1-2.33,3.32-1.28H185l.18.17a23,23,0,0,1,4.9,6.53c2.56,4.78,4.31,10.91,5.54,17.79Z" fill="#263284"/><path id="Path_749" data-name="Path 749" d="M185.21,215.65v19.94a6.11,6.11,0,0,1-3.15,5.25,7.83,7.83,0,0,1-4,1.11,7.53,7.53,0,0,1-5.08-1.87,6.25,6.25,0,0,1-1.86-2.85,4.79,4.79,0,0,1-.23-1.64V208.36c.58.17,1.22.35,1.8.58a43.49,43.49,0,0,1,9,4.08,24.89,24.89,0,0,1,3.38,2.45C185.09,215.53,185.15,215.59,185.21,215.65Z" fill="#767ea5"/><path id="Path_750" data-name="Path 750" d="M172.55,208.94v24.38a5.91,5.91,0,0,1-1.51,3.9,7.69,7.69,0,0,1-5.66,2.45,7.5,7.5,0,0,1-5.07-1.86,6.13,6.13,0,0,1-2-3.5h0a5.49,5.49,0,0,1-.06-1V205.56c.17.06.41.06.58.12a83.53,83.53,0,0,1,12,2.74C171.39,208.53,172,208.77,172.55,208.94Z" fill="#263284"/><path id="Path_751" data-name="Path 751" d="M158.79,205.68V232a5.4,5.4,0,0,1-.53,2.33h0a7.28,7.28,0,0,1-6.7,4,7.52,7.52,0,0,1-5.08-1.86,6.11,6.11,0,0,1-2.1-4.49V204.16h0a129.74,129.74,0,0,1,13.77,1.4C158.39,205.62,158.62,205.62,158.79,205.68Z" fill="#767ea5"/><path id="Path_752" data-name="Path 752" d="M144.39,204.16v27.7c-.18,3.38-3.33,6-7.17,6a7.56,7.56,0,0,1-5.08-1.87,6.22,6.22,0,0,1-2.1-4.14V204.1h0C134.83,203.87,139.67,203.93,144.39,204.16Z" fill="#263284"/><path id="Path_753" data-name="Path 753" d="M130,204.1V232c0,3.5-3.2,6.35-7.17,6.35a7.5,7.5,0,0,1-5.07-1.86,5.82,5.82,0,0,1-1.58-2.16h0a5.25,5.25,0,0,1-.52-2.33V205.39c.17-.06.4-.06.58-.12,4.37-.59,9-1,13.76-1.17Z" fill="#767ea5"/><path id="Path_754" data-name="Path 754" d="M116.22,205.33v28c0,.35-.06.64-.06,1h0c-.52,3-3.5,5.36-7.11,5.36a7.59,7.59,0,0,1-5.08-1.86,3,3,0,0,1-.58-.59,5.7,5.7,0,0,1-1.51-3.9v-25l1.74-.53a114.26,114.26,0,0,1,12-2.45C115.81,205.38,116.05,205.33,116.22,205.33Z" fill="#263284"/><path id="Path_755" data-name="Path 755" d="M103.63,207.83v27.76a5.05,5.05,0,0,1-.24,1.64A7.07,7.07,0,0,1,96.45,242a7.71,7.71,0,0,1-4-1.11,4.61,4.61,0,0,1-1.05-.76,6.06,6.06,0,0,1-2.1-4.49V213.84a40.42,40.42,0,0,1,3.56-2,56,56,0,0,1,9-3.5C102.4,208.18,103,208,103.63,207.83Z" fill="#767ea5"/><path id="Path_756" data-name="Path 756" d="M92.78,211.8v27a4.93,4.93,0,0,1-.41,2,7.22,7.22,0,0,1-6.82,4.31,7.94,7.94,0,0,1-1.69-.17,7.61,7.61,0,0,1-3.45-1.69,5.87,5.87,0,0,1-1.69-2.39,5,5,0,0,1-.4-2.1v-3.62c.11-.76.23-1.51.4-2.27,1-5.37,2.51-9.92,4.55-13.3a10.4,10.4,0,0,1,.94-1.34,21.09,21.09,0,0,1,4.9-4.38C90.33,213.14,91.49,212.44,92.78,211.8Z" fill="#263284"/></g><g id="الشباك"><path id="Path_763" data-name="Path 763" d="M153.93,300.68h-1.47c-2.45,0-4.86-.12-7.15-.29-5.76-.41-10.79-1.14-13.32-2.16a2,2,0,0,1-.9-.86c-.82-1.35-1.27-4-1.35-6.78v-1.52c.08-3,.57-5.84,1.51-7.11a2.06,2.06,0,0,1,.7-.61c2.78-1.18,7.8-1.88,13.48-2.21,2.25-.12,4.62-.16,7-.16h1.47c.78,0,1.51,0,2.29,0h.08c7.6.2,14.71,1,18.15,2.33a2.22,2.22,0,0,1,1.1,1.23s0,.12.08.16a14.37,14.37,0,0,1,.9,4.54c0,.57.08,1.18.08,1.8v1.5a11.07,11.07,0,0,1-.12,1.63,17.56,17.56,0,0,1-.94,4.54l-.09.16a2.5,2.5,0,0,1-1,1.31c-3.1,1.63-10.58,2.37-18.55,2.45h-1.92Z" fill="#d3d7f2"/><path id="Path_759" data-name="Path 759" d="M146.3,279.13h0c-1,.05-1.9.16-2.8.27l7.65,21.27h2.9Zm7.18-.1c-1.9-.06-3.85-.06-5.7.05l7.81,21.53c1.9-.05,3.8-.21,5.59-.42Z" opacity="0.1" style="isolation:isolate"/></g><path id="حجر" d="M188.24,262.65H176.11v-2h12.07C188.24,261.31,188.24,262,188.24,262.65Zm-102.46-1c0,.7.06,1.34.06,2h9.51v-2Zm81.47,53.42v2h16.5c.12-.64.17-1.28.29-2Z" fill="#fafafa" opacity="0.2" style="isolation:isolate"/><path id="Shope" d="M124.88,262.89a3.37,3.37,0,0,1-.46,1.63,2.83,2.83,0,0,1-1.35,1.11,5.56,5.56,0,0,1-2.1.4,4.75,4.75,0,0,1-2.39-.52,4,4,0,0,1-1.11-1.05,2.25,2.25,0,0,1-.4-1.28.81.81,0,0,1,.73-.88h.14a.75.75,0,0,1,.53.18,1.44,1.44,0,0,1,.35.58,3.66,3.66,0,0,0,.4.82,1.51,1.51,0,0,0,.65.52,2.68,2.68,0,0,0,1,.23,2.33,2.33,0,0,0,1.45-.4,1.4,1.4,0,0,0,.59-1.05,1.28,1.28,0,0,0-.29-.82,1.77,1.77,0,0,0-.76-.47,11.14,11.14,0,0,0-1.29-.35,10.49,10.49,0,0,1-1.8-.58,3.12,3.12,0,0,1-1.17-.93,2.44,2.44,0,0,1-.41-1.46,2.56,2.56,0,0,1,.47-1.46,2.84,2.84,0,0,1,1.28-1,5.39,5.39,0,0,1,2-.35,4.43,4.43,0,0,1,1.57.23,4.2,4.2,0,0,1,1.11.58,2.59,2.59,0,0,1,.64.76,2.11,2.11,0,0,1,.17.82.83.83,0,0,1-.23.64.82.82,0,0,1-.64.29.7.7,0,0,1-.52-.17,3,3,0,0,1-.41-.59,3.43,3.43,0,0,0-.64-.87,1.73,1.73,0,0,0-1.23-.29,1.83,1.83,0,0,0-1.22.35,1.06,1.06,0,0,0-.47.81.93.93,0,0,0,.17.53,1,1,0,0,0,.47.35,2.42,2.42,0,0,0,.58.23c.18.06.53.12.94.23.58.12,1,.3,1.51.41a3.49,3.49,0,0,1,1.17.59,2.76,2.76,0,0,1,.76.87A4.72,4.72,0,0,1,124.88,262.89Zm3.73-5.9v2.8h4.32V257a1.49,1.49,0,0,1,.29-.93,1,1,0,0,1,.7-.29,1.23,1.23,0,0,1,.76.29,1.38,1.38,0,0,1,.29.93v7.76a1.47,1.47,0,0,1-.29.93,1,1,0,0,1-1.4,0h0a1.47,1.47,0,0,1-.29-.93v-3.32h-4.38v3.32a1.47,1.47,0,0,1-.29.93,1,1,0,0,1-1.39,0h0a1.47,1.47,0,0,1-.29-.93V257a1.49,1.49,0,0,1,.29-.93,1,1,0,0,1,.7-.29,1.23,1.23,0,0,1,.76.29,2,2,0,0,1,.23.93Zm12.83-1.16a5.13,5.13,0,0,1,2.63.64,4.08,4.08,0,0,1,1.69,1.75,5.64,5.64,0,0,1,.58,2.68,7.83,7.83,0,0,1-.29,2.1,5.23,5.23,0,0,1-.93,1.64,4,4,0,0,1-1.52,1,5.45,5.45,0,0,1-2,.36,6.22,6.22,0,0,1-2.1-.36,4,4,0,0,1-1.52-1A5,5,0,0,1,137,263a6.15,6.15,0,0,1-.29-2,6.05,6.05,0,0,1,.35-2.1,4.9,4.9,0,0,1,.93-1.63,3.75,3.75,0,0,1,1.52-1,3.67,3.67,0,0,1,1.92-.41Zm2.8,5.07a4.4,4.4,0,0,0-.35-1.86,2.9,2.9,0,0,0-1-1.23,2.61,2.61,0,0,0-1.51-.41,2.69,2.69,0,0,0-2,.88,2.88,2.88,0,0,0-.58,1.11,5.94,5.94,0,0,0-.23,1.51,4.13,4.13,0,0,0,.23,1.52,2.92,2.92,0,0,0,.58,1.1,2.25,2.25,0,0,0,.88.65,2.46,2.46,0,0,0,1.11.23,2.34,2.34,0,0,0,1.4-.41,3.08,3.08,0,0,0,1.05-1.16,4,4,0,0,0,.4-1.93Zm7.58,1.11H150v2.8a1.48,1.48,0,0,1-.3.93.81.81,0,0,1-.7.3,1,1,0,0,1-.7-.3,1.44,1.44,0,0,1-.29-.87v-7.58a1.32,1.32,0,0,1,.29-.94,1.48,1.48,0,0,1,1-.29h2.57a6.43,6.43,0,0,1,1.75.18,2.37,2.37,0,0,1,1.05.58,2.06,2.06,0,0,1,.64.93,4.08,4.08,0,0,1,.23,1.29,2.73,2.73,0,0,1-.93,2.27,5.19,5.19,0,0,1-2.8.7Zm-.46-4.55H150v3h1.34a3.06,3.06,0,0,0,1.16-.17,1.26,1.26,0,0,0,.7-.47,1.42,1.42,0,0,0,.24-.87,1.36,1.36,0,0,0-.41-1.05,2.25,2.25,0,0,0-1.69-.47Z" fill="#d3d7f2"/></g><path id="Grass" d="M166.36,324a7.46,7.46,0,0,1-1.69-6.93,11.77,11.77,0,0,1,6.14-7.89,9.16,9.16,0,0,1,.19-1.88,11.51,11.51,0,0,1,7.56-8.42,7,7,0,0,1,.09-1,6.15,6.15,0,0,1,5.57-4.89,3.52,3.52,0,0,1,3.44,2.52,9.24,9.24,0,0,1,3-.53,6.28,6.28,0,0,1,6.1,4.21,4.1,4.1,0,0,1,1.55-.29c2.51,0,4.11,2.18,3.53,4.89a4.49,4.49,0,0,1-.19.72,7.55,7.55,0,0,1,1.64,6.88,4.13,4.13,0,0,1-.19.77,7.85,7.85,0,0,1,.68,5.66,11.47,11.47,0,0,1-3.63,6.2Zm-93.62,0a8.17,8.17,0,0,1-2.57-4.37,6,6,0,0,1,.41-4c-.06-.23-.06-.41-.12-.58a5.24,5.24,0,0,1,1.17-4.84c-.06-.18-.06-.35-.12-.53-.35-1.92.76-3.44,2.51-3.44a3.49,3.49,0,0,1,1.11.18,4.39,4.39,0,0,1,4.31-3,6.53,6.53,0,0,1,2.1.41A2.47,2.47,0,0,1,84,302.13a4.32,4.32,0,0,1,3.91,3.44c0,.24.06.47.06.7a8.18,8.18,0,0,1,5.3,6,10.11,10.11,0,0,1,.12,1.34,8.12,8.12,0,0,1,4.32,5.54,5.36,5.36,0,0,1-1.17,4.9Z" fill="#b3b3b3"/></g><g id="Skay"><circle id="شمس" cx="118" cy="18" r="18" fill="#fff"/><path id="غيوم" d="M252.91,96H213.14a6.36,6.36,0,0,1,.32-12.71,6.7,6.7,0,0,1,1.67.27,14.1,14.1,0,0,1-.14-1.95A13.45,13.45,0,0,1,228.43,68.2h0a13.59,13.59,0,0,1,2.47.23,11.74,11.74,0,0,1,21.8,5.94h.2a10.83,10.83,0,0,1,.5,21.66h-.5Zm-101.2-10.7h0a2.56,2.56,0,0,1-1.83-4.26,2.75,2.75,0,0,1,2.6-.65,5.22,5.22,0,0,1,6.23-6,4.64,4.64,0,0,1,8.61,2.35h.08c3.73,0,6.35,4.78,2.08,8.56Zm-142.64-6a7.29,7.29,0,0,1,0-14.58H9.2a7.91,7.91,0,0,1,14.66-4,9.37,9.37,0,0,1,1.68-.15,9,9,0,0,1,9.05,9,10,10,0,0,1-.1,1.34,4.29,4.29,0,0,1,2.43,8.22,4.43,4.43,0,0,1-1.09.17Zm93.41-7.19c-4.28-3.77-1.66-8.56,2.08-8.56h.07a4.64,4.64,0,0,1,8.61-2.35,5.65,5.65,0,0,1,4.86,1.5,5.71,5.71,0,0,1,1.37,4.5,2.77,2.77,0,0,1,2.6.64,2.56,2.56,0,0,1-1.82,4.26v0Zm148-33.69a4.79,4.79,0,1,1,0-9.58h.09a5.2,5.2,0,0,1,9.63-2.64,8,8,0,0,1,1.1-.1,6,6,0,0,1,5.95,5.93,6.38,6.38,0,0,1-.07.87,2.82,2.82,0,0,1,1.6,5.4,2.85,2.85,0,0,1-.71.12ZM54.13,31.15c-4.28-3.78-1.66-8.56,2.08-8.56h.07a4.64,4.64,0,0,1,8.61-2.35,5.65,5.65,0,0,1,4.87,1.5,5.74,5.74,0,0,1,1.37,4.49,2.78,2.78,0,0,1,2.6.65,2.57,2.57,0,0,1-1.83,4.26H54.13Z" fill="#fff" opacity="0.7" style="isolation:isolate"/></g></g></svg>