<svg xmlns="http://www.w3.org/2000/svg" width="200" height="144" viewBox="0 0 200 144">
  <g id="No_body_there" data-name="No body there" transform="translate(-460 -1921)">
    <path id="Shape" d="M88.784,31.576c22.118,1.59,39.508,22.924,53.592,38.88,6.959,7.884,12.414,18.779,9.683,29.151-1.6,6.087-5.807,11.049-10.415,15.1-10.865,9.541-24.373,15.111-37.979,19.194-17.516,5.256-36.9,8.153-53.49.231C28.623,123.833,17.3,95.047,24.629,71.352A54.545,54.545,0,0,1,49.4,40.791C62.133,33.4,72.232,30.2,88.785,31.58" transform="translate(473.386 1907.839)" fill="#eaeaea"/>
    <rect id="Container" width="200" height="144" transform="translate(460 1921)" fill="none"/>
    <g id="No_body_there-2" data-name="No body there" transform="translate(0.719 3.003)">
      <path id="Path_11389" data-name="Path 11389" d="M63.711,133.831s1.188-32.1,4.6-54.687,3.219-40.493-10.42-40.493S43.864,55.626,44.865,73.6c.084,1.51.217,3.7.383,6.363l.136,2.464" transform="translate(476.636 1909.288)" fill="none" stroke="#060816" stroke-linecap="round" stroke-linejoin="round" stroke-width="2"/>
      <path id="Path_11390" data-name="Path 11390" d="M46.228,92.19C47.341,109.2,48.664,132.7,48.664,132.7" transform="translate(476.674 1910.464)" fill="none" stroke="#060816" stroke-linecap="round" stroke-linejoin="round" stroke-width="2"/>
      <path id="Path_11391" data-name="Path 11391" d="M66.044,96.814a16.749,16.749,0,0,0,3.817-2.345c7.62-6.042,9.036-17.177,8.463-26.5a7.5,7.5,0,1,1,14.879-1.8,59.2,59.2,0,0,1-1.939,16.606C89.429,89.75,86.022,96.651,80.533,101.6c-4.326,3.772-9.462,6.736-15.231,7.262" transform="translate(477.093 1909.741)" fill="none" stroke="#060816" stroke-linecap="round" stroke-linejoin="round" stroke-width="2"/>
      <path id="Path_11392" data-name="Path 11392" d="M49.737,92.742h0a23.377,23.377,0,0,1-20.77-6.23C20.833,78.334,19.284,66.247,19.2,55.5c.363-9.949,14.583-10.006,15.012-.045-.538,6.43-.761,13.554,1.7,19.328a11.84,11.84,0,0,0,11.769,7.481" transform="translate(476.08 1909.494)" fill="none" stroke="#060816" stroke-linecap="round" stroke-linejoin="round" stroke-width="2"/>
      <path id="Path_11393" data-name="Path 11393" d="M66.465,129.23c2.418.311,3.9.73,3.9,1.191,0,.959-6.429,1.736-14.36,1.736s-14.36-.778-14.36-1.736c0-.507,1.795-.964,4.657-1.281" transform="translate(476.573 1911.276)" fill="none" stroke="#060816" stroke-linecap="round" stroke-linejoin="round" stroke-width="2"/>
      <path id="Path_11394" data-name="Path 11394" d="M132.522,36.793a11.265,11.265,0,1,1-11.265-11.265A11.265,11.265,0,0,1,132.522,36.793Z" transform="translate(478.075 1909)" fill="none" stroke="#060816" stroke-linecap="round" stroke-linejoin="round" stroke-width="2"/>
      <path id="Path_11395" data-name="Path 11395" d="M89.616,119.845c4.608-4.917,11.942-6.346,18.655-5.764s13.146,2.874,19.734,4.283c2.578.552,5.315.96,7.808.1s4.6-3.379,4.126-5.972" transform="translate(477.627 1910.911)" fill="none" stroke="#060816" stroke-linecap="round" stroke-linejoin="round" stroke-width="2"/>
      <path id="Path_11396" data-name="Path 11396" d="M110.466,95.305c6.2.151,13.046,2.33,19.019-.255,5.553-2.4,4.556-10.947-1.812-9.685-5.206,1.034,5.93,8.127,7.077,8.762,6.466,3.58,12.775,4.2,20.116,3.5" transform="translate(478.085 1910.312)" fill="none" stroke="#060816" stroke-linecap="round" stroke-linejoin="round" stroke-width="2"/>
      <path id="Path_11397" data-name="Path 11397" d="M49.633,40.737c.3-2.909-.653-5.539-1.639-8.2" transform="translate(476.713 1909.154)" fill="none" stroke="#060816" stroke-linecap="round" stroke-linejoin="round" stroke-width="2"/>
      <path id="Path_11398" data-name="Path 11398" d="M49.713,40.64c-1.407-1.539-3.806-2.1-5.328-3.688" transform="translate(476.633 1909.251)" fill="none" stroke="#060816" stroke-linecap="round" stroke-linejoin="round" stroke-width="2"/>
      <path id="Path_11399" data-name="Path 11399" d="M63.28,39.93a14.76,14.76,0,0,0,1.229-6.967" transform="translate(477.048 1909.163)" fill="none" stroke="#060816" stroke-linecap="round" stroke-linejoin="round" stroke-width="2"/>
      <path id="Path_11400" data-name="Path 11400" d="M63.681,39.824a17.369,17.369,0,0,1,4.508-2.049" transform="translate(477.057 1909.269)" fill="none" stroke="#060816" stroke-linecap="round" stroke-linejoin="round" stroke-width="2"/>
      <path id="Path_11401" data-name="Path 11401" d="M69.556,52.876c1.829-1.795,2.936-4.119,4.918-5.737" transform="translate(477.186 1909.475)" fill="none" stroke="#060816" stroke-linecap="round" stroke-linejoin="round" stroke-width="2"/>
      <path id="Path_11402" data-name="Path 11402" d="M69.556,52.753a8.242,8.242,0,0,1,4.508,2.869" transform="translate(477.186 1909.598)" fill="none" stroke="#060816" stroke-linecap="round" stroke-linejoin="round" stroke-width="2"/>
      <path id="Path_11403" data-name="Path 11403" d="M25.507,48.13a9.072,9.072,0,0,1-4.4-5.636" transform="translate(476.122 1909.373)" fill="none" stroke="#060816" stroke-linecap="round" stroke-linejoin="round" stroke-width="2"/>
      <path id="Path_11404" data-name="Path 11404" d="M25.546,48.18c.319-2.563,1.46-5.163,1.334-7.962" transform="translate(476.219 1909.323)" fill="none" stroke="#060816" stroke-linecap="round" stroke-linejoin="round" stroke-width="2"/>
      <path id="Path_11405" data-name="Path 11405" d="M20.068,69.926c-.691-.96-2.919-2.363-4.508-3.278" transform="translate(476 1909.903)" fill="none" stroke="#060816" stroke-linecap="round" stroke-linejoin="round" stroke-width="2"/>
      <path id="Path_11406" data-name="Path 11406" d="M20.059,71.059a17.791,17.791,0,0,1-4.1,3.278" transform="translate(476.009 1910)" fill="none" stroke="#060816" stroke-linecap="round" stroke-linejoin="round" stroke-width="2"/>
      <path id="Path_11407" data-name="Path 11407" d="M46.186,104.815a19.264,19.264,0,0,1-6.967-3.279" transform="translate(476.52 1910.67)" fill="none" stroke="#060816" stroke-linecap="round" stroke-linejoin="round" stroke-width="2"/>
      <path id="Path_11408" data-name="Path 11408" d="M46.926,104.745c-1.409,1.7-2.842,3.658-4.1,5.328" transform="translate(476.599 1910.74)" fill="none" stroke="#060816" stroke-linecap="round" stroke-linejoin="round" stroke-width="2"/>
      <path id="Path_11409" data-name="Path 11409" d="M31.3,89.274a42.6,42.6,0,0,1-.73,5.465" transform="translate(476.33 1910.4)" fill="none" stroke="#060816" stroke-linecap="round" stroke-linejoin="round" stroke-width="2"/>
      <path id="Path_11410" data-name="Path 11410" d="M31.532,88.717c-2.161.145-4.5.758-6.479-.035" transform="translate(476.209 1910.387)" fill="none" stroke="#060816" stroke-linecap="round" stroke-linejoin="round" stroke-width="2"/>
      <path id="Path_11411" data-name="Path 11411" d="M44.539,52.728c-1.561-1.66-3.072-3.872-4.918-5.328" transform="translate(476.529 1909.48)" fill="none" stroke="#060816" stroke-linecap="round" stroke-linejoin="round" stroke-width="2"/>
      <path id="Path_11412" data-name="Path 11412" d="M44.574,55.02c-2.374-.227-4.284,1.036-6.557,1.229" transform="translate(476.493 1909.647)" fill="none" stroke="#060816" stroke-linecap="round" stroke-linejoin="round" stroke-width="2"/>
      <path id="Path_11413" data-name="Path 11413" d="M69.444,71.313c1.909.407,3.628-1.82,5.737-2.459" transform="translate(477.184 1909.952)" fill="none" stroke="#060816" stroke-linecap="round" stroke-linejoin="round" stroke-width="2"/>
      <path id="Path_11414" data-name="Path 11414" d="M70.246,71.26a29.322,29.322,0,0,0,4.1,3.688" transform="translate(477.201 1910.005)" fill="none" stroke="#060816" stroke-linecap="round" stroke-linejoin="round" stroke-width="2"/>
      <path id="Path_11415" data-name="Path 11415" d="M88.225,59.424c.1-1.53-.382-3.406-.326-5.207" transform="translate(477.589 1909.63)" fill="none" stroke="#060816" stroke-linecap="round" stroke-linejoin="round" stroke-width="2"/>
      <path id="Path_11416" data-name="Path 11416" d="M88.855,59.708c1.477-1.1,2.919-2.672,4.556-3.58" transform="translate(477.61 1909.672)" fill="none" stroke="#060816" stroke-linecap="round" stroke-linejoin="round" stroke-width="2"/>
      <path id="Path_11417" data-name="Path 11417" d="M90.506,84.39c2.232-1.29,3.939-3.223,6.147-4.508" transform="translate(477.646 1910.194)" fill="none" stroke="#060816" stroke-linecap="round" stroke-linejoin="round" stroke-width="2"/>
      <path id="Path_11418" data-name="Path 11418" d="M90.105,84.293a6.251,6.251,0,0,1,4.508,3.688" transform="translate(477.638 1910.291)" fill="none" stroke="#060816" stroke-linecap="round" stroke-linejoin="round" stroke-width="2"/>
      <path id="Path_11419" data-name="Path 11419" d="M81.479,99.776c2.481.044,4.314-1.181,6.557-2.049" transform="translate(477.448 1910.586)" fill="none" stroke="#060816" stroke-linecap="round" stroke-linejoin="round" stroke-width="2"/>
      <path id="Path_11420" data-name="Path 11420" d="M82.28,99.732c1.119,2.044,2.478,4.162,3.688,6.147" transform="translate(477.466 1910.63)" fill="none" stroke="#060816" stroke-linecap="round" stroke-linejoin="round" stroke-width="2"/>
      <path id="Path_11421" data-name="Path 11421" d="M64.231,116.452c2.126-1.244,4.082-2.649,6.147-4.1" transform="translate(477.069 1910.907)" fill="none" stroke="#060816" stroke-linecap="round" stroke-linejoin="round" stroke-width="2"/>
      <path id="Path_11422" data-name="Path 11422" d="M64.231,118.771a12.794,12.794,0,0,1,3.688,4.1" transform="translate(477.069 1911.048)" fill="none" stroke="#060816" stroke-linecap="round" stroke-linejoin="round" stroke-width="2"/>
    </g>
  </g>
</svg>
