<svg xmlns="http://www.w3.org/2000/svg" width="200" height="144" viewBox="0 0 200 144">
  <g id="No_categories" data-name="No categories" transform="translate(-1056 -1484)">
    <rect id="Container" width="200" height="144" transform="translate(1056 1484)" fill="none"/>
    <path id="Shap" d="M89.745,35.564c22.355,1.526,39.932,22.005,54.167,37.321,7.034,7.568,12.547,18.026,9.788,27.982-1.62,5.843-5.87,10.606-10.527,14.49-10.981,9.158-24.635,14.5-38.386,18.424-17.705,5.045-37.3,7.826-54.064.222C28.938,124.121,17.492,96.489,24.9,73.744c4.1-12.6,13.53-22.984,25.039-29.335,12.866-7.1,23.074-10.164,39.8-8.842" transform="translate(1072 1469)" fill="#eaeaea"/>
    <g id="No_categories-2" data-name="No categories" transform="translate(-6.446 -7.908)">
      <path id="Path_11300" data-name="Path 11300" d="M66.91,132.876H35.374A13.654,13.654,0,0,1,21.72,119.221v-3.955H80.564v3.955A13.654,13.654,0,0,1,66.91,132.876Z" transform="translate(1072 1480.185)" fill="none" stroke="#060816" stroke-linecap="round" stroke-linejoin="round" stroke-width="2"/>
      <path id="Path_11301" data-name="Path 11301" d="M27.059,113.033a15.258,15.258,0,0,1,7.628-13.208" transform="translate(1072.545 1478.608)" fill="none" stroke="#060816" stroke-linecap="round" stroke-linejoin="round" stroke-width="2"/>
      <path id="Path_11302" data-name="Path 11302" d="M56.891,113.222A15.272,15.272,0,0,0,33.98,100.015" transform="translate(1073.252 1478.418)" fill="none" stroke="#060816" stroke-linecap="round" stroke-linejoin="round" stroke-width="2"/>
      <path id="Path_11303" data-name="Path 11303" d="M51.183,102.8a12.427,12.427,0,0,1,20.489,9.444c0,.274-.014.533-.03.794" transform="translate(1075.008 1478.608)" fill="none" stroke="#060816" stroke-linecap="round" stroke-linejoin="round" stroke-width="2"/>
      <path id="Path_11304" data-name="Path 11304" d="M37.618,99.638a12.757,12.757,0,0,1,.039-2.859,12.416,12.416,0,1,1,24.378,4.54" transform="translate(1073.617 1477.193)" fill="none" stroke="#060816" stroke-linecap="round" stroke-linejoin="round" stroke-width="2"/>
      <path id="Path_11305" data-name="Path 11305" d="M49.01,107.022a6.359,6.359,0,0,0-8.322-3.409c-.055.023-.11.046-.165.072" transform="translate(1073.92 1478.944)" fill="none" stroke="#060816" stroke-linecap="round" stroke-linejoin="round" stroke-width="2"/>
      <path id="Path_11306" data-name="Path 11306" d="M64.281,107.6a3.752,3.752,0,0,0-3.762-3.742l-.106,0" transform="translate(1075.951 1479.02)" fill="none" stroke="#060816" stroke-linecap="round" stroke-linejoin="round" stroke-width="2"/>
      <path id="Path_11307" data-name="Path 11307" d="M50.161,90.565a4.245,4.245,0,0,1,4.573,3.892c0,.04.006.079.008.119" transform="translate(1074.904 1477.661)" fill="none" stroke="#060816" stroke-linecap="round" stroke-linejoin="round" stroke-width="2"/>
      <path id="Path_11308" data-name="Path 11308" d="M74.042,125.822c-10.312-4.425-21.7-1.078-29.723,6.178" transform="translate(1074.308 1481.059)" fill="none" stroke="#060816" stroke-linecap="round" stroke-linejoin="round" stroke-width="2"/>
      <path id="Path_11309" data-name="Path 11309" d="M42.6,115.944c-1.109,3.635-4.358,6.3-7.9,7.666a34.247,34.247,0,0,1-10.016,1.8" transform="translate(1072.302 1480.254)" fill="none" stroke="#060816" stroke-linecap="round" stroke-linejoin="round" stroke-width="2"/>
      <path id="Path_11310" data-name="Path 11310" d="M134.036,133.253H121.859a18.5,18.5,0,0,1-18.5-18.5v-3.181h49.175v3.181A18.5,18.5,0,0,1,134.036,133.253Z" transform="translate(1080.336 1479.808)" fill="none" stroke="#060816" stroke-linecap="round" stroke-linejoin="round" stroke-width="2"/>
      <path id="Path_11311" data-name="Path 11311" d="M110.789,111.559a7.255,7.255,0,0,1,3.2-8.029c5.96-3.824,13.693-2.052,19.253,1.585,3.674,2.4,7.017,5.847,11.127,7.5" transform="translate(1081.067 1478.768)" fill="none" stroke="#060816" stroke-linecap="round" stroke-linejoin="round" stroke-width="2"/>
      <path id="Path_11312" data-name="Path 11312" d="M110.015,126.9a47.842,47.842,0,0,1,5.91-3.592A21.811,21.811,0,0,1,123.2,120.6c3.609-.46,7.2.8,10.476,2.354,3.291,1.557,6.423,3.468,9.908,4.477.089.018.142.053.23.071h.018" transform="translate(1081.016 1480.72)" fill="none" stroke="#060816" stroke-linecap="round" stroke-linejoin="round" stroke-width="2"/>
      <line id="Line_99" data-name="Line 99" x1="27.94" transform="translate(1155.661 1608.213)" fill="none" stroke="#060816" stroke-linecap="round" stroke-linejoin="round" stroke-width="2"/>
      <path id="Path_11313" data-name="Path 11313" d="M65.995,96.351,61.914,67.835h59.339l-4.2,35.257" transform="translate(1076.104 1475.342)" fill="none" stroke="#060816" stroke-linecap="round" stroke-linejoin="round" stroke-width="2"/>
      <path id="Path_11314" data-name="Path 11314" d="M66.675,65.828l-2.72-21.82a3.764,3.764,0,0,1,3.267-4.2l1.957-.246a3.766,3.766,0,0,1,4.206,3.269l2.87,23" transform="translate(1076.31 1472.452)" fill="none" stroke="#060816" stroke-linecap="round" stroke-linejoin="round" stroke-width="2"/>
      <path id="Path_11315" data-name="Path 11315" d="M75.327,65.211V49.344a3.765,3.765,0,0,1,3.765-3.765h1.447A3.764,3.764,0,0,1,84.3,49.344V65.211" transform="translate(1077.474 1473.069)" fill="none" stroke="#060816" stroke-linecap="round" stroke-linejoin="round" stroke-width="2"/>
      <path id="Path_11316" data-name="Path 11316" d="M84.37,66.012l2.339-24.863a3.763,3.763,0,0,1,4.1-3.4l1.241.116a3.765,3.765,0,0,1,3.4,4.1L93.175,66.012" transform="translate(1078.397 1472.268)" fill="none" stroke="#060816" stroke-linecap="round" stroke-linejoin="round" stroke-width="2"/>
      <path id="Path_11317" data-name="Path 11317" d="M97.262,66.28l4.159-27.957a3.765,3.765,0,0,1,4.284-3.17h0a3.765,3.765,0,0,1,3.164,4.277l-3.99,26.85" transform="translate(1079.714 1472)" fill="none" stroke="#060816" stroke-linecap="round" stroke-linejoin="round" stroke-width="2"/>
      <path id="Path_11318" data-name="Path 11318" d="M104.332,65.435l2.8-18.842a3.765,3.765,0,0,1,7.448,1.108l-2.633,17.734" transform="translate(1080.436 1472.845)" fill="none" stroke="#060816" stroke-linecap="round" stroke-linejoin="round" stroke-width="2"/>
      <path id="Path_11319" data-name="Path 11319" d="M80.586,115.275a31.98,31.98,0,0,0,4.47-7.837c1.371-3.49,2.089-7.6.258-10.876s-7.062-4.6-9.37-1.641c-2.011,2.577-.522,6.634,2.191,8.459s6.164,2.029,9.432,2.176c6.558.294,13.428.529,19.351-2.3a33.659,33.659,0,0,0,8.79-6.663" transform="translate(1077.442 1477.939)" fill="none" stroke="#060816" stroke-linecap="round" stroke-linejoin="round" stroke-width="2"/>
      <path id="Path_11320" data-name="Path 11320" d="M64.112,80.924a50.446,50.446,0,0,1,18.23-2.316,118.534,118.534,0,0,1,21.884,3.507c4.7,1.1,9.769,2.234,14.357,1.178" transform="translate(1076.329 1476.436)" fill="none" stroke="#060816" stroke-linecap="round" stroke-linejoin="round" stroke-width="2"/>
    </g>
  </g>
</svg>
