<svg xmlns="http://www.w3.org/2000/svg" width="200" height="144" viewBox="0 0 200 144">
  <g id="No_item_in_favorite" data-name="No item in favorite" transform="translate(-1448 -1484)">
    <rect id="Container" width="200" height="144" transform="translate(1448 1484)" fill="none"/>
    <path id="Shape" d="M86.745,36.564c22.355,1.526,39.932,22.005,54.167,37.321,7.034,7.568,12.547,18.026,9.788,27.982-1.62,5.843-5.87,10.606-10.527,14.49-10.981,9.158-24.635,14.5-38.386,18.424-17.705,5.045-37.3,7.826-54.064.222C25.938,125.121,14.492,97.489,21.9,74.744c4.1-12.6,13.53-22.984,25.039-29.335,12.866-7.1,23.074-10.164,39.8-8.842" transform="translate(1464 1469)" fill="#eaeaea"/>
    <g id="No_item_in_favorite-2" data-name="No item in favorite" transform="translate(1464 1469)">
      <path id="Path_11331" data-name="Path 11331" d="M40.358,102.249C50.271,115.8,66.017,125.176,81.9,131.478" fill="none" stroke="#060816" stroke-linecap="round" stroke-linejoin="round" stroke-width="2"/>
      <path id="Path_11332" data-name="Path 11332" d="M80.86,70.168C56.6,30.209,20.781,62.023,34.666,92.561" fill="none" stroke="#060816" stroke-linecap="round" stroke-linejoin="round" stroke-width="2"/>
      <path id="Path_11333" data-name="Path 11333" d="M106.76,117.12a118.278,118.278,0,0,1-24.836,14.358" fill="none" stroke="#060816" stroke-linecap="round" stroke-linejoin="round" stroke-width="2"/>
      <path id="Path_11334" data-name="Path 11334" d="M80.86,70.168c22.874-40.769,59.763-10.2,46.937,20.793a58.559,58.559,0,0,1-11.462,17.494" fill="none" stroke="#060816" stroke-linecap="round" stroke-linejoin="round" stroke-width="2"/>
      <path id="Path_11335" data-name="Path 11335" d="M110.022,65.175a11.824,11.824,0,0,1,9.749,13.585c-.018.11-.038.219-.059.328" fill="none" stroke="#060816" stroke-linecap="round" stroke-linejoin="round" stroke-width="2"/>
      <path id="Path_11336" data-name="Path 11336" d="M41.648,23.193A10.662,10.662,0,0,0,47.4,30.772a13.818,13.818,0,0,0,9.621.868c1.811-.467,3.9-2.092,3.1-3.781-.583-.468-1.446-.187-2.106.164-2.464,1.311-4.662,3.7-4.566,6.5a6.831,6.831,0,0,0,3.442,5.291,17.946,17.946,0,0,0,6.2,2.06" fill="none" stroke="#060816" stroke-linecap="round" stroke-linejoin="round" stroke-width="2"/>
      <path id="Path_11337" data-name="Path 11337" d="M15.476,110.711a43.56,43.56,0,0,1,11.186-8.966c14.293-8,32-7.361,47.809-3.074s30.5,11.89,45.923,17.419c4.3,1.541,8.775,2.938,13.336,2.7a18.1,18.1,0,0,0,13.3-6.838,16.082,16.082,0,0,0,2.583-14.6c-1.271-3.8-4.559-7.284-8.721-7.015a5.8,5.8,0,0,0-5.036,3.673c-.953,2.536.3,4.541,1.977,5.873a6.01,6.01,0,0,0,5.134,1.382,8.141,8.141,0,0,0,3.9-3.052,44.857,44.857,0,0,0,9.268-18.088A30.4,30.4,0,0,0,154.2,60.111" fill="none" stroke="#060816" stroke-linecap="round" stroke-linejoin="round" stroke-width="2"/>
    </g>
  </g>
</svg>
