<svg xmlns="http://www.w3.org/2000/svg" width="200" height="144" viewBox="0 0 200 144">
  <g id="No_item_in_cart" data-name="No item in cart" transform="translate(-1260 -1484)">
    <rect id="Container" width="200" height="144" transform="translate(1260 1484)" fill="none"/>
    <path id="Shape" d="M89.745,35.564c22.355,1.526,39.932,22.005,54.167,37.321,7.034,7.568,12.547,18.026,9.788,27.982-1.62,5.843-5.87,10.606-10.527,14.49-10.981,9.158-24.635,14.5-38.386,18.424-17.705,5.045-37.3,7.826-54.064.222C28.938,124.121,17.492,96.489,24.9,73.744c4.1-12.6,13.53-22.984,25.039-29.335,12.866-7.1,23.074-10.164,39.8-8.842" transform="translate(1276 1469)" fill="#eaeaea"/>
    <g id="No_item_in_cart-2" data-name="No item in cart" transform="translate(1272.999 1466.531)">
      <path id="Path_11322" data-name="Path 11322" d="M139.833,90.673l-5.3,32.61a12.036,12.036,0,0,1-11.881,10.109H56.493a12.036,12.036,0,0,1-11.881-10.109L39.4,91.789" transform="translate(0.429 2.861)" fill="none" stroke="#060816" stroke-linecap="round" stroke-linejoin="round" stroke-width="2"/>
      <path id="Path_11323" data-name="Path 11323" d="M75.445,90.792H31.466A10.459,10.459,0,0,1,41.924,80.334H70.833" transform="translate(0 2.302)" fill="none" stroke="#060816" stroke-linecap="round" stroke-linejoin="round" stroke-width="2"/>
      <path id="Path_11324" data-name="Path 11324" d="M89.677,103.092h0a5.732,5.732,0,0,1-7.05-3.446L68.46,62.275A8.253,8.253,0,1,1,84.2,57.416l9.359,38.856A5.731,5.731,0,0,1,89.677,103.092Z" transform="translate(1.97 0.722)" fill="none" stroke="#060816" stroke-linecap="round" stroke-linejoin="round" stroke-width="2"/>
      <path id="Path_11325" data-name="Path 11325" d="M88.409,56.594h0a7.11,7.11,0,0,1,6.818,7.81L93.512,81.617H135a10.458,10.458,0,0,1,10.457,10.458H97.883" transform="translate(3.077 1.019)" fill="none" stroke="#060816" stroke-linecap="round" stroke-linejoin="round" stroke-width="2"/>
      <path id="Path_11326" data-name="Path 11326" d="M115,132.726a46.848,46.848,0,0,0,4.033-11.568,25.019,25.019,0,0,0,.59-8.7,11.82,11.82,0,0,0-3.973-7.581,7.818,7.818,0,0,0-8.209-1.153c-2.607,1.32-4.072,4.76-2.816,7.4.993,2.087,3.28,3.233,5.511,3.842,6.528,1.783,13.648.186,19.527-3.166a37.644,37.644,0,0,0,3.5-2.263" transform="translate(3.929 3.528)" fill="none" stroke="#060816" stroke-linecap="round" stroke-linejoin="round" stroke-width="2"/>
      <path id="Path_11327" data-name="Path 11327" d="M41.253,102.561c10.8.076,21.629,4.428,28.973,12.387,4.725,5.121,7.949,11.33,10.644,17.8" transform="translate(0.529 3.503)" fill="none" stroke="#060816" stroke-linecap="round" stroke-linejoin="round" stroke-width="2"/>
      <line id="Line_100" data-name="Line 100" transform="translate(89.674 97.388)" fill="none" stroke="#060816" stroke-linecap="round" stroke-linejoin="round" stroke-width="3"/>
      <path id="Path_11328" data-name="Path 11328" d="M50.908,37.736C49.09,40.95,48,44.811,49.042,48.354S53.767,54.79,57.373,54c1.4-.31,2.81-1.351,2.888-2.787.105-1.917-2.368-3.173-4.166-2.5s-2.851,2.561-3.352,4.415a19.607,19.607,0,0,0-.046,8.69c.533,2.836,1.679,5.924,4.3,7.121" transform="translate(0.928)" fill="none" stroke="#060816" stroke-linecap="round" stroke-linejoin="round" stroke-width="2"/>
      <path id="Path_11329" data-name="Path 11329" d="M117.078,47.039c1.886,2.7,3.162,6,2.5,9.141s-3.767,5.875-7.08,5.389c-1.29-.189-2.637-1.015-2.819-2.262-.241-1.663,1.893-2.9,3.566-2.412a5.63,5.63,0,0,1,3.36,3.654,16.594,16.594,0,0,1,.707,7.564c-.262,2.5-1.059,5.255-3.336,6.449" transform="translate(4.225 0.503)" fill="none" stroke="#060816" stroke-linecap="round" stroke-linejoin="round" stroke-width="2"/>
    </g>
  </g>
</svg>
