<svg xmlns="http://www.w3.org/2000/svg" width="200" height="144" viewBox="0 0 200 144">
  <g id="No_orders" data-name="No orders" transform="translate(-908 -1699)">
    <rect id="Container" width="200" height="144" transform="translate(908 1699)" fill="none"/>
    <path id="Shape" d="M92.5,36.564c22.355,1.526,39.932,22.005,54.167,37.321,7.034,7.568,12.547,18.026,9.788,27.982-1.62,5.843-5.87,10.606-10.527,14.49-10.981,9.158-24.635,14.5-38.386,18.424-17.705,5.045-37.3,7.826-54.064.222-21.785-9.882-33.231-37.514-25.82-60.259,4.1-12.6,13.53-22.984,25.039-29.335,12.866-7.1,23.074-10.164,39.8-8.842" transform="translate(920 1687)" fill="#eaeaea"/>
    <g id="No_orders-2" data-name="No orders" transform="translate(-3.637 -1.479)">
      <path id="Path_11357" data-name="Path 11357" d="M136.186,106.292q.2,2.109.2,4.311H43.053c0-25.773,20.894-42.164,46.667-42.164,15.547,0,29.319,5.964,37.8,16.355" transform="translate(922.084 1688.972)" fill="none" stroke="#060816" stroke-linecap="round" stroke-linejoin="round" stroke-width="2"/>
      <path id="Path_11358" data-name="Path 11358" d="M127.664,91.482a40.568,40.568,0,0,1,3.617,13.474" transform="translate(927.189 1691.535)" fill="none" stroke="#060816" stroke-linecap="round" stroke-linejoin="round" stroke-width="2"/>
      <rect id="Rectangle_2974" data-name="Rectangle 2974" width="21.766" height="7.255" rx="3.627" transform="translate(1001.137 1743.276)" fill="none" stroke="#060816" stroke-linecap="round" stroke-linejoin="round" stroke-width="2"/>
      <line id="Line_106" data-name="Line 106" y1="5.935" transform="translate(1008.137 1750.529)" fill="none" stroke="#060816" stroke-linecap="round" stroke-linejoin="round" stroke-width="2"/>
      <line id="Line_107" data-name="Line 107" y1="5.935" transform="translate(1016.137 1750.529)" fill="none" stroke="#060816" stroke-linecap="round" stroke-linejoin="round" stroke-width="2"/>
      <path id="Path_11359" data-name="Path 11359" d="M147.808,120.606H32.818v-1.4a10.908,10.908,0,0,1,10.909-10.909H136.9a10.909,10.909,0,0,1,10.91,10.909Z" transform="translate(921.319 1691.283)" fill="none" stroke="#060816" stroke-linecap="round" stroke-linejoin="round" stroke-width="2"/>
      <path id="Path_11360" data-name="Path 11360" d="M118.118,93.845a26.851,26.851,0,0,1,16.255-7.819c3.284-.316,7.355.434,8.316,2.84.578,1.446-.327,3.135-2.022,3.926a6.513,6.513,0,0,1-5.614-.235,7.417,7.417,0,0,1-3.031-3.943c-2.657-6.391-.676-12.961,7.46-16.742" transform="translate(929.918 1689.171)" fill="none" stroke="#060816" stroke-linecap="round" stroke-linejoin="round" stroke-width="2"/>
      <path id="Path_11361" data-name="Path 11361" d="M56.789,51.906c-.455-4.248-6.264-11.32-11.022-10.78a3.405,3.405,0,0,0-2.911,2.927,2.008,2.008,0,0,0,.975,2.09,1.754,1.754,0,0,0,1.407-.06,3.354,3.354,0,0,0,1.627-3.328,7.543,7.543,0,0,0-3.874-5.659,22.993,22.993,0,0,0-8.57-2.676" transform="translate(926.74 1694.997)" fill="none" stroke="#060816" stroke-linecap="round" stroke-linejoin="round" stroke-width="2"/>
      <path id="Path_11362" data-name="Path 11362" d="M16.031,73.815c1.639,3.793,3.442,7.719,6.68,10.287s8.355,3.258,11.357.418a4.241,4.241,0,0,0,1.275-4.642,4.009,4.009,0,0,0-2.866-2.061,2.619,2.619,0,0,0-1.532.056c-1.274.526-1.408,2.276-1.149,3.63a15.346,15.346,0,0,0,8.973,11.06c3.266,1.369,6.9,1.545,10.437,1.574,2.361.019,5.127-.234,6.386-2.23" transform="translate(926.698 1690.67)" fill="none" stroke="#060816" stroke-linecap="round" stroke-linejoin="round" stroke-width="2"/>
      <path id="Path_11363" data-name="Path 11363" d="M122.674,34.531c-4.358,1.576-8.948,3.539-11.633,7.719a7.267,7.267,0,0,0-1.318,4.055,3.652,3.652,0,0,0,2.128,3.369,2.531,2.531,0,0,0,3.257-1.777,2.82,2.82,0,0,0-1.016-2.552,6.045,6.045,0,0,0-2.521-1.152c-2.226-.565-4.578-.6-6.257,1.325a10.661,10.661,0,0,0-2.15,6.392" transform="translate(947.49 1691.366)" fill="none" stroke="#060816" stroke-linecap="round" stroke-linejoin="round" stroke-width="2"/>
    </g>
  </g>
</svg>
