<svg xmlns="http://www.w3.org/2000/svg" width="200" height="144" viewBox="0 0 200 144">
  <g id="No_reviews" data-name="No reviews" transform="translate(-460 -1716)">
    <rect id="Container" width="200" height="144" transform="translate(460 1716)" fill="none"/>
    <path id="Shape" d="M86.745,36.564c22.355,1.526,39.932,22.005,54.167,37.321,7.034,7.568,12.547,18.026,9.788,27.982-1.62,5.843-5.87,10.606-10.527,14.49-10.981,9.158-24.635,14.5-38.386,18.424-17.705,5.045-37.3,7.826-54.064.222C25.938,125.121,14.492,97.489,21.9,74.744c4.1-12.6,13.53-22.984,25.039-29.335,12.866-7.1,23.074-10.164,39.8-8.842" transform="translate(474.463 1703)" fill="#eaeaea"/>
    <g id="No_reviews-2" data-name="No reviews" transform="translate(-4.19 0.864)">
      <path id="Path_11339" data-name="Path 11339" d="M84.815,50.212c-9.348,0-10.234,16.285-15.8,22.038s-22.869-.827-25.27,9.384,13.167,13.681,15.086,22.446-7.58,21.078.547,27.207,16.868-7.732,25.435-7.732,17.314,13.861,25.44,7.736-1.378-18.443.546-27.207,17.484-12.231,15.087-22.446-19.706-3.632-25.252-9.384S94.162,50.212,84.815,50.212Z" transform="translate(476.688 1704.8)" fill="none" stroke="#060816" stroke-linecap="round" stroke-linejoin="round" stroke-width="2"/>
      <path id="Path_11340" data-name="Path 11340" d="M137.737,96.533c-2.619.12-2.659,4.693-4.144,6.376s-6.418.062-6.96,2.953,3.863,3.664,4.514,6.1-1.854,6,.5,7.615,4.626-2.381,7.027-2.491,5.027,3.662,7.226,1.841-.621-5.149-.2-7.63,4.742-3.649,3.941-6.481-5.568-.765-7.2-2.306S140.356,96.413,137.737,96.533Z" transform="translate(480.333 1706.832)" fill="none" stroke="#060816" stroke-linecap="round" stroke-linejoin="round" stroke-width="2"/>
      <path id="Path_11341" data-name="Path 11341" d="M36.713,32.2c-3.007,1.3-1.032,6.659-2.023,9.282s-7.472,2.908-6.827,6.526S34,50.58,35.832,53.134s.486,7.832,3.951,8.677,4.354-4.829,7.11-6.018,7.494,2.056,9.258-1.042-3-5.742-3.6-8.829,3.927-6.361,1.738-9.314-6.843,1.567-9.425.485S39.72,30.9,36.713,32.2Z" transform="translate(476 1704)" fill="none" stroke="#060816" stroke-linecap="round" stroke-linejoin="round" stroke-width="2"/>
      <path id="Path_11342" data-name="Path 11342" d="M106.443,58.843c4.814,2.173,9.646.122,11.51-4.886a6.009,6.009,0,0,0,.326-3.562c-.319-1.317-1.425-2.641-2.317-2.443-.78.173-1.037,1.48-.634,2.609a3.825,3.825,0,0,0,2.167,2.287,2.92,2.92,0,0,0,2.379-.258c2.746-1.448,3.966-5.926,2.836-10.416" transform="translate(479.449 1704.447)" fill="none" stroke="#060816" stroke-linecap="round" stroke-linejoin="round" stroke-width="2"/>
      <path id="Path_11343" data-name="Path 11343" d="M47.01,104.62a13.842,13.842,0,0,0-7.751,1.792,8.372,8.372,0,0,0-4.112,6.57,3.652,3.652,0,0,0,.575,2.292,1.914,1.914,0,0,0,2.11.761,1.863,1.863,0,0,0,.812-2.559,2.962,2.962,0,0,0-2.54-1.4,5.327,5.327,0,0,0-4.047,1.918A10.383,10.383,0,0,0,30,118.1c-.34,1.2-.456,2.732.568,3.436" transform="translate(476.085 1707.186)" fill="none" stroke="#060816" stroke-linecap="round" stroke-linejoin="round" stroke-width="2"/>
    </g>
  </g>
</svg>
