<svg id="Order:_On_way" data-name="Order: On way" xmlns="http://www.w3.org/2000/svg" width="312" height="204.495" viewBox="0 0 312 204.495">
  <rect id="Container" width="312" height="204" fill="none"/>
  <g id="Floor" transform="translate(-23.565 0.721)" opacity="0.54">
    <path id="Line" d="M52,203a58.148,58.148,0,0,0,6.86,0c1.81-.22,3.34-1.51,5.17-2a3.79,3.79,0,0,1,2.21-.08,9.742,9.742,0,0,1,1.65,1c2.84,1.68,7,1.24,10.19,1.35,2.29.08,4.8-.59,7.08-.83a64.911,64.911,0,0,1,16.06-.14c6.79,1,13.61.7,20.47.7h20.47c3.21,0,6.89.52,9.91-.47s6.11-.56,9.15-.09c9.5,1.47,19.62.56,29.28.56h48.82c2,0,2.76.19,4.34-1a11.72,11.72,0,0,1,5-2.37,15.69,15.69,0,0,1,5.76.59c4.044.873,2.138,1.487,6.26,1.84,3.75.32,7.5.21,11.19.84a52.192,52.192,0,0,0,7.07.29c1.94.06,3.5-1,5.44-1s3.94.87,6.08.77c2.59-.12,5.21,0,7.81,0H300" fill="none" stroke="#2c2c2c" stroke-linecap="round" stroke-linejoin="round" stroke-width="1"/>
    <path id="Path_11162" data-name="Path 11162" d="M175,198.31c1.64,0,4.5,1,4.5,2.73s-2.93,1.85-4.56,1.85-4.43-.12-4.43-1.85S173.35,198.31,175,198.31Z" fill="none" stroke="#000" stroke-linecap="round" stroke-linejoin="round" stroke-width="1"/>
    <path id="Path_11163" data-name="Path 11163" d="M271.37,199.25c1.17,0,3.23.72,3.23,2s-2.11,1.33-3.28,1.33-5.1.07-5.54-1.09C265.22,199.49,270.2,199.25,271.37,199.25Z" fill="none" stroke="#000" stroke-linecap="round" stroke-linejoin="round" stroke-width="1"/>
  </g>
  <g id="Details" transform="translate(115.916 17.67)" opacity="0.54">
    <path id="Path_765" data-name="Path 765" d="M83.468,68.2c2.26-.47,4.35-1.74,3.55-4.52-.66-2.35-4.37-3.8-6.44-2.37a.84.84,0,0,0,.38,1.53,1.36,1.36,0,0,0,1.31-.73,2.9,2.9,0,0,0,.3-1.54,8.94,8.94,0,0,0-3.66-7c-1.88-1.34-7.08-2.55-8.25.43-.52,1.33,1.36,2.05,2.37,1.75a1.52,1.52,0,0,0,.74-.44,1.47,1.47,0,0,0,.27-1.27,8,8,0,0,0-.85-1.89c-3-5.79-12.6-3-12.88,3.21a3,3,0,0,0,3,3.14,1,1,0,0,0,1-.46c.54-1.23-2-2.14-2.77-2.28a7.13,7.13,0,0,0-3.82.41,6.5,6.5,0,0,0-3.79,5.43,6.37,6.37,0,0,0,2.57,5.52c1.83,1.41,4.27,1.33,6.46,1.32h18.15a11.5,11.5,0,0,0,2.36-.24Z" transform="translate(82.935 -11.67)" fill="none" stroke="#000" stroke-linecap="round" stroke-linejoin="round" stroke-width="1"/>
    <path id="Path_765-2" data-name="Path 765" d="M192.049,65.653c1.32-.274,2.535-1.016,2.073-2.646a2.72,2.72,0,0,0-3.767-1.378.491.491,0,0,0,.228.888.8.8,0,0,0,.765-.42,1.752,1.752,0,0,0,.175-.9,5.256,5.256,0,0,0-2.137-4.088c-1.1-.783-4.135-1.489-4.818.251-.3.777.794,1.168,1.378,1.022a.952.952,0,0,0,.438-.257.859.859,0,0,0,.14-.736,4.59,4.59,0,0,0-.5-1.1C184.27,52.9,178.67,54.5,178.5,58.154a1.752,1.752,0,0,0,1.8,1.863.584.584,0,0,0,.584-.269c.315-.718-1.168-1.25-1.618-1.332a4.129,4.129,0,0,0-2.237.239,3.8,3.8,0,0,0-2.208,3.165,3.708,3.708,0,0,0,1.5,3.224c1.069.829,2.488.777,3.773.777h10.576a6.757,6.757,0,0,0,1.372-.169Z" transform="translate(-167.909 -17.611)" fill="none" stroke="#000" stroke-linecap="round" stroke-linejoin="round" stroke-width="1"/>
    <path id="Path_765-3" data-name="Path 765" d="M192.049,65.653c1.32-.274,2.535-1.016,2.073-2.646a2.72,2.72,0,0,0-3.767-1.378.491.491,0,0,0,.228.888.8.8,0,0,0,.765-.42,1.752,1.752,0,0,0,.175-.9,5.256,5.256,0,0,0-2.137-4.088c-1.1-.783-4.135-1.489-4.818.251-.3.777.794,1.168,1.378,1.022a.952.952,0,0,0,.438-.257.859.859,0,0,0,.14-.736,4.59,4.59,0,0,0-.5-1.1C184.27,52.9,178.67,54.5,178.5,58.154a1.752,1.752,0,0,0,1.8,1.863.584.584,0,0,0,.584-.269c.315-.718-1.168-1.25-1.618-1.332a4.129,4.129,0,0,0-2.237.239,3.8,3.8,0,0,0-2.208,3.165,3.708,3.708,0,0,0,1.5,3.224c1.069.829,2.488.777,3.773.777h10.576a6.757,6.757,0,0,0,1.372-.169Z" transform="translate(-257.909 -41.822)" fill="none" stroke="#000" stroke-linecap="round" stroke-linejoin="round" stroke-width="1"/>
    <path id="Path_765-4" data-name="Path 765" d="M145.382,35.59c-1.33-.28-2.56-1-2.09-2.66a2.74,2.74,0,0,1,3.79-1.39.49.49,0,0,1-.23.89.79.79,0,0,1-.77-.42,1.77,1.77,0,0,1-.17-.91,5.25,5.25,0,0,1,2.15-4.1c1.11-.78,4.16-1.5,4.85.26.31.78-.8,1.2-1.39,1a.88.88,0,0,1-.44-.25.9.9,0,0,1-.16-.75,4.291,4.291,0,0,1,.51-1.11c1.77-3.41,7.4-1.8,7.57,1.88a1.75,1.75,0,0,1-1.8,1.85.56.56,0,0,1-.55-.27c-.32-.72,1.16-1.26,1.62-1.34a4.11,4.11,0,0,1,2.25.24,3.82,3.82,0,0,1,2.23,3.19,3.77,3.77,0,0,1-1.51,3.3c-1.08.83-2.51.78-3.8.78h-10.68A6.73,6.73,0,0,1,145.382,35.59Z" transform="translate(-81.909 -11.67)" fill="none" stroke="#000" stroke-linecap="round" stroke-linejoin="round" stroke-width="1"/>
    <ellipse id="Ellipse_92" data-name="Ellipse 92" cx="15.49" cy="15.49" rx="15.49" ry="15.49" transform="translate(102.233 0)" fill="none" stroke="#000" stroke-linecap="round" stroke-linejoin="round" stroke-width="1"/>
  </g>
  <g id="Motorcycle" transform="translate(-36.565 -10.914)">
    <path id="Path_11164" data-name="Path 11164" d="M77.46,122.387a94.571,94.571,0,0,1,29.442-3.863c4.968.137,10.05.706,14.516,2.894a11.861,11.861,0,0,1,5.207,4.466,6.335,6.335,0,0,1,0,6.6,8.056,8.056,0,0,1-5.435,2.894,8.2,8.2,0,0,1-4.717-.342,3.874,3.874,0,0,1-2.416-3.783,4.421,4.421,0,0,1,2.757-3.168c3.851-1.755,8.42-.148,12.021,2.085s6.916,5.127,11.007,6.255" transform="translate(1.494)" fill="none" stroke="#000" stroke-linecap="round" stroke-linejoin="round" stroke-width="1"/>
    <path id="Path_11165" data-name="Path 11165" d="M133.612,143.254a27.926,27.926,0,0,1-7.144-.444,43.662,43.662,0,0,0-25.067,4.4,6.392,6.392,0,0,0-3.418,3.088,4.045,4.045,0,0,0,1.47,4.444,5.811,5.811,0,0,0,4.785.855c1.709-.4,3.418-2.051,2.826-3.68a3.658,3.658,0,0,0-2.051-1.709,21.991,21.991,0,0,0-18.9.638" transform="translate(2.7 3.345)" fill="none" stroke="#000" stroke-linecap="round" stroke-linejoin="round" stroke-width="1"/>
    <path id="Path_11166" data-name="Path 11166" d="M67.412,143.507a3.714,3.714,0,0,1,.091-4.387,7.839,7.839,0,0,1,3.863-2.6c3.988-1.436,8.329-1.47,12.533-1.344s8.534.376,12.67-.558,8.181-3.247,10.107-7.03" transform="translate(0 1.269)" fill="none" stroke="#000" stroke-linecap="round" stroke-linejoin="round" stroke-width="1"/>
    <circle id="Ellipse_93" data-name="Ellipse 93" cx="5.64" cy="5.64" r="5.64" transform="translate(180.783 175.973)" fill="none" stroke="#000" stroke-linecap="round" stroke-linejoin="round" stroke-width="2"/>
    <circle id="Ellipse_94" data-name="Ellipse 94" cx="2.997" cy="2.997" r="2.997" transform="translate(183.427 178.628)"/>
    <path id="Path_11167" data-name="Path 11167" d="M231.508,180.976l-27.027-27.027a18.675,18.675,0,0,0-13.206-5.469H161.651A16.921,16.921,0,0,0,146.1,158.736l-9.548,22.24" transform="translate(9.732 4.181)" fill="none" stroke="#000" stroke-linecap="round" stroke-linejoin="round" stroke-width="2"/>
    <path id="Path_11168" data-name="Path 11168" d="M177.37,172.265l15.348-20.213-5.686-18.732H197.9" transform="translate(15.422 2.067)" fill="none" stroke="#000" stroke-linecap="round" stroke-linejoin="round" stroke-width="2"/>
    <line id="Line_40" data-name="Line 40" x1="18.219" y1="29.966" transform="translate(162.564 143.842)" fill="none" stroke="#000" stroke-linecap="round" stroke-linejoin="round" stroke-width="2"/>
    <path id="Path_11169" data-name="Path 11169" d="M140.423,137c1.607.581,5.424-1.356,10.505-2.735,3.6-.98,8.99-1.048,9.9,1.948.718,2.279.285,6.039-11.292,4.66-3.418-.4-6.517-1.333-9.708.33" transform="translate(10.189 2.115)" fill="none" stroke="#000" stroke-linecap="round" stroke-linejoin="round" stroke-width="2"/>
    <circle id="Ellipse_95" data-name="Ellipse 95" cx="28.417" cy="28.417" r="28.417" transform="translate(212.823 156.74)" fill="none" stroke="#000" stroke-linecap="round" stroke-linejoin="round" stroke-width="2"/>
    <circle id="Ellipse_96" data-name="Ellipse 96" cx="4.432" cy="4.432" r="4.432" transform="translate(236.808 180.724)" fill="none" stroke="#000" stroke-linecap="round" stroke-linejoin="round" stroke-width="2"/>
    <circle id="Ellipse_97" data-name="Ellipse 97" cx="2.347" cy="2.347" r="2.347" transform="translate(238.893 182.81)"/>
    <path id="Path_11170" data-name="Path 11170" d="M225.42,205.26a89.386,89.386,0,0,1,4.991-12.8,66.166,66.166,0,0,1,9.81-14.721c2.074-2.359,3.9-4.558,6.666-6.073" transform="translate(22.121 7.414)" fill="none" stroke="#000" stroke-linecap="round" stroke-linejoin="round" stroke-width="1"/>
    <path id="Path_11171" data-name="Path 11171" d="M204,196.563c12.533-3.008,25.534-3.031,38.478-2.085" transform="translate(19.135 10.516)" fill="none" stroke="#000" stroke-linecap="round" stroke-linejoin="round" stroke-width="1"/>
    <circle id="Ellipse_98" data-name="Ellipse 98" cx="28.417" cy="28.417" r="28.417" transform="translate(117.854 156.751)" fill="none" stroke="#000" stroke-linecap="round" stroke-linejoin="round" stroke-width="2"/>
    <circle id="Ellipse_99" data-name="Ellipse 99" cx="4.432" cy="4.432" r="4.432" transform="translate(141.838 180.736)" fill="none" stroke="#000" stroke-linecap="round" stroke-linejoin="round" stroke-width="2"/>
    <circle id="Ellipse_100" data-name="Ellipse 100" cx="2.347" cy="2.347" r="2.347" transform="translate(143.923 182.821)"/>
    <path id="Path_11172" data-name="Path 11172" d="M133.633,205.246a91.845,91.845,0,0,0-4.991-12.8,66.564,66.564,0,0,0-9.822-14.676,23.927,23.927,0,0,0-6.711-5.925" transform="translate(6.325 7.439)" fill="none" stroke="#000" stroke-linecap="round" stroke-linejoin="round" stroke-width="1"/>
    <path id="Path_11173" data-name="Path 11173" d="M157.158,196.583c-12.283-2.951-25.238-3.065-38.478-2.1" transform="translate(7.241 10.519)" fill="none" stroke="#000" stroke-linecap="round" stroke-linejoin="round" stroke-width="1"/>
    <circle id="Ellipse_101" data-name="Ellipse 101" cx="2.21" cy="2.21" r="2.21" transform="translate(211.114 133.177)"/>
    <path id="Path_11174" data-name="Path 11174" d="M176.239,168.254l-39.572,5.025a5.332,5.332,0,0,0-4.466,5h0a4.911,4.911,0,0,0,5.412,5.082l39.629-2.21a6.472,6.472,0,0,0,6.13-6.529h0a6.483,6.483,0,0,0-7.133-6.369Z" transform="translate(9.125 6.933)" fill="none" stroke="#000" stroke-linecap="round" stroke-linejoin="round" stroke-width="1"/>
    <line id="Line_41" data-name="Line 41" x2="14.015" y2="8.819" transform="translate(186.423 181.625)" fill="none" stroke="#000" stroke-linecap="round" stroke-linejoin="round" stroke-width="2"/>
    <rect id="Rectangle_2969" data-name="Rectangle 2969" width="9.924" height="3.281" rx="1.29" transform="translate(194.366 190.089) rotate(-13.8)"/>
  </g>
</svg>
