<svg xmlns="http://www.w3.org/2000/svg" width="312" height="204.069" viewBox="0 0 312 204.069">
  <g id="Order:_Done" data-name="Order: Done" transform="translate(0 0.069)">
    <rect id="Container" width="312" height="203.571" transform="translate(0 0.429)" fill="none"/>
    <line id="Floor" x2="247.478" transform="translate(37.261 203.042)" fill="none" stroke="#2c2c2c" stroke-linecap="round" stroke-linejoin="round" stroke-width="0.998" opacity="0.54"/>
    <g id="Details" transform="translate(-19.75 -0.922)" opacity="0.54">
      <g id="Well">
        <rect id="Rectangle_2960" data-name="Rectangle 2960" width="27.891" height="9.081" transform="translate(224.806 72.168)" fill="none" stroke="#2c2c2c" stroke-linecap="round" stroke-linejoin="round" stroke-width="0.998"/>
        <rect id="Rectangle_2961" data-name="Rectangle 2961" width="27.891" height="9.081" transform="translate(260.072 39.547)" fill="none" stroke="#2c2c2c" stroke-linecap="round" stroke-linejoin="round" stroke-width="0.998"/>
        <rect id="Rectangle_2962" data-name="Rectangle 2962" width="27.891" height="9.081" transform="translate(285.279 77.247)" fill="none" stroke="#2c2c2c" stroke-linecap="round" stroke-linejoin="round" stroke-width="0.998"/>
        <rect id="Rectangle_2960-2" data-name="Rectangle 2960" width="27.891" height="9.081" transform="translate(38.329 53.697)" fill="none" stroke="#2c2c2c" stroke-linecap="round" stroke-linejoin="round" stroke-width="0.998"/>
        <rect id="Rectangle_2961-2" data-name="Rectangle 2961" width="27.891" height="9.081" transform="translate(73.595 77.247)" fill="none" stroke="#2c2c2c" stroke-linecap="round" stroke-linejoin="round" stroke-width="0.998"/>
        <rect id="Rectangle_2962-2" data-name="Rectangle 2962" width="27.891" height="9.081" transform="translate(102.005 32.721)" fill="none" stroke="#2c2c2c" stroke-linecap="round" stroke-linejoin="round" stroke-width="0.998"/>
      </g>
      <g id="Lamp" transform="translate(-5.381 -14.148)">
        <line id="Line_42" data-name="Line 42" y2="19.474" transform="translate(181.011 15.5)" fill="none" stroke="#2c2c2c" stroke-linecap="round" stroke-linejoin="round" stroke-width="0.998"/>
        <path id="Path_11175" data-name="Path 11175" d="M197.247,51.141a14.913,14.913,0,0,1-6.572,7.8h-25.1a14.913,14.913,0,0,1-6.549-7.8c-3.206-9.128,3.834-18.61,13.487-18.61h11.273C193.414,32.531,200.454,42.036,197.247,51.141Z" transform="translate(2.887 2.443)" fill="none" stroke="#2c2c2c" stroke-linecap="round" stroke-linejoin="round" stroke-width="0.998"/>
        <path id="Path_11176" data-name="Path 11176" d="M158.546,49.692c4.564-1.94,8.82-4.564,11.593-8.523a8.991,8.991,0,0,0,1.712-4.119,4.632,4.632,0,0,0-1.495-4.085,2.99,2.99,0,0,0-.388-.274h0" transform="translate(2.931 2.466)" fill="none" stroke="#2c2c2c" stroke-linecap="round" stroke-linejoin="round" stroke-width="0.998"/>
        <path id="Path_11177" data-name="Path 11177" d="M195.314,48.445h0c-1.038.24-2.065.434-3.115.6a27.384,27.384,0,0,1-4.439.365,8.364,8.364,0,0,0,1.54-1.985,4.77,4.77,0,0,0,.262-4.313,4.564,4.564,0,0,0-3.948-2.282,7.816,7.816,0,0,0-4.473,1.518c-1.209.822-2.362,2.168-2,3.571a3.549,3.549,0,0,0,2.031,2.065,14.491,14.491,0,0,0,6.584,1.438,17.792,17.792,0,0,1-1.483,1.3,57.612,57.612,0,0,1-7.474,4.826c-1.346.753-2.7,1.495-4.062,2.214" transform="translate(5.254 3.633)" fill="none" stroke="#2c2c2c" stroke-linecap="round" stroke-linejoin="round" stroke-width="0.998"/>
        <line id="Line_43" data-name="Line 43" x1="23.073" y2="44.26" transform="translate(153.511 61.389)" fill="none" stroke="#2c2c2c" stroke-linecap="round" stroke-linejoin="round" stroke-width="0.998"/>
        <path id="Path_11198" data-name="Path 11198" d="M0,0,24.765,44.039" transform="translate(185.438 61.389)" fill="none" stroke="#2c2c2c" stroke-linecap="round" stroke-width="0.998"/>
        <line id="Line_45" data-name="Line 45" y2="39.901" transform="translate(181.011 61.389)" fill="none" stroke="#2c2c2c" stroke-linecap="round" stroke-linejoin="round" stroke-width="0.998"/>
      </g>
    </g>
    <g id="Complete" transform="translate(-22.053 -5.518)">
      <path id="Path_11178" data-name="Path 11178" d="M143.406,166.155h69.5a4.247,4.247,0,0,0,3.843-6.136c-7-14.237-21.647-20.7-38.591-20.7s-31.595,6.465-38.591,20.7a4.247,4.247,0,0,0,3.843,6.136Z" transform="translate(1.382 1.882)" fill="none" stroke="#2c2c2c" stroke-linecap="round" stroke-linejoin="round" stroke-width="1.996"/>
      <path id="Path_11179" data-name="Path 11179" d="M130.318,154.969c-3.047-1.614-4.915-4.788-6.274-7.962a2.58,2.58,0,0,1-.117-2.516,1.7,1.7,0,0,1,1.624-.552,4.13,4.13,0,0,1,1.635.733,1.646,1.646,0,0,1,.86,1.062,1.136,1.136,0,0,1-.637,1.062,3.079,3.079,0,0,1-1.242.276,14.247,14.247,0,0,1-8.684-2.431" transform="translate(0 2.175)" fill="none" stroke="#2c2c2c" stroke-linecap="round" stroke-miterlimit="10" stroke-width="0.998"/>
      <path id="Path_11180" data-name="Path 11180" d="M227.52,150.762a8.493,8.493,0,0,0,4.9-2.463,3.578,3.578,0,0,0,1.062-1.932,1.677,1.677,0,0,0-1-1.837,2.453,2.453,0,0,0-.924-.053c-.817.074-1.815.382-1.975,1.189s.669,1.486,1.433,1.826a10.266,10.266,0,0,0,6.561.669c.775-.17,1.635-.541,1.847-1.316" transform="translate(7.031 2.21)" fill="none" stroke="#2c2c2c" stroke-linecap="round" stroke-miterlimit="10" stroke-width="0.998"/>
      <path id="Path_11181" data-name="Path 11181" d="M158.6,130.3a15.256,15.256,0,0,0-8.016-.584,5.308,5.308,0,0,0-2.707,1.189,1.752,1.752,0,0,0-.648,1.529,1.571,1.571,0,0,0,1.37,1.147,3.9,3.9,0,0,0,1.858-.3,2.325,2.325,0,0,0,.892-.467,1.7,1.7,0,0,0,.064-2.123,4.247,4.247,0,0,0-1.784-1.327,13.165,13.165,0,0,0-8.854-1.062,8.493,8.493,0,0,0-6.2,6.051" transform="translate(1.092 1.156)" fill="none" stroke="#2c2c2c" stroke-linecap="round" stroke-miterlimit="10" stroke-width="0.998"/>
      <path id="Path_11182" data-name="Path 11182" d="M182.928,109.868a3.5,3.5,0,0,1-1.062,3.684" transform="translate(4.114 0)" fill="none" stroke="#2c2c2c" stroke-linecap="round" stroke-miterlimit="10" stroke-width="0.998"/>
      <path id="Path_11183" data-name="Path 11183" d="M173.325,111.166a2.994,2.994,0,0,1,1.837,2.208" transform="translate(3.568 0.083)" fill="none" stroke="#2c2c2c" stroke-linecap="round" stroke-miterlimit="10" stroke-width="0.998"/>
      <path id="Path_11184" data-name="Path 11184" d="M191.3,114.291a13.526,13.526,0,0,1,3.557-2.2" transform="translate(4.716 0.142)" fill="none" stroke="#2c2c2c" stroke-linecap="round" stroke-miterlimit="10" stroke-width="0.998"/>
      <path id="Path_11185" data-name="Path 11185" d="M195.668,119.941a31.594,31.594,0,0,1,4.661-1.062" transform="translate(4.996 0.576)" fill="none" stroke="#2c2c2c" stroke-linecap="round" stroke-miterlimit="10" stroke-width="0.998"/>
      <path id="Path_11186" data-name="Path 11186" d="M195.588,125.535l3.058.5" transform="translate(4.99 1.001)" fill="none" stroke="#2c2c2c" stroke-linecap="round" stroke-miterlimit="10" stroke-width="0.998"/>
      <path id="Path_11187" data-name="Path 11187" d="M168.225,124.977l-5.308.34" transform="translate(2.903 0.965)" fill="none" stroke="#2c2c2c" stroke-linecap="round" stroke-miterlimit="10" stroke-width="0.998"/>
      <path id="Path_11188" data-name="Path 11188" d="M169.081,116.44a19.322,19.322,0,0,0-3.939-1.922" transform="translate(3.045 0.297)" fill="none" stroke="#2c2c2c" stroke-linecap="round" stroke-miterlimit="10" stroke-width="0.998"/>
      <path id="Path_11189" data-name="Path 11189" d="M166.9,121.01c-1.433-.265-2.866-.52-4.247-.743" transform="translate(2.886 0.664)" fill="none" stroke="#2c2c2c" stroke-linecap="round" stroke-miterlimit="10" stroke-width="0.998"/>
      <path id="Path_11190" data-name="Path 11190" d="M210.335,143.49l4.438-3.355a9.555,9.555,0,0,0,2.336-2.251,3.185,3.185,0,0,0,.329-3.089,3.493,3.493,0,0,0-2.325-1.614,6.37,6.37,0,0,0-3.132,0,3.705,3.705,0,0,0-2.24,1.412,2.123,2.123,0,0,0,.085,2.516,1.454,1.454,0,0,0,2.283-.276" transform="translate(5.871 1.477)" fill="none" stroke="#2c2c2c" stroke-linecap="round" stroke-miterlimit="10" stroke-width="0.998"/>
      <path id="Path_11191" data-name="Path 11191" d="M212.154,188.822h-69.5c-3.185,0-5.446,4.1-3.281,6.487,6.561,7.209,21.52,6.922,38.453,7.187,16.148.244,31.319-1.89,36.839-7.538a3.61,3.61,0,0,0-2.516-6.136Z" transform="translate(1.344 5.045)" fill="none" stroke="#2c2c2c" stroke-linecap="round" stroke-linejoin="round" stroke-width="1.996"/>
      <path id="Path_11192" data-name="Path 11192" d="M157.67,168.67a20.169,20.169,0,0,0-4.512,2.123,12.74,12.74,0,0,1-11.381.234,4.47,4.47,0,0,1-1.635-1.232,2.007,2.007,0,0,1-.35-1.932c.4-1,1.677-1.3,2.76-1.274a15.033,15.033,0,0,1,6.519,1.975c2.038,1.062,3.949,2.336,6.009,3.344a22.708,22.708,0,0,0,10.617,2.633c3.121-.159,5.181-2.452,7.548-4.172,3.047-2.219,6.508-1.433,9.629.127,5.563,2.76,9.82,3.843,15.744,1.274a81.893,81.893,0,0,1,8.238-3.588c1.8-.552,4.247-1.232,6.126-.733,2.782.754,2.707,3.9,0,4.937a7.58,7.58,0,0,1-3.557.244,16.392,16.392,0,0,0-3.6-.2c-3.854.435-5.468,4.119-7.294,7.018" transform="translate(1.418 3.624)" fill="none" stroke="#2c2c2c" stroke-linecap="round" stroke-linejoin="round" stroke-width="1.996"/>
      <path id="Path_11193" data-name="Path 11193" d="M203.662,175.74h6.37a4.65,4.65,0,0,1,4.65,4.65h0a4.661,4.661,0,0,1-4.65,4.661H144.326a4.661,4.661,0,0,1-4.65-4.661h0a4.65,4.65,0,0,1,4.65-4.65h51.65" transform="translate(1.418 4.209)" fill="none" stroke="#2c2c2c" stroke-linecap="round" stroke-linejoin="round" stroke-width="1.996"/>
      <path id="Path_11194" data-name="Path 11194" d="M170.085,154.7c.478,0,1.784.361,1.794.849s-1.285.892-1.773.892a.871.871,0,1,1,0-1.741Zm6.657-7.75a.849.849,0,0,0,.977.679c.456-.085,1.614-.679,1.529-1.136s-1.38-.595-1.826-.51a.828.828,0,0,0-.679.966Zm18.781,8.727a.924.924,0,0,0,.648-1.125c-.127-.488-.871-1.709-1.359-1.582s-.541,1.561-.414,2.049a.924.924,0,0,0,1.125.658Zm9.916,3.185a.934.934,0,0,0,1.263.35c.435-.255,1.423-1.3,1.168-1.73s-1.646-.117-2.123.127a.924.924,0,0,0-.308,1.263Zm-17.793,2.495a.913.913,0,0,0-.5-1.189c-.467-.2-1.879-.34-2.07.127s.913,1.359,1.37,1.55a.924.924,0,0,0,1.2-.478Zm.393-16.031a.786.786,0,0,0,1.062.265c.382-.223,1.21-1.147.977-1.518s-1.423-.064-1.794.159a.786.786,0,0,0-.244,1.1Zm-28.166,16.551a.924.924,0,0,0,.17-1.3c-.308-.393-1.465-1.232-1.868-.924s.106,1.646.414,2.049a.913.913,0,0,0,1.285.18Zm-9.364-6.232a.871.871,0,0,0,1.232,0c.34-.35.934-1.561.584-1.89s-1.518.35-1.847.7a.871.871,0,0,0,.032,1.2Zm14.088-8.228a.913.913,0,0,0,.69-1.062c-.106-.488-.8-1.709-1.285-1.6s-.595,1.508-.478,2a.9.9,0,0,0,1.072.679Z" transform="translate(2.094 2.175)" fill="#2c2c2c"/>
      <path id="Path_11195" data-name="Path 11195" d="M150.293,200.609h0a118.606,118.606,0,0,1,17.146-5.149,82.024,82.024,0,0,1,25.65-1.688,150.048,150.048,0,0,1,17.634,3.249" transform="translate(2.096 5.339)" fill="none" stroke="#2c2c2c" stroke-linecap="round" stroke-linejoin="round" stroke-width="0.998"/>
      <path id="Path_11196" data-name="Path 11196" d="M139.706,190.029h0A152.879,152.879,0,0,1,186.1,202.313" transform="translate(1.42 5.122)" fill="none" stroke="#2c2c2c" stroke-linecap="round" stroke-linejoin="round" stroke-width="0.998"/>
      <line id="Line_46" data-name="Line 46" y1="21.509" transform="translate(175.523 119.689)" fill="none" stroke="#2c2c2c" stroke-linecap="round" stroke-linejoin="round" stroke-width="1.996"/>
      <path id="Path_11197" data-name="Path 11197" d="M172.037,129.137c1.943-2.4,7.432-1.062,9.895-.318,5.807,1.688,9.374.733,9.374.733s2.633-8.132-.382-11.583c-1.476,1.2-4.31,1.37-6.2,1.147-3.928-.446-8.886-2.92-12.687-.074" transform="translate(3.486 0.5)" fill="none" stroke="#2c2c2c" stroke-linecap="round" stroke-linejoin="round" stroke-width="1.996"/>
      <path id="Path_11136" data-name="Path 11136" d="M156.23,175.74c-.191.1-.361.287-.563.287l-8.727,8.716" transform="translate(1.882 4.209)" fill="none" stroke="#2c2c2c" stroke-linecap="round" stroke-linejoin="round" stroke-width="0.998"/>
      <line id="Line_33" data-name="Line 33" x1="6.37" y2="6.54" transform="translate(158.059 182.411)" fill="none" stroke="#2c2c2c" stroke-linecap="round" stroke-linejoin="round" stroke-width="0.998"/>
      <line id="Line_34" data-name="Line 34" x1="4.724" y2="4.724" transform="translate(172.848 180.044)" fill="none" stroke="#2c2c2c" stroke-linecap="round" stroke-linejoin="round" stroke-width="0.998"/>
      <line id="Line_35" data-name="Line 35" x1="5.17" y2="4.915" transform="translate(182.827 184.301)" fill="none" stroke="#2c2c2c" stroke-linecap="round" stroke-linejoin="round" stroke-width="0.998"/>
      <path id="Path_11137" data-name="Path 11137" d="M206.075,175.74a5.308,5.308,0,0,0-1.306.563l-8.493,8.493" transform="translate(5.034 4.209)" fill="none" stroke="#2c2c2c" stroke-linecap="round" stroke-linejoin="round" stroke-width="0.998"/>
    </g>
  </g>
</svg>
