<svg id="Order:_In_progress" data-name="Order: In progress" xmlns="http://www.w3.org/2000/svg" width="312" height="204" viewBox="0 0 312 204">
  <rect id="Container" width="312" height="204" fill="none"/>
  <line id="Floor" x2="248" transform="translate(33.771 203.04)" fill="none" stroke="#2c2c2c" stroke-linecap="round" stroke-linejoin="round" stroke-width="1" opacity="0.54"/>
  <g id="Burger" transform="translate(-10.229 7.172)">
    <path id="Path_11133" data-name="Path 11133" d="M196.3,187.81H131.011c-2.957,0-5.119,3.853-3.077,6.089,6.163,6.763,20.206,6.467,36.1,6.745,15.171.24,29.418-1.765,34.592-7.077a3.391,3.391,0,0,0-2.319-5.756Z" transform="translate(-0.181 -6.114)" fill="none" stroke="#2c2c2c" stroke-linecap="round" stroke-linejoin="round" stroke-width="2"/>
    <path id="Path_11134" data-name="Path 11134" d="M143.548,164.722a18.94,18.94,0,0,0-4.241,2.014,12.011,12.011,0,0,1-10.69.222,4.314,4.314,0,0,1-1.534-1.155,1.922,1.922,0,0,1-.333-1.848c.388-.924,1.58-1.21,2.6-1.192a14.062,14.062,0,0,1,6.126,1.848c1.9,1,3.7,2.2,5.636,3.151a21.533,21.533,0,0,0,9.932,2.467c2.938-.148,4.86-2.3,7.087-3.917,3.576-2.605,7.927-.665,11.3,1.284s8.851,1.488,12.4.434c3.908-1.155,7.493-4.259,8.057-8.315a13,13,0,0,1,.3-2.07,6.246,6.246,0,0,1,2.485-2.966,20.326,20.326,0,0,1,4.148-2.319" transform="translate(-0.144 -3.417)" fill="none" stroke="#2c2c2c" stroke-linecap="round" stroke-linejoin="round" stroke-width="2"/>
    <path id="Path_11135" data-name="Path 11135" d="M188.453,173.66h5.969a4.37,4.37,0,0,1,4.37,4.37h0a4.37,4.37,0,0,1-4.37,4.37H132.74a4.37,4.37,0,0,1-4.37-4.37h0a4.37,4.37,0,0,1,4.37-4.37Z" transform="translate(-0.276 -5.037)" fill="none" stroke="#2c2c2c" stroke-linecap="round" stroke-linejoin="round" stroke-width="2"/>
    <path id="Path_11136" data-name="Path 11136" d="M149.21,173.88c-.176.083-.333.268-.527.268l-8.214,8.214" transform="translate(-1.196 -5.054)" fill="none" stroke="#2c2c2c" stroke-linecap="round" stroke-linejoin="round" stroke-width="1"/>
    <line id="Line_33" data-name="Line 33" x1="6.006" y2="6.163" transform="translate(148.014 171.145)" fill="none" stroke="#2c2c2c" stroke-linecap="round" stroke-linejoin="round" stroke-width="1"/>
    <line id="Line_34" data-name="Line 34" x1="4.453" y2="4.444" transform="translate(161.947 168.918)" fill="none" stroke="#2c2c2c" stroke-linecap="round" stroke-linejoin="round" stroke-width="1"/>
    <line id="Line_35" data-name="Line 35" x1="4.878" y2="4.638" transform="translate(171.344 172.919)" fill="none" stroke="#2c2c2c" stroke-linecap="round" stroke-linejoin="round" stroke-width="1"/>
    <path id="Path_11137" data-name="Path 11137" d="M196.812,173.88a5.044,5.044,0,0,0-1.238.527l-7.964,7.964" transform="translate(-4.782 -5.054)" fill="none" stroke="#2c2c2c" stroke-linecap="round" stroke-linejoin="round" stroke-width="1"/>
    <path id="Path_11138" data-name="Path 11138" d="M129.785,142.06l63.067-16.779a4,4,0,0,0,2-6.467c-9.821-11.253-24.6-13.582-40.015-9.5s-27.09,13.5-30.018,28.106a4,4,0,0,0,4.962,4.638Z" transform="translate(0 0)" fill="none" stroke="#2c2c2c" stroke-linecap="round" stroke-linejoin="round" stroke-width="2"/>
    <path id="Path_11139" data-name="Path 11139" d="M154.142,126.794c.434-.129,1.709-.1,1.848.333s-.924,1.118-1.386,1.247a.832.832,0,0,1-1.016-.573A.822.822,0,0,1,154.142,126.794Z" transform="translate(-2.192 -1.467)" fill="#2c2c2c"/>
    <path id="Path_11140" data-name="Path 11140" d="M159.073,116.3c.4-.185,1.608-.37,1.792,0s-.73,1.21-1.118,1.4a.787.787,0,1,1-.674-1.423Z" transform="translate(-2.577 -0.658)" fill="#2c2c2c"/>
    <path id="Path_11141" data-name="Path 11141" d="M178.123,120.6c-.24-.416-.536-1.719-.12-1.959s1.386.693,1.617,1.1a.863.863,0,0,1-1.5.859Z" transform="translate(-4.035 -0.849)" fill="#2c2c2c"/>
    <path id="Path_11142" data-name="Path 11142" d="M189.981,120.282c.342-.333,1.524-.924,1.848-.619s-.314,1.515-.647,1.848a.868.868,0,0,1-1.22-1.229Z" transform="translate(-4.945 -0.923)" fill="#2c2c2c"/>
    <path id="Path_11143" data-name="Path 11143" d="M172,129.41c-.471-.055-1.682-.61-1.617-1.072s1.377-.684,1.848-.619A.853.853,0,0,1,172,129.41Z" transform="translate(-3.471 -1.542)" fill="#2c2c2c"/>
    <path id="Path_11144" data-name="Path 11144" d="M166.617,123.473c-.36-.3-1.109-1.4-.813-1.774s1.534.148,1.894.443a.85.85,0,0,1,.129,1.2A.868.868,0,0,1,166.617,123.473Z" transform="translate(-3.118 -1.075)" fill="#2c2c2c"/>
    <path id="Path_11145" data-name="Path 11145" d="M169.337,111.716c.286-.3,1.293-.868,1.589-.582s-.231,1.321-.517,1.617a.748.748,0,0,1-1.072-1.035Z" transform="translate(-3.38 -0.275)" fill="#2c2c2c"/>
    <path id="Path_11146" data-name="Path 11146" d="M144.653,136.534c-.379-.286-1.164-1.377-.868-1.755s1.543.1,1.922.388a.863.863,0,1,1-1.053,1.367Z" transform="translate(-1.443 -2.069)" fill="#2c2c2c"/>
    <path id="Path_11147" data-name="Path 11147" d="M134.852,131.558c.213-.4,1.109-1.3,1.515-1.081s.139,1.46-.074,1.848a.822.822,0,0,1-1.109.333.8.8,0,0,1-.333-1.1Z" transform="translate(-0.761 -1.75)" fill="#2c2c2c"/>
    <path id="Path_11148" data-name="Path 11148" d="M145.639,120.528c-.212-.416-.453-1.709,0-1.931s1.33.739,1.552,1.155a.851.851,0,1,1-1.515.776Z" transform="translate(-1.57 -0.846)" fill="#2c2c2c"/>
    <path id="Path_11149" data-name="Path 11149" d="M139.85,199.535h0a111.109,111.109,0,0,1,16.1-4.841,77.011,77.011,0,0,1,24.078-1.58,139.393,139.393,0,0,1,16.557,3.049" transform="translate(-1.149 -6.493)" fill="none" stroke="#2c2c2c" stroke-linecap="round" stroke-linejoin="round" stroke-width="1"/>
    <path id="Path_11150" data-name="Path 11150" d="M128.42,189.12h0a141.65,141.65,0,0,1,26.665,5.294,140.006,140.006,0,0,1,16.88,6.246" transform="translate(-0.279 -6.214)" fill="none" stroke="#2c2c2c" stroke-linecap="round" stroke-linejoin="round" stroke-width="1"/>
    <path id="Path_11151" data-name="Path 11151" d="M219.034,150.81a5.359,5.359,0,0,0,2.144,1.238c2.772.711,7.05-.48,11.642-2.467a116.072,116.072,0,0,0,14.533-7.881l.222-.148a10.219,10.219,0,0,0,3.7-12.759l-.924-1.986a10.209,10.209,0,0,0-10.828-5.876,8.723,8.723,0,0,0-1.275.277,115.861,115.861,0,0,0-13.443,4.62c-5.654,2.4-10.487,5.3-11.678,8.472a6.92,6.92,0,0,0-.323,2.772" transform="translate(-6.696 -1.017)" fill="none" stroke="#2c2c2c" stroke-linecap="round" stroke-linejoin="round" stroke-width="2"/>
    <path id="Path_11152" data-name="Path 11152" d="M208.057,145.327c-.822-2.467-1.016-4.342-.388-4.62.868-.4,2.966,2.365,4.694,6.163s2.43,7.2,1.561,7.595c-.638.286-1.913-1.1-3.234-3.345" transform="translate(-6.28 -2.528)" fill="none" stroke="#2c2c2c" stroke-linecap="round" stroke-linejoin="round" stroke-width="2"/>
    <ellipse id="Ellipse_91" data-name="Ellipse 91" cx="0.453" cy="1.986" rx="0.453" ry="1.986" transform="translate(196.364 146.559) rotate(-24.44)" fill="none" stroke="#2c2c2c" stroke-linecap="round" stroke-linejoin="round" stroke-width="2"/>
    <line id="Line_36" data-name="Line 36" x1="6.107" y2="2.772" transform="translate(201.316 135.426)" fill="none" stroke="#2c2c2c" stroke-linecap="round" stroke-linejoin="round" stroke-width="2"/>
    <line id="Line_37" data-name="Line 37" x1="6.551" y2="2.984" transform="translate(207.571 148.98)" fill="none" stroke="#2c2c2c" stroke-linecap="round" stroke-linejoin="round" stroke-width="2"/>
    <line id="Line_38" data-name="Line 38" y1="4.093" x2="5.719" transform="translate(196.789 142.281)" fill="none" stroke="#2c2c2c" stroke-linecap="round" stroke-linejoin="round" stroke-width="2"/>
    <line id="Line_39" data-name="Line 39" y1="1.617" x2="6.846" transform="translate(198.433 148.379)" fill="none" stroke="#2c2c2c" stroke-linecap="round" stroke-linejoin="round" stroke-width="2"/>
    <path id="Path_11153" data-name="Path 11153" d="M233.809,150.045c-.4-.517-.776-1.044-1.118-1.589-2.273-3.6-3.446-7.779-4.389-11.928-.785-3.428-1.441-6.893-2.522-10.228" transform="translate(-7.686 -1.435)" fill="none" stroke="#2c2c2c" stroke-linecap="round" stroke-linejoin="round" stroke-width="1"/>
    <path id="Path_11154" data-name="Path 11154" d="M249.479,141.566a44.966,44.966,0,0,0-5.673-5.017,7.864,7.864,0,0,1-.286,2c-.314,1.007-1.09,2.042-2.143,2.06a2.559,2.559,0,0,1-1.543-.638,5.7,5.7,0,0,1-2.06-3.465,2.171,2.171,0,0,1,.711-2.282c.795-.48,1.848,0,2.605.5.924.582,1.848,1.2,2.726,1.848a17.764,17.764,0,0,0-.074-1.986,78.534,78.534,0,0,0-2.347-13.711" transform="translate(-8.591 -1.022)" fill="none" stroke="#2c2c2c" stroke-linecap="round" stroke-linejoin="round" stroke-width="1"/>
  </g>
  <g id="Details" transform="translate(-4.474 4)" opacity="0.54">
    <g id="Case" transform="translate(4.851 -7.473)">
      <path id="Path_11155" data-name="Path 11155" d="M145.483,90.968H47.476a8.338,8.338,0,0,1-8.3-7.583L34.734,34.433a8.326,8.326,0,0,1,8.315-9.093H149.955a8.338,8.338,0,0,1,8.3,9.15l-4.449,48.952A8.338,8.338,0,0,1,145.483,90.968Z" fill="none" stroke="#2c2c2c" stroke-linecap="round" stroke-linejoin="round" stroke-width="1"/>
      <path id="Path_11156" data-name="Path 11156" d="M79.779,84.582H52.329A6.862,6.862,0,0,1,45.467,78.3L41.784,37.814A6.862,6.862,0,0,1,48.646,30.3H80.488a6.862,6.862,0,0,1,6.862,7.514L86.641,78.3a6.862,6.862,0,0,1-6.862,6.279Z" transform="translate(1.014 0.713)" fill="none" stroke="#2c2c2c" stroke-linecap="round" stroke-linejoin="round" stroke-width="1"/>
      <path id="Path_11157" data-name="Path 11157" d="M130.844,84.582h-27.45A6.862,6.862,0,0,1,96.532,78.3l-.7-40.488A6.862,6.862,0,0,1,102.7,30.3h31.842a6.862,6.862,0,0,1,6.862,7.514L137.729,78.3A6.862,6.862,0,0,1,130.844,84.582Z" transform="translate(8.783 0.713)" fill="none" stroke="#2c2c2c" stroke-linecap="round" stroke-linejoin="round" stroke-width="1"/>
      <rect id="Rectangle_2967" data-name="Rectangle 2967" width="2.608" height="7.32" rx="1.14" transform="translate(98.635 58.154)" fill="#2c2c2c"/>
      <rect id="Rectangle_2968" data-name="Rectangle 2968" width="2.608" height="7.32" rx="1.14" transform="translate(91.727 58.154)" fill="#2c2c2c"/>
      <path id="Path_11158" data-name="Path 11158" d="M96.49,76.1a69.414,69.414,0,0,0,17.739-12.593q-1.212-.172-2.436-.446c-3.283-.709-6.862-2.4-7.663-5.662a6.256,6.256,0,0,1,3.431-6.657,9.539,9.539,0,0,1,7.812,0c2.436.984,4.781,3.283,4.3,5.856a6.931,6.931,0,0,1-1.887,3.191q-1.7,1.933-3.546,3.751c8.258,1.212,16.664-.469,24.8-2.985" transform="translate(8.882 3.531)" fill="none" stroke="#2c2c2c" stroke-linecap="round" stroke-linejoin="round" stroke-width="1"/>
      <path id="Path_11159" data-name="Path 11159" d="M52.628,79.859a4.323,4.323,0,0,1-.137-.8c-.126-2.539,2.356-4.346,4.575-5.6q9.642-5.5,19.7-10.294" transform="translate(2.557 5.436)" fill="none" stroke="#2c2c2c" stroke-linecap="round" stroke-linejoin="round" stroke-width="1"/>
      <path id="Path_11160" data-name="Path 11160" d="M107.77,39.442a25.162,25.162,0,0,1,25.86.114c1.853,1.144,3.591,2.585,5.479,3.683" transform="translate(10.503 1.521)" fill="none" stroke="#2c2c2c" stroke-linecap="round" stroke-linejoin="round" stroke-width="1"/>
      <path id="Path_11161" data-name="Path 11161" d="M43.84,63.789a35.193,35.193,0,0,0,7.64-3.019c5.273-2.928,9.7-7.88,10.717-13.816.926-5.49-1.144-11.14-.8-16.653" transform="translate(1.314 0.713)" fill="none" stroke="#2c2c2c" stroke-linecap="round" stroke-linejoin="round" stroke-width="1"/>
    </g>
    <g id="Well" transform="translate(7.22 12.79)">
      <rect id="Rectangle_2960" data-name="Rectangle 2960" width="20.585" height="6.698" transform="translate(192.78 51.88)" fill="none" stroke="#2c2c2c" stroke-linecap="round" stroke-linejoin="round" stroke-width="1"/>
      <rect id="Rectangle_2961" data-name="Rectangle 2961" width="20.585" height="6.698" transform="translate(236.468 32.26)" fill="none" stroke="#2c2c2c" stroke-linecap="round" stroke-linejoin="round" stroke-width="1"/>
      <rect id="Rectangle_2962" data-name="Rectangle 2962" width="20.585" height="6.698" transform="translate(253.966 62.324)" fill="none" stroke="#2c2c2c" stroke-linecap="round" stroke-linejoin="round" stroke-width="1"/>
    </g>
  </g>
</svg>
