<svg xmlns="http://www.w3.org/2000/svg" width="1320.541" height="500" viewBox="0 0 1320.541 500">
  <g id="Illustration_Startpage_Delivery_company" data-name="Illustration_Startpage_Delivery company" transform="translate(-78 -4.943)" opacity="0.54">
    <rect id="Container" width="1320" height="500" transform="translate(78 4.943)" fill="none"/>
    <g id="Floor">
      <path id="Path_10725" data-name="Path 10725" d="M1041.721,432.688H980.948c-5.014,0-10.2.381-15.177-.065-5.266-.473-10.528-1.018-15.792-1.526-3.5-.339-7.007-.677-10.522-.842a161.463,161.463,0,0,0-26.335,1.289c-4.06.475-8.439,1.6-12.5,1.384-4.17-.224-8.392-.108-12.588-.24-5.491-.173-10.286-3-16.026-1.724-1.308.29-2.575.744-3.87,1.09-6.5,1.734-14.377.635-21.108.635H806.8a69.238,69.238,0,0,0-9.508.222c-2.75.386-5.056-.745-7.73-1.39-5.85-1.412-11.942.206-17.94.685-11.768.941-23.709.483-35.511.483H699.269c-2.849,0-5.711-.077-8.547.011a54.482,54.482,0,0,1-8.632-.85,21.9,21.9,0,0,0-7.908.107,14.6,14.6,0,0,1-3.766.732H648.339c-28.756,0-57.5.254-86.231-1.116-4.767-.227-9.535-.488-14.308-.556-12.157-.174-24.128,1.672-36.257,1.672-2.712,0-5.429-.053-8.14,0-1.991.039-3.587.422-5.585.076-5.112-.884-10.211-1.857-15.315-2.785a26.624,26.624,0,0,0-15.947.778,41.2,41.2,0,0,1-12.095,1.931H195.144c-6.726,0-13.557.345-20.27-.034-6.983-.395-13.988-1.4-20.949-2.1a50.378,50.378,0,0,0-7.44-.379c-4.474.215-8.772,1.6-13.2,2.15a104.95,104.95,0,0,1-12.741.366c-5.992,0-12.559.769-18.491-.046-5.256-.721-15.758-2.025-21.146-2.47" transform="translate(0.303 51.967)" fill="none" stroke="#000" stroke-linecap="round" stroke-linejoin="round" stroke-width="1"/>
      <path id="Path_10755" data-name="Path 10755" d="M639.214,426.324c2.512,0,6.923,1.538,6.923,4.2s-4.516,2.849-7.027,2.849-6.82-.188-6.82-2.849S636.7,426.324,639.214,426.324Z" transform="translate(76.883 51.627)" fill="none" stroke="#000" stroke-linecap="round" stroke-linejoin="round" stroke-width="1"/>
      <path id="Path_10756" data-name="Path 10756" d="M325.718,425.979c2.512,0,6.923,1.538,6.923,4.2s-4.516,2.849-7.027,2.849-10.928.165-11.885-2.335C312.541,426.492,323.206,425.979,325.718,425.979Z" transform="translate(38.258 51.586)" fill="none" stroke="#000" stroke-linecap="round" stroke-linejoin="round" stroke-width="1"/>
      <path id="Path_10757" data-name="Path 10757" d="M734.332,425.978c2.511,0,6.923,1.538,6.923,4.2s-4.517,2.849-7.028,2.849-10.929.165-11.885-2.336C721.154,426.492,731.819,425.978,734.332,425.978Z" transform="translate(87.787 51.586)" fill="none" stroke="#000" stroke-linecap="round" stroke-linejoin="round" stroke-width="1"/>
      <path id="Path_10760" data-name="Path 10760" d="M972.7,431.1c-5.266-.473-28.046,1.35-33.31.842-3.5-.339-7.007-.677-10.522-.842" transform="translate(425.301 52.967)" fill="none" stroke="#000" stroke-linecap="round" stroke-linejoin="round" stroke-width="1"/>
    </g>
    <g id="Motor">
      <path id="Path_10731" data-name="Path 10731" d="M144.186,305.327a147.916,147.916,0,0,1,46.1-6.052c7.783.214,15.74,1.1,22.728,4.534a18.519,18.519,0,0,1,8.153,6.992c1.809,3.153,2.1,7.346.033,10.334-1.876,2.712-5.25,3.966-8.5,4.518a12.788,12.788,0,0,1-7.4-.528c-2.286-1.036-4.095-3.444-3.767-5.933.3-2.265,2.223-4.007,4.3-4.951,6.047-2.746,13.187-.238,18.832,3.257s10.837,8.041,17.239,9.8" transform="translate(17.719 36.221)" fill="none" stroke="#000" stroke-linecap="round" stroke-linejoin="round" stroke-width="1"/>
      <path id="Path_10732" data-name="Path 10732" d="M232.319,338.614c-3.716.516-7.471-.252-11.194-.711a68.434,68.434,0,0,0-39.153,6.892c-2.191,1.116-4.479,2.531-5.331,4.837a6.334,6.334,0,0,0,2.293,6.965,9.064,9.064,0,0,0,7.487,1.33c2.682-.63,5.454-3.2,4.425-5.76a5.645,5.645,0,0,0-3.2-2.672,34.411,34.411,0,0,0-29.6,1" transform="translate(19.398 40.85)" fill="none" stroke="#000" stroke-linecap="round" stroke-linejoin="round" stroke-width="1"/>
      <path id="Path_10733" data-name="Path 10733" d="M128.18,338.629c-1.578-1.893-1.28-4.86.142-6.872a12.265,12.265,0,0,1,6.039-4.063c6.242-2.26,13.044-2.305,19.681-2.113s13.363.583,19.84-.876,12.813-5.088,15.833-11" transform="translate(15.65 37.977)" fill="none" stroke="#000" stroke-linecap="round" stroke-linejoin="round" stroke-width="1"/>
      <circle id="Ellipse_90" data-name="Ellipse 90" cx="8.833" cy="8.833" r="8.833" transform="translate(321.346 425.455)" fill="none" stroke="#000" stroke-linecap="round" stroke-linejoin="round" stroke-width="2"/>
      <path id="Path_10734" data-name="Path 10734" d="M299.462,387.894a4.687,4.687,0,1,1-4.687-4.687,4.687,4.687,0,0,1,4.687,4.687" transform="translate(35.404 46.4)"/>
      <path id="Path_10735" data-name="Path 10735" d="M386.9,397.821l-42.314-42.315a29.238,29.238,0,0,0-20.675-8.564H277.5A26.5,26.5,0,0,0,253.141,363L238.22,397.816" transform="translate(29.117 42.006)" fill="none" stroke="#000" stroke-linecap="round" stroke-linejoin="round" stroke-width="2"/>
      <path id="Path_10736" data-name="Path 10736" d="M303.176,383.795,327.2,352.147l-8.9-29.328h17.013" transform="translate(36.99 39.082)" fill="none" stroke="#000" stroke-linecap="round" stroke-linejoin="round" stroke-width="2"/>
      <line id="Line_28" data-name="Line 28" x1="28.529" y1="46.931" transform="translate(292.816 375.137)" fill="none" stroke="#000" stroke-linecap="round" stroke-linejoin="round" stroke-width="2"/>
      <path id="Path_10737" data-name="Path 10737" d="M244.354,328.592c2.516.912,8.5-2.137,16.452-4.3,5.642-1.529,14.075-1.641,15.515,3.05,1.112,3.62.448,9.456-17.695,7.314-5.359-.632-10.2-2.1-15.2.508" transform="translate(29.748 39.146)" fill="none" stroke="#000" stroke-linecap="round" stroke-linejoin="round" stroke-width="2"/>
      <circle id="Ellipse_91" data-name="Ellipse 91" cx="44.5" cy="44.5" r="44.5" transform="translate(371.516 395.328)" fill="none" stroke="#000" stroke-linecap="round" stroke-linejoin="round" stroke-width="2"/>
      <path id="Path_10738" data-name="Path 10738" d="M378.509,393.071a6.934,6.934,0,1,1-6.935-6.935A6.935,6.935,0,0,1,378.509,393.071Z" transform="translate(44.439 46.756)" fill="none" stroke="#000" stroke-linecap="round" stroke-linejoin="round" stroke-width="2"/>
      <path id="Path_10739" data-name="Path 10739" d="M374.9,392.719a3.679,3.679,0,1,1-3.679-3.679,3.679,3.679,0,0,1,3.679,3.679" transform="translate(44.793 47.107)"/>
      <path id="Path_10740" data-name="Path 10740" d="M379.627,436.427a142.3,142.3,0,0,1,7.815-20.035A104.614,104.614,0,0,1,402.8,393.413c3.247-3.689,6.113-7.2,10.453-9.506" transform="translate(46.258 46.486)" fill="none" stroke="#000" stroke-linecap="round" stroke-linejoin="round" stroke-width="1"/>
      <path id="Path_10741" data-name="Path 10741" d="M345.5,423.393c19.675-4.718,39.98-4.755,60.256-3.274" transform="translate(42.121 50.771)" fill="none" stroke="#000" stroke-linecap="round" stroke-linejoin="round" stroke-width="1"/>
      <circle id="Ellipse_92" data-name="Ellipse 92" cx="44.5" cy="44.5" r="44.5" transform="translate(222.807 395.354)" fill="none" stroke="#000" stroke-linecap="round" stroke-linejoin="round" stroke-width="2"/>
      <path id="Path_10742" data-name="Path 10742" d="M232.01,393.1a6.934,6.934,0,1,0,6.935-6.935A6.935,6.935,0,0,0,232.01,393.1Z" transform="translate(28.363 46.76)" fill="none" stroke="#000" stroke-linecap="round" stroke-linejoin="round" stroke-width="2"/>
      <path id="Path_10743" data-name="Path 10743" d="M234.913,392.744a3.679,3.679,0,1,0,3.679-3.679,3.679,3.679,0,0,0-3.679,3.679" transform="translate(28.715 47.111)"/>
      <path id="Path_10744" data-name="Path 10744" d="M233.034,436.428a142.3,142.3,0,0,0-7.815-20.035,103.94,103.94,0,0,0-15.362-22.979c-3.247-3.689-6.16-6.976-10.5-9.283" transform="translate(24.406 46.514)" fill="none" stroke="#000" stroke-linecap="round" stroke-linejoin="round" stroke-width="1"/>
      <path id="Path_10745" data-name="Path 10745" d="M270.031,423.417c-19.239-4.614-39.522-4.789-60.256-3.274" transform="translate(25.668 50.775)" fill="none" stroke="#000" stroke-linecap="round" stroke-linejoin="round" stroke-width="1"/>
      <path id="Path_10746" data-name="Path 10746" d="M335.672,323.194a3.459,3.459,0,1,1-3.459-3.459,3.459,3.459,0,0,1,3.459,3.459" transform="translate(40.09 38.707)"/>
      <path id="Path_10747" data-name="Path 10747" d="M300.243,378.409l-61.96,7.866c-2.931.389-7.038,3.371-6.993,7.831a7.681,7.681,0,0,0,8.476,7.958l62.052-3.466a10.129,10.129,0,1,0-1.575-20.19Z" transform="translate(28.277 45.813)" fill="none" stroke="#000" stroke-linecap="round" stroke-linejoin="round" stroke-width="1"/>
      <line id="Line_29" data-name="Line 29" x2="21.954" y2="13.811" transform="translate(330.178 434.295)" fill="none" stroke="#000" stroke-linecap="round" stroke-linejoin="round" stroke-width="2"/>
      <path id="Path_10748" data-name="Path 10748" d="M319.24,401.434,308.9,403.972a2.446,2.446,0,0,1-2.96-1.793l-.056-.23a2.447,2.447,0,0,1,1.793-2.96l10.335-2.537a2.446,2.446,0,0,1,2.96,1.793l.056.23a2.446,2.446,0,0,1-1.793,2.96" transform="translate(37.311 47.998)"/>
      <path id="Path_10759" data-name="Path 10759" d="M296.716,241.921a22.639,22.639,0,0,0-22.637,22.637c0,12.513,10.136,33.569,22.637,33.569s22.637-21.056,22.637-33.569A22.639,22.639,0,0,0,296.716,241.921Zm0,31.831a10.668,10.668,0,1,1,10.674-10.663A10.668,10.668,0,0,1,296.716,273.752Z" transform="translate(33.463 29.275)" fill="none" stroke="#000" stroke-linecap="round" stroke-linejoin="round" stroke-width="2"/>
    </g>
    <g id="House" transform="translate(-227.074 -570.766)">
      <path id="Rectangle_2731" data-name="Rectangle 2731" d="M4.149,0H45.254A4.15,4.15,0,0,1,49.4,4.15V33.318a4.149,4.149,0,0,1-4.149,4.149H4.149A4.149,4.149,0,0,1,0,33.318V4.149A4.149,4.149,0,0,1,4.149,0Z" transform="translate(1355.197 860.263)" fill="none" stroke="#000" stroke-linecap="round" stroke-linejoin="round" stroke-width="2"/>
      <path id="Path_10700" data-name="Path 10700" d="M1046.257,308.048c-16.765-7.79-11.576-35.372-11.576-35.372" transform="translate(356.366 587.628)" fill="none" stroke="#000" stroke-linecap="round" stroke-linejoin="round" stroke-width="2"/>
      <path id="Path_10701" data-name="Path 10701" d="M1006.982,308.016c16.765-7.79,11.576-35.372,11.576-35.372" transform="translate(350.193 587.621)" fill="none" stroke="#000" stroke-linecap="round" stroke-linejoin="round" stroke-width="2"/>
      <line id="Line_18" data-name="Line 18" y2="37.427" transform="translate(1379.897 860.304)" fill="none" stroke="#000" stroke-linecap="round" stroke-linejoin="round" stroke-width="2"/>
      <path id="Rectangle_2732" data-name="Rectangle 2732" d="M4.149,0H45.254A4.15,4.15,0,0,1,49.4,4.15V33.318a4.149,4.149,0,0,1-4.149,4.149H4.149A4.149,4.149,0,0,1,0,33.318V4.149A4.149,4.149,0,0,1,4.149,0Z" transform="translate(1446.587 860.263)" fill="none" stroke="#000" stroke-linecap="round" stroke-linejoin="round" stroke-width="2"/>
      <path id="Path_10702" data-name="Path 10702" d="M1120.612,308.048c-16.766-7.79-11.576-35.372-11.576-35.372" transform="translate(373.403 587.628)" fill="none" stroke="#000" stroke-linecap="round" stroke-linejoin="round" stroke-width="2"/>
      <path id="Path_10703" data-name="Path 10703" d="M1081.337,308.016c16.766-7.79,11.576-35.372,11.576-35.372" transform="translate(367.23 587.621)" fill="none" stroke="#000" stroke-linecap="round" stroke-linejoin="round" stroke-width="2"/>
      <line id="Line_19" data-name="Line 19" y2="37.427" transform="translate(1471.29 860.304)" fill="none" stroke="#000" stroke-linecap="round" stroke-linejoin="round" stroke-width="2"/>
      <rect id="Rectangle_2733" data-name="Rectangle 2733" width="98.354" height="56.134" rx="4.149" transform="translate(1415.102 955.407)" fill="none" stroke="#000" stroke-linecap="round" stroke-linejoin="round" stroke-width="2"/>
      <path id="Path_10704" data-name="Path 10704" d="M1055.441,403.986c16.766-11.671,11.576-53,11.576-53" transform="translate(361.296 604.477)" fill="none" stroke="#000" stroke-linecap="round" stroke-linejoin="round" stroke-width="2"/>
      <path id="Path_10705" data-name="Path 10705" d="M1075.95,350.99a129.442,129.442,0,0,1-1.938,24.389c-2.007,10.341-7.29,18.54-13.988,22.444l-.023.014" transform="translate(362.341 604.477)" fill="none" stroke="#000" stroke-linecap="round" stroke-linejoin="round" stroke-width="2"/>
      <path id="Path_10706" data-name="Path 10706" d="M1135.1,403.986c-16.766-11.671-11.576-53-11.576-53" transform="translate(376.723 604.477)" fill="none" stroke="#000" stroke-linecap="round" stroke-linejoin="round" stroke-width="2"/>
      <path id="Path_10707" data-name="Path 10707" d="M1115.266,350.99a129.377,129.377,0,0,0,1.938,24.389c2.007,10.341,7.29,18.54,13.988,22.444l.023.014" transform="translate(375.006 604.477)" fill="none" stroke="#000" stroke-linecap="round" stroke-linejoin="round" stroke-width="2"/>
      <line id="Line_20" data-name="Line 20" y2="56.075" transform="translate(1464.506 955.467)" fill="none" stroke="#000" stroke-linecap="round" stroke-linejoin="round" stroke-width="2"/>
      <path id="Path_10708" data-name="Path 10708" d="M1207.573,266.19H970.993c-9.418,0-16.317-7.986-13.987-16.2,4.007-14.173,9.951-33.747,14.313-42.042A26.358,26.358,0,0,1,994.9,194.06h188.754a26.356,26.356,0,0,1,23.581,13.893c4.362,8.294,10.307,27.868,14.323,42.042C1223.881,258.2,1216.981,266.19,1207.573,266.19Z" transform="translate(338.637 568.518)" fill="none" stroke="#000" stroke-linecap="round" stroke-linejoin="round" stroke-width="2"/>
      <path id="Path_10709" data-name="Path 10709" d="M960.608,263.016a111.63,111.63,0,0,0,17.44-5.982c8.3-3.632,18.779-8.659,24.18-16.644h.01a20.386,20.386,0,0,0,3.305-7.967c1.2-6.768-2.013-14.417-8.257-17.271s-14.885.505-16.589,7.151c-1.432,5.58,2.107,11.533,7.031,14.51,4.315,2.612,9.436,3.389,14.5,3.577h.01c.73.028,1.452.037,2.172.047,39.665.309,71.512-21.484,100.157-46.377" transform="translate(339.567 568.518)" fill="none" stroke="#000" stroke-linecap="round" stroke-linejoin="round" stroke-width="2"/>
      <path id="Path_10710" data-name="Path 10710" d="M1036.251,195.4c6.088,7.854,13.764,14.379,21.857,20.084,5.749,4.053,12.6,6.907,18.143,11.057,5.509,4.127,1.55,10.63-2.753,13.968-15.273,11.845-35.742,9.08-48.819,25.13" transform="translate(354.248 568.825)" fill="none" stroke="#000" stroke-linecap="round" stroke-linejoin="round" stroke-width="2"/>
      <path id="Path_10711" data-name="Path 10711" d="M1090.565,265.792c-.682-3.47.579-6.237,2.548-9.173a24.951,24.951,0,0,1,7.8-7.072,56.83,56.83,0,0,1,19.99-7.167c10.734-1.911,22.39-1.93,31.366-8.118A30.015,30.015,0,0,0,1163.8,217.47c1.834-6.685,1.453-14.957-.248-21.676" transform="translate(369.301 568.914)" fill="none" stroke="#000" stroke-linecap="round" stroke-linejoin="round" stroke-width="2"/>
      <path id="Path_10712" data-name="Path 10712" d="M1086.861,194.14c10.3,4.174,38.022,11.324,32.645,27.411-1.38,4.127-5.587,6.656-9.757,7.895a29.982,29.982,0,0,1-16.471.144,7.13,7.13,0,0,1-3.448-1.788,5.125,5.125,0,0,1-.294-5.948,9.679,9.679,0,0,1,5-3.777c5.067-1.941,10.845-1.455,15.9.5,7.247,2.8,13.406,8.276,18.244,14.249,6.21,7.67,11.6,16.12,19.88,21.768,8.716,5.944,19.145,8.67,29.148,11.574" transform="translate(368.496 568.536)" fill="none" stroke="#000" stroke-linecap="round" stroke-linejoin="round" stroke-width="2"/>
      <line id="Line_21" data-name="Line 21" y2="9.367" transform="translate(1508.638 743.843)" fill="none" stroke="#000" stroke-linecap="round" stroke-linejoin="round" stroke-width="2"/>
      <line id="Line_22" data-name="Line 22" y1="9.367" transform="translate(1476.865 743.843)" fill="none" stroke="#000" stroke-linecap="round" stroke-linejoin="round" stroke-width="2"/>
      <path id="Path_10713" data-name="Path 10713" d="M1144.436,181.29h-43.684a6.631,6.631,0,0,1,0-13.261h43.684a6.631,6.631,0,1,1,0,13.261Z" transform="translate(370.161 562.552)" fill="none" stroke="#000" stroke-linecap="round" stroke-linejoin="round" stroke-width="2"/>
      <path id="Path_10714" data-name="Path 10714" d="M1072.363,119.435c14.559,2.209,29.489,4.665,42.188,12.121a26.217,26.217,0,0,1,7.954,6.6,12.5,12.5,0,0,1,2.574,9.767c-1.039,5.085-5.871,8.485-10.672,10.454-5.194,2.131-11.364,3.145-16.27.418a6,6,0,0,1-2.706-2.659,3.043,3.043,0,0,1,.651-3.533,4.31,4.31,0,0,1,1.822-.737,23.725,23.725,0,0,1,15.919,2.119c3.08,1.608,5.892,4.043,7.128,7.291s.971,6.13.971,9.45" transform="translate(365.174 551.416)" fill="none" stroke="#000" stroke-linecap="round" stroke-linejoin="round" stroke-width="1"/>
      <path id="Path_10715" data-name="Path 10715" d="M1084.477,114.12c9.463,2.854,19.276,5.449,29.2,5.778,6.154.2,24.75-1.967,17.164-12.612-2.042-2.866-5.537-4.3-8.94-5.2-3.5-.923-8.08-1-9.806,2.184-1.053,1.943-.536,4.352.264,6.412,5.1,13.127,19.5,20.088,27.446,31.714,2.41,3.526,4.25,7.774,3.535,11.985-1.383,8.146-12.317,11.808-11.628,20.546" transform="translate(367.95 547.316)" fill="none" stroke="#000" stroke-linecap="round" stroke-linejoin="round" stroke-width="1"/>
      <path id="Path_10722" data-name="Path 10722" d="M1186.144,451.054H1040.954V363.511c0-6.913-5.315-12.569-11.812-12.569H993.955c-6.5,0-11.812,5.657-11.812,12.569v87.435H971.588" transform="translate(345.626 604.466)" fill="none" stroke="#000" stroke-linecap="round" stroke-linejoin="round" stroke-width="2"/>
      <path id="Path_10723" data-name="Path 10723" d="M968.4,359.355l-.1-11.566c0-13.986,0-25.325,13.8-25.325h208.979c13.8,0,13.8,11.339,13.8,25.325" transform="translate(341.328 611.507)" fill="none" stroke="#000" stroke-linecap="round" stroke-linejoin="round" stroke-width="2"/>
      <line id="Line_24" data-name="Line 24" x2="3.933" transform="translate(1372.69 1011.541)" fill="none" stroke="#000" stroke-linecap="round" stroke-linejoin="round" stroke-width="2"/>
      <rect id="Rectangle_2734" data-name="Rectangle 2734" width="31.032" height="23.533" rx="4.149" transform="translate(1341.656 968.145)" fill="none" stroke="#000" stroke-linecap="round" stroke-linejoin="round" stroke-width="2"/>
      <path id="Path_10727" data-name="Path 10727" d="M1020.039,382.245c-10.531-4.292-7.271-19.49-7.271-19.49" transform="translate(351.409 607.172)" fill="none" stroke="#000" stroke-linecap="round" stroke-linejoin="round" stroke-width="2"/>
      <path id="Path_10728" data-name="Path 10728" d="M995.369,382.229c10.531-4.292,7.271-19.491,7.271-19.491" transform="translate(347.531 607.169)" fill="none" stroke="#000" stroke-linecap="round" stroke-linejoin="round" stroke-width="2"/>
      <path id="Path_10729" data-name="Path 10729" d="M1148.492,252.743v87.386h14.128v-7.908c0-4.494-3.162-8.138-7.064-8.138" transform="translate(382.617 581.965)" fill="none" stroke="#000" stroke-linecap="round" stroke-linejoin="round" stroke-width="2"/>
      <path id="Path_10730" data-name="Path 10730" d="M983.216,252.743v87.386H969.088v-7.908c0-4.494,3.163-8.138,7.064-8.138" transform="translate(341.509 581.965)" fill="none" stroke="#000" stroke-linecap="round" stroke-linejoin="round" stroke-width="2"/>
      <path id="Path_10749" data-name="Path 10749" d="M1158.895,417.06l.008.1c.394,5.1,2.022,8.664,3.859,8.664h12.908c1.788,0,3.143-4.757,2.7-9.683,0-.034-.006-.069-.009-.1-.385-4.827-1.507-28.361-3.061-30.6,0-.9-.028-1.792-.1-2.668-.433-5.566-1.858-10.083-3.76-11.908,0-.482-.021-.962-.049-1.437-.274-3.807-1.406-6.63-2.771-6.913-.789-.049-1.49,1.41-1.712,3.56a2.188,2.188,0,0,0-1.493-.752c-1.36-.107-2.588,21.747-3.036,25.4a1.046,1.046,0,0,0-.77-.41c-1.254,0-2.049,3.08-1.759,6.913.021.35.053.693.1,1.026a26.6,26.6,0,0,0-.819,9.718c.021.372.053.739.1,1.094A29.983,29.983,0,0,0,1158.895,417.06Z" transform="translate(384.974 607.117)" fill="none" stroke="#000" stroke-linecap="round" stroke-linejoin="round" stroke-width="2"/>
      <path id="Path_10750" data-name="Path 10750" d="M1157.6,414.023h22.577v13.286a9.291,9.291,0,0,1-9.291,9.291h-3.994a9.291,9.291,0,0,1-9.292-9.291Z" transform="translate(384.705 618.921)" fill="none" stroke="#000" stroke-linecap="round" stroke-linejoin="round" stroke-width="2"/>
      <path id="Path_10751" data-name="Path 10751" d="M1179.926,414.415c-2.63,2.839-4.388,6.4-7.013,9.241-2.7,2.923-6.194,4.967-9.633,6.967a10.764,10.764,0,0,1-2.162,1.048,2.307,2.307,0,0,1-2.469-.434,2.416,2.416,0,0,1-.431-1.009c-.591-2.554.116-5.224-.037-7.842a3.859,3.859,0,0,1,.148-1.861,2.592,2.592,0,0,1,2.191-1.248,9.956,9.956,0,0,1,5.628,1.689c4.655,2.627,8.837,6,13.3,8.948" transform="translate(384.791 619.01)" fill="none" stroke="#000" stroke-linecap="round" stroke-linejoin="round" stroke-width="1"/>
      <path id="Path_10752" data-name="Path 10752" d="M953.517,419.116c0,.03,0,.059.006.089.342,4.415,1.752,7.5,3.343,7.5h11.178c1.549,0,2.722-4.119,2.343-8.385,0-.029-.006-.06-.008-.09-.333-4.18-1.3-24.561-2.65-26.5,0-.777-.024-1.552-.084-2.312-.375-4.819-1.609-8.731-3.255-10.311,0-.418-.019-.833-.044-1.244-.237-3.3-1.217-5.743-2.4-5.987-.682-.042-1.289,1.222-1.481,3.083a1.9,1.9,0,0,0-1.293-.651c-1.179-.092-2.243,18.833-2.63,22a.9.9,0,0,0-.667-.355c-1.085,0-1.774,2.667-1.523,5.986.017.3.045.6.084.889a23.027,23.027,0,0,0-.71,8.416c.018.322.047.639.083.948A25.952,25.952,0,0,0,953.517,419.116Z" transform="translate(337.917 609.262)" fill="none" stroke="#000" stroke-linecap="round" stroke-linejoin="round" stroke-width="2"/>
      <path id="Path_10753" data-name="Path 10753" d="M952.391,416.484h19.552v10.26a9.293,9.293,0,0,1-9.292,9.292h-.967a9.293,9.293,0,0,1-9.292-9.292Z" transform="translate(337.684 619.485)" fill="none" stroke="#000" stroke-linecap="round" stroke-linejoin="round" stroke-width="2"/>
      <path id="Path_10754" data-name="Path 10754" d="M971.474,417.892c-2.287,2.15-3.815,4.842-6.1,6.994A35.091,35.091,0,0,1,957,430.159a9.922,9.922,0,0,1-1.881.794,2.237,2.237,0,0,1-2.146-.328,1.721,1.721,0,0,1-.375-.763c-.514-1.935.1-3.955-.032-5.936a2.562,2.562,0,0,1,.129-1.41,2.334,2.334,0,0,1,1.9-.944,9.593,9.593,0,0,1,4.893,1.28c4.048,1.988,7.685,4.543,11.563,6.771" transform="translate(337.684 619.807)" fill="none" stroke="#000" stroke-linecap="round" stroke-linejoin="round" stroke-width="1"/>
      <path id="Path_10758" data-name="Path 10758" d="M1006.73,120.423a24.817,24.817,0,0,0-24.816,24.816c0,13.717,11.112,36.8,24.816,36.8s24.817-23.083,24.817-36.8A24.818,24.818,0,0,0,1006.73,120.423Zm0,34.9a11.7,11.7,0,1,1,11.7-11.689A11.7,11.7,0,0,1,1006.73,155.318Z" transform="translate(344.448 551.644)" fill="none" stroke="#000" stroke-linecap="round" stroke-linejoin="round" stroke-width="2"/>
    </g>
    <g id="Sky" transform="translate(10)">
      <path id="Path_10716" data-name="Path 10716" d="M95.2,148.033c-4.478-.938-8.615-3.451-7.046-8.982,1.324-4.665,8.692-7.53,12.8-4.7a1.666,1.666,0,0,1-.768,3.031,2.7,2.7,0,0,1-2.6-1.439,5.814,5.814,0,0,1-.6-3.055,17.769,17.769,0,0,1,7.261-13.873c3.746-2.656,14.053-5.066,16.379.853,1.038,2.642-2.7,4.067-4.7,3.469a3.129,3.129,0,0,1-1.479-.866,2.947,2.947,0,0,1-.53-2.529,15.508,15.508,0,0,1,1.7-3.747c5.978-11.495,24.992-6.066,25.566,6.36a5.9,5.9,0,0,1-6.066,6.244,2.01,2.01,0,0,1-1.881-.921c-1.074-2.429,3.928-4.242,5.491-4.525a14.067,14.067,0,0,1,7.6.825c4.235,1.686,7.178,6.306,7.514,10.763a12.66,12.66,0,0,1-5.1,10.956c-3.636,2.811-8.472,2.64-12.82,2.636q-18.026-.02-36.054-.033A23.263,23.263,0,0,1,95.2,148.033Z" transform="translate(52.152 -4.881)" fill="none" stroke="#000" stroke-linecap="round" stroke-linejoin="round" stroke-width="1"/>
      <path id="Path_10717" data-name="Path 10717" d="M307.167,147.031c-3.229-.676-6.212-2.488-5.08-6.476.955-3.364,6.267-5.429,9.229-3.387a1.2,1.2,0,0,1-.554,2.185,1.948,1.948,0,0,1-1.871-1.036,4.2,4.2,0,0,1-.433-2.2,12.812,12.812,0,0,1,5.235-10c2.7-1.915,10.133-3.652,11.809.615.749,1.9-1.944,2.932-3.386,2.5a2.256,2.256,0,0,1-1.066-.624,2.123,2.123,0,0,1-.382-1.823,11.185,11.185,0,0,1,1.222-2.7c4.31-8.288,18.02-4.374,18.434,4.585a4.256,4.256,0,0,1-4.374,4.5,1.45,1.45,0,0,1-1.357-.664c-.774-1.751,2.832-3.058,3.959-3.263a10.15,10.15,0,0,1,5.478.6,9.305,9.305,0,0,1,5.418,7.76,9.127,9.127,0,0,1-3.678,7.9c-2.622,2.027-6.108,1.9-9.243,1.9q-13-.016-26-.024A16.714,16.714,0,0,1,307.167,147.031Z" transform="translate(90.311 28.682)" fill="none" stroke="#000" stroke-linecap="round" stroke-linejoin="round" stroke-width="1"/>
      <path id="Path_10719" data-name="Path 10719" d="M280.358,88.6c2.634-.552,5.066-2.029,4.143-5.282-.778-2.744-5.11-4.428-7.527-2.763a.98.98,0,0,0,.452,1.783,1.587,1.587,0,0,0,1.526-.845,3.427,3.427,0,0,0,.353-1.8,10.451,10.451,0,0,0-4.27-8.158c-2.2-1.562-8.264-2.979-9.631.5-.611,1.553,1.585,2.392,2.76,2.039a1.842,1.842,0,0,0,.87-.509,1.733,1.733,0,0,0,.312-1.488,9.1,9.1,0,0,0-1-2.2c-3.516-6.759-14.7-3.567-15.034,3.739a3.472,3.472,0,0,0,3.568,3.672,1.179,1.179,0,0,0,1.105-.54c.632-1.428-2.309-2.495-3.228-2.662a8.27,8.27,0,0,0-4.468.485,7.591,7.591,0,0,0-4.419,6.329,7.446,7.446,0,0,0,3,6.442c2.138,1.653,4.982,1.553,7.538,1.55q10.6-.012,21.2-.019A13.639,13.639,0,0,0,280.358,88.6Z" transform="translate(71.309 -10.178)" fill="none" stroke="#000" stroke-linecap="round" stroke-linejoin="round" stroke-width="1"/>
      <path id="Path_10724" data-name="Path 10724" d="M214.649,74.572a30.741,30.741,0,1,1-30.741-30.741A30.741,30.741,0,0,1,214.649,74.572Z" transform="translate(60.074 -12.887)" fill="none" stroke="#000" stroke-linecap="round" stroke-linejoin="round" stroke-width="1"/>
      <path id="Path_10835" data-name="Path 10835" d="M1251.625,138.187c2.554-.536,4.914-1.969,4.02-5.124-.756-2.661-4.958-4.3-7.3-2.68a.95.95,0,0,0,.437,1.729,1.54,1.54,0,0,0,1.481-.821,3.318,3.318,0,0,0,.342-1.742,10.138,10.138,0,0,0-4.142-7.914c-2.137-1.515-8.017-2.889-9.343.487-.592,1.507,1.538,2.32,2.679,1.979a1.778,1.778,0,0,0,.843-.493,1.677,1.677,0,0,0,.3-1.443,8.852,8.852,0,0,0-.966-2.138c-3.411-6.557-14.256-3.46-14.584,3.628a3.367,3.367,0,0,0,3.46,3.561,1.146,1.146,0,0,0,1.073-.525c.613-1.385-2.24-2.42-3.132-2.581a8.013,8.013,0,0,0-4.335.471,7.365,7.365,0,0,0-4.286,6.139,7.229,7.229,0,0,0,2.911,6.251c2.074,1.6,4.833,1.506,7.313,1.5q10.283-.012,20.566-.018A13.218,13.218,0,0,0,1251.625,138.187Z" transform="translate(124.162 -30.957)" fill="none" stroke="#000" stroke-linecap="round" stroke-linejoin="round" stroke-width="1"/>
      <path id="Path_10836" data-name="Path 10836" d="M1251.625,138.187c2.554-.536,4.914-1.969,4.02-5.124-.756-2.661-4.958-4.3-7.3-2.68a.95.95,0,0,0,.437,1.729,1.54,1.54,0,0,0,1.481-.821,3.318,3.318,0,0,0,.342-1.742,10.138,10.138,0,0,0-4.142-7.914c-2.137-1.515-8.017-2.889-9.343.487-.592,1.507,1.538,2.32,2.679,1.979a1.778,1.778,0,0,0,.843-.493,1.677,1.677,0,0,0,.3-1.443,8.852,8.852,0,0,0-.966-2.138c-3.411-6.557-14.256-3.46-14.584,3.628a3.367,3.367,0,0,0,3.46,3.561,1.146,1.146,0,0,0,1.073-.525c.613-1.385-2.24-2.42-3.132-2.581a8.013,8.013,0,0,0-4.335.471,7.365,7.365,0,0,0-4.286,6.139,7.229,7.229,0,0,0,2.911,6.251c2.074,1.6,4.833,1.506,7.313,1.5q10.283-.012,20.566-.018A13.218,13.218,0,0,0,1251.625,138.187Z" transform="translate(-209.838 28.043)" fill="none" stroke="#000" stroke-linecap="round" stroke-linejoin="round" stroke-width="1"/>
      <path id="Path_10837" data-name="Path 10837" d="M1031.9,77.745c-1.932-.4-3.716-1.488-3.038-3.873.571-2.013,3.748-3.247,5.52-2.027a.719.719,0,0,1-.331,1.308,1.167,1.167,0,0,1-1.12-.62,2.514,2.514,0,0,1-.258-1.319,7.662,7.662,0,0,1,3.131-5.983c1.615-1.145,6.06-2.184,7.064.368.447,1.14-1.163,1.755-2.026,1.5a1.344,1.344,0,0,1-.637-.374,1.265,1.265,0,0,1-.229-1.09,6.685,6.685,0,0,1,.731-1.617c2.578-4.958,10.778-2.616,11.026,2.744a2.546,2.546,0,0,1-2.617,2.692.864.864,0,0,1-.811-.4c-.464-1.047,1.693-1.83,2.367-1.951a6.052,6.052,0,0,1,3.277.355,5.564,5.564,0,0,1,3.24,4.642,5.461,5.461,0,0,1-2.2,4.725c-1.569,1.212-3.654,1.138-5.529,1.137q-7.775-.008-15.549-.013A10.047,10.047,0,0,1,1031.9,77.745Z" transform="translate(130.791 -11.641)" fill="none" stroke="#000" stroke-linecap="round" stroke-linejoin="round" stroke-width="1"/>
    </g>
  </g>
</svg>
