<svg xmlns="http://www.w3.org/2000/svg" width="304" height="311" viewBox="0 0 304 311">
  <g id="Illustration_Startpage_Shop" transform="translate(68 48.186)">
    <rect id="Container" width="304" height="311" transform="translate(-68 -48.186)" fill="none"/>
    <path id="Shape" d="M351,180.416c61.027-1.45,114.257,36.019,132.172,86.662,17.065,48.241-9.06,98.453-56.258,127.934-46.506,29.048-109.58,34.125-155.409,4.278-43.973-28.638-48.664-80.918-32.137-126.42,17.094-47.066,54.785-91.1,111.632-92.453" transform="translate(-269.5 -157.561)" fill="#eaeaea"/>
    <g id="Sky">
      <path id="Path_11081" data-name="Path 11081" d="M65.851,19.105A18.605,18.605,0,1,0,84.456.5,18.605,18.605,0,0,0,65.851,19.105Z" transform="translate(80.939 -38.957)" fill="none" stroke="#000" stroke-linecap="round" stroke-linejoin="round" stroke-width="1"/>
      <path id="Path_11082" data-name="Path 11082" d="M1238.51,129.659c1.553-.326,2.989-1.2,2.445-3.116a3.209,3.209,0,0,0-4.44-1.63.578.578,0,0,0,.266,1.051.937.937,0,0,0,.9-.5,2.019,2.019,0,0,0,.208-1.06,6.166,6.166,0,0,0-2.519-4.813c-1.3-.921-4.875-1.757-5.682.3-.36.916.936,1.411,1.629,1.2a1.083,1.083,0,0,0,.513-.3,1.02,1.02,0,0,0,.184-.878,5.382,5.382,0,0,0-.588-1.3c-2.074-3.988-8.67-2.1-8.869,2.207a2.047,2.047,0,0,0,2.1,2.166.7.7,0,0,0,.652-.319c.373-.842-1.362-1.471-1.9-1.57a4.873,4.873,0,0,0-2.636.286,4.479,4.479,0,0,0-2.607,3.733,4.4,4.4,0,0,0,1.77,3.8c1.261.975,2.939.916,4.447.914q6.254-.007,12.508-.011A8.04,8.04,0,0,0,1238.51,129.659Z" transform="translate(-1034.154 -97.891)" fill="none" stroke="#000" stroke-linecap="round" stroke-linejoin="round" stroke-width="1"/>
      <path id="Path_11083" data-name="Path 11083" d="M1238.51,129.659c1.553-.326,2.989-1.2,2.445-3.116a3.209,3.209,0,0,0-4.44-1.63.578.578,0,0,0,.266,1.051.937.937,0,0,0,.9-.5,2.019,2.019,0,0,0,.208-1.06,6.166,6.166,0,0,0-2.519-4.813c-1.3-.921-4.875-1.757-5.682.3-.36.916.936,1.411,1.629,1.2a1.083,1.083,0,0,0,.513-.3,1.02,1.02,0,0,0,.184-.878,5.382,5.382,0,0,0-.588-1.3c-2.074-3.988-8.67-2.1-8.869,2.207a2.047,2.047,0,0,0,2.1,2.166.7.7,0,0,0,.652-.319c.373-.842-1.362-1.471-1.9-1.57a4.873,4.873,0,0,0-2.636.286,4.479,4.479,0,0,0-2.607,3.733,4.4,4.4,0,0,0,1.77,3.8c1.261.975,2.939.916,4.447.914q6.254-.007,12.508-.011A8.04,8.04,0,0,0,1238.51,129.659Z" transform="translate(-1257.072 -84.479)" fill="none" stroke="#000" stroke-linecap="round" stroke-linejoin="round" stroke-width="1"/>
      <path id="Path_11084" data-name="Path 11084" d="M1238.51,129.659c1.553-.326,2.989-1.2,2.445-3.116a3.209,3.209,0,0,0-4.44-1.63.578.578,0,0,0,.266,1.051.937.937,0,0,0,.9-.5,2.019,2.019,0,0,0,.208-1.06,6.166,6.166,0,0,0-2.519-4.813c-1.3-.921-4.875-1.757-5.682.3-.36.916.936,1.411,1.629,1.2a1.083,1.083,0,0,0,.513-.3,1.02,1.02,0,0,0,.184-.878,5.382,5.382,0,0,0-.588-1.3c-2.074-3.988-8.67-2.1-8.869,2.207a2.047,2.047,0,0,0,2.1,2.166.7.7,0,0,0,.652-.319c.373-.842-1.362-1.471-1.9-1.57a4.873,4.873,0,0,0-2.636.286,4.479,4.479,0,0,0-2.607,3.733,4.4,4.4,0,0,0,1.77,3.8c1.261.975,2.939.916,4.447.914q6.254-.007,12.508-.011A8.04,8.04,0,0,0,1238.51,129.659Z" transform="translate(-1224.072 -145.083)" fill="none" stroke="#000" stroke-linecap="round" stroke-linejoin="round" stroke-width="1"/>
      <path id="Path_11085" data-name="Path 11085" d="M1030.656,71.3c-1.175-.246-2.26-.9-1.848-2.355a2.426,2.426,0,0,1,3.357-1.233.437.437,0,0,1-.2.8.71.71,0,0,1-.681-.377,1.528,1.528,0,0,1-.157-.8,4.659,4.659,0,0,1,1.9-3.638c.982-.7,3.686-1.328,4.3.224.272.693-.707,1.067-1.232.91a.818.818,0,0,1-.387-.228.77.77,0,0,1-.139-.663,4.068,4.068,0,0,1,.445-.983c1.567-3.015,6.555-1.591,6.705,1.669a1.548,1.548,0,0,1-1.591,1.637.526.526,0,0,1-.493-.241c-.282-.637,1.03-1.113,1.439-1.186a3.681,3.681,0,0,1,1.993.216,3.383,3.383,0,0,1,1.97,2.823,3.321,3.321,0,0,1-1.338,2.873,5.309,5.309,0,0,1-3.362.691l-9.456-.008A6.112,6.112,0,0,1,1030.656,71.3Z" transform="translate(-963.082 -76.54)" fill="none" stroke="#000" stroke-linecap="round" stroke-linejoin="round" stroke-width="1"/>
    </g>
    <g id="Shop" transform="translate(-51 52.187)">
      <path id="Path_11217" data-name="Path 11217" d="M128.438,190.473a.911.911,0,1,1-.911.911.91.91,0,0,1,.911-.911" transform="translate(-45.043 -72.276)"/>
      <path id="Path_11199" data-name="Path 11199" d="M55.959,261.046c0,.021,0,.042,0,.063.244,3.146,1.248,5.347,2.382,5.347h7.965c1.1,0,1.94-2.935,1.67-5.976,0-.021,0-.043-.006-.064-.237-2.978-.929-17.5-1.888-18.884,0-.554-.018-1.107-.06-1.647-.267-3.434-1.147-6.222-2.32-7.349,0-.3-.013-.593-.03-.886-.169-2.349-.868-4.092-1.71-4.266-.486-.03-.92.87-1.056,2.2a1.354,1.354,0,0,0-.922-.464c-.84-.065-1.6,13.421-1.874,15.674a.644.644,0,0,0-.476-.253c-.773,0-1.264,1.9-1.085,4.266.013.216.033.428.06.634a16.423,16.423,0,0,0-.506,6c.013.23.033.455.06.675A18.477,18.477,0,0,0,55.959,261.046Z" transform="translate(-19.738 -85.313)" fill="none" stroke="#060816" stroke-linecap="round" stroke-linejoin="round" stroke-width="2"/>
      <path id="Path_11200" data-name="Path 11200" d="M54.5,287.793H68.437v9.043a4.89,4.89,0,0,1-4.89,4.89H59.394a4.89,4.89,0,0,1-4.89-4.89Z" transform="translate(-19.251 -106.65)" fill="none" stroke="#060816" stroke-linecap="round" stroke-linejoin="round" stroke-width="2"/>
      <path id="Path_11201" data-name="Path 11201" d="M68.1,289.7c-1.63,1.532-2.719,3.45-4.346,4.984a25.033,25.033,0,0,1-5.969,3.758,7.056,7.056,0,0,1-1.34.565,1.594,1.594,0,0,1-1.53-.233,1.23,1.23,0,0,1-.267-.545c-.366-1.378.072-2.818-.023-4.23a1.816,1.816,0,0,1,.092-1,1.663,1.663,0,0,1,1.357-.673,6.832,6.832,0,0,1,3.488.911c2.884,1.416,5.475,3.238,8.239,4.826" transform="translate(-19.251 -107.324)" fill="none" stroke="#060816" stroke-linecap="round" stroke-linejoin="round" stroke-width="1"/>
      <path id="Rectangle_2970" data-name="Rectangle 2970" d="M5.574,0H118.187a5.574,5.574,0,0,1,5.574,5.574v22.1a5.575,5.575,0,0,1-5.575,5.575H5.574A5.574,5.574,0,0,1,0,27.68V5.574A5.574,5.574,0,0,1,5.574,0Z" transform="translate(58.738 -4.354)" fill="none" stroke="#060816" stroke-linecap="round" stroke-linejoin="round" stroke-width="2"/>
      <line id="Line_47" data-name="Line 47" x1="5.78" y2="41.119" transform="translate(38.469 44.365)" fill="none" stroke="#060816" stroke-linecap="round" stroke-linejoin="round" stroke-width="2"/>
      <line id="Line_48" data-name="Line 48" x1="3.533" y2="41.119" transform="translate(61.981 44.365)" fill="none" stroke="#060816" stroke-linecap="round" stroke-linejoin="round" stroke-width="2"/>
      <line id="Line_49" data-name="Line 49" x1="2.804" y2="41.119" transform="translate(86.811 44.365)" fill="none" stroke="#060816" stroke-linecap="round" stroke-linejoin="round" stroke-width="2"/>
      <line id="Line_50" data-name="Line 50" x2="0.2" y2="41.119" transform="translate(110.772 44.365)" fill="none" stroke="#060816" stroke-linecap="round" stroke-linejoin="round" stroke-width="2"/>
      <line id="Line_51" data-name="Line 51" x1="0.2" y2="41.119" transform="translate(135.074 44.365)" fill="none" stroke="#060816" stroke-linecap="round" stroke-linejoin="round" stroke-width="2"/>
      <line id="Line_52" data-name="Line 52" x2="5.78" y2="41.119" transform="translate(201.998 44.365)" fill="none" stroke="#060816" stroke-linecap="round" stroke-linejoin="round" stroke-width="2"/>
      <line id="Line_53" data-name="Line 53" x2="3.533" y2="41.119" transform="translate(180.733 44.365)" fill="none" stroke="#060816" stroke-linecap="round" stroke-linejoin="round" stroke-width="2"/>
      <line id="Line_54" data-name="Line 54" x2="2.804" y2="41.119" transform="translate(156.632 44.365)" fill="none" stroke="#060816" stroke-linecap="round" stroke-linejoin="round" stroke-width="2"/>
      <path id="Rectangle_2971" data-name="Rectangle 2971" d="M5.09,0H160.544a5.09,5.09,0,0,1,5.09,5.09v0a5.089,5.089,0,0,1-5.089,5.089H5.09A5.09,5.09,0,0,1,0,5.09v0A5.09,5.09,0,0,1,5.09,0Z" transform="translate(40.266 34.184)" fill="none" stroke="#060816" stroke-linecap="round" stroke-linejoin="round" stroke-width="2"/>
      <path id="Path_11202" data-name="Path 11202" d="M60.12,72.889a3.867,3.867,0,0,1-3.867-3.867V56.279a3.867,3.867,0,0,1,3.867-3.867H225.782a3.867,3.867,0,0,1,3.867,3.867V69.022a3.867,3.867,0,0,1-3.867,3.867" transform="translate(-19.869 -23.514)" fill="none" stroke="#060816" stroke-linecap="round" stroke-linejoin="round" stroke-width="2"/>
      <line id="Line_55" data-name="Line 55" x2="169.309" transform="translate(38.469 85.484)" fill="none" stroke="#060816" stroke-linecap="round" stroke-linejoin="round" stroke-width="2"/>
      <path id="Path_11203" data-name="Path 11203" d="M195.719,139.9a12.151,12.151,0,0,1-24.3,0" transform="translate(-60.546 -54.414)" fill="none" stroke="#060816" stroke-linecap="round" stroke-linejoin="round" stroke-width="2"/>
      <path id="Path_11204" data-name="Path 11204" d="M233.322,139.9a12.113,12.113,0,0,1-24.226,0" transform="translate(-73.854 -54.414)" fill="none" stroke="#060816" stroke-linecap="round" stroke-linejoin="round" stroke-width="2"/>
      <path id="Path_11205" data-name="Path 11205" d="M271.406,139.9a12.427,12.427,0,1,1-24.854,0" transform="translate(-87.084 -54.414)" fill="none" stroke="#060816" stroke-linecap="round" stroke-linejoin="round" stroke-width="2"/>
      <path id="Path_11206" data-name="Path 11206" d="M308.434,139.9a11.728,11.728,0,1,1-23.455,0" transform="translate(-100.656 -54.414)" fill="none" stroke="#060816" stroke-linecap="round" stroke-linejoin="round" stroke-width="2"/>
      <path id="Path_11207" data-name="Path 11207" d="M203.14,177.263a8.68,8.68,0,0,1-8.68,8.681,8.814,8.814,0,0,1-6.98-3.52" transform="translate(-65.868 -67.611)" fill="none" stroke="#060816" stroke-linecap="round" stroke-linejoin="round" stroke-width="2"/>
      <path id="Path_11208" data-name="Path 11208" d="M229.615,177.263a8.653,8.653,0,1,1-17.306,0" transform="translate(-74.989 -67.611)" fill="none" stroke="#060816" stroke-linecap="round" stroke-linejoin="round" stroke-width="2"/>
      <path id="Path_11209" data-name="Path 11209" d="M256.822,177.263a8.878,8.878,0,1,1-17.755,0" transform="translate(-84.44 -67.611)" fill="none" stroke="#060816" stroke-linecap="round" stroke-linejoin="round" stroke-width="2"/>
      <path id="Path_11210" data-name="Path 11210" d="M281.5,182.424a8.218,8.218,0,0,1-6.6,3.217,8.378,8.378,0,0,1-8.378-8.377" transform="translate(-94.136 -67.611)" fill="none" stroke="#060816" stroke-linecap="round" stroke-linejoin="round" stroke-width="2"/>
      <path id="Path_11211" data-name="Path 11211" d="M134.167,139.9a12.113,12.113,0,0,0,24.226,0" transform="translate(-47.389 -54.414)" fill="none" stroke="#060816" stroke-linecap="round" stroke-linejoin="round" stroke-width="2"/>
      <path id="Path_11212" data-name="Path 11212" d="M95.74,139.9a12.427,12.427,0,1,0,24.854,0" transform="translate(-33.816 -54.414)" fill="none" stroke="#060816" stroke-linecap="round" stroke-linejoin="round" stroke-width="2"/>
      <path id="Path_11213" data-name="Path 11213" d="M59.476,139.9a11.728,11.728,0,1,0,23.455,0" transform="translate(-21.007 -54.414)" fill="none" stroke="#060816" stroke-linecap="round" stroke-linejoin="round" stroke-width="2"/>
      <line id="Line_56" data-name="Line 56" y1="40.501" transform="translate(45.027 96.564)" fill="none" stroke="#060816" stroke-linecap="round" stroke-linejoin="round" stroke-width="2"/>
      <path id="Path_11214" data-name="Path 11214" d="M230.357,157.029v93.028H133.971v-71.6a8.364,8.364,0,0,0-8.34-8.339H100.143a8.364,8.364,0,0,0-8.34,8.339v71.6H84.594" transform="translate(-29.879 -60.465)" fill="none" stroke="#060816" stroke-linecap="round" stroke-linejoin="round" stroke-width="2"/>
      <rect id="Rectangle_2972" data-name="Rectangle 2972" width="20.807" height="9.138" rx="3.319" transform="translate(72.99 123.084)" fill="none" stroke="#060816" stroke-linecap="round" stroke-linejoin="round" stroke-width="1"/>
      <path id="Path_11216" data-name="Path 11216" d="M127.152,193.21l-3.264,3.117h6.529Z" transform="translate(-43.758 -73.244)" fill="none" stroke="#060816" stroke-linecap="round" stroke-linejoin="round" stroke-width="1"/>
      <path id="Path_11228" data-name="Path 11228" d="M12,0H57.358A12.118,12.118,0,0,1,67.444,5.5,11.7,11.7,0,0,1,69.358,12V35.725a12,12,0,0,1-12,12H12a12,12,0,0,1-12-12V12A12,12,0,0,1,12,0Z" transform="translate(119.78 108.826)" fill="none" stroke="#060816" stroke-linecap="round" stroke-width="2"/>
      <path id="Path_11229" data-name="Path 11229" d="M2,0H67.358" transform="translate(119.78 149.945)" fill="none" stroke="#060816" stroke-linecap="round" stroke-width="1"/>
      <line id="Line_58" data-name="Line 58" x1="15.355" y2="15.355" transform="translate(162.745 123.084)" fill="none" stroke="#060816" stroke-linecap="round" stroke-linejoin="round" stroke-width="1"/>
      <line id="Line_59" data-name="Line 59" x1="8.556" y2="8.556" transform="translate(144.554 130.928)" fill="none" stroke="#060816" stroke-linecap="round" stroke-linejoin="round" stroke-width="1"/>
      <line id="Line_60" data-name="Line 60" x1="12.986" y2="12.986" transform="translate(175.767 131.725)" fill="none" stroke="#060816" stroke-linecap="round" stroke-linejoin="round" stroke-width="1"/>
      <line id="Line_61" data-name="Line 61" x1="15.355" y2="15.355" transform="translate(119.838 128.479)" fill="none" stroke="#060816" stroke-linecap="round" stroke-linejoin="round" stroke-width="1"/>
      <line id="Line_62" data-name="Line 62" x2="272.121" transform="translate(0.647 195.074)" fill="none" stroke="#060816" stroke-linecap="round" stroke-linejoin="round" stroke-width="2"/>
      <line id="Line_63" data-name="Line 63" x2="5.174" y2="5.482" transform="translate(200.478 189.592)" fill="none" stroke="#060816" stroke-linecap="round" stroke-linejoin="round" stroke-width="2"/>
      <path id="Path_11222" data-name="Path 11222" d="M238.594.939c3.188,3.288,7.5,5.2,11.713,7a13.9,13.9,0,0,1,4.418,2.559,4.672,4.672,0,0,1,1.433,4.652c-.62,1.819-2.6,2.766-4.431,3.336a29.419,29.419,0,0,1-6.637,1.246,3.886,3.886,0,0,1-2.2-.3,2.623,2.623,0,0,1-.806-3.4,4.681,4.681,0,0,1,3.033-2.19,10.948,10.948,0,0,1,7.448,1A43.926,43.926,0,0,1,259,19a54.606,54.606,0,0,0,7.774,4.661" transform="translate(-84.273 -5.332)" fill="none" stroke="#060816" stroke-linecap="round" stroke-linejoin="round" stroke-width="1"/>
      <path id="Path_11223" data-name="Path 11223" d="M90.814,14.492q.361-.157.726-.3a37.536,37.536,0,0,1,11.809-2.256c2.194-.118,4.89.157,5.793,2.162,1.03,2.287-1.3,4.782-3.705,5.5a5.565,5.565,0,0,1-3.857-.056,5.848,5.848,0,0,1-2.816-3.528,11.989,11.989,0,0,1,2.32-11.748A13.814,13.814,0,0,1,105.615,1" transform="translate(-32.076 -5.354)" fill="none" stroke="#060816" stroke-linecap="round" stroke-linejoin="round" stroke-width="1"/>
      <path id="Path_11224" data-name="Path 11224" d="M392.761,300.388H382.1v-11.05a5.332,5.332,0,0,1,10.663,0Z" transform="translate(-134.959 -105.314)" fill="none" stroke="#060816" stroke-linecap="round" stroke-linejoin="round" stroke-width="2"/>
      <line id="Line_64" data-name="Line 64" y1="101.37" transform="translate(252.47 77.324)" fill="none" stroke="#060816" stroke-linecap="round" stroke-linejoin="round" stroke-width="2"/>
      <line id="Line_65" data-name="Line 65" x2="5.332" transform="translate(249.804 85.484)" fill="none" stroke="#060816" stroke-linecap="round" stroke-linejoin="round" stroke-width="2"/>
      <path id="Path_11225" data-name="Path 11225" d="M386.512,95.347h0a7.012,7.012,0,0,0-7.013,7.013l1.294,13.078H392.23l1.294-13.078A7.012,7.012,0,0,0,386.512,95.347Z" transform="translate(-134.042 -38.678)" fill="none" stroke="#060816" stroke-linecap="round" stroke-linejoin="round" stroke-width="2"/>
      <line id="Line_66" data-name="Line 66" x2="19.024" transform="translate(242.958 63.682)" fill="none" stroke="#060816" stroke-linecap="round" stroke-linejoin="round" stroke-width="2"/>
      <circle id="Ellipse_102" data-name="Ellipse 102" cx="1.423" cy="1.423" r="1.423" transform="translate(251.047 51.621)" fill="none" stroke="#060816" stroke-linecap="round" stroke-linejoin="round" stroke-width="2"/>
      <line id="Line_67" data-name="Line 67" y2="13.078" transform="translate(252.47 63.682)" fill="none" stroke="#060816" stroke-linecap="round" stroke-linejoin="round" stroke-width="2"/>
      <path id="Path_11226" data-name="Path 11226" d="M410.612,85.332c1.416-1.656,2.986-3.183,4.307-4.916a12.341,12.341,0,0,0,2.663-5.885,6.6,6.6,0,0,0-2.122-5.892,4.559,4.559,0,0,0-5.95.131,4.619,4.619,0,0,0-.005,5.885,7.048,7.048,0,0,0,5.733,2.353c4.54-.14,8.564-3.7,9.937-8.031a7.318,7.318,0,0,0,.29-3.922c-.63-2.572-3.114-4.222-4.419-6.525" transform="translate(-144.267 -25.674)" fill="none" stroke="#060816" stroke-linecap="round" stroke-linejoin="round" stroke-width="1"/>
      <path id="Path_11227" data-name="Path 11227" d="M367.841,86.068a5.46,5.46,0,0,1-4.74-2.257,10.6,10.6,0,0,1-1.88-5.09,8.168,8.168,0,0,1,.167-3.653,3.762,3.762,0,0,1,2.466-2.536,2.4,2.4,0,0,1,2.019.339,1.77,1.77,0,0,1,.667,1.871c-.311,1.006-1.511,1.4-2.552,1.557a20.428,20.428,0,0,1-3.084.241,2.322,2.322,0,0,1-.978-.147,2.128,2.128,0,0,1-.965-1.907c-.209-3.683,2.452-6.89,5.269-9.271" transform="translate(-126.783 -28.035)" fill="none" stroke="#060816" stroke-linecap="round" stroke-linejoin="round" stroke-width="1"/>
      <line id="Line_68" data-name="Line 68" y2="9.905" transform="translate(235.027 195.074)" fill="none" stroke="#060816" stroke-linecap="round" stroke-linejoin="round" stroke-width="2"/>
      <line id="Line_77" data-name="Line 77" y2="9.905" transform="translate(262.275 195.074)" fill="none" stroke="#060816" stroke-linecap="round" stroke-linejoin="round" stroke-width="2"/>
      <line id="Line_69" data-name="Line 69" y2="9.905" transform="translate(207.778 195.074)" fill="none" stroke="#060816" stroke-linecap="round" stroke-linejoin="round" stroke-width="2"/>
      <line id="Line_70" data-name="Line 70" y2="9.905" transform="translate(180.529 195.074)" fill="none" stroke="#060816" stroke-linecap="round" stroke-linejoin="round" stroke-width="2"/>
      <line id="Line_71" data-name="Line 71" y2="9.905" transform="translate(153.28 195.074)" fill="none" stroke="#060816" stroke-linecap="round" stroke-linejoin="round" stroke-width="2"/>
      <line id="Line_72" data-name="Line 72" y2="9.905" transform="translate(126.032 195.074)" fill="none" stroke="#060816" stroke-linecap="round" stroke-linejoin="round" stroke-width="2"/>
      <line id="Line_73" data-name="Line 73" y2="9.905" transform="translate(98.783 195.074)" fill="none" stroke="#060816" stroke-linecap="round" stroke-linejoin="round" stroke-width="2"/>
      <line id="Line_74" data-name="Line 74" y2="9.905" transform="translate(71.534 195.074)" fill="none" stroke="#060816" stroke-linecap="round" stroke-linejoin="round" stroke-width="2"/>
      <line id="Line_75" data-name="Line 75" y2="9.905" transform="translate(44.285 195.074)" fill="none" stroke="#060816" stroke-linecap="round" stroke-linejoin="round" stroke-width="2"/>
      <line id="Line_76" data-name="Line 76" y2="9.905" transform="translate(17.037 195.074)" fill="none" stroke="#060816" stroke-linecap="round" stroke-linejoin="round" stroke-width="2"/>
      <path id="Path_11275" data-name="Path 11275" d="M99,143.627v8" fill="none" stroke="#060816" stroke-linecap="round" stroke-linejoin="round" stroke-width="2"/>
      <path id="Path_11218" data-name="Path 11218" d="M158.127,15.508a1.453,1.453,0,0,1-.026.265,2.08,2.08,0,0,1-.071.336c-.032.11-.071.22-.11.317a.618.618,0,0,1-.582.4,2.848,2.848,0,0,0-.188-.918.949.949,0,0,0-.382-.42,2.6,2.6,0,0,0-.524-.246,3.25,3.25,0,0,0-.576-.142,3.074,3.074,0,0,0-.5-.045c-.3,0-.589.006-.867.019s-.563.039-.828.078-.543.1-.821.175a6.752,6.752,0,0,0-.86.291c-.226.1-.466.207-.711.336a4.313,4.313,0,0,0-.7.453,3.09,3.09,0,0,0-.563.563,1.565,1.565,0,0,0-.317.718,1.23,1.23,0,0,0,.181.711,2.9,2.9,0,0,0,.5.692,4.5,4.5,0,0,0,.731.608,3.128,3.128,0,0,0,.873.4c.039.013.155.058.336.116s1.151.388,1.151.388c.188.058.3.1.356.11a9.325,9.325,0,0,1,3.046,1.242,1.986,1.986,0,0,1,.938,1.649,1.56,1.56,0,0,1-.136.6,3.159,3.159,0,0,1-.369.614,4.351,4.351,0,0,1-.479.543,5.061,5.061,0,0,1-.485.42,6.054,6.054,0,0,1-.6.433c-.22.149-.466.3-.718.433s-.517.272-.789.395-.55.226-.828.317-.563.175-.867.252-.6.142-.893.194-.582.1-.854.136a5.909,5.909,0,0,1-.711.045,3.41,3.41,0,0,1-.6-.065,4.581,4.581,0,0,1-.724-.188,2.423,2.423,0,0,1-.6-.278c-.065-.039-.175-.123-.175-.2a1.616,1.616,0,0,1,.032-.265,1.847,1.847,0,0,1,.084-.31.917.917,0,0,1,.116-.239.44.44,0,0,1,.129-.013.861.861,0,0,1,.22.032c.129.045.291.091.479.136a5.6,5.6,0,0,0,.666.142,6.264,6.264,0,0,0,2.134-.058,9.684,9.684,0,0,0,1.2-.317,10.1,10.1,0,0,0,1.119-.453,8.836,8.836,0,0,0,.964-.53c.136-.091.278-.194.44-.31a3.944,3.944,0,0,0,.466-.395,2.519,2.519,0,0,0,.369-.472,1.14,1.14,0,0,0,.168-.582,1.06,1.06,0,0,0-.608-.841,5.167,5.167,0,0,0-1.087-.511c-.362-.123-.686-.213-.97-.285-.33-.084-.711-.2-1.125-.336s-.886-.31-1.391-.511a5.524,5.524,0,0,1-2.063-1.358,2.979,2.979,0,0,1-.815-2.1,1.741,1.741,0,0,1,.336-1.067,4.192,4.192,0,0,1,1.022-1,8.127,8.127,0,0,1,1.488-.841,9.561,9.561,0,0,1,1.733-.576c.116-.026.265-.052.44-.084s.349-.052.537-.078.369-.039.543-.052.31-.026.427-.026c.149,0,.33.013.543.032s.453.052.686.091a4.952,4.952,0,0,1,.66.136,1.963,1.963,0,0,1,.466.175,1.992,1.992,0,0,1,.686.55.988.988,0,0,1,.226.569" transform="translate(-52.205 -9.93)" fill="#060816"/>
      <path id="Path_11220" data-name="Path 11220" d="M207.8,19.689c-.091.065-.207.155-.356.252-.466.33-.964.666-1.481,1.015s-1.054.686-1.585,1.009-1.08.621-1.617.906a15.766,15.766,0,0,1-1.578.711l-.207-.323a8.547,8.547,0,0,0,.679-.75,6.668,6.668,0,0,0,.576-.841,4.8,4.8,0,0,0,.388-.88,2.5,2.5,0,0,0,.136-.867,2.6,2.6,0,0,0-.162-1.009,2.511,2.511,0,0,0-.427-.757,1.719,1.719,0,0,0-.556-.453,1.345,1.345,0,0,0-.582-.136h-.006a3.179,3.179,0,0,0-.841.123,3.569,3.569,0,0,0-.776.336,6.642,6.642,0,0,0-.757.524c-.259.2-.517.427-.776.673a9.11,9.11,0,0,0-1.222,1.436A23.267,23.267,0,0,0,195.4,22.7l-.058.1h-.116c-.246,0-.246-.317-.246-.466a3.814,3.814,0,0,1,.071-.731c.045-.252.1-.517.155-.783s.1-.511.149-.763a3.6,3.6,0,0,0,.071-.666c0-.013-.013-.045-.032-.129V19.2L195.267,19a.283.283,0,0,0-.039-.065.85.85,0,0,0-.207-.162.394.394,0,0,0-.207-.052c-.1,0-.414,0-.608.77l-.032.123-.123.026a6.764,6.764,0,0,1-.75.1c-.265.019-.556.032-.867.032a5.476,5.476,0,0,1-1.067-.116c-.382-.078-.75-.175-1.1-.278a7.329,7.329,0,0,1-.912-.323,1.63,1.63,0,0,1-.524-.291q-.262-.291-.466-.524a3.183,3.183,0,0,0-.362-.362,1.645,1.645,0,0,0-.356-.207,1.238,1.238,0,0,0-.44-.065,1.859,1.859,0,0,0-.686.142,4.064,4.064,0,0,0-.75.407,5.611,5.611,0,0,0-.724.569,6.455,6.455,0,0,0-.621.653c-.323.4-.64.815-.938,1.222-.188.259-.356.524-.543.828l-.8.75c-.233.22-.466.42-.705.608s-.492.356-.77.53a10.872,10.872,0,0,1-.977.524,5.112,5.112,0,0,1-2.277.53.659.659,0,0,1-.576-.349,2.451,2.451,0,0,1-.285-.724,8,8,0,0,1-.175-.931c-.045-.33-.084-.66-.116-.977-.045-.362-.1-.711-.149-1.048a5.469,5.469,0,0,0-.259-.964.566.566,0,0,0-.1-.162,1.1,1.1,0,0,0-.168-.136.867.867,0,0,0-.168-.091c-.078-.019-.1-.026-.11-.026a1.657,1.657,0,0,0-.666.155,4.235,4.235,0,0,0-.744.407,8.218,8.218,0,0,0-.718.556c-.226.213-.44.407-.627.6-.149.155-.3.317-.453.492l-.459.537c-.149.181-.3.356-.433.53l-.388.485c-.11.149-.226.3-.349.479l-.343.5c-.11.162-.207.3-.3.44a3.558,3.558,0,0,1-.226.323l-.091.071h-.1a.342.342,0,0,1-.252-.142.387.387,0,0,1-.1-.252,5.815,5.815,0,0,1,.084-.925c.052-.349.1-.75.149-1.2.019-.3.045-.589.071-.854s.052-.524.078-.783l.084-.77c.026-.259.052-.537.071-.834l.065-.886c.026-.33.052-.666.091-1.009s.065-.673.1-1,.084-.627.129-.886c.013-.071.039-.175.078-.317l.1-.414c.039-.142.071-.278.1-.414a1.464,1.464,0,0,0,.039-.285.588.588,0,0,0-.162-.453.487.487,0,0,0-.349-.162.427.427,0,0,0-.175.039,1.421,1.421,0,0,0-.194.123,1.231,1.231,0,0,0-.162.155.741.741,0,0,0-.091.149c-.078.168-.142.317-.194.459a2.41,2.41,0,0,0-.116.407c-.026.142-.045.278-.058.42s-.026.3-.032.472l-.129,2.865c-.013.246-.065,1.164-.065,1.164-.026.388-.058.815-.1,1.294s-.091.964-.142,1.462-.1,1-.155,1.488-.1.931-.149,1.345c-.026.207-.058.44-.1.686s-.207,1.326-.207,1.326a2.724,2.724,0,0,0-.039.369.433.433,0,0,0,.052.188.713.713,0,0,0,.168.2.656.656,0,0,0,.226.149.589.589,0,0,0,.213.058c0-.006.039-.013.155-.078a.756.756,0,0,0,.259-.259l.673-1.242c.259-.479.55-.957.867-1.429.356-.543.75-1.087,1.171-1.617s.828-1.009,1.222-1.429a10.24,10.24,0,0,1,1.119-1.028,1.658,1.658,0,0,1,.906-.427c.091,0,.22.045.31.252a1.967,1.967,0,0,1,.123.388c.032.142.058.3.084.485s.045.349.065.511l.065.757c.052.427.116.834.194,1.2a4,4,0,0,0,.343.97,1.3,1.3,0,0,0,.576.576,2.094,2.094,0,0,0,.88.181,4.212,4.212,0,0,0,1.345-.239,6.466,6.466,0,0,0,1.3-.621,10.326,10.326,0,0,0,1.222-.873c.136-.11.259-.226.382-.343l.627-.582-.123.582a5,5,0,0,0-.11,1.015,1.489,1.489,0,0,0,.149.614,2.726,2.726,0,0,0,.4.666,2.761,2.761,0,0,0,.569.53,1.082,1.082,0,0,0,.6.194,8.712,8.712,0,0,0,1.009-.058,6.427,6.427,0,0,0,.957-.181,5,5,0,0,0,.873-.31,4.85,4.85,0,0,0,.757-.446,6.2,6.2,0,0,0,1.177-1.158,6.289,6.289,0,0,0,.912-1.507,3.636,3.636,0,0,0,.356-1.475,3.269,3.269,0,0,0-.058-.666,1.531,1.531,0,0,0-.246-.556l.265-.272a4.654,4.654,0,0,0,1.319.576,5.575,5.575,0,0,0,1.371.175,5.739,5.739,0,0,0,1.4-.149l.259-.065-.013.259-.084,2.717c-.045.873-.1,1.688-.168,2.425s-.149,1.442-.233,2.07c0,0-.142,1.041-.175,1.345s-.071.6-.1.9a6.749,6.749,0,0,0-.045.737.209.209,0,0,0,.052.136.746.746,0,0,0,.175.175.687.687,0,0,0,.213.116.527.527,0,0,0,.175.039.519.519,0,0,0,.414-.168.848.848,0,0,0,.22-.427,12.831,12.831,0,0,0,.207-1.772c.032-.66.084-1.4.155-2.244a11.274,11.274,0,0,1,.162-1.177c.071-.356.149-.679.233-1.009.168-.349.356-.711.55-1.093s.414-.757.64-1.138.459-.744.718-1.106a9.732,9.732,0,0,1,.815-1.009c.123-.129.285-.278.485-.459a6.91,6.91,0,0,1,1.345-.951,1.546,1.546,0,0,1,.686-.188,1.022,1.022,0,0,1,.854.459,1.892,1.892,0,0,1,.317,1.132,2,2,0,0,1-.045.4,3.88,3.88,0,0,1-.129.485,5.2,5.2,0,0,1-.188.5,4.361,4.361,0,0,1-.22.459c-.116.194-.233.395-.369.6a5.781,5.781,0,0,1-.427.614,4.106,4.106,0,0,1-.5.55,2.634,2.634,0,0,1-.6.433c-.116.052-.246.1-.4.155s-.3.1-.453.149l-.459.142a3.4,3.4,0,0,0-.388.129c-.1.032-.2.078-.31.123a2.232,2.232,0,0,0-.278.149.733.733,0,0,0-.181.155.181.181,0,0,0-.045.123.607.607,0,0,0,.272.537,1,1,0,0,0,.291.136,1.683,1.683,0,0,0,.362.045,1.791,1.791,0,0,0,.621-.11,4.466,4.466,0,0,0,.621-.291c.207-.116.42-.246.64-.382a5.269,5.269,0,0,1,.731-.388c.336-.155.711-.336,1.125-.537s.841-.42,1.274-.647l1.319-.7c.433-.239.847-.472,1.235-.705s.75-.446,1.067-.653a7.418,7.418,0,0,0,.77-.55c.039-.032.1-.078.188-.136s.149-.123.233-.194.155-.142.233-.22a.612.612,0,0,0,.123-.162,1.444,1.444,0,0,0,.175-.6.4.4,0,0,1,.019-.188.239.239,0,0,0-.168.065m-18.964,1.96c-.013.116-.026.246-.052.388a3.871,3.871,0,0,1-.11.433,1.666,1.666,0,0,1-.181.388c-.1.142-.194.291-.3.44s-.22.291-.343.44-.239.272-.362.4a3.69,3.69,0,0,1-.388.343c-.259.2-.485.369-.679.492a3.181,3.181,0,0,1-.608.31,2.954,2.954,0,0,1-.666.162,7.485,7.485,0,0,1-.828.039.807.807,0,0,1-.446-.142,1.585,1.585,0,0,1-.349-.31,1.671,1.671,0,0,1-.239-.375.845.845,0,0,1-.1-.375c0-.136.006-.285.019-.459s.045-.336.078-.5a4,4,0,0,1,.11-.5,2.775,2.775,0,0,1,.162-.433,8.261,8.261,0,0,1,.4-.731c.129-.22.265-.427.407-.627s.291-.395.453-.6.33-.414.517-.66c.091-.116.188-.233.291-.343a2.666,2.666,0,0,1,.3-.3,1.64,1.64,0,0,1,.3-.213.675.675,0,0,1,.336-.091,1.012,1.012,0,0,1,.53.213,3.321,3.321,0,0,0,.627.317h.058a.728.728,0,0,1,.517.207,1.486,1.486,0,0,1,.349.55,2.751,2.751,0,0,1,.175.66,3.662,3.662,0,0,1,.039.621c0,.052-.006.136-.013.259" transform="translate(-59.23 -9.576)" fill="#060816"/>
    </g>
  </g>
</svg>
