<svg xmlns="http://www.w3.org/2000/svg" width="304" height="311" viewBox="0 0 304 311">
  <g id="Illustration_Startpage_Driver" transform="translate(-40 -104)">
    <rect id="Container" width="304" height="311" transform="translate(40 104)" fill="none"/>
    <path id="Shape" d="M294.771,194.511c51.261-.535,103.592,22.52,119.465,71.264,15.9,48.825-11.868,99.612-54.5,128.237-37.938,25.475-86.459,17.9-123.706-8.575-38.684-27.5-67.248-71.882-53.292-117.246,14.53-47.23,62.618-73.165,112.029-73.681" transform="translate(-105.852 1.521)" fill="#eaeaea"/>
    <g id="Sky" transform="translate(108 165.186)">
      <path id="Path_11081" data-name="Path 11081" d="M65.851,22.55A22.049,22.049,0,1,0,87.9.5,22.05,22.05,0,0,0,65.851,22.55Z" transform="translate(64.05 -29.16)" fill="none" stroke="#000" stroke-linecap="round" stroke-linejoin="round" stroke-width="1"/>
      <path id="Path_11082" data-name="Path 11082" d="M1238.51,129.659c1.553-.326,2.989-1.2,2.445-3.116a3.209,3.209,0,0,0-4.44-1.63.578.578,0,0,0,.266,1.051.937.937,0,0,0,.9-.5,2.019,2.019,0,0,0,.208-1.06,6.166,6.166,0,0,0-2.519-4.813c-1.3-.921-4.875-1.757-5.682.3-.36.916.936,1.411,1.629,1.2a1.083,1.083,0,0,0,.513-.3,1.02,1.02,0,0,0,.184-.878,5.382,5.382,0,0,0-.588-1.3c-2.074-3.988-8.67-2.1-8.869,2.207a2.047,2.047,0,0,0,2.1,2.166.7.7,0,0,0,.652-.319c.373-.842-1.362-1.471-1.9-1.57a4.873,4.873,0,0,0-2.636.286,4.479,4.479,0,0,0-2.607,3.733,4.4,4.4,0,0,0,1.77,3.8c1.261.975,2.939.916,4.447.914q6.254-.007,12.508-.011A8.04,8.04,0,0,0,1238.51,129.659Z" transform="translate(-1034.154 -97.891)" fill="none" stroke="#000" stroke-linecap="round" stroke-linejoin="round" stroke-width="1"/>
      <path id="Path_11083" data-name="Path 11083" d="M1233.027,126.094c1.135-.238,2.184-.875,1.786-2.277a2.344,2.344,0,0,0-3.245-1.191.422.422,0,0,0,.194.768.684.684,0,0,0,.658-.365,1.476,1.476,0,0,0,.152-.774,4.505,4.505,0,0,0-1.84-3.516c-.95-.673-3.562-1.284-4.152.216-.263.67.684,1.031,1.19.879a.792.792,0,0,0,.375-.219.745.745,0,0,0,.134-.641,3.938,3.938,0,0,0-.429-.95c-1.516-2.914-6.335-1.537-6.48,1.612a1.5,1.5,0,0,0,1.538,1.582.509.509,0,0,0,.477-.233c.273-.615-1-1.075-1.391-1.147a3.561,3.561,0,0,0-1.926.209,3.273,3.273,0,0,0-1.9,2.728,3.212,3.212,0,0,0,1.293,2.778,5.124,5.124,0,0,0,3.249.668l9.139-.008A5.875,5.875,0,0,0,1233.027,126.094Z" transform="translate(-1257.072 -100.984)" fill="none" stroke="#000" stroke-linecap="round" stroke-linejoin="round" stroke-width="1"/>
      <path id="Path_11084" data-name="Path 11084" d="M1238.51,129.659c1.553-.326,2.989-1.2,2.445-3.116a3.209,3.209,0,0,0-4.44-1.63.578.578,0,0,0,.266,1.051.937.937,0,0,0,.9-.5,2.019,2.019,0,0,0,.208-1.06,6.166,6.166,0,0,0-2.519-4.813c-1.3-.921-4.875-1.757-5.682.3-.36.916.936,1.411,1.629,1.2a1.083,1.083,0,0,0,.513-.3,1.02,1.02,0,0,0,.184-.878,5.382,5.382,0,0,0-.588-1.3c-2.074-3.988-8.67-2.1-8.869,2.207a2.047,2.047,0,0,0,2.1,2.166.7.7,0,0,0,.652-.319c.373-.842-1.362-1.471-1.9-1.57a4.873,4.873,0,0,0-2.636.286,4.479,4.479,0,0,0-2.607,3.733,4.4,4.4,0,0,0,1.77,3.8c1.261.975,2.939.916,4.447.914q6.254-.007,12.508-.011A8.04,8.04,0,0,0,1238.51,129.659Z" transform="translate(-1224.072 -145.083)" fill="none" stroke="#000" stroke-linecap="round" stroke-linejoin="round" stroke-width="1"/>
      <path id="Path_11085" data-name="Path 11085" d="M1030.656,71.3c-1.175-.246-2.26-.9-1.848-2.355a2.426,2.426,0,0,1,3.357-1.233.437.437,0,0,1-.2.8.71.71,0,0,1-.681-.377,1.528,1.528,0,0,1-.157-.8,4.659,4.659,0,0,1,1.9-3.638c.982-.7,3.686-1.328,4.3.224.272.693-.707,1.067-1.232.91a.818.818,0,0,1-.387-.228.77.77,0,0,1-.139-.663,4.068,4.068,0,0,1,.445-.983c1.567-3.015,6.555-1.591,6.705,1.669a1.548,1.548,0,0,1-1.591,1.637.526.526,0,0,1-.493-.241c-.282-.637,1.03-1.113,1.439-1.186a3.681,3.681,0,0,1,1.993.216,3.383,3.383,0,0,1,1.97,2.823,3.321,3.321,0,0,1-1.338,2.873,5.309,5.309,0,0,1-3.362.691l-9.456-.008A6.112,6.112,0,0,1,1030.656,71.3Z" transform="translate(-963.082 -76.54)" fill="none" stroke="#000" stroke-linecap="round" stroke-linejoin="round" stroke-width="1"/>
    </g>
    <g id="Motocycle">
      <g id="Group_15419" data-name="Group 15419">
        <path id="Path_11230" data-name="Path 11230" d="M262.929,88.315c31.232,1.876,16.729,0,48.486,0" transform="translate(31.939 263.059)" fill="none" stroke="#2c2c2c" stroke-linecap="round" stroke-linejoin="round" stroke-width="1"/>
        <path id="Path_11231" data-name="Path 11231" d="M165.652,88.837c10.083.2,20.2.049,30.349.049h26.747" transform="translate(5.058 263.203)" fill="none" stroke="#2c2c2c" stroke-linecap="round" stroke-linejoin="round" stroke-width="1"/>
        <path id="Path_11232" data-name="Path 11232" d="M183.536,84.185c1.89,0,5.186,1.152,5.186,3.146s-3.376,2.132-5.255,2.132-5.1-.138-5.1-2.132S181.635,84.185,183.536,84.185Z" transform="translate(9.127 262.486)" fill="none" stroke="#000" stroke-linecap="round" stroke-linejoin="round" stroke-width="1"/>
        <path id="Path_11233" data-name="Path 11233" d="M278.658,85.125c1.053,0,2.907.648,2.907,1.8s-1.9,1.2-2.952,1.2-4.589.063-4.985-.981C273.124,85.341,277.605,85.125,278.658,85.125Z" transform="translate(36.552 263.432)" fill="none" stroke="#000" stroke-linecap="round" stroke-linejoin="round" stroke-width="1"/>
        <path id="Path_11234" data-name="Path 11234" d="M92.532,89.485c5.183-.281,9.563-1.927,14.8-2.553a23.894,23.894,0,0,1,6.326-.1,43.36,43.36,0,0,1,4.724,1.276c8.131,2.144,20.04,1.583,29.172,1.723,3.76.059,7.728-.2,11.658-.485" transform="translate(-51.983 262.604)" fill="none" stroke="#2c2c2c" stroke-linecap="round" stroke-linejoin="round" stroke-width="1"/>
      </g>
      <g id="Group_15421" data-name="Group 15421" transform="translate(9.798 -0.387)">
        <path id="Path_11236" data-name="Path 11236" d="M73.806,4.974A108.529,108.529,0,0,1,107.6.54c5.7.157,11.534.81,16.66,3.321a13.61,13.61,0,0,1,5.976,5.126,7.268,7.268,0,0,1,0,7.575A9.249,9.249,0,0,1,124,19.884a9.407,9.407,0,0,1-5.414-.393,4.445,4.445,0,0,1-2.773-4.342,5.074,5.074,0,0,1,3.164-3.636c4.42-2.014,9.664-.17,13.8,2.393s7.938,5.884,12.633,7.179" transform="translate(-21.893 238.793)" fill="none" stroke="#000" stroke-linecap="round" stroke-linejoin="round" stroke-width="1"/>
        <path id="Path_11237" data-name="Path 11237" d="M138.18,28.723a32.043,32.043,0,0,1-8.2-.51,50.116,50.116,0,0,0-28.769,5.05,7.337,7.337,0,0,0-3.923,3.544,4.643,4.643,0,0,0,1.687,5.1,6.67,6.67,0,0,0,5.492.981c1.961-.459,3.923-2.354,3.243-4.224a4.2,4.2,0,0,0-2.354-1.961,25.24,25.24,0,0,0-21.692.732" transform="translate(-20.437 242.831)" fill="none" stroke="#000" stroke-linecap="round" stroke-linejoin="round" stroke-width="1"/>
        <path id="Path_11238" data-name="Path 11238" d="M62.363,29.138a4.263,4.263,0,0,1,.1-5.035A9,9,0,0,1,66.9,21.119c4.577-1.648,9.559-1.687,14.384-1.543s9.795.432,14.541-.64,9.389-3.727,11.6-8.068" transform="translate(-23.697 240.325)" fill="none" stroke="#000" stroke-linecap="round" stroke-linejoin="round" stroke-width="1"/>
      </g>
      <g id="Group_15420" data-name="Group 15420" transform="translate(-0.538 -0.295)">
        <path id="Path_11245" data-name="Path 11245" d="M217.987,89.836c16.082-3.86,32.764-3.889,49.373-2.675" transform="translate(20.239 263.032)" fill="none" stroke="#000" stroke-linecap="round" stroke-linejoin="round" stroke-width="1"/>
        <path id="Path_11248" data-name="Path 11248" d="M170.147,89.861c-15.761-3.787-32.384-3.933-49.374-2.695" transform="translate(-7.288 263.036)" fill="none" stroke="#000" stroke-linecap="round" stroke-linejoin="round" stroke-width="1"/>
        <circle id="Ellipse_103" data-name="Ellipse 103" cx="7.237" cy="7.237" r="7.237" transform="translate(183.882 312.952)" fill="none" stroke="#000" stroke-linecap="round" stroke-linejoin="round" stroke-width="2"/>
        <path id="Path_11239" data-name="Path 11239" d="M182.125,60.639a3.846,3.846,0,1,1-3.846,3.846,3.846,3.846,0,0,1,3.846-3.846" transform="translate(8.995 255.721)"/>
        <path id="Path_11240" data-name="Path 11240" d="M262.98,76.37,228.3,41.69a23.967,23.967,0,0,0-16.945-7.018H173.342a21.713,21.713,0,0,0-19.954,13.16L141.136,76.37" transform="translate(-1.522 248.369)" fill="none" stroke="#000" stroke-linecap="round" stroke-linejoin="round" stroke-width="2"/>
        <path id="Path_11241" data-name="Path 11241" d="M187.644,67.371l19.694-25.937-7.3-24.036h13.945" transform="translate(11.647 243.478)" fill="none" stroke="#000" stroke-linecap="round" stroke-linejoin="round" stroke-width="2"/>
        <line id="Line_78" data-name="Line 78" x1="23.378" y1="38.451" transform="translate(160.504 271.723)" fill="none" stroke="#000" stroke-linecap="round" stroke-linejoin="round" stroke-width="2"/>
        <path id="Path_11242" data-name="Path 11242" d="M145.633,22.072c2.062.746,6.96-1.74,13.48-3.509,4.619-1.257,11.536-1.345,12.7,2.5.921,2.924.366,7.749-14.489,5.98-4.386-.513-8.362-1.71-12.457.423" transform="translate(-0.465 243.588)" fill="none" stroke="#000" stroke-linecap="round" stroke-linejoin="round" stroke-width="2"/>
        <circle id="Ellipse_104" data-name="Ellipse 104" cx="36.464" cy="36.464" r="36.464" transform="matrix(0.23, -0.973, 0.973, 0.23, 217.592, 351.849)" fill="none" stroke="#000" stroke-linecap="round" stroke-linejoin="round" stroke-width="2"/>
        <circle id="Ellipse_105" data-name="Ellipse 105" cx="5.687" cy="5.687" r="5.687" transform="translate(255.771 319.049)" fill="none" stroke="#000" stroke-linecap="round" stroke-linejoin="round" stroke-width="2"/>
        <path id="Path_11243" data-name="Path 11243" d="M236.757,64.821a3.012,3.012,0,1,1-3.012,3.012,3.012,3.012,0,0,1,3.012-3.012" transform="translate(24.701 256.905)"/>
        <path id="Path_11244" data-name="Path 11244" d="M242.393,104.2a114.664,114.664,0,0,1,6.4-16.424,84.9,84.9,0,0,1,12.588-18.889c2.661-3.027,5-5.849,8.554-7.793" transform="translate(27.15 255.849)" fill="none" stroke="#000" stroke-linecap="round" stroke-linejoin="round" stroke-width="1"/>
        <circle id="Ellipse_106" data-name="Ellipse 106" cx="36.464" cy="36.464" r="36.464" transform="translate(103.134 288.288)" fill="none" stroke="#000" stroke-linecap="round" stroke-linejoin="round" stroke-width="2"/>
        <circle id="Ellipse_107" data-name="Ellipse 107" cx="5.687" cy="5.687" r="5.687" transform="translate(133.909 319.065)" fill="none" stroke="#000" stroke-linecap="round" stroke-linejoin="round" stroke-width="2"/>
        <path id="Path_11246" data-name="Path 11246" d="M141.787,64.832a3.012,3.012,0,1,1-3.012,3.012,3.012,3.012,0,0,1,3.012-3.012" transform="translate(-2.191 256.909)"/>
        <path id="Path_11247" data-name="Path 11247" d="M140.9,104.154a117.884,117.884,0,0,0-6.4-16.424A85.423,85.423,0,0,0,121.9,68.9a30.682,30.682,0,0,0-8.611-7.6" transform="translate(-9.408 255.907)" fill="none" stroke="#000" stroke-linecap="round" stroke-linejoin="round" stroke-width="1"/>
        <path id="Path_11249" data-name="Path 11249" d="M208.8,15.188a2.836,2.836,0,1,1-2.836,2.836,2.835,2.835,0,0,1,2.836-2.836" transform="translate(16.835 242.852)"/>
        <path id="Path_11250" data-name="Path 11250" d="M192.687,57.208,141.91,63.655a6.842,6.842,0,0,0-5.731,6.416,6.3,6.3,0,0,0,6.044,6.549,6.4,6.4,0,0,0,.9-.028l50.85-2.836a8.3,8.3,0,0,0-.557-16.591c-.244,0-.488.017-.73.041Z" transform="translate(-2.927 254.738)" fill="none" stroke="#000" stroke-linecap="round" stroke-linejoin="round" stroke-width="1"/>
        <line id="Line_79" data-name="Line 79" x2="17.984" y2="11.316" transform="translate(191.119 320.206)" fill="none" stroke="#000" stroke-linecap="round" stroke-linejoin="round" stroke-width="2"/>
        <path id="Path_11251" data-name="Path 11251" d="M190.749,72.3l9.152-2.248a1.654,1.654,0,0,1,2,1.213l.216.874a1.654,1.654,0,0,1-1.213,2l-9.152,2.248a1.656,1.656,0,0,1-2-1.213l-.214-.874a1.655,1.655,0,0,1,1.213-2" transform="translate(12.169 258.372)"/>
      </g>
    </g>
  </g>
</svg>
