<svg xmlns="http://www.w3.org/2000/svg" viewBox="0 0 39.93 31.18"><defs><style>.cls-1{fill:#fff;}</style></defs><g id="Layer_2" data-name="Layer 2"><g id="Cover"><path id="Logo_Mark" data-name="Logo Mark" class="cls-1" d="M17.36,22.42c.45.09.91.16,1.37.21l-.12.33-.68,1.88h0l-.14.36.73,2-.72,2-.73-2-1.45,4-.72-2,1.41-3.88,0-.1.53-1.43.2-.56Zm-4-.84h0A6.69,6.69,0,0,1,12.63,23c-.13.2-.27.39-.41.58a7,7,0,0,1-1,1,6.87,6.87,0,0,1-2.3,1.22A7.1,7.1,0,0,1,7.36,26H6.92a6.86,6.86,0,0,1-2.32-.41l.32-.9a8.69,8.69,0,0,1-.89.05l-.56,0-.1.28-.48,1.29a8,8,0,0,0,4,1.07h.07a7.46,7.46,0,0,0,1.43-.13,8,8,0,0,0,3.43-1.48,6.88,6.88,0,0,0,.82-.7,5.67,5.67,0,0,0,.58-.62,5,5,0,0,0,.41-.53,8.24,8.24,0,0,0,1-1.9l.17-.48a10.81,10.81,0,0,1-1.22-.63Zm10.27,3.63h0l-.52-1.43-.21-.56-.29-.8c-.45.09-.9.16-1.37.21l.12.33L22,24.85l.13.36h0l-.72,2h0l.72,2,.72-2,1.45,4,.73-2-1.41-3.88Zm12.88-.44-.57,0a8.69,8.69,0,0,1-.89-.05l.32.9a6.86,6.86,0,0,1-2.32.41h-.43A7.19,7.19,0,0,1,31,25.76a6.83,6.83,0,0,1-2.29-1.22,7,7,0,0,1-1-1c-.14-.19-.28-.38-.4-.57a6.54,6.54,0,0,1-.64-1.23l-.1-.28-.18-.51a12.93,12.93,0,0,1-1.23.63l.13.35.08.22a8.08,8.08,0,0,0,1,1.81c.13.18.26.36.41.53a5.77,5.77,0,0,0,.58.63,9.17,9.17,0,0,0,.82.7,8.23,8.23,0,0,0,3.43,1.47,7.53,7.53,0,0,0,1.43.13h.07a8.15,8.15,0,0,0,2.72-.49A7.68,7.68,0,0,0,37,26.34l-.46-1.29Zm3.46-2.41-.28.15-.22.11-.35.16a7.66,7.66,0,0,1-1.14.39l-.39.09-.4.07-.3,0q-.43,0-.87.06H35.9a7.5,7.5,0,0,1-1.42-.13h0l-.32-.06a3.37,3.37,0,0,1-.34-.09l-.25-.06L33.33,23c-.11,0-.22-.07-.33-.12l-.28-.11-.35-.16-.31-.16a7.51,7.51,0,0,1-1.13-.73l-.22-.17a7.29,7.29,0,0,1-.58-.53l-.27-.28c-.16-.18-.32-.37-.47-.57a8.07,8.07,0,0,1-.6-.92l-.05-.1,0-.05c-.07-.13-.14-.26-.2-.39s-.09-.19-.13-.28l-.15-.38c0-.07-.05-.15-.08-.23-.18.19-.37.38-.57.56l-.22.2-.25.2a11.37,11.37,0,0,1-1.2.86,11.67,11.67,0,0,1-1.21.64l-.35.16-.27.1-.29.11-.06,0-.27.1h0l-.25.07c-.27.08-.54.15-.82.21l-.24.05h0a10.41,10.41,0,0,1-1.38.18h-.06l-.3,0h-.79l-.3,0h-.05a10.78,10.78,0,0,1-1.39-.18,2.47,2.47,0,0,1-.29-.06c-.25,0-.5-.11-.74-.18l-.29-.09-.08,0a2.67,2.67,0,0,1-.26-.09s0,0,0,0a1.45,1.45,0,0,1-.29-.11l-.23-.09-.35-.16h0A8.72,8.72,0,0,1,14,19.65c-.3-.18-.58-.38-.86-.58l-.29-.23-.12-.1,0,0-.36-.31c-.2-.18-.38-.36-.57-.55a6.86,6.86,0,0,1-.44,1.05c0,.09-.08.17-.13.26s0,0,0,0l-.19.32a8.1,8.1,0,0,1-1.52,1.84l-.27.23a7.31,7.31,0,0,1-.85.61l-.33.2a7.43,7.43,0,0,1-.69.35,1.09,1.09,0,0,1-.23.09,1,1,0,0,1-.22.09L6.68,23l-.29.1-.29.08-.43.1-.22,0A7.43,7.43,0,0,1,4,23.43H3.52l-.42,0-.31,0-.4-.07L2,23.17l-.38-.11a7.83,7.83,0,0,1-.85-.32l-.22-.1a1.74,1.74,0,0,1-.27-.14L0,22.36l.41-1.14.06-.16,2.74-7.52.68-1.88L5,8.58l0-.05.06-.15a7.3,7.3,0,0,1,.53-1.13A8.42,8.42,0,0,1,6.46,6h0a8.35,8.35,0,0,1,1.4-1.32,6.64,6.64,0,0,1,.79-.51l0,0A7.79,7.79,0,0,1,9.93,3.6a7.44,7.44,0,0,1,.84-.25,3.12,3.12,0,0,1,.53-.11,6.72,6.72,0,0,1,1.35-.13h.15a6.55,6.55,0,0,1,1.34.13,7.76,7.76,0,0,1,1.38.36,4.47,4.47,0,0,1,.35-1h0a4.55,4.55,0,0,1,8.19,0,5,5,0,0,1,.35,1,8,8,0,0,1,1.38-.36,6.69,6.69,0,0,1,1.34-.13h.16a6.62,6.62,0,0,1,1.34.13,4.94,4.94,0,0,1,.53.1h0A8.34,8.34,0,0,1,30,3.6a8.61,8.61,0,0,1,1.23.57h0l0,0a7.18,7.18,0,0,1,.79.52A7.63,7.63,0,0,1,33.46,6h0a7.69,7.69,0,0,1,.84,1.21,7.81,7.81,0,0,1,.54,1.13l0,.15,0,.05L36,11.66h0l.69,1.87,2.73,7.52.06.16ZM6.47,16.52,7,15l.2-.54a8.28,8.28,0,0,1,.5-1.09,8.39,8.39,0,0,1,.5-.81A5.56,5.56,0,0,1,8.64,12a1.07,1.07,0,0,1,.14-.16,4.57,4.57,0,0,1,.43-.45,3,3,0,0,1,.26-.24,5.85,5.85,0,0,1,.54-.45s0,0,0,0h0c.16-.12.34-.24.51-.35l.32-.19a9.37,9.37,0,0,1,.9-.44l.34-.13a8.79,8.79,0,0,1,1.36-.37l.7-1.92.73-2,.15-.43-.35-.12a6.72,6.72,0,0,0-1.55-.28H12.3c-.24,0-.48,0-.71.08a7.35,7.35,0,0,0-.84.2l-.36.12a7.37,7.37,0,0,0-.7.3c-.18.09-.36.19-.52.29A6.82,6.82,0,0,0,7.85,6.53l-.16.17A7.07,7.07,0,0,0,7,7.56l0,.08A7,7,0,0,0,6.38,8.8l0,.06h0c0,.09-.07.19-.1.28l0,.11L5.51,11.2,5,12.73l-.16.46h0L1.7,21.66A6.92,6.92,0,0,0,4,22.07l.43,0ZM12.11,13l.59-1.62,0-.05.2-.53-.35.11a.19.19,0,0,1-.08,0,7.24,7.24,0,0,0-1.15.57l-.06,0a6.08,6.08,0,0,0-.66.47l-.37.31-.07.08A5.77,5.77,0,0,0,9.6,13a4.56,4.56,0,0,0-.4.55h0a7.56,7.56,0,0,0-.66,1.3l0,.1-.1.28-.36,1-.5,1.36L7,19.17H7L6,21.78A7.39,7.39,0,0,0,7.65,21a6.45,6.45,0,0,0,1.09-.86,6.41,6.41,0,0,0,1-1.28,5.93,5.93,0,0,0,.43-.78c.07-.14.13-.29.19-.44l0-.07.13-.35h0l.23-.62L11.36,15l.26-.7.35-1h0l0-.08h0Zm15.51,3.43-.31-.86-.1-.26h0L26.75,14l-.2-.55-.07-.18-1-2.8L25,9.29,25,9.1l-.66-1.8L24,6.54a4.47,4.47,0,0,1-2.2,2.13l1-2.84A2.5,2.5,0,0,0,23,5.4a3,3,0,0,0,.13-.86,3.19,3.19,0,0,0-6.37,0,3,3,0,0,0,.13.86,3.66,3.66,0,0,0,.15.43l1,2.84a4.55,4.55,0,0,1-2.21-2.12l-.27.75h0L15,9.1l-.06.19-.43,1.18-1,2.8h0l-.07.18h0l-.2.55-.46,1.26-.1.27h0l-.31.85a9.73,9.73,0,0,0,1,1l.22.2.07.05h0c.13.11.25.21.38.3a4.49,4.49,0,0,0,.52.37c.19.12.37.24.57.35h0l.43.22a.09.09,0,0,0,.06,0l.14.08a10.81,10.81,0,0,0,1.27.5l.24.06a7.84,7.84,0,0,0,1.09.25l.45.07h0c.31,0,.63.06.95.07h.52c.32,0,.63,0,.94-.07h0l.45-.07a7.84,7.84,0,0,0,1.09-.25,1.68,1.68,0,0,0,.24-.06,11.54,11.54,0,0,0,1.27-.5l.14-.08.06,0,.43-.23c.2-.11.39-.23.57-.35A4.49,4.49,0,0,0,26,18c.13-.09.25-.19.38-.3h0l.05-.05h0l.23-.2A9.67,9.67,0,0,0,27.62,16.38Zm6.31,5.4-1-2.61-.58-1.6-.5-1.36-.36-1-.1-.27v0a6.52,6.52,0,0,0-.69-1.37h0c-.13-.2-.26-.38-.4-.56s-.38-.43-.59-.63l-.07-.07a2.76,2.76,0,0,0-.37-.31,6,6,0,0,0-.65-.47l-.07,0a6.16,6.16,0,0,0-1.15-.57l-.08,0L27,10.75l.19.53,0,.05L27.81,13l.12.32,0,.08h0l.36,1,.26.71.58,1.6.22.62.13.35,0,.07c.05.15.12.3.18.44a7.37,7.37,0,0,0,.43.78,7.18,7.18,0,0,0,1,1.28,6.52,6.52,0,0,0,1.1.86A7,7,0,0,0,33.93,21.78Zm4.3-.12-3.08-8.47L35,12.73l-.55-1.53-.72-1.95,0-.11c0-.09-.07-.19-.1-.28h0l0-.06A5.76,5.76,0,0,0,33,7.64a.35.35,0,0,0-.05-.08,6.2,6.2,0,0,0-.67-.86l-.15-.17a7.48,7.48,0,0,0-1.32-1.06l-.53-.29a5.46,5.46,0,0,0-.7-.3l-.36-.12a7.72,7.72,0,0,0-.83-.2c-.24,0-.47-.06-.71-.08h-.86a6.54,6.54,0,0,0-1.54.28l-.36.12.16.43.72,2,.7,1.92a8.92,8.92,0,0,1,1.37.37l.33.13a9.37,9.37,0,0,1,.9.44,3.37,3.37,0,0,1,.32.19c.18.11.35.23.52.35l0,0c.19.14.37.29.55.45l.25.23a6.17,6.17,0,0,1,.43.46l.14.16a5.56,5.56,0,0,1,.42.54,8.48,8.48,0,0,1,.51.81,9,9,0,0,1,.48,1l0,.11.17.48.55,1.52,2,5.53.43,0A6.87,6.87,0,0,0,38.23,21.66ZM20,7.71a3.09,3.09,0,0,1-1.41-.34L19.14,9,20,11.27,20.8,9l.59-1.63A3.11,3.11,0,0,1,20,7.71ZM35.82,4.46h.27V2.78h.37V2.52h-1v.26h.38Zm1,0h.26V3.16l.29,1.3h.26l.29-1.3v1.3h.26V2.52h-.33L37.47,4l-.34-1.49H36.8Z"/></g></g></svg>