<svg id="Complete" xmlns="http://www.w3.org/2000/svg" width="200" height="123.529" viewBox="0 0 200 123.529">
  <rect id="Container" width="200" height="123.529" fill="none"/>
  <path id="Shape" d="M86.047,2.41c25.6-9.443,49.275,10.529,67.182,31.116,17.924,20.608,35.64,47.506,21.557,70.907-14.065,23.373-46.107,20.221-72.676,14.044-26.373-6.134-54.724-17.716-58.435-44.537C39.474,43.59,57.3,13.015,86.047,2.41" transform="translate(-11.399 0)" fill="#eaeaea"/>
  <g id="Complete-2" data-name="Complete" transform="translate(36.519 11.566)">
    <path id="Path_11024" data-name="Path 11024" d="M105.768,65.331c6.673,5.654,12.059,14.246,14.914,23.95a190.913,190.913,0,0,1,28.792-49.524,89.023,89.023,0,0,1,8.692-9.42" transform="translate(-60.104 -18.126)" fill="none" stroke="#060816" stroke-linecap="round" stroke-linejoin="round" stroke-width="2"/>
    <path id="Path_11025" data-name="Path 11025" d="M165.228,91.139a37.594,37.594,0,0,1-14.552-9.779c-3.37-3.695-9.726-11.707-3.119-15.55,4.878-2.838,8.861,2.371,9.074,7.181,1.037,23.382-21.648,42.144-45.066,42.144A45.574,45.574,0,1,1,129.837,27.8" transform="translate(-49.582 -16.445)" fill="none" stroke="#060816" stroke-linecap="round" stroke-linejoin="round" stroke-width="2"/>
    <path id="Path_11026" data-name="Path 11026" d="M70.137,53.525a51.839,51.839,0,0,0,8.6-1.071c10.982-2.237,19.223-9.916,27.535-16.908,5.032-4.233,10.416-7.945,16.312-10.074" transform="translate(-50.673 -16.838)" fill="none" stroke="#060816" stroke-linecap="round" stroke-linejoin="round" stroke-width="1"/>
    <path id="Path_11027" data-name="Path 11027" d="M79.62,44.546c.374,6.227.7,12.5.565,18.74a119.249,119.249,0,0,1-5.771,34.682" transform="translate(-51.804 -21.887)" fill="none" stroke="#060816" stroke-linecap="round" stroke-linejoin="round" stroke-width="1"/>
    <path id="Path_11028" data-name="Path 11028" d="M3.249,9.67,5.355,8.392a1.7,1.7,0,0,1,.919-.25l2.46.06a1.068,1.068,0,0,0,.933-1.622L8.391,4.473a1.691,1.691,0,0,1-.247-.925l.06-2.46A1.069,1.069,0,0,0,6.58.156L4.474,1.432a1.691,1.691,0,0,1-.925.247l-2.46-.06A1.07,1.07,0,0,0,.155,3.243L1.433,5.35a1.706,1.706,0,0,1,.247.918L1.623,8.729a1.053,1.053,0,0,0,.532.95l.068.033a1.048,1.048,0,0,0,1.029-.047Z" transform="translate(110.785 24.796) rotate(7)" fill="none" stroke="#060816" stroke-linecap="round" stroke-linejoin="round" stroke-width="2"/>
    <path id="Path_11049" data-name="Path 11049" d="M6.574.158,4.467,1.436a1.7,1.7,0,0,1-.919.25l-2.46-.06A1.068,1.068,0,0,0,.155,3.248L1.431,5.353a1.691,1.691,0,0,1,.247.925l-.06,2.46a1.069,1.069,0,0,0,1.624.932L5.349,8.394a1.691,1.691,0,0,1,.925-.247l2.46.06a1.07,1.07,0,0,0,.935-1.624L8.389,4.475a1.706,1.706,0,0,1-.247-.918L8.2,1.1a1.053,1.053,0,0,0-.532-.95L7.6.113A1.049,1.049,0,0,0,6.569.16Z" transform="translate(8.906 11.875) rotate(65)" fill="none" stroke="#060816" stroke-linecap="round" stroke-linejoin="round" stroke-width="2"/>
    <path id="Path_11029" data-name="Path 11029" d="M2.227,6.633l1.445-.876a1.16,1.16,0,0,1,.63-.171l1.691.04a.735.735,0,0,0,.64-1.112L5.758,3.07a1.154,1.154,0,0,1-.169-.635L5.629.744A.735.735,0,0,0,4.515.105L3.071.98a1.157,1.157,0,0,1-.635.17L.745,1.109a.735.735,0,0,0-.64,1.114L.982,3.667a1.176,1.176,0,0,1,.169.63L1.112,5.988a.721.721,0,0,0,.368.651l.047.024a.718.718,0,0,0,.7-.033Z" transform="translate(119.455 41.065) rotate(7)" fill="none" stroke="#060816" stroke-linecap="round" stroke-linejoin="round" stroke-width="2"/>
    <path id="Path_11048" data-name="Path 11048" d="M4.51.11,3.065.986a1.16,1.16,0,0,1-.63.171L.743,1.117A.735.735,0,0,0,.1,2.229L.979,3.673a1.154,1.154,0,0,1,.169.635L1.107,6a.735.735,0,0,0,1.114.639l1.444-.875a1.157,1.157,0,0,1,.635-.17l1.688.041a.735.735,0,0,0,.64-1.114L5.751,3.072a1.176,1.176,0,0,1-.169-.63L5.621.751A.721.721,0,0,0,5.253.1L5.206.077A.718.718,0,0,0,4.5.11Z" transform="translate(16.619 0) rotate(65)" fill="none" stroke="#060816" stroke-linecap="round" stroke-linejoin="round" stroke-width="2"/>
  </g>
</svg>
