<svg xmlns="http://www.w3.org/2000/svg" width="200" height="123.531" viewBox="0 0 200 123.531">
  <g id="Done" transform="translate(0 0.001)">
    <rect id="Container" width="200" height="123.53" transform="translate(0 0)" fill="none"/>
    <path id="Shape" d="M188.881,239.483c-10.192,29.632-11.7,50.255,11.851,66.8,22.654,15.922,52.53,7.169,74.512-9.671,20.074-15.379,30.164-40.617,22.677-64.775-7.817-25.2-31.939-41.931-58.975-40.636S199.074,209.846,188.881,239.483Z" transform="translate(-140.956 -191.137)" fill="#eaeaea"/>
    <g id="Done-2" data-name="Done" transform="translate(38.589 13.06)">
      <path id="Path_11108" data-name="Path 11108" d="M185.625,73.72a8.934,8.934,0,0,0-6.344-16.342l-15.939,2.868a8.934,8.934,0,0,0-7.353,8.777,8.825,8.825,0,0,0,.142,1.589,8.934,8.934,0,0,0,6.949,7.161" transform="translate(-79.88 -28.21)" fill="none" stroke="#060816" stroke-linecap="round" stroke-miterlimit="10" stroke-width="2"/>
      <path id="Path_11109" data-name="Path 11109" d="M160.869,105.2a8.9,8.9,0,0,0-2.765,6.449c0,.11,0,.221.008.331a8.926,8.926,0,0,0,9.244,8.6l17.061-.614a8.926,8.926,0,0,0,4.37-16.519" transform="translate(-80.44 -40.443)" fill="none" stroke="#060816" stroke-linecap="round" stroke-miterlimit="10" stroke-width="2"/>
      <path id="Path_11110" data-name="Path 11110" d="M189.2,124.278a8.927,8.927,0,0,1-7.47,13.279l-11.8.426a8.934,8.934,0,0,1-9.245-8.6c0-.11-.008-.221-.008-.331a8.87,8.87,0,0,1,1.488-4.924" transform="translate(-81.123 -45.918)" fill="none" stroke="#060816" stroke-linecap="round" stroke-miterlimit="10" stroke-width="2"/>
      <path id="Path_11111" data-name="Path 11111" d="M194.824,86.526l.162.9a8.471,8.471,0,0,1-6.838,9.833l-20.525,3.686a8.471,8.471,0,0,1-9.833-6.838l-.162-.9a8.47,8.47,0,0,1,6.838-9.833l20.525-3.686a8.469,8.469,0,0,1,9.833,6.838Z" transform="translate(-80.278 -34.118)" fill="none" stroke="#060816" stroke-linecap="round" stroke-miterlimit="10" stroke-width="2"/>
      <path id="Path_11112" data-name="Path 11112" d="M136.082,50.176c-2.519-9.356.162-21.583-8.061-28.657-5.048-4.342-15.441-6.65-15.246,2.932a30.679,30.679,0,0,0,.925,5.46c4.811,23.61-28.818,49.253-51.794,48.362-2.285-.089-6.248-1.239-5.579-4.287,1.324-6.012,10.864-3.695,14.449-1.973,3.888,1.868,7.447,4.362,11.3,6.307A24.949,24.949,0,0,0,95.68,81.145" transform="translate(-56.252 -17.762)" fill="none" stroke="#060816" stroke-linecap="round" stroke-miterlimit="10" stroke-width="2"/>
      <path id="Path_11113" data-name="Path 11113" d="M153.656,142.842c-18.372,8.871-37.7-2.843-56.487,1.724-3.221.782-10.281,2.907-13.479,7.1" transform="translate(-62.253 -50.87)" fill="none" stroke="#060816" stroke-linecap="round" stroke-miterlimit="10" stroke-width="2"/>
      <path id="Path_11115" data-name="Path 11115" d="M199.4,36.242l-.894,1.434a1.157,1.157,0,0,0-.18.628l.021,1.691a.735.735,0,0,1-1.118.626l-1.434-.892a1.151,1.151,0,0,0-.632-.176l-1.689.02a.735.735,0,0,1-.625-1.122l.892-1.434a1.158,1.158,0,0,0,.178-.632L193.9,34.7a.736.736,0,0,1,.736-.737.728.728,0,0,1,.387.11l1.434.894a1.175,1.175,0,0,0,.628.176l1.692-.019a.739.739,0,0,1,.628,1.119Z" transform="translate(-89.609 -22.049)" fill="none" stroke="#060816" stroke-linecap="round" stroke-miterlimit="10" stroke-width="2"/>
      <path id="Path_11117" data-name="Path 11117" d="M99.346,27.407l1.347,1.021a1.166,1.166,0,0,0,.61.235l1.686.135a.735.735,0,0,1,.522,1.171l-1.019,1.347a1.155,1.155,0,0,0-.234.614l-.133,1.682a.736.736,0,0,1-1.175.521L99.6,33.113a1.156,1.156,0,0,0-.613-.234l-1.683-.133a.736.736,0,0,1-.522-1.175l1.022-1.346a1.173,1.173,0,0,0,.233-.61s.136-1.683.136-1.686a.738.738,0,0,1,1.17-.522Z" transform="translate(-64.168 -20.275)" fill="none" stroke="#060816" stroke-linecap="round" stroke-miterlimit="10" stroke-width="2"/>
      <path id="Path_11115-2" data-name="Path 11115" d="M202.389,37.264l-1.3,2.076a1.676,1.676,0,0,0-.26.909l.03,2.448a1.064,1.064,0,0,1-1.619.907l-2.076-1.292a1.667,1.667,0,0,0-.915-.256l-2.445.029a1.064,1.064,0,0,1-.906-1.624l1.292-2.076a1.677,1.677,0,0,0,.257-.915l-.032-2.443a1.065,1.065,0,0,1,1.065-1.067,1.054,1.054,0,0,1,.561.16l2.076,1.3a1.7,1.7,0,0,0,.909.256l2.45-.027a1.07,1.07,0,0,1,.909,1.621Z" transform="translate(-104.318 -33.247)" fill="none" stroke="#060816" stroke-linecap="round" stroke-miterlimit="10" stroke-width="2"/>
      <path id="Path_11115-3" data-name="Path 11115" d="M202.389,37.264l-1.3,2.076a1.676,1.676,0,0,0-.26.909l.03,2.448a1.064,1.064,0,0,1-1.619.907l-2.076-1.292a1.667,1.667,0,0,0-.915-.256l-2.445.029a1.064,1.064,0,0,1-.906-1.624l1.292-2.076a1.677,1.677,0,0,0,.257-.915l-.032-2.443a1.065,1.065,0,0,1,1.065-1.067,1.054,1.054,0,0,1,.561.16l2.076,1.3a1.7,1.7,0,0,0,.909.256l2.45-.027a1.07,1.07,0,0,1,.909,1.621Z" transform="translate(-172.507 -11.232)" fill="none" stroke="#060816" stroke-linecap="round" stroke-miterlimit="10" stroke-width="2"/>
    </g>
  </g>
</svg>
