<svg xmlns="http://www.w3.org/2000/svg" width="200" height="123.53" viewBox="0 0 200 123.53">
  <g id="Info" transform="translate(-684 -1145.002)">
    <rect id="Container" width="200" height="123.53" transform="translate(684 1145.002)" fill="none"/>
    <path id="Shape" d="M20.514,13.411C41.223-7.24,73.019-.394,99.484,9.737,125.971,19.879,155.024,35.8,151.65,63.62c-3.372,27.784-35.889,40.1-64.419,47.089-28.323,6.939-60.963,9.889-76.381-12.6C-6.595,72.674-2.74,36.6,20.514,13.411" transform="translate(708.041 1149)" fill="#eaeaea"/>
    <g id="Info-2" data-name="Info" transform="translate(700.273 1149.619)">
      <path id="Union_8" data-name="Union 8" d="M2495.983,20937.574a.817.817,0,0,1-.021-.3.8.8,0,0,1,.063-.268l.005-.006a1.707,1.707,0,0,1,.126-.232l.011-.01c.042-.059.089-.121.147-.189l.005,0,.084-.086c.047-.047.1-.1.152-.156.031-.031.063-.059.095-.09.052-.059.1-.105.157-.162.026-.027.053-.059.079-.084.058-.059.11-.117.158-.174l.01-.016a1.694,1.694,0,0,0,.194-.236l.01-.012c.042-.057.074-.109.105-.156l.016-.027a.242.242,0,0,0,.026-.053c.021-.031.042-.068.063-.1a.387.387,0,0,0,.037-.084l.01-.021.016-.025c.01-.012.016-.027.026-.037.016-.053.037-.1.052-.143a.181.181,0,0,0,.021-.047.591.591,0,0,0,.047-.137.658.658,0,0,0,.021-.1v-.078a.367.367,0,0,0-.037-.059v-.006a.22.22,0,0,0-.063-.047l-.005,0a.177.177,0,0,0-.079-.021l-.021-.006a.458.458,0,0,0-.089.006.623.623,0,0,0-.194.152l-.016.016-.016.016a.661.661,0,0,0-.089.09c-.031.041-.068.084-.095.121a.233.233,0,0,0-.047.078l-.011.016-.01.016a.84.84,0,0,0-.058.09.484.484,0,0,1-.079.125.614.614,0,0,1-.105.105.623.623,0,0,1-.152.084.7.7,0,0,1-.173.043.37.37,0,0,1-.258-.031.56.56,0,0,1-.173-.121.9.9,0,0,1-.116-.133l-.005-.016a.582.582,0,0,1-.063-.137v0a.428.428,0,0,1,.089-.41.794.794,0,0,1,.1-.121l.073-.09.047-.047c.031-.037.063-.078.094-.115s.058-.068.089-.105a1.625,1.625,0,0,1,.147-.158.2.2,0,0,0,.037-.035c.047-.049.089-.08.131-.117a.3.3,0,0,0,.047-.041l.01-.006a2.26,2.26,0,0,1,.194-.131.9.9,0,0,1,.252-.121c.068-.021.157-.053.263-.078a1.064,1.064,0,0,1,.483-.006,1.545,1.545,0,0,1,.431.158l.01,0a1.417,1.417,0,0,1,.347.289.887.887,0,0,1,.221.4,1.053,1.053,0,0,1,.042.283v.01a1.278,1.278,0,0,1-.058.373c-.031.1-.068.211-.116.326a2.758,2.758,0,0,1-.136.3l-.016.037a3.461,3.461,0,0,1-.215.352l-.005.006a1.569,1.569,0,0,1-.126.168,1.292,1.292,0,0,1,.189-.037c.021,0,.042,0,.063-.01a1.386,1.386,0,0,1,.173-.016c.026,0,.058-.006.094-.01s.047-.006.074-.012c.047-.006.1-.016.147-.025l.01-.006a.09.09,0,0,0,.047-.016l.016-.006a.506.506,0,0,0,.052-.025.333.333,0,0,1,.1-.053.308.308,0,0,1,.131-.053.385.385,0,0,1,.221.006.51.51,0,0,1,.184.088.748.748,0,0,1,.095.084.4.4,0,0,1,.1.164l.005.021.005.02a.819.819,0,0,1,0,.227l-.005.027a.52.52,0,0,1-.095.193l-.005.006a1.3,1.3,0,0,1-.142.137,1.21,1.21,0,0,1-.2.131,1.311,1.311,0,0,1-.242.078l-.016.006a.549.549,0,0,0-.094.021c-.037,0-.079.016-.116.021a.61.61,0,0,1-.215.02h-.068a.874.874,0,0,1-.126.006.749.749,0,0,0-.173.021h-.031c-.089.016-.168.031-.247.053-.047.01-.094.016-.136.025a.565.565,0,0,0-.105.021,1.4,1.4,0,0,0-.21.068c-.037.016-.084.031-.126.047a1.346,1.346,0,0,0-.137.047,1.823,1.823,0,0,0-.21.111.44.44,0,0,0-.089.078.651.651,0,0,0-.037.078l-.01.021c-.021.037-.042.064-.053.084a.012.012,0,0,0-.01.012l-.016.02-.016.018a.364.364,0,0,1-.142.109.429.429,0,0,1-.194.078.792.792,0,0,1-.189.027A.463.463,0,0,1,2495.983,20937.574Zm6.038-1.129-.021-.006a1.1,1.1,0,0,1-.147-.037l-.031-.01-.026-.016a.648.648,0,0,1-.173-.158l-.005-.016a.918.918,0,0,1-.126-.283l-.005-.021c0-.012-.005-.021-.005-.031-.005-.027-.016-.068-.021-.111s-.016-.084-.026-.131l-.01-.059c-.005-.047-.01-.094-.021-.146l-.01-.047a.754.754,0,0,1-.01-.08.734.734,0,0,1-.021-.109c-.005-.006-.005-.01-.005-.021-.058.021-.11.037-.163.053l-.047.016c-.089.031-.173.074-.257.111l-.053.031a2.563,2.563,0,0,1-.342.162,1.943,1.943,0,0,1-.336.121l-.021.006c-.047,0-.1.01-.152.01l-.032-.006c-.042-.01-.089-.02-.136-.035a.535.535,0,0,1-.158-.068.5.5,0,0,1-.142-.09l-.094-.078.005-.127a.521.521,0,0,1,.042-.2,1.615,1.615,0,0,1,.084-.189,2.052,2.052,0,0,1,.115-.211,1.529,1.529,0,0,1,.137-.24c.026-.043.052-.086.079-.127.016-.025.037-.053.052-.084.037-.062.079-.115.115-.168a.349.349,0,0,0,.042-.047c.126-.174.236-.326.347-.475.047-.062.089-.119.126-.178s.084-.115.126-.168.079-.111.11-.158l.047-.062a.814.814,0,0,1,.052-.074c.01-.016.026-.037.031-.047a.614.614,0,0,1,.11-.146c.016-.021.037-.043.058-.068l.005-.006c.005,0,.016-.021.026-.031a.683.683,0,0,1,.058-.068c.016-.021.037-.043.052-.068s.047-.053.073-.084c.042-.053.089-.105.137-.158a.554.554,0,0,1,.2-.131l.026-.006a.655.655,0,0,1,.336-.01l.026.006a.418.418,0,0,1,.278.277l.01.031v.168a.506.506,0,0,0-.005.09v.168a.483.483,0,0,1-.005.09v.063l-.005.074c-.005.1-.01.2-.01.289a2.487,2.487,0,0,0,.016.3v.021a1.81,1.81,0,0,0,.016.236c.052-.016.11-.027.168-.043a1.541,1.541,0,0,1,.342-.053h.026a.658.658,0,0,1,.242.043l.026.01a.476.476,0,0,1,.2.18l.016.031a1.314,1.314,0,0,1,.073.189v.01a.507.507,0,0,1,.005.2.491.491,0,0,1-.068.164.36.36,0,0,1-.147.146.477.477,0,0,1-.136.068h-.01a.613.613,0,0,1-.273.016,1.456,1.456,0,0,0-.226,0c-.058.006-.121.016-.179.027v0l.005.016c.005.064.016.127.026.189l.005.012c.005.031.01.063.016.088l.005.021c.005.025.01.053.016.074.016.047.026.094.042.146.005.006.005.016.01.025.026.021.052.049.079.074a.355.355,0,0,1,.131.227.6.6,0,0,1-.005.193v.021a.68.68,0,0,1-.094.2.5.5,0,0,1-.131.152.567.567,0,0,1-.179.105l-.026.006-.026.006c-.021,0-.037,0-.053,0l-.031.012Zm4.114-1.33-.058-.006-.226-.047-.021-.01a.9.9,0,0,1-.189-.09.454.454,0,0,1-.226-.283.512.512,0,0,1,.079-.453l.01-.016a.723.723,0,0,1,.373-.221l.026,0a1.2,1.2,0,0,1,.441.031c.042,0,.084.01.121.01l.032.006a.517.517,0,0,1,.094.01h.094a.269.269,0,0,0,.063-.021l.031,0a.528.528,0,0,0,.4-.4,2.55,2.55,0,0,0-.084-1.193l-.005-.01c-.047-.184-.084-.33-.121-.463-.021-.062-.042-.131-.063-.2s-.047-.152-.063-.215c-.01-.031-.021-.059-.032-.084-.016-.059-.037-.111-.047-.158a1.058,1.058,0,0,0-.037-.127l-.01-.02-.005-.027a.407.407,0,0,1,.037-.246.614.614,0,0,1,.105-.158l.005-.01c.042-.037.084-.074.126-.105a.461.461,0,0,1,.179-.09.521.521,0,0,1,.336.012.441.441,0,0,1,.289.23.621.621,0,0,1,.042.105,1.285,1.285,0,0,1,.068.189c.01.02.016.041.026.063a1.548,1.548,0,0,1,.047.152.623.623,0,0,0,.047.121c.005.016.01.031.016.053.026.057.053.137.084.215l.005.021c.074.277.131.551.179.814a3.117,3.117,0,0,1,.068.625,1.842,1.842,0,0,1-.031.414,2.038,2.038,0,0,1-.11.438v.01a2.679,2.679,0,0,1-.21.4l-.005.006a1.82,1.82,0,0,1-.31.352l-.01.006a1.035,1.035,0,0,1-.278.174,2.564,2.564,0,0,1-.315.115h-.005a3.04,3.04,0,0,1-.478.084l-.005.006c-.074,0-.168.01-.263.01A1.452,1.452,0,0,1,2506.135,20935.115Zm3.284-1.035a.675.675,0,0,1-.352-.211.859.859,0,0,1-.189-.3,2.716,2.716,0,0,1-.095-.295l-.005-.031a.432.432,0,0,1-.016-.057c-.005-.049-.016-.1-.021-.158-.005-.027-.005-.059-.01-.09s-.005-.074-.01-.109a2.221,2.221,0,0,1-.016-.264.768.768,0,0,0-.005-.105v-.141a1.625,1.625,0,0,1,.021-.279l.005-.031a.6.6,0,0,0,.021-.078.473.473,0,0,1,.042-.148l.01-.021.016-.02a.431.431,0,0,1,.095-.105l.005-.006a.5.5,0,0,1,.184-.1.523.523,0,0,1,.252-.01.434.434,0,0,1,.2.084l.005,0a.625.625,0,0,1,.142.17.911.911,0,0,1,.058.146l.005.021a.737.737,0,0,1,0,.215,1.67,1.67,0,0,0-.016.221v.01a3.11,3.11,0,0,0,.005.316,3.056,3.056,0,0,0,.047.3.315.315,0,0,0,.068-.053.526.526,0,0,0,.089-.09l.1-.137a1.674,1.674,0,0,0,.1-.168v-.006a1.71,1.71,0,0,0,.11-.225l.005-.006c.037-.084.068-.158.094-.236l.021-.053a.586.586,0,0,0,.042-.125l.005-.018c.005-.025.01-.051.016-.088l.005-.031a.64.64,0,0,0,.021-.105.809.809,0,0,1,.016-.158.292.292,0,0,1,.005-.074.256.256,0,0,1-.005-.088v-.143l.005-.025c0-.018.005-.033.005-.049l.005-.02a.329.329,0,0,1,.053-.143l.005-.016a.994.994,0,0,1,.068-.09.717.717,0,0,1,.115-.105.378.378,0,0,1,.142-.068.484.484,0,0,1,.4.043l.005.006a.5.5,0,0,1,.21.293l.005.027v.035a1.406,1.406,0,0,0,.01.148v.025c0,.068.005.158.01.252s.021.2.037.3.026.174.042.258a.762.762,0,0,0,.095.209s.005,0,.005,0l.016-.018.016-.01a.813.813,0,0,0,.11-.115l.01-.016a1.56,1.56,0,0,0,.137-.2c.047-.084.094-.168.142-.262s.089-.174.131-.268.068-.152.095-.227l.016-.031a1.169,1.169,0,0,1,.079-.164v-.025a.592.592,0,0,1,.047-.232.449.449,0,0,1,.158-.2.6.6,0,0,1,.231-.117.641.641,0,0,1,.221-.025l.021.006a.425.425,0,0,1,.2.078l.01.01a.388.388,0,0,1,.126.174.6.6,0,0,1,.037.105.168.168,0,0,1,.01.041l.01.033v.051a.45.45,0,0,1,.016.117,1.044,1.044,0,0,1,.01.131c.026-.053.058-.105.079-.152l.01-.021a1.939,1.939,0,0,1,.153-.215l.005-.006a1.262,1.262,0,0,1,.216-.193.891.891,0,0,1,.278-.121.783.783,0,0,1,.189-.021h.005a.408.408,0,0,1,.178.059l.026.016.026.016a.57.57,0,0,1,.084.115l.01.016.01.021a.847.847,0,0,1,.026.109l.005.021a.232.232,0,0,1,.016.074.188.188,0,0,1,.005.025v.01a1.2,1.2,0,0,1,.01.137c.005.037.016.074.021.111v.031a.067.067,0,0,0,.005.031,2.013,2.013,0,0,0,.105.295l.005.01a.835.835,0,0,0,.126.211.325.325,0,0,0,.11.078.165.165,0,0,0,.11.006,1.16,1.16,0,0,0,.131-.043c.026-.016.052-.031.084-.047a.224.224,0,0,1,.037-.031l.063-.047c.016-.021.037-.043.058-.068s.037-.043.063-.068a.489.489,0,0,1,.084-.09l.005-.01c.031-.021.063-.047.1-.068a.34.34,0,0,1,.142-.062.2.2,0,0,1,.084-.012.3.3,0,0,1,.195.078l.026.021.021.031a.474.474,0,0,1,.068.168.684.684,0,0,1-.01.342v.012a.926.926,0,0,1-.189.346,1.242,1.242,0,0,1-.321.3h-.005a1.494,1.494,0,0,1-.478.2,1.233,1.233,0,0,1-.515.037.982.982,0,0,1-.473-.189l-.01-.006a1.35,1.35,0,0,1-.352-.4l-.005-.006c-.01-.025-.026-.053-.037-.078-.021.047-.042.09-.058.131-.042.1-.079.184-.116.289a2.051,2.051,0,0,1-.084.217l-.005,0c-.021.068-.042.127-.052.164a.544.544,0,0,1-.079.178.436.436,0,0,1-.157.184.68.68,0,0,1-.195.08.59.59,0,0,1-.226.016.65.65,0,0,1-.352-.152l-.026-.027a.464.464,0,0,1-.089-.184c-.005-.021-.016-.059-.021-.084l-.005-.021a1.252,1.252,0,0,1-.016-.141c-.005-.037-.01-.068-.016-.105a1.474,1.474,0,0,1-.1.152,1.961,1.961,0,0,1-.31.32.979.979,0,0,1-.368.189.832.832,0,0,1-.373.031.791.791,0,0,1-.352-.131l-.01-.006a.96.96,0,0,1-.173-.158.53.53,0,0,0-.031.059,1.535,1.535,0,0,1-.121.2l-.01.016c-.016.021-.031.043-.047.063s-.042.059-.063.09a2.134,2.134,0,0,1-.457.441,1.324,1.324,0,0,1-.347.164h-.005a.71.71,0,0,1-.147.031v.053Z" transform="translate(-2367.732 -20863.863)" fill="#060816"/>
      <path id="Path_10789" data-name="Path 10789" d="M126.3,84.591a8.448,8.448,0,0,1-8.448,8.448H36.341" transform="translate(12.323 21.257)" fill="none" stroke="#060816" stroke-linecap="round" stroke-linejoin="round" stroke-miterlimit="10" stroke-width="2"/>
      <path id="Path_10790" data-name="Path 10790" d="M98.975,4.438A11.126,11.126,0,0,1,110.1,15.563V45.978" transform="translate(28.528 0.519)" fill="none" stroke="#060816" stroke-linecap="round" stroke-linejoin="round" stroke-miterlimit="10" stroke-width="2"/>
      <line id="Line_44" data-name="Line 44" x2="10" transform="translate(110.227 4.955)" fill="none" stroke="#060816" stroke-linecap="round" stroke-miterlimit="10" stroke-width="2"/>
      <line id="Line_45" data-name="Line 45" x2="10" transform="translate(92.227 4.955)" fill="none" stroke="#060816" stroke-linecap="round" stroke-miterlimit="10" stroke-width="2"/>
      <line id="Line_46" data-name="Line 46" x2="11" transform="translate(72.227 4.955)" fill="none" stroke="#060816" stroke-linecap="round" stroke-miterlimit="10" stroke-width="2"/>
      <line id="Line_47" data-name="Line 47" x2="9" transform="translate(55.227 4.955)" fill="none" stroke="#060816" stroke-linecap="round" stroke-miterlimit="10" stroke-width="2"/>
      <path id="Path_10791" data-name="Path 10791" d="M26.336,99.083V15.563A11.125,11.125,0,0,1,37.463,4.437" transform="translate(9.734 0.519)" fill="none" stroke="#060816" stroke-linecap="round" stroke-linejoin="round" stroke-miterlimit="10" stroke-width="2"/>
      <path id="Path_10792" data-name="Path 10792" d="M26.336,80.121,38.931,94.814c-1.595-8.448,1.063-17.085,1.063-17.085S30.9,80.946,26.336,80.121Z" transform="translate(9.734 19.482)" fill="none" stroke="#060816" stroke-linecap="round" stroke-linejoin="round" stroke-miterlimit="10" stroke-width="2"/>
      <path id="Path_10793" data-name="Path 10793" d="M7.957,55.508s22.358,8.665,7.05,12.55,16.084,9.417,16.084,9.417" transform="translate(4.979 13.731)" fill="none" stroke="#060816" stroke-linecap="round" stroke-linejoin="round" stroke-miterlimit="10" stroke-width="2"/>
      <path id="Line_48" data-name="Line 48" d="M0,2,5.5.625" transform="translate(139.227 56.881)" fill="none" stroke="#060816" stroke-linecap="round" stroke-width="1.5"/>
      <line id="Line_49" data-name="Line 49" y1="2" x2="8" transform="translate(131.227 58.881)" fill="none" stroke="#060816" stroke-linecap="round" stroke-miterlimit="10" stroke-width="1.5"/>
      <line id="Line_50" data-name="Line 50" y1="0.973" x2="3.979" transform="translate(127.227 60.908)" fill="none" stroke="#060816" stroke-linecap="round" stroke-miterlimit="10" stroke-width="1.5"/>
      <path id="Path_10794" data-name="Path 10794" d="M120.9,45.581h0a5.024,5.024,0,0,1,6.1,3.641l6.1,24.188a5.023,5.023,0,0,1-3.641,6.1l-24.191,6.1a5.023,5.023,0,0,1-6.1-3.641l-6.1-24.188a5.024,5.024,0,0,1,3.641-6.1" transform="translate(26.959 11.124)" fill="none" stroke="#060816" stroke-linecap="round" stroke-linejoin="round" stroke-miterlimit="10" stroke-width="1.5"/>
      <line id="Line_51" data-name="Line 51" x2="1.189" y2="4.713" transform="translate(144.397 55.072)" fill="none" stroke="#060816" stroke-linecap="round" stroke-miterlimit="10" stroke-width="1.5"/>
      <line id="Line_52" data-name="Line 52" x2="1.189" y2="4.713" transform="translate(138.244 56.626)" fill="none" stroke="#060816" stroke-linecap="round" stroke-miterlimit="10" stroke-width="1.5"/>
      <line id="Line_53" data-name="Line 53" x2="1.189" y2="4.713" transform="translate(132.09 58.176)" fill="none" stroke="#060816" stroke-linecap="round" stroke-miterlimit="10" stroke-width="1.5"/>
      <line id="Line_54" data-name="Line 54" x2="1.189" y2="4.713" transform="translate(125.938 59.729)" fill="none" stroke="#060816" stroke-linecap="round" stroke-miterlimit="10" stroke-width="1.5"/>
      <path id="Rectangle_2749" data-name="Rectangle 2749" d="M.716,0h2.2a.715.715,0,0,1,.716.715v2.2a.716.716,0,0,1-.716.716H.716A.716.716,0,0,1,0,2.917V.716A.716.716,0,0,1,.716,0Z" transform="matrix(0.97, -0.245, 0.245, 0.97, 128.669, 80.789)" fill="none" stroke="#060816" stroke-linecap="round" stroke-linejoin="round" stroke-miterlimit="10" stroke-width="1.5"/>
      <path id="Rectangle_2750" data-name="Rectangle 2750" d="M.716,0h2.2a.715.715,0,0,1,.716.715v2.2a.715.715,0,0,1-.715.715H.716A.716.716,0,0,1,0,2.917V.716A.716.716,0,0,1,.716,0Z" transform="matrix(0.97, -0.245, 0.245, 0.97, 135.267, 79.125)" fill="none" stroke="#060816" stroke-linecap="round" stroke-linejoin="round" stroke-miterlimit="10" stroke-width="1.5"/>
      <path id="Rectangle_2751" data-name="Rectangle 2751" d="M.716,0h2.2a.715.715,0,0,1,.716.715v2.2a.715.715,0,0,1-.715.715H.716A.716.716,0,0,1,0,2.917V.716A.716.716,0,0,1,.716,0Z" transform="matrix(0.97, -0.245, 0.245, 0.97, 141.864, 77.461)" fill="none" stroke="#060816" stroke-linecap="round" stroke-linejoin="round" stroke-miterlimit="10" stroke-width="1.5"/>
      <path id="Rectangle_2751-2" data-name="Rectangle 2751" d="M.716,0h2.2a.715.715,0,0,1,.716.715v2.2a.715.715,0,0,1-.715.715H.716A.716.716,0,0,1,0,2.917V.716A.716.716,0,0,1,.716,0Z" transform="matrix(0.97, -0.245, 0.245, 0.97, 148.461, 75.461)" fill="none" stroke="#060816" stroke-linecap="round" stroke-linejoin="round" stroke-miterlimit="10" stroke-width="1.5"/>
      <path id="Rectangle_2752" data-name="Rectangle 2752" d="M.824,0H2.806a.825.825,0,0,1,.825.825V2.807a.824.824,0,0,1-.824.824H.824A.824.824,0,0,1,0,2.807V.824A.824.824,0,0,1,.824,0Z" transform="matrix(0.97, -0.245, 0.245, 0.97, 130.358, 87.487)" fill="none" stroke="#060816" stroke-linecap="round" stroke-linejoin="round" stroke-miterlimit="10" stroke-width="1.5"/>
      <path id="Rectangle_2753" data-name="Rectangle 2753" d="M.824,0H2.807a.823.823,0,0,1,.824.823V2.807a.824.824,0,0,1-.824.824H.824A.824.824,0,0,1,0,2.807V.824A.824.824,0,0,1,.824,0Z" transform="matrix(0.97, -0.245, 0.245, 0.97, 136.957, 85.819)" fill="none" stroke="#060816" stroke-linecap="round" stroke-linejoin="round" stroke-miterlimit="10" stroke-width="1.5"/>
      <path id="Rectangle_2754" data-name="Rectangle 2754" d="M.824,0H2.807a.823.823,0,0,1,.824.823V2.807a.824.824,0,0,1-.824.824H.824A.824.824,0,0,1,0,2.807V.824A.824.824,0,0,1,.824,0Z" transform="matrix(0.97, -0.245, 0.245, 0.97, 143.555, 84.155)" fill="none" stroke="#060816" stroke-linecap="round" stroke-linejoin="round" stroke-miterlimit="10" stroke-width="1.5"/>
      <path id="Rectangle_2755" data-name="Rectangle 2755" d="M.824,0H2.806a.825.825,0,0,1,.825.825V2.807a.824.824,0,0,1-.824.824H.824A.824.824,0,0,1,0,2.807V.824A.824.824,0,0,1,.824,0Z" transform="matrix(0.97, -0.245, 0.245, 0.97, 150.152, 82.491)" fill="none" stroke="#060816" stroke-linecap="round" stroke-linejoin="round" stroke-miterlimit="10" stroke-width="1.5"/>
      <line id="Line_55" data-name="Line 55" y2="9.912" transform="translate(124.225)" fill="none" stroke="#060816" stroke-linecap="round" stroke-miterlimit="10" stroke-width="2"/>
      <line id="Line_56" data-name="Line 56" y2="9.912" transform="translate(106.23)" fill="none" stroke="#060816" stroke-linecap="round" stroke-miterlimit="10" stroke-width="2"/>
      <line id="Line_57" data-name="Line 57" y2="9.912" transform="translate(87.348)" fill="none" stroke="#060816" stroke-linecap="round" stroke-miterlimit="10" stroke-width="2"/>
      <line id="Line_58" data-name="Line 58" y2="9.912" transform="translate(68.467)" fill="none" stroke="#060816" stroke-linecap="round" stroke-miterlimit="10" stroke-width="2"/>
      <line id="Line_59" data-name="Line 59" y2="9.912" transform="translate(50.988)" fill="none" stroke="#060816" stroke-linecap="round" stroke-miterlimit="10" stroke-width="2"/>
      <path id="Path_10800" data-name="Path 10800" d="M38.708,67.275a29.574,29.574,0,0,0,2.257-10.884c.018-1.189-.17-2.6-1.226-3.152a2.108,2.108,0,0,0-2.8,1.467A3.219,3.219,0,0,0,38.25,57.88,7.206,7.206,0,0,0,41.635,59.1a19.659,19.659,0,0,0,2.773.212,3.561,3.561,0,0,1,3.574,3.566v.041a1.54,1.54,0,0,0,1.787,1.742c3.867.35,7.616-1.045,11.061-2.947a3.4,3.4,0,0,1,3.706.158,6.763,6.763,0,0,0,3.948,1.2c3.081.028,5.985-1.192,8.756-2.614a3.533,3.533,0,0,1,3.257.093,5.742,5.742,0,0,0,7.008-1.4" transform="translate(12.455 13.097)" fill="none" stroke="#060816" stroke-linecap="round" stroke-linejoin="round" stroke-miterlimit="10" stroke-width="2"/>
      <path id="Path_10801" data-name="Path 10801" d="M40.775,30.407a12.252,12.252,0,0,0,1.236-4.668c.105-1.761-.459-3.911-2.295-4.242a2.5,2.5,0,0,0-2.491,1.139c-1.12,1.743-.169,3.857,1.385,4.887a7.282,7.282,0,0,0,4.255,1.008,12.989,12.989,0,0,0,4.575-.987,12.386,12.386,0,0,1,9.02-.344,9.6,9.6,0,0,0,4.727.445c3.361-.532,6.337-2.392,9.473-3.715a2.257,2.257,0,0,1,1.3-.253,3.061,3.061,0,0,1,1.2.767c2.8,2.241,6.869.853,10.457.835a12.914,12.914,0,0,1,6.563,1.766" transform="translate(12.425 4.924)" fill="none" stroke="#060816" stroke-linecap="round" stroke-linejoin="round" stroke-miterlimit="10" stroke-width="2"/>
      <path id="Path_10802" data-name="Path 10802" d="M36.953,44.851c2.874-1.619,5.059-5.119,8.348-4.862,3.268.256,5.117,4.164,8.28,5.034a7.12,7.12,0,0,0,5.361-1.044c1.615-.946,3-2.226,4.555-3.272a3.667,3.667,0,0,1,1.841-.76A4.684,4.684,0,0,1,68.054,41.2,16.384,16.384,0,0,0,83.3,43.077a2.684,2.684,0,0,1,1.4-.3,3.331,3.331,0,0,1,1.4.9,4.929,4.929,0,0,0,5.263.525" transform="translate(12.481 9.705)" fill="none" stroke="#060816" stroke-linecap="round" stroke-linejoin="round" stroke-miterlimit="10" stroke-width="2"/>
      <path id="Path_10825" data-name="Path 10825" d="M21.114,46.925A10.585,10.585,0,0,0,.058,49.115c.609,5.811,6.561,17.151,12.37,16.557s9.293-12.933,8.683-18.743M11.036,52.754A5.079,5.079,0,1,1,14.479,50.9a5.1,5.1,0,0,1-3.442,1.856" transform="translate(0.863 3.343)" fill="none" stroke="#060816" stroke-linecap="round" stroke-linejoin="round" stroke-miterlimit="10" stroke-width="2"/>
    </g>
  </g>
</svg>
