<svg xmlns="http://www.w3.org/2000/svg" width="200" height="123.53" viewBox="0 0 200 123.53">
  <g id="Lock_2" data-name="Lock 2" transform="translate(0 -2)">
    <rect id="Container" width="200" height="123.529" transform="translate(0 2)" fill="none"/>
    <path id="Shape" d="M223.04,237.725c24.713.882,47.482,12.99,56,34.9,9.646,24.813,7.185,54.3-15.111,70.288-23.6,16.929-56.245,14.427-80.416-1.765-25.082-16.807-41.684-45.741-31.25-73.051,9.722-25.437,42.143-31.4,70.774-30.372" transform="translate(-117.949 -228.975)" fill="#eaeaea"/>
    <g id="Lock_2-2" data-name="Lock 2" transform="translate(27.474 12.923)">
      <path id="Path_11017" data-name="Path 11017" d="M85.368,55.775V43.857a29.405,29.405,0,0,1,57.543-8.108,4.152,4.152,0,1,1-7.947,2.411,21.1,21.1,0,0,0-41.293,5.767v4.2" transform="translate(-41.702 -14.873)" fill="none" stroke="#060816" stroke-linecap="round" stroke-linejoin="round" stroke-width="2"/>
      <path id="Path_11018" data-name="Path 11018" d="M111.669,58.149c-31.219,0-41.625,8.5-41.625,33.986s10.409,33.985,41.625,33.985,41.634-8.5,41.634-33.986S142.86,58.149,111.669,58.149Zm5.221,41.992a2.546,2.546,0,0,1-2.466,3.162H108.93a2.546,2.546,0,0,1-2.471-3.162l1.725-6.787a6.014,6.014,0,1,1,6.985,0Z" transform="translate(-39.148 -22.085)" fill="none" stroke="#060816" stroke-miterlimit="10" stroke-width="2"/>
      <path id="Path_11019" data-name="Path 11019" d="M32.968,65.573c8.062.692,16.451,1.488,23.358,5.7,2.009,1.226,4.059,3.223,3.645,5.54-.462,2.591-3.568,3.629-6.163,4.06-1.75.29-4.021.268-4.727-1.358A2.758,2.758,0,0,1,50,76.472a7.031,7.031,0,0,1,3.107-1.314c13.636-3.076,28.814,3.485,42.031-2.4,6.354-2.832,10.784-8.395,14.3-14.546" transform="translate(-32.968 -22.095)" fill="none" stroke="#060816" stroke-linecap="round" stroke-linejoin="round" stroke-width="1"/>
      <path id="Path_11020" data-name="Path 11020" d="M162.632,97.646c-.338-.032-.676-.052-1.013-.061-9.6-.221-17.161,7.776-23.195,15.246-4.876,6.037-9.771,12.421-12.412,19.623" transform="translate(-48.475 -28.657)" fill="none" stroke="#060816" stroke-linecap="round" stroke-linejoin="round" stroke-width="1"/>
      <path id="Path_11021" data-name="Path 11021" d="M194.592,81.851a22.357,22.357,0,0,1-12.908-3.315c-3.371-2.059-11.389-8.481-8.062-13.268a3.922,3.922,0,0,1,1.746-1.324c2.426-1.009,7.721.069,5.166,3.542-1.895,2.574-5.45,4.574-8.319,5.888-7.353,3.368-14.2,6.208-19.7,12.37-3.957,4.434-7.012,10.612-5.024,16.213,1.691,4.756,6.662,7.712,11.646,8.506a18.382,18.382,0,0,0,4.223.186" transform="translate(-51.951 -22.991)" fill="none" stroke="#060816" stroke-linecap="round" stroke-linejoin="round" stroke-width="1"/>
      <path id="Path_11022" data-name="Path 11022" d="M167.078,39.316a13.464,13.464,0,0,1,4,6.418,51.148,51.148,0,0,1,7.712-13.27,23.858,23.858,0,0,1,2.329-2.524" transform="translate(-55.32 -17.384)" fill="none" stroke="#060816" stroke-linecap="round" stroke-linejoin="round" stroke-width="2"/>
      <path id="Path_11023" data-name="Path 11023" d="M61.025,46.17a10.074,10.074,0,0,1,4.794,3.006,38.314,38.314,0,0,1,.835-11.459,17.876,17.876,0,0,1,.735-2.462" transform="translate(-37.644 -18.269)" fill="none" stroke="#060816" stroke-linecap="round" stroke-linejoin="round" stroke-width="2"/>
    </g>
  </g>
</svg>
