<svg xmlns="http://www.w3.org/2000/svg" width="200" height="168" viewBox="0 0 200 168">
  <g id="Illustration_Orders_Settings" data-name="Illustration_Orders Settings" transform="translate(-1084 -1211)">
    <path id="Shape" d="M74.565,15.84C103.933,5.006,131.1,27.92,151.64,51.54c20.564,23.643,40.888,54.5,24.732,81.349-16.136,26.815-52.9,23.2-83.379,16.11-30.257-7.037-62.782-20.325-67.041-51.1C21.134,63.085,41.588,28,74.565,15.84" transform="translate(1084 1211)" fill="#eaeaea"/>
    <rect id="Container" width="200" height="168" transform="translate(1084 1211)" fill="none"/>
    <g id="Illustarion" transform="translate(11.749 14.474)">
      <g id="Gear" transform="translate(1199.058 1227.973)">
        <ellipse id="Ellipse_98" data-name="Ellipse 98" cx="12.504" cy="12.504" rx="12.504" ry="12.504" transform="translate(6.259 6.257)" fill="none" stroke="#4b4b4b" stroke-linecap="round" stroke-linejoin="round" stroke-width="1.5"/>
        <ellipse id="Ellipse_99" data-name="Ellipse 99" cx="3.864" cy="3.864" rx="3.864" ry="3.864" transform="translate(14.898 14.897)" fill="none" stroke="#4b4b4b" stroke-linecap="round" stroke-linejoin="round" stroke-width="1.5"/>
        <path id="Path_10814" data-name="Path 10814" d="M140.68,24.116l.148-4.488h5.146l.148,4.488" transform="translate(-124.639 -19.63)" fill="none" stroke="#4b4b4b" stroke-linecap="round" stroke-linejoin="round" stroke-width="1.5"/>
        <path id="Path_10815" data-name="Path 10815" d="M140.68,68.674l.148,4.488h5.146l.148-4.488" transform="translate(-124.639 -35.638)" fill="none" stroke="#4b4b4b" stroke-linecap="round" stroke-linejoin="round" stroke-width="1.5"/>
        <path id="Path_10816" data-name="Path 10816" d="M156.848,28.154l3.278-3.068,3.639,3.639L160.7,32" transform="translate(-129.916 -21.411)" fill="none" stroke="#4b4b4b" stroke-linecap="round" stroke-linejoin="round" stroke-width="1.5"/>
        <path id="Path_10817" data-name="Path 10817" d="M125.391,59.61l-3.068,3.278,3.639,3.639,3.278-3.068" transform="translate(-118.647 -32.68)" fill="none" stroke="#4b4b4b" stroke-linecap="round" stroke-linejoin="round" stroke-width="1.5"/>
        <path id="Path_10818" data-name="Path 10818" d="M165.912,43.442l4.488.148v5.146l-4.488.148" transform="translate(-132.874 -27.402)" fill="none" stroke="#4b4b4b" stroke-linecap="round" stroke-linejoin="round" stroke-width="1.5"/>
        <path id="Path_10819" data-name="Path 10819" d="M121.353,43.442l-4.488.148v5.146l4.488.148" transform="translate(-116.866 -27.402)" fill="none" stroke="#4b4b4b" stroke-linecap="round" stroke-linejoin="round" stroke-width="1.5"/>
        <path id="Path_10820" data-name="Path 10820" d="M160.7,59.61l3.068,3.278-3.639,3.639-3.278-3.068" transform="translate(-129.916 -32.68)" fill="none" stroke="#4b4b4b" stroke-linecap="round" stroke-linejoin="round" stroke-width="1.5"/>
        <path id="Path_10821" data-name="Path 10821" d="M129.24,28.154l-3.278-3.068-3.639,3.639L125.391,32" transform="translate(-118.647 -21.411)" fill="none" stroke="#4b4b4b" stroke-linecap="round" stroke-linejoin="round" stroke-width="1.5"/>
      </g>
      <g id="Group_15087" data-name="Group 15087" transform="translate(1105.572 1259.584)">
        <path id="Path_10826" data-name="Path 10826" d="M88.991,5.091A4.091,4.091,0,1,1,84.9,1,4.091,4.091,0,0,1,88.991,5.091Z" transform="translate(-19.058 -1)" fill="none" stroke="#4b4b4b" stroke-linecap="round" stroke-linejoin="round" stroke-width="1.5"/>
        <path id="Path_10827" data-name="Path 10827" d="M33.773,70.183a37.569,37.569,0,0,1-17.651-4.361c-2.679-1.495-5.138-5.681-1.206-7.642,2.773-1.38,4.924.589,5.065,3.52C20.436,71.137,9.033,80.977,1,83.75c0,0,5.757.077,8.832.083,2.815.005,5.629,0,8.443,0H132.74c-24.453-13.318-14.676-41.361-5.051-33.581,13.662,12.112-76.039,24.376-100.571,2.411-16-14.325,12.244-35.1,39.725-35.1,18.441,0,45.921,8.182,46.446,28.278" transform="translate(-1 -4.746)" fill="none" stroke="#4b4b4b" stroke-linecap="round" stroke-linejoin="round" stroke-width="1.5"/>
        <path id="Path_10829" data-name="Path 10829" d="M40,14.183a7.3,7.3,0,0,0-9.747-7.888A3.367,3.367,0,0,0,28.564,7.47a1.651,1.651,0,0,0,0,1.944,1.794,1.794,0,0,0,1.069.542,3.074,3.074,0,0,0,3.421-3.138c-.176-2.095-2.42-3.333-4.446-3.893" transform="translate(-7.166 -1.435)" fill="none" stroke="#4b4b4b" stroke-linecap="round" stroke-linejoin="round" stroke-width="1.5"/>
        <path id="Path_10830" data-name="Path 10830" d="M34.229,37.76c5.244,1.68,10.126,4.4,15.226,6.516,15.4,6.4,33.45,7.128,48.655.268,5.737-2.588,10.975-6.172,16.437-9.294" transform="translate(-8.518 -8.749)" fill="none" stroke="#4b4b4b" stroke-linecap="round" stroke-linejoin="round" stroke-width="1.5"/>
        <path id="Path_10831" data-name="Path 10831" d="M29.883,47.044A177.788,177.788,0,0,0,50.54,42.09a89.213,89.213,0,0,0,32.55-19.021c1.337-1.227,2.642-2.5,3.877-3.84" transform="translate(-7.535 -5.123)" fill="none" stroke="#4b4b4b" stroke-linecap="round" stroke-linejoin="round" stroke-width="1.5"/>
        <path id="Path_10832" data-name="Path 10832" d="M8.832,36.825c-1.8.511-2.775,2.523-2.88,4.389-.114,2,.7,4.215,2.515,5.055a3.729,3.729,0,0,0,4.205-.853,2.694,2.694,0,0,0,.557-2.944,1.773,1.773,0,0,0-2.678-.565" transform="translate(-2.118 -9.105)" fill="none" stroke="#4b4b4b" stroke-linecap="round" stroke-linejoin="round" stroke-width="1.5"/>
        <path id="Path_10833" data-name="Path 10833" d="M167.673,35.45c-1.494.425-2.307,2.1-2.395,3.649a4.289,4.289,0,0,0,2.092,4.2,3.1,3.1,0,0,0,3.5-.709,2.24,2.24,0,0,0,.464-2.449,1.475,1.475,0,0,0-2.227-.469" transform="translate(-38.167 -8.794)" fill="none" stroke="#4b4b4b" stroke-linecap="round" stroke-linejoin="round" stroke-width="1.5"/>
      </g>
    </g>
  </g>
</svg>
