<svg xmlns="http://www.w3.org/2000/svg" width="200" height="123.53" viewBox="0 0 200 123.53">
  <g id="Order_bell" data-name="Order bell" transform="translate(-56 -273)">
    <rect id="Container" width="200" height="123.53" transform="translate(56 273)" fill="none"/>
    <path id="Path_11260" data-name="Path 11260" d="M77.465,3.146c22.355,1.526,39.932,22,54.167,37.32,7.034,7.569,12.547,18.027,9.788,27.983-1.62,5.843-5.87,10.605-10.527,14.489-10.981,9.158-24.635,14.5-38.386,18.425-17.705,5.045-37.3,7.825-54.064.222C16.658,91.7,5.212,64.07,12.623,41.326c4.1-12.6,13.53-22.984,25.039-29.335,12.866-7.1,23.074-10.164,39.8-8.842" transform="translate(85.065 281.621)" fill="#eaeaea"/>
    <g id="Group_15423" data-name="Group 15423" transform="translate(-10)">
      <path id="Path_11253" data-name="Path 11253" d="M125.239,74.533q.207,2.2.209,4.5H28.022c0-26.9,21.81-44.013,48.713-44.013,16.229,0,30.6,6.225,39.457,17.072" transform="translate(87.885 285.171)" fill="none" stroke="#060816" stroke-linecap="round" stroke-linejoin="round" stroke-width="2"/>
      <path id="Path_11254" data-name="Path 11254" d="M112.633,58.064a42.348,42.348,0,0,1,3.776,14.065" transform="translate(96.715 287.576)" fill="none" stroke="#060816" stroke-linecap="round" stroke-linejoin="round" stroke-width="2"/>
      <rect id="Rectangle_2973" data-name="Rectangle 2973" width="22.72" height="7.573" rx="3.786" transform="translate(153.26 305.437)" fill="none" stroke="#060816" stroke-linecap="round" stroke-linejoin="round" stroke-width="2"/>
      <line id="Line_91" data-name="Line 91" y1="6.195" transform="translate(159.941 313.008)" fill="none" stroke="#060816" stroke-linecap="round" stroke-linejoin="round" stroke-width="2"/>
      <line id="Line_92" data-name="Line 92" y1="6.195" transform="translate(169.177 313.008)" fill="none" stroke="#060816" stroke-linecap="round" stroke-linejoin="round" stroke-width="2"/>
      <path id="Path_11255" data-name="Path 11255" d="M137.82,87.728H17.787V86.262A11.387,11.387,0,0,1,29.175,74.875h97.255A11.388,11.388,0,0,1,137.82,86.262Z" transform="translate(86.817 289.331)" fill="none" stroke="#060816" stroke-linecap="round" stroke-linejoin="round" stroke-width="2"/>
      <path id="Path_11256" data-name="Path 11256" d="M103.088,61.391a28.022,28.022,0,0,1,16.966-8.162c3.428-.33,7.678.453,8.681,2.964.6,1.51-.341,3.272-2.112,4.1a6.8,6.8,0,0,1-5.86-.245A7.748,7.748,0,0,1,117.6,55.93c-2.773-6.671-.706-13.53,7.788-17.477" transform="translate(95.719 285.53)" fill="none" stroke="#060816" stroke-linecap="round" stroke-linejoin="round" stroke-width="2"/>
      <path id="Path_11257" data-name="Path 11257" d="M50.516,25.335c-.633-5.912-8.717-15.753-15.337-15a4.739,4.739,0,0,0-4.051,4.073,2.8,2.8,0,0,0,1.357,2.908,2.441,2.441,0,0,0,1.958-.084c1.664-.756,2.381-2.807,2.264-4.632-.213-3.3-2.56-6.165-5.391-7.875A32,32,0,0,0,19.39,1" transform="translate(86.984 281.621)" fill="none" stroke="#060816" stroke-linecap="round" stroke-linejoin="round" stroke-width="2"/>
      <path id="Path_11258" data-name="Path 11258" d="M1,40.4C2.828,44.627,4.838,49,8.449,51.867s9.316,3.633,12.664.466c1.388-1.314,2.226-3.441,1.421-5.176a4.473,4.473,0,0,0-3.2-2.3,2.92,2.92,0,0,0-1.708.063c-1.42.586-1.57,2.538-1.281,4.047A17.112,17.112,0,0,0,26.354,61.3c3.642,1.526,7.689,1.723,11.638,1.755,2.633.021,5.717-.261,7.121-2.487" transform="translate(85.065 285.733)" fill="none" stroke="#060816" stroke-linecap="round" stroke-linejoin="round" stroke-width="2"/>
      <path id="Path_11259" data-name="Path 11259" d="M108.5,1.113C103.95,2.758,99.158,4.807,96.355,9.17A7.586,7.586,0,0,0,94.979,13.4,3.813,3.813,0,0,0,97.2,16.92a2.642,2.642,0,0,0,3.4-1.855A2.943,2.943,0,0,0,99.54,12.4a6.31,6.31,0,0,0-2.632-1.2c-2.324-.59-4.779-.623-6.531,1.383a11.129,11.129,0,0,0-2.244,6.673" transform="translate(94.158 281.633)" fill="none" stroke="#060816" stroke-linecap="round" stroke-linejoin="round" stroke-width="2"/>
    </g>
  </g>
</svg>
