<svg xmlns="http://www.w3.org/2000/svg" width="200" height="123.531" viewBox="0 0 200 123.531">
  <g id="Phone" transform="translate(0 0.001)">
    <rect id="Container" width="200" height="123.53" transform="translate(0 0)" fill="none"/>
    <path id="Shape" d="M188.881,239.483c-10.192,29.632-11.7,50.255,11.851,66.8,22.654,15.922,52.53,7.169,74.512-9.671,20.074-15.379,30.164-40.617,22.677-64.775-7.817-25.2-31.939-41.931-58.975-40.636S199.074,209.846,188.881,239.483Z" transform="translate(-140.956 -191.137)" fill="#eaeaea"/>
    <g id="Phone-2" data-name="Phone" transform="translate(51.488 11.029)">
      <path id="Path_11285" data-name="Path 11285" d="M26.193,60.109C-4.6,29.314-.215,15.215,3.033,10.672c.4-.732,10.69-16.117,21.706-7.093,27.338,22.517-7.279,19.335,15.683,42.3s19.783-11.653,42.3,15.684c9.024,11.02-6.36,21.3-7.089,21.708C71.091,86.517,56.988,90.906,26.193,60.109Z" transform="translate(-0.751 -0.75)" fill="none" stroke="#060816" stroke-linecap="round" stroke-linejoin="round" stroke-width="2"/>
      <path id="Path_11286" data-name="Path 11286" d="M55.213,56.394c.655,2.135,1.551,4.38,3.427,5.593s4.963.692,5.58-1.455c-.094-.975-1.552-1.294-2.292-.652a2.848,2.848,0,0,0-.649,2.724A6.036,6.036,0,0,0,70.4,66.548c1.22-.761,2.057-2.738.836-3.5a1.964,1.964,0,0,0-2.014.189,4.494,4.494,0,0,0-1.909,4.229,6.871,6.871,0,0,0,2.253,4.218,6.429,6.429,0,0,0,3.59,1.81,3.963,3.963,0,0,0,3.628-1.45A.892.892,0,0,0,77,71.471c-.049-.6-.925-.62-1.493-.426-7.941,2.721-11.677,12.488,2.936,15.211" transform="translate(0.017 71.429) rotate(-39)" fill="none" stroke="#060816" stroke-linecap="round" stroke-linejoin="round" stroke-width="2"/>
      <path id="Path_11287" data-name="Path 11287" d="M4.232,5.229a26.156,26.156,0,0,1,3.8,18.291A79.41,79.41,0,0,1,4.94,33.848" transform="translate(0.768 1.205)" fill="none" stroke="#060816" stroke-linecap="round" stroke-linejoin="round" stroke-width="2"/>
      <path id="Path_11288" data-name="Path 11288" d="M21.2,44.974a34.118,34.118,0,0,1,6.239-.746A29.1,29.1,0,0,1,37.484,45.4C45.425,48,51.381,56.01,51.17,64.361q-.013.457-.049.912" transform="translate(8.17 18.206)" fill="none" stroke="#060816" stroke-linecap="round" stroke-linejoin="round" stroke-width="2"/>
    </g>
  </g>
</svg>
