<svg xmlns="http://www.w3.org/2000/svg" width="196" height="197.089" viewBox="0 0 196 197.089">
  <g id="Female" transform="translate(-917 -2284)">
    <rect id="Container" width="196" height="196" transform="translate(917 2284)" fill="none"/>
    <g id="Female-2" data-name="Female" transform="translate(959.105 2312.368)">
      <path id="Path_11454" data-name="Path 11454" d="M45.349,111.316c8.3-9.59,30.161-22.725,30.161-22.725l-.5-16.542,9.379,13.307c6.337-1.183,9.492-2.365,15.829-3.547,1.294-5.044,3.565-10.908,5.309-15.814l5.8,15.829c11.184-1.852,24.717,2.863,33.445,10.1" transform="translate(-35.074 -22.115)" fill="none" stroke="#0f111c" stroke-linecap="round" stroke-linejoin="round" stroke-width="2"/>
      <path id="Path_11455" data-name="Path 11455" d="M45.672,113.3c-7.688-18.923-4.38-41.894,11.621-55.888,19.049-16.66,45.146-18.569,64.851-3.783,12.2,9.155,21.3,23,23.815,38.138" transform="translate(-35.398 -24.102)" fill="none" stroke="#0f111c" stroke-linecap="round" stroke-linejoin="round" stroke-width="2"/>
      <path id="Path_11456" data-name="Path 11456" d="M50.47,61.368c-7.939-10.715-.431-25.715,9.705-31.808,12.143-7.3,32.564-4.663,35.595,11.4" transform="translate(-34.915 -25.697)" fill="none" stroke="#0f111c" stroke-linecap="round" stroke-linejoin="round" stroke-width="2"/>
      <path id="Path_11457" data-name="Path 11457" d="M85.293,129.065a13.108,13.108,0,0,0,6.843,3.47,8.736,8.736,0,0,0,7.226-2.1" transform="translate(-31.524 -16.508)" fill="none" stroke="#0f111c" stroke-linecap="round" stroke-linejoin="round" stroke-width="2"/>
      <path id="Path_11458" data-name="Path 11458" d="M132.381,95.374c.98-1.338,2.918-4.728,5.674-6.125a4.441,4.441,0,0,1,4.7.318,5.469,5.469,0,0,1,1.564,2.507,14.4,14.4,0,0,1-9.8,18.69" transform="translate(-27.338 -20.094)" fill="none" stroke="#0f111c" stroke-linecap="round" stroke-linejoin="round" stroke-width="2"/>
      <path id="Path_11459" data-name="Path 11459" d="M135.644,98.4a6.208,6.208,0,0,1,2.044-2.164,2.128,2.128,0,0,1,2.71.436" transform="translate(-27.048 -19.452)" fill="none" stroke="#0f111c" stroke-linecap="round" stroke-linejoin="round" stroke-width="2"/>
      <path id="Path_11460" data-name="Path 11460" d="M137.926,97.306a3.745,3.745,0,0,1-.333,5.077" transform="translate(-26.875 -19.332)" fill="none" stroke="#0f111c" stroke-linecap="round" stroke-linejoin="round" stroke-width="2"/>
      <path id="Path_11461" data-name="Path 11461" d="M44.314,102.63c-4.881,0-6.821,4.211-7.313,5.094a9.74,9.74,0,0,0-1.052,4.161,15.942,15.942,0,0,0,2.625,10.139,11.53,11.53,0,0,0,8.981,5.011,9.426,9.426,0,0,0,6.776-2.784" transform="translate(-35.913 -18.858)" fill="none" stroke="#0f111c" stroke-linecap="round" stroke-linejoin="round" stroke-width="2"/>
      <path id="Path_11462" data-name="Path 11462" d="M45.771,113.632a5.814,5.814,0,0,0-2.7-.686,1.99,1.99,0,0,0-1.922,1.7" transform="translate(-35.448 -17.942)" fill="none" stroke="#0f111c" stroke-linecap="round" stroke-linejoin="round" stroke-width="2"/>
      <path id="Path_11463" data-name="Path 11463" d="M43.169,114a3.5,3.5,0,0,0,2.806,3.844" transform="translate(-35.271 -17.848)" fill="none" stroke="#0f111c" stroke-linecap="round" stroke-linejoin="round" stroke-width="2"/>
      <path id="Path_11464" data-name="Path 11464" d="M45.349,107.616c15.207,38.114,38.028,40.628,54.573,39.666,20.412-1.187,43.657-15.177,41.537-38.2" transform="translate(-35.074 -18.415)" fill="none" stroke="#0f111c" stroke-linecap="round" stroke-linejoin="round" stroke-width="2"/>
      <path id="Path_11465" data-name="Path 11465" d="M45.743,109.054c5.362,11.674,14.274,20.608,9.545,36.547" transform="translate(-35.039 -18.287)" fill="none" stroke="#0f111c" stroke-linecap="round" stroke-linejoin="round" stroke-width="2"/>
      <path id="Path_11466" data-name="Path 11466" d="M132.236,87.651c.221,14.949.565,30.446,7.057,43.915" transform="translate(-27.351 -20.19)" fill="none" stroke="#0f111c" stroke-linecap="round" stroke-linejoin="round" stroke-width="2"/>
      <path id="Path_11467" data-name="Path 11467" d="M94.564,108.131s3.586,12.537-1.418,11.7" transform="translate(-30.826 -18.369)" fill="none" stroke="#0f111c" stroke-linecap="round" stroke-linejoin="round" stroke-width="2"/>
      <path id="Path_11468" data-name="Path 11468" d="M111.325,105.062a2.7,2.7,0,1,1-2.952-2.418A2.7,2.7,0,0,1,111.325,105.062Z" transform="translate(-29.688 -18.858)" fill="none" stroke="#0f111c" stroke-linecap="round" stroke-linejoin="round" stroke-width="2"/>
      <path id="Path_11469" data-name="Path 11469" d="M81.238,107.57a2.7,2.7,0,1,1-2.952-2.418A2.7,2.7,0,0,1,81.238,107.57Z" transform="translate(-32.363 -18.635)" fill="none" stroke="#0f111c" stroke-linecap="round" stroke-linejoin="round" stroke-width="2"/>
      <path id="Path_11470" data-name="Path 11470" d="M103.731,93.294s3.717,3.724,12.6,1.35" transform="translate(-29.885 -19.688)" fill="none" stroke="#0f111c" stroke-linecap="round" stroke-linejoin="round" stroke-width="2"/>
      <path id="Path_11471" data-name="Path 11471" d="M81.357,98.515s-7.108-2.446-12.055,6.238" transform="translate(-32.945 -19.252)" fill="none" stroke="#0f111c" stroke-linecap="round" stroke-linejoin="round" stroke-width="2"/>
      <path id="Path_11472" data-name="Path 11472" d="M71.484,46.919C68.494,44.7,66.138,40.6,66.59,36.784c.189-1.6,1.2-3.4,2.974-3.517a3.772,3.772,0,0,1,3.561,2.777" transform="translate(-33.191 -25.024)" fill="none" stroke="#0f111c" stroke-linecap="round" stroke-linejoin="round" stroke-width="2"/>
      <path id="Path_11473" data-name="Path 11473" d="M71.652,46.7c-2.063-2.429-4.5-5.268-7.6-6.356-1.691-.593-5.087-.946-6.422,1.111-1.742,2.683,2.486,5.344,4.3,4.283" transform="translate(-34.02 -24.436)" fill="none" stroke="#0f111c" stroke-linecap="round" stroke-linejoin="round" stroke-width="2"/>
      <path id="Path_11474" data-name="Path 11474" d="M104.979,155.077c0-2.757-.366-9.7-.368-12.458" transform="translate(-29.807 -15.304)" fill="none" stroke="#0f111c" stroke-linecap="round" stroke-linejoin="round" stroke-width="2"/>
      <path id="Path_11475" data-name="Path 11475" d="M83.788,143.735c.359,3.705.377,7.521.736,11.242" transform="translate(-31.658 -15.204)" fill="none" stroke="#0f111c" stroke-linecap="round" stroke-linejoin="round" stroke-width="2"/>
      <path id="Path_11476" data-name="Path 11476" d="M111.127,146.777a4,4,0,0,1,2.483,3.275c0,3.22-5.665,5.92-13.3,6.65-1.327.126-2.05,7.521-3.478,7.521-1.053,0-2.748-7.364-3.75-7.434a43.886,43.886,0,0,1-12.545-2.632,3.78,3.78,0,0,1,.011-6.981" transform="translate(-32.153 -14.934)" fill="none" stroke="#0f111c" stroke-linecap="round" stroke-linejoin="round" stroke-width="2"/>
      <path id="Path_11477" data-name="Path 11477" d="M78.379,149.785s-4.457,12.908,0,18.839c0,0,3.406,4.767,17.7,4.726,12.046-.034,17.7-4.726,17.7-4.726,4.457-5.931,0-18.839,0-18.839" transform="translate(-32.315 -14.667)" fill="none" stroke="#0f111c" stroke-linecap="round" stroke-linejoin="round" stroke-width="2"/>
      <path id="Path_11478" data-name="Path 11478" d="M112.539,160.6c9.346.174,18.435,4.05,19.987,20.732" transform="translate(-29.102 -13.705)" fill="none" stroke="#0f111c" stroke-linecap="round" stroke-linejoin="round" stroke-width="2"/>
      <path id="Path_11479" data-name="Path 11479" d="M77.7,160.6c-9.346.174-18.435,4.05-19.987,20.732" transform="translate(-33.975 -13.705)" fill="none" stroke="#0f111c" stroke-linecap="round" stroke-linejoin="round" stroke-width="2"/>
    </g>
  </g>
</svg>
