<svg xmlns="http://www.w3.org/2000/svg" width="200" height="123.529" viewBox="0 0 200 123.529">
  <g id="Gift" transform="translate(-56 -176)">
    <rect id="Container" width="200" height="123.529" transform="translate(56 176)" fill="none"/>
    <path id="Shape" d="M86.047,2.41c25.6-9.443,49.275,10.532,67.182,31.12,17.924,20.608,35.64,47.506,21.557,70.907-14.065,23.373-46.107,20.221-72.676,14.044-26.373-6.134-54.724-17.716-58.435-44.537C39.474,43.59,57.3,13.015,86.047,2.41" transform="translate(44.601 176)" fill="#eaeaea"/>
    <g id="Gift-2" data-name="Gift" transform="translate(85.515 190.913)">
      <path id="Path_11088" data-name="Path 11088" d="M161.471,86.5a59,59,0,0,1,1.17,12.6c0,25.485-10.419,33.985-41.64,33.985s-41.625-8.5-41.625-33.985a56.409,56.409,0,0,1,1.438-13.75" transform="translate(-50.524 -37.506)" fill="none" stroke="#060816" stroke-linecap="round" stroke-linejoin="round" stroke-width="2"/>
      <path id="Path_11089" data-name="Path 11089" d="M108.374,75.712H75.91a5.607,5.607,0,0,1-5.61-5.607V68.268a5.536,5.536,0,0,1,5.185-5.607h85.4a5.714,5.714,0,0,1,6.029,5.607v1.838a5.606,5.606,0,0,1-5.607,5.607H128.172" transform="translate(-48.124 -31.499)" fill="none" stroke="#060816" stroke-linecap="round" stroke-linejoin="round" stroke-width="2"/>
      <path id="Path_11090" data-name="Path 11090" d="M79.7,97.5h82.89" transform="translate(-50.612 -40.721)" fill="none" stroke="#060816" stroke-linecap="round" stroke-linejoin="round" stroke-width="2"/>
      <path id="Path_11091" data-name="Path 11091" d="M162.363,115.247H79.981" transform="translate(-50.687 -45.419)" fill="none" stroke="#060816" stroke-linecap="round" stroke-linejoin="round" stroke-width="2"/>
      <line id="Line_27" data-name="Line 27" x2="1.024" y2="21.854" transform="translate(75.984 73.588)" fill="none" stroke="#060816" stroke-linecap="round" stroke-linejoin="round" stroke-width="2"/>
      <line id="Line_28" data-name="Line 28" x2="1.183" y2="21.424" transform="translate(74.802 31.164)" fill="none" stroke="#060816" stroke-linecap="round" stroke-linejoin="round" stroke-width="2"/>
      <line id="Line_29" data-name="Line 29" y1="21.424" x2="1.183" transform="translate(64.984 31.164)" fill="none" stroke="#060816" stroke-linecap="round" stroke-linejoin="round" stroke-width="2"/>
      <line id="Line_30" data-name="Line 30" y1="21.855" x2="1.024" transform="translate(63.96 73.588)" fill="none" stroke="#060816" stroke-linecap="round" stroke-linejoin="round" stroke-width="2"/>
      <path id="Path_11092" data-name="Path 11092" d="M161.567,61.934a21.093,21.093,0,0,0,12.515-9.265,3.626,3.626,0,0,0,.713-2.675c-.36-1.419-2.107-1.995-3.6-2.093a14.29,14.29,0,0,0-4.476.415c-.671.172-1.424.486-1.6,1.142-.2.753.485,1.457,1.19,1.821,2.868,1.483,6.544.175,8.81-2.088a3.279,3.279,0,0,0,1.214-2.5c-.142-1.317-1.574-2.076-2.848-2.53-7.78-2.767-16.874-.724-23.662-6.129a8.562,8.562,0,0,1-2.941-3.9,4.727,4.727,0,0,1,.824-4.618,4.191,4.191,0,0,1,5.92.046,3.962,3.962,0,0,1,3.561-1.351,3.921,3.921,0,0,1,3.278,3.75c.431,5.949-5.342,8.276-9.913,10.491-5.789,2.805-11.332,6.071-15.346,11.132" transform="translate(-65.304 -22.37)" fill="none" stroke="#060816" stroke-linecap="round" stroke-linejoin="round" stroke-width="2"/>
      <path id="Path_11093" data-name="Path 11093" d="M76.416,35.115a43.206,43.206,0,0,1,12.759,1.544c3.36.929,6.985,2.652,8.043,5.972a3.487,3.487,0,0,1-.334,3.169c-1.205,1.551-3.7,1.06-5.357,0a1.691,1.691,0,0,1-.76-.795,1.544,1.544,0,0,1,.067-.962,6.377,6.377,0,0,1,3.778-3.723A13.464,13.464,0,0,1,100,39.572a27.353,27.353,0,0,1,14.5,4.46c2.308,1.555,4.453,3.7,4.955,6.443a6.9,6.9,0,0,0-.009-6.46c-2.6-4.06-7.5-5.893-12.051-7.494s-9.44-3.5-11.951-7.621c-1.169-1.916-1.572-4.7.1-6.2" transform="translate(-49.743 -20.923)" fill="none" stroke="#060816" stroke-linecap="round" stroke-linejoin="round" stroke-width="2"/>
      <path id="Path_11094" data-name="Path 11094" d="M130.138,20.317a1.445,1.445,0,0,0-1.765,1.393,3.466,3.466,0,0,0,.964,2.011c3.716,4.619,14.815,7.115,10.639,14.9-1.055,1.967-2.539,3.557-3.557,5.554-1.2,2.343-2.232,4.755-3.255,7.176" transform="translate(-63.496 -20.281)" fill="none" stroke="#060816" stroke-linecap="round" stroke-linejoin="round" stroke-width="2"/>
      <path id="Path_11095" data-name="Path 11095" d="M218.133,43.594l-2.213,1.084a1.7,1.7,0,0,1-.937.165l-2.445-.28a1.068,1.068,0,0,0-1.076,1.531l1.082,2.212a1.691,1.691,0,0,1,.163.943l-.28,2.445a1.068,1.068,0,0,0,1.534,1.075l2.212-1.082a1.691,1.691,0,0,1,.943-.163l2.445.281a1.07,1.07,0,0,0,1.076-1.533l-1.084-2.213a1.7,1.7,0,0,1-.164-.937l.279-2.446a1.053,1.053,0,0,0-.441-.993l-.065-.039a1.047,1.047,0,0,0-1.029-.046Z" transform="translate(-85.462 -26.423)" fill="none" stroke="#060816" stroke-linecap="round" stroke-linejoin="round" stroke-width="2"/>
      <path id="Path_11096" data-name="Path 11096" d="M198.652,26.106l-1.518.743a1.164,1.164,0,0,1-.643.113l-1.676-.192a.735.735,0,0,0-.735,1.05l.742,1.517a1.157,1.157,0,0,1,.111.647l-.195,1.676a.735.735,0,0,0,1.052.735l1.517-.742a1.157,1.157,0,0,1,.647-.112l1.676.193a.735.735,0,0,0,.735-1.051l-.74-1.513a1.172,1.172,0,0,1-.112-.642l.191-1.678a.721.721,0,0,0-.305-.682l-.044-.026a.718.718,0,0,0-.7-.032Z" transform="translate(-80.87 -21.804)" fill="none" stroke="#060816" stroke-linecap="round" stroke-linejoin="round" stroke-width="2"/>
      <path id="Path_11097" data-name="Path 11097" d="M50.495,33.192l-1.75,1.735a1.7,1.7,0,0,0-.465.832l-.537,2.4a1.068,1.068,0,0,1-1.8.515l-1.735-1.749a1.691,1.691,0,0,0-.837-.463l-2.4-.538a1.069,1.069,0,0,1-.511-1.8l1.748-1.734a1.691,1.691,0,0,0,.463-.838l.537-2.4a1.07,1.07,0,0,1,1.8-.515l1.735,1.752a1.716,1.716,0,0,0,.832.463l2.4.54a1.051,1.051,0,0,1,.8.746l.016.074a1.048,1.048,0,0,1-.294.986Z" transform="translate(-40.141 -22.409)" fill="none" stroke="#060816" stroke-linecap="round" stroke-linejoin="round" stroke-width="2"/>
      <path id="Path_11098" data-name="Path 11098" d="M64.429,50.338l-1.2,1.19a1.165,1.165,0,0,0-.319.571l-.368,1.646a.735.735,0,0,1-1.235.352l-1.189-1.2a1.162,1.162,0,0,0-.574-.318L57.9,52.212a.735.735,0,0,1-.351-1.236l1.2-1.189a1.154,1.154,0,0,0,.318-.575l.368-1.646a.735.735,0,0,1,1.235-.352l1.19,1.2a1.168,1.168,0,0,0,.57.317l1.648.368a.721.721,0,0,1,.543.515l.011.051a.719.719,0,0,1-.2.676Z" transform="translate(-44.691 -27.353)" fill="none" stroke="#060816" stroke-linecap="round" stroke-linejoin="round" stroke-width="2"/>
    </g>
  </g>
</svg>
