<svg xmlns="http://www.w3.org/2000/svg" width="200" height="123.53" viewBox="0 0 200 123.53">
  <g id="Settings" transform="translate(-1132 -1145.004)">
    <rect id="Container" width="200" height="123.53" transform="translate(1132 1145.004)" fill="none"/>
    <path id="Path_11260" data-name="Path 11260" d="M77.465,3.146c22.355,1.526,39.932,22,54.167,37.32,7.034,7.569,12.547,18.027,9.788,27.983-1.62,5.843-5.87,10.605-10.527,14.489-10.981,9.158-24.635,14.5-38.386,18.425-17.705,5.045-37.3,7.825-54.064.222C16.658,91.7,5.212,64.07,12.623,41.326c4.1-12.6,13.53-22.984,25.039-29.335,12.866-7.1,23.074-10.164,39.8-8.842" transform="translate(1161.065 1153.625)" fill="#eaeaea"/>
    <g id="Illustarion" transform="translate(69.538 -77.508)">
      <path id="Path_10822" data-name="Path 10822" d="M2,81.2c5.18-28.015,24.884-47.6,43.166-52.156,6.226-1.553,8.264-.91,9.514-.056a3.5,3.5,0,0,1,1.514,3.934c-.544,1.415-2.711,2.02-3.665.838a3.418,3.418,0,0,1-.537-2.229A15.478,15.478,0,0,1,55.95,21,10.507,10.507,0,0,1,66.474,18.04" transform="translate(1084 1211)" fill="none" stroke="#060816" stroke-linecap="round" stroke-linejoin="round" stroke-miterlimit="10" stroke-width="2"/>
      <path id="Path_10823" data-name="Path 10823" d="M152.888,80.813c30.7-3.98,35.411-31.83,34.936-40.086a9.161,9.161,0,0,0-1.226-4.466,4.454,4.454,0,0,0-3.89-2.177,2.421,2.421,0,0,0-1.554.648,2.228,2.228,0,0,0,.69,3.337,3.194,3.194,0,0,0,3.619-.735,5.827,5.827,0,0,0,1.486-3.581,10.4,10.4,0,0,0-6.037-10.29" transform="translate(1054.787 1209.865)" fill="none" stroke="#060816" stroke-linecap="round" stroke-linejoin="round" stroke-miterlimit="10" stroke-width="2"/>
      <g id="Gear" transform="translate(1178.627 1230.237)">
        <circle id="Ellipse_98" data-name="Ellipse 98" cx="14.969" cy="14.969" r="14.969" transform="translate(7.493 7.492)" fill="none" stroke="#060816" stroke-linecap="round" stroke-linejoin="round" stroke-miterlimit="10" stroke-width="2"/>
        <circle id="Ellipse_99" data-name="Ellipse 99" cx="4.625" cy="4.625" r="4.625" transform="translate(17.835 17.835)" fill="none" stroke="#060816" stroke-linecap="round" stroke-linejoin="round" stroke-miterlimit="10" stroke-width="2"/>
        <path id="Path_10814" data-name="Path 10814" d="M140.68,25l.177-5.372h6.161L147.195,25" transform="translate(-121.477 -19.629)" fill="none" stroke="#060816" stroke-linecap="round" stroke-linejoin="round" stroke-miterlimit="10" stroke-width="2"/>
        <path id="Path_10815" data-name="Path 10815" d="M140.68,68.674l.177,5.372h6.161l.177-5.372" transform="translate(-121.477 -29.125)" fill="none" stroke="#060816" stroke-linecap="round" stroke-linejoin="round" stroke-miterlimit="10" stroke-width="2"/>
        <path id="Path_10816" data-name="Path 10816" d="M156.848,28.758l3.925-3.673,4.356,4.356-3.673,3.925" transform="translate(-124.607 -20.686)" fill="none" stroke="#060816" stroke-linecap="round" stroke-linejoin="round" stroke-miterlimit="10" stroke-width="2"/>
        <path id="Path_10817" data-name="Path 10817" d="M126,59.61l-3.673,3.925,4.356,4.356,3.925-3.673" transform="translate(-117.923 -27.369)" fill="none" stroke="#060816" stroke-linecap="round" stroke-linejoin="round" stroke-miterlimit="10" stroke-width="2"/>
        <path id="Path_10818" data-name="Path 10818" d="M165.912,43.442l5.372.177V49.78l-5.372.177" transform="translate(-126.361 -24.24)" fill="none" stroke="#060816" stroke-linecap="round" stroke-linejoin="round" stroke-miterlimit="10" stroke-width="2"/>
        <path id="Path_10819" data-name="Path 10819" d="M122.238,43.442l-5.372.177V49.78l5.372.177" transform="translate(-116.866 -24.24)" fill="none" stroke="#060816" stroke-linecap="round" stroke-linejoin="round" stroke-miterlimit="10" stroke-width="2"/>
        <path id="Path_10820" data-name="Path 10820" d="M161.456,59.61l3.673,3.925-4.356,4.356-3.925-3.673" transform="translate(-124.607 -27.369)" fill="none" stroke="#060816" stroke-linecap="round" stroke-linejoin="round" stroke-miterlimit="10" stroke-width="2"/>
        <path id="Path_10821" data-name="Path 10821" d="M130.6,28.758l-3.925-3.673-4.356,4.356L126,33.366" transform="translate(-117.923 -20.686)" fill="none" stroke="#060816" stroke-linecap="round" stroke-linejoin="round" stroke-miterlimit="10" stroke-width="2"/>
      </g>
      <g id="Gear-2" data-name="Gear" transform="translate(1099.084 1257.678)">
        <path id="Path_10805" data-name="Path 10805" d="M90.806,98.545a27.694,27.694,0,1,1-27.695-27.7,27.694,27.694,0,0,1,27.695,27.7Z" transform="translate(-21.554 -56.987)" fill="none" stroke="#060816" stroke-linecap="round" stroke-linejoin="round" stroke-miterlimit="10" stroke-width="2"/>
        <circle id="Ellipse_97" data-name="Ellipse 97" cx="8.557" cy="8.557" r="8.557" transform="translate(33 33)" fill="none" stroke="#060816" stroke-linecap="round" stroke-linejoin="round" stroke-miterlimit="10" stroke-width="2"/>
        <path id="Path_10806" data-name="Path 10806" d="M62.285,63.6l.328-9.94h11.4l.328,9.94" transform="translate(-26.755 -53.66)" fill="none" stroke="#060816" stroke-linecap="round" stroke-linejoin="round" stroke-miterlimit="10" stroke-width="2"/>
        <path id="Path_10807" data-name="Path 10807" d="M62.285,144.4l.328,9.94h11.4l.328-9.94" transform="translate(-26.755 -71.228)" fill="none" stroke="#060816" stroke-linecap="round" stroke-linejoin="round" stroke-miterlimit="10" stroke-width="2"/>
        <path id="Path_10808" data-name="Path 10808" d="M92.2,70.553l7.261-6.8,8.059,8.059-6.8,7.261" transform="translate(-32.547 -55.614)" fill="none" stroke="#060816" stroke-linecap="round" stroke-linejoin="round" stroke-miterlimit="10" stroke-width="2"/>
        <path id="Path_10809" data-name="Path 10809" d="M35.119,127.632l-6.8,7.261,8.059,8.06,7.261-6.795" transform="translate(-20.18 -67.981)" fill="none" stroke="#060816" stroke-linecap="round" stroke-linejoin="round" stroke-miterlimit="10" stroke-width="2"/>
        <path id="Path_10810" data-name="Path 10810" d="M108.968,97.719l9.94.328v11.4l-9.94.328" transform="translate(-35.794 -62.189)" fill="none" stroke="#060816" stroke-linecap="round" stroke-linejoin="round" stroke-miterlimit="10" stroke-width="2"/>
        <path id="Path_10811" data-name="Path 10811" d="M28.166,97.719l-9.94.328v11.4l9.94.328" transform="translate(-18.226 -62.189)" fill="none" stroke="#060816" stroke-linecap="round" stroke-linejoin="round" stroke-miterlimit="10" stroke-width="2"/>
        <path id="Path_10812" data-name="Path 10812" d="M100.723,127.632l6.8,7.261-8.059,8.06L92.2,136.158" transform="translate(-32.547 -67.981)" fill="none" stroke="#060816" stroke-linecap="round" stroke-linejoin="round" stroke-miterlimit="10" stroke-width="2"/>
        <path id="Path_10813" data-name="Path 10813" d="M43.643,70.553l-7.261-6.8-8.059,8.059,6.8,7.261" transform="translate(-20.18 -55.614)" fill="none" stroke="#060816" stroke-linecap="round" stroke-linejoin="round" stroke-miterlimit="10" stroke-width="2"/>
      </g>
    </g>
  </g>
</svg>
